G04 #@! TF.GenerationSoftware,KiCad,Pcbnew,5.1.6-c6e7f7d~86~ubuntu19.10.1*
G04 #@! TF.CreationDate,2021-03-24T16:57:24+01:00*
G04 #@! TF.ProjectId,ESP_12F,4553505f-3132-4462-9e6b-696361645f70,rev?*
G04 #@! TF.SameCoordinates,Original*
G04 #@! TF.FileFunction,Copper,L2,Bot*
G04 #@! TF.FilePolarity,Positive*
%FSLAX46Y46*%
G04 Gerber Fmt 4.6, Leading zero omitted, Abs format (unit mm)*
G04 Created by KiCad (PCBNEW 5.1.6-c6e7f7d~86~ubuntu19.10.1) date 2021-03-24 16:57:24*
%MOMM*%
%LPD*%
G01*
G04 APERTURE LIST*
G04 #@! TA.AperFunction,SMDPad,CuDef*
%ADD10R,1.500000X1.300000*%
G04 #@! TD*
G04 #@! TA.AperFunction,SMDPad,CuDef*
%ADD11R,2.000000X1.600000*%
G04 #@! TD*
G04 #@! TA.AperFunction,ComponentPad*
%ADD12R,1.700000X1.700000*%
G04 #@! TD*
G04 #@! TA.AperFunction,ComponentPad*
%ADD13O,1.700000X1.700000*%
G04 #@! TD*
G04 #@! TA.AperFunction,SMDPad,CuDef*
%ADD14R,1.300000X1.500000*%
G04 #@! TD*
G04 #@! TA.AperFunction,ViaPad*
%ADD15C,0.800000*%
G04 #@! TD*
G04 #@! TA.AperFunction,Conductor*
%ADD16C,0.800000*%
G04 #@! TD*
G04 APERTURE END LIST*
D10*
X191864000Y-80137000D03*
X194564000Y-80137000D03*
D11*
X172466000Y-91694000D03*
X168466000Y-91694000D03*
X195580000Y-133350000D03*
X191580000Y-133350000D03*
D10*
X194644000Y-83947000D03*
X191944000Y-83947000D03*
X168830000Y-104775000D03*
X171530000Y-104775000D03*
X198374000Y-129794000D03*
X195674000Y-129794000D03*
X191944000Y-125603000D03*
X194644000Y-125603000D03*
X194644000Y-104775000D03*
X191944000Y-104775000D03*
D12*
X206502000Y-73152000D03*
D13*
X206502000Y-70612000D03*
X206502000Y-68072000D03*
X206502000Y-65532000D03*
X206502000Y-62992000D03*
X206502000Y-60452000D03*
X206502000Y-57912000D03*
D10*
X171530000Y-63119000D03*
X168830000Y-63119000D03*
X171530000Y-125603000D03*
X168830000Y-125603000D03*
X195674000Y-88138000D03*
X198374000Y-88138000D03*
D14*
X175514000Y-73312000D03*
X175514000Y-70612000D03*
X198628000Y-70612000D03*
X198628000Y-73312000D03*
D13*
X183388000Y-57912000D03*
X183388000Y-60452000D03*
X183388000Y-62992000D03*
X183388000Y-65532000D03*
X183388000Y-68072000D03*
X183388000Y-70612000D03*
D12*
X183388000Y-73152000D03*
D11*
X168466000Y-133350000D03*
X172466000Y-133350000D03*
D10*
X191864000Y-100965000D03*
X194564000Y-100965000D03*
D11*
X191580000Y-91694000D03*
X195580000Y-91694000D03*
D10*
X171450000Y-80137000D03*
X168750000Y-80137000D03*
X191944000Y-63119000D03*
X194644000Y-63119000D03*
X195674000Y-108966000D03*
X198374000Y-108966000D03*
X172560000Y-67310000D03*
X175260000Y-67310000D03*
D11*
X172466000Y-112522000D03*
X168466000Y-112522000D03*
D10*
X171450000Y-100965000D03*
X168750000Y-100965000D03*
D14*
X175514000Y-91440000D03*
X175514000Y-94140000D03*
D11*
X195580000Y-70866000D03*
X191580000Y-70866000D03*
D13*
X206502000Y-78740000D03*
X206502000Y-81280000D03*
X206502000Y-83820000D03*
X206502000Y-86360000D03*
X206502000Y-88900000D03*
X206502000Y-91440000D03*
D12*
X206502000Y-93980000D03*
D14*
X198628000Y-94140000D03*
X198628000Y-91440000D03*
D10*
X194564000Y-121793000D03*
X191864000Y-121793000D03*
X168750000Y-121793000D03*
X171450000Y-121793000D03*
X172560000Y-129794000D03*
X175260000Y-129794000D03*
D12*
X206502000Y-135636000D03*
D13*
X206502000Y-133096000D03*
X206502000Y-130556000D03*
X206502000Y-128016000D03*
X206502000Y-125476000D03*
X206502000Y-122936000D03*
X206502000Y-120396000D03*
D12*
X183388000Y-114808000D03*
D13*
X183388000Y-112268000D03*
X183388000Y-109728000D03*
X183388000Y-107188000D03*
X183388000Y-104648000D03*
X183388000Y-102108000D03*
X183388000Y-99568000D03*
X206502000Y-99568000D03*
X206502000Y-102108000D03*
X206502000Y-104648000D03*
X206502000Y-107188000D03*
X206502000Y-109728000D03*
X206502000Y-112268000D03*
D12*
X206502000Y-114808000D03*
D10*
X168830000Y-83947000D03*
X171530000Y-83947000D03*
X175260000Y-88138000D03*
X172560000Y-88138000D03*
X175260000Y-108966000D03*
X172560000Y-108966000D03*
D14*
X198628000Y-114968000D03*
X198628000Y-112268000D03*
D12*
X183388000Y-93980000D03*
D13*
X183388000Y-91440000D03*
X183388000Y-88900000D03*
X183388000Y-86360000D03*
X183388000Y-83820000D03*
X183388000Y-81280000D03*
X183388000Y-78740000D03*
D14*
X198628000Y-133096000D03*
X198628000Y-135796000D03*
D11*
X191580000Y-112522000D03*
X195580000Y-112522000D03*
D10*
X198374000Y-67310000D03*
X195674000Y-67310000D03*
X194564000Y-59309000D03*
X191864000Y-59309000D03*
X168750000Y-59309000D03*
X171450000Y-59309000D03*
D11*
X168466000Y-70866000D03*
X172466000Y-70866000D03*
D13*
X183388000Y-120396000D03*
X183388000Y-122936000D03*
X183388000Y-125476000D03*
X183388000Y-128016000D03*
X183388000Y-130556000D03*
X183388000Y-133096000D03*
D12*
X183388000Y-135636000D03*
D14*
X175514000Y-135796000D03*
X175514000Y-133096000D03*
X175514000Y-112268000D03*
X175514000Y-114968000D03*
D10*
X238092000Y-121793000D03*
X240792000Y-121793000D03*
D11*
X218694000Y-133350000D03*
X214694000Y-133350000D03*
D10*
X240872000Y-125603000D03*
X238172000Y-125603000D03*
D12*
X252730000Y-114808000D03*
D13*
X252730000Y-112268000D03*
X252730000Y-109728000D03*
X252730000Y-107188000D03*
X252730000Y-104648000D03*
X252730000Y-102108000D03*
X252730000Y-99568000D03*
D10*
X217758000Y-104775000D03*
X215058000Y-104775000D03*
X241902000Y-129794000D03*
X244602000Y-129794000D03*
D14*
X221742000Y-114968000D03*
X221742000Y-112268000D03*
X244856000Y-112268000D03*
X244856000Y-114968000D03*
D13*
X229616000Y-99568000D03*
X229616000Y-102108000D03*
X229616000Y-104648000D03*
X229616000Y-107188000D03*
X229616000Y-109728000D03*
X229616000Y-112268000D03*
D12*
X229616000Y-114808000D03*
D11*
X237808000Y-133350000D03*
X241808000Y-133350000D03*
D10*
X217678000Y-121793000D03*
X214978000Y-121793000D03*
X238172000Y-104775000D03*
X240872000Y-104775000D03*
X218788000Y-108966000D03*
X221488000Y-108966000D03*
D14*
X221742000Y-133096000D03*
X221742000Y-135796000D03*
D11*
X241808000Y-112522000D03*
X237808000Y-112522000D03*
D13*
X252730000Y-120396000D03*
X252730000Y-122936000D03*
X252730000Y-125476000D03*
X252730000Y-128016000D03*
X252730000Y-130556000D03*
X252730000Y-133096000D03*
D12*
X252730000Y-135636000D03*
D14*
X244856000Y-135796000D03*
X244856000Y-133096000D03*
D10*
X215058000Y-125603000D03*
X217758000Y-125603000D03*
X221488000Y-129794000D03*
X218788000Y-129794000D03*
D12*
X229616000Y-135636000D03*
D13*
X229616000Y-133096000D03*
X229616000Y-130556000D03*
X229616000Y-128016000D03*
X229616000Y-125476000D03*
X229616000Y-122936000D03*
X229616000Y-120396000D03*
D10*
X244602000Y-108966000D03*
X241902000Y-108966000D03*
X240792000Y-100965000D03*
X238092000Y-100965000D03*
X214978000Y-100965000D03*
X217678000Y-100965000D03*
D11*
X214694000Y-112522000D03*
X218694000Y-112522000D03*
D12*
X252730000Y-93980000D03*
D13*
X252730000Y-91440000D03*
X252730000Y-88900000D03*
X252730000Y-86360000D03*
X252730000Y-83820000D03*
X252730000Y-81280000D03*
X252730000Y-78740000D03*
D10*
X217758000Y-83947000D03*
X215058000Y-83947000D03*
D14*
X221742000Y-94140000D03*
X221742000Y-91440000D03*
X244856000Y-91440000D03*
X244856000Y-94140000D03*
D13*
X229616000Y-78740000D03*
X229616000Y-81280000D03*
X229616000Y-83820000D03*
X229616000Y-86360000D03*
X229616000Y-88900000D03*
X229616000Y-91440000D03*
D12*
X229616000Y-93980000D03*
D10*
X238172000Y-83947000D03*
X240872000Y-83947000D03*
X218788000Y-88138000D03*
X221488000Y-88138000D03*
D11*
X241808000Y-91694000D03*
X237808000Y-91694000D03*
D10*
X244602000Y-88138000D03*
X241902000Y-88138000D03*
X240792000Y-80137000D03*
X238092000Y-80137000D03*
X214978000Y-80137000D03*
X217678000Y-80137000D03*
D11*
X214694000Y-91694000D03*
X218694000Y-91694000D03*
D12*
X229616000Y-73152000D03*
D13*
X229616000Y-70612000D03*
X229616000Y-68072000D03*
X229616000Y-65532000D03*
X229616000Y-62992000D03*
X229616000Y-60452000D03*
X229616000Y-57912000D03*
D14*
X221742000Y-70612000D03*
X221742000Y-73312000D03*
D10*
X215058000Y-63119000D03*
X217758000Y-63119000D03*
D11*
X218694000Y-70866000D03*
X214694000Y-70866000D03*
D10*
X221488000Y-67310000D03*
X218788000Y-67310000D03*
X217678000Y-59309000D03*
X214978000Y-59309000D03*
D13*
X252730000Y-57912000D03*
X252730000Y-60452000D03*
X252730000Y-62992000D03*
X252730000Y-65532000D03*
X252730000Y-68072000D03*
X252730000Y-70612000D03*
D12*
X252730000Y-73152000D03*
D11*
X237808000Y-70866000D03*
X241808000Y-70866000D03*
D10*
X240872000Y-63119000D03*
X238172000Y-63119000D03*
X238092000Y-59309000D03*
X240792000Y-59309000D03*
X241902000Y-67310000D03*
X244602000Y-67310000D03*
D14*
X244856000Y-73312000D03*
X244856000Y-70612000D03*
D15*
X236444000Y-73182000D03*
X213330000Y-73182000D03*
X236444000Y-94010000D03*
X213330000Y-94010000D03*
X213330000Y-135666000D03*
X236444000Y-114838000D03*
X236444000Y-135666000D03*
X213330000Y-114838000D03*
X167102000Y-135666000D03*
X167102000Y-94010000D03*
X190216000Y-114838000D03*
X190216000Y-135666000D03*
X190216000Y-73182000D03*
X190216000Y-94010000D03*
X167102000Y-114838000D03*
X167102000Y-73182000D03*
X246220000Y-73312000D03*
X223106000Y-73312000D03*
X246220000Y-94140000D03*
X223106000Y-94140000D03*
X246220000Y-135796000D03*
X246220000Y-114968000D03*
X223106000Y-114968000D03*
X223106000Y-135796000D03*
X199992000Y-94140000D03*
X199992000Y-73312000D03*
X199992000Y-135796000D03*
X176878000Y-114968000D03*
X176878000Y-135796000D03*
X199992000Y-114968000D03*
X176878000Y-73312000D03*
X176878000Y-94140000D03*
X236410000Y-63182000D03*
X213296000Y-63182000D03*
X213296000Y-84010000D03*
X236410000Y-84010000D03*
X213296000Y-104838000D03*
X236410000Y-125666000D03*
X213296000Y-125666000D03*
X236410000Y-104838000D03*
X167068000Y-63182000D03*
X190182000Y-84010000D03*
X190182000Y-104838000D03*
X167068000Y-125666000D03*
X167068000Y-84010000D03*
X190182000Y-63182000D03*
X167068000Y-104838000D03*
X190182000Y-125666000D03*
X236406001Y-59067001D03*
X213292001Y-59067001D03*
X236406001Y-79895001D03*
X213292001Y-79895001D03*
X236406001Y-100723001D03*
X213292001Y-100723001D03*
X236406001Y-121551001D03*
X213292001Y-121551001D03*
X167064001Y-121551001D03*
X190178001Y-59067001D03*
X167064001Y-59067001D03*
X190178001Y-79895001D03*
X167064001Y-79895001D03*
X190178001Y-121551001D03*
X190178001Y-100723001D03*
X167064001Y-100723001D03*
X246380000Y-70612000D03*
X223266000Y-70612000D03*
X246380000Y-91440000D03*
X223266000Y-91440000D03*
X223266000Y-133096000D03*
X246380000Y-112268000D03*
X223266000Y-112268000D03*
X246380000Y-133096000D03*
X200152000Y-112268000D03*
X200152000Y-133096000D03*
X177038000Y-91440000D03*
X200152000Y-70612000D03*
X177038000Y-70612000D03*
X177038000Y-112268000D03*
X177038000Y-133096000D03*
X200152000Y-91440000D03*
X246126000Y-67310000D03*
X223012000Y-67310000D03*
X223012000Y-88138000D03*
X246126000Y-88138000D03*
X246126000Y-129794000D03*
X223012000Y-108966000D03*
X246126000Y-108966000D03*
X223012000Y-129794000D03*
X176784000Y-108966000D03*
X199898000Y-108966000D03*
X199898000Y-88138000D03*
X176784000Y-67310000D03*
X199898000Y-129794000D03*
X199898000Y-67310000D03*
X176784000Y-129794000D03*
X176784000Y-88138000D03*
D16*
X240951999Y-63039001D02*
X240872000Y-63119000D01*
X252523001Y-63039001D02*
X240951999Y-63039001D01*
X240872000Y-59389000D02*
X240792000Y-59309000D01*
X240872000Y-63119000D02*
X240872000Y-59389000D01*
X236444000Y-73182000D02*
X237397000Y-73182000D01*
X237397000Y-71277000D02*
X237808000Y-70866000D01*
X237397000Y-73182000D02*
X237397000Y-71277000D01*
X237808000Y-70866000D02*
X237808000Y-69278000D01*
X237808000Y-69278000D02*
X239776000Y-67310000D01*
X240872000Y-63119000D02*
X240872000Y-66882000D01*
X240872000Y-66882000D02*
X241300000Y-67310000D01*
X241300000Y-67310000D02*
X241902000Y-67310000D01*
X239776000Y-67310000D02*
X241300000Y-67310000D01*
X217758000Y-63119000D02*
X217758000Y-59389000D01*
X217758000Y-59389000D02*
X217678000Y-59309000D01*
X217758000Y-63119000D02*
X217758000Y-66882000D01*
X214694000Y-69278000D02*
X216662000Y-67310000D01*
X216662000Y-67310000D02*
X218186000Y-67310000D01*
X214283000Y-71277000D02*
X214694000Y-70866000D01*
X217758000Y-66882000D02*
X218186000Y-67310000D01*
X218186000Y-67310000D02*
X218788000Y-67310000D01*
X229409001Y-63039001D02*
X217837999Y-63039001D01*
X217837999Y-63039001D02*
X217758000Y-63119000D01*
X214283000Y-73182000D02*
X214283000Y-71277000D01*
X213330000Y-73182000D02*
X214283000Y-73182000D01*
X214694000Y-70866000D02*
X214694000Y-69278000D01*
X240872000Y-83947000D02*
X240872000Y-80217000D01*
X213330000Y-94010000D02*
X214283000Y-94010000D01*
X217758000Y-83947000D02*
X217758000Y-80217000D01*
X240872000Y-80217000D02*
X240792000Y-80137000D01*
X217837999Y-83867001D02*
X217758000Y-83947000D01*
X214694000Y-90106000D02*
X216662000Y-88138000D01*
X240872000Y-83947000D02*
X240872000Y-87710000D01*
X237808000Y-90106000D02*
X239776000Y-88138000D01*
X239776000Y-88138000D02*
X241300000Y-88138000D01*
X237397000Y-92105000D02*
X237808000Y-91694000D01*
X240872000Y-87710000D02*
X241300000Y-88138000D01*
X214283000Y-92105000D02*
X214694000Y-91694000D01*
X241300000Y-88138000D02*
X241902000Y-88138000D01*
X252523001Y-83867001D02*
X240951999Y-83867001D01*
X218186000Y-88138000D02*
X218788000Y-88138000D01*
X229409001Y-83867001D02*
X217837999Y-83867001D01*
X240951999Y-83867001D02*
X240872000Y-83947000D01*
X237397000Y-94010000D02*
X237397000Y-92105000D01*
X214694000Y-91694000D02*
X214694000Y-90106000D01*
X236444000Y-94010000D02*
X237397000Y-94010000D01*
X214283000Y-94010000D02*
X214283000Y-92105000D01*
X237808000Y-91694000D02*
X237808000Y-90106000D01*
X216662000Y-88138000D02*
X218186000Y-88138000D01*
X217758000Y-80217000D02*
X217678000Y-80137000D01*
X217758000Y-87710000D02*
X218186000Y-88138000D01*
X217758000Y-83947000D02*
X217758000Y-87710000D01*
X239776000Y-129794000D02*
X241300000Y-129794000D01*
X213330000Y-135666000D02*
X214283000Y-135666000D01*
X240872000Y-104775000D02*
X240872000Y-101045000D01*
X213330000Y-114838000D02*
X214283000Y-114838000D01*
X237808000Y-131762000D02*
X239776000Y-129794000D01*
X217758000Y-104775000D02*
X217758000Y-101045000D01*
X240872000Y-101045000D02*
X240792000Y-100965000D01*
X217837999Y-104695001D02*
X217758000Y-104775000D01*
X236444000Y-135666000D02*
X237397000Y-135666000D01*
X217758000Y-129366000D02*
X218186000Y-129794000D01*
X214694000Y-110934000D02*
X216662000Y-108966000D01*
X240872000Y-104775000D02*
X240872000Y-108538000D01*
X237808000Y-110934000D02*
X239776000Y-108966000D01*
X239776000Y-108966000D02*
X241300000Y-108966000D01*
X240951999Y-125523001D02*
X240872000Y-125603000D01*
X237397000Y-135666000D02*
X237397000Y-133761000D01*
X240872000Y-125603000D02*
X240872000Y-129366000D01*
X214283000Y-135666000D02*
X214283000Y-133761000D01*
X237397000Y-112933000D02*
X237808000Y-112522000D01*
X240872000Y-108538000D02*
X241300000Y-108966000D01*
X214283000Y-112933000D02*
X214694000Y-112522000D01*
X217758000Y-121873000D02*
X217678000Y-121793000D01*
X217758000Y-125603000D02*
X217758000Y-121873000D01*
X240872000Y-121873000D02*
X240792000Y-121793000D01*
X217837999Y-125523001D02*
X217758000Y-125603000D01*
X214694000Y-131762000D02*
X216662000Y-129794000D01*
X218186000Y-129794000D02*
X218788000Y-129794000D01*
X229409001Y-125523001D02*
X217837999Y-125523001D01*
X241300000Y-108966000D02*
X241902000Y-108966000D01*
X240872000Y-125603000D02*
X240872000Y-121873000D01*
X252523001Y-104695001D02*
X240951999Y-104695001D01*
X218186000Y-108966000D02*
X218788000Y-108966000D01*
X229409001Y-104695001D02*
X217837999Y-104695001D01*
X241300000Y-129794000D02*
X241902000Y-129794000D01*
X252523001Y-125523001D02*
X240951999Y-125523001D01*
X240951999Y-104695001D02*
X240872000Y-104775000D01*
X237397000Y-114838000D02*
X237397000Y-112933000D01*
X237808000Y-133350000D02*
X237808000Y-131762000D01*
X214694000Y-112522000D02*
X214694000Y-110934000D01*
X236444000Y-114838000D02*
X237397000Y-114838000D01*
X214283000Y-114838000D02*
X214283000Y-112933000D01*
X237808000Y-112522000D02*
X237808000Y-110934000D01*
X217758000Y-125603000D02*
X217758000Y-129366000D01*
X216662000Y-108966000D02*
X218186000Y-108966000D01*
X217758000Y-101045000D02*
X217678000Y-100965000D01*
X214694000Y-133350000D02*
X214694000Y-131762000D01*
X217758000Y-108538000D02*
X218186000Y-108966000D01*
X237397000Y-133761000D02*
X237808000Y-133350000D01*
X240872000Y-129366000D02*
X241300000Y-129794000D01*
X214283000Y-133761000D02*
X214694000Y-133350000D01*
X216662000Y-129794000D02*
X218186000Y-129794000D01*
X217758000Y-104775000D02*
X217758000Y-108538000D01*
X193548000Y-88138000D02*
X195072000Y-88138000D01*
X167102000Y-94010000D02*
X168055000Y-94010000D01*
X191580000Y-110934000D02*
X193548000Y-108966000D01*
X194644000Y-63119000D02*
X194644000Y-59389000D01*
X168055000Y-135666000D02*
X168055000Y-133761000D01*
X191580000Y-131762000D02*
X193548000Y-129794000D01*
X167102000Y-73182000D02*
X168055000Y-73182000D01*
X191580000Y-90106000D02*
X193548000Y-88138000D01*
X171530000Y-63119000D02*
X171530000Y-59389000D01*
X194644000Y-59389000D02*
X194564000Y-59309000D01*
X171609999Y-63039001D02*
X171530000Y-63119000D01*
X190216000Y-94010000D02*
X191169000Y-94010000D01*
X195072000Y-108966000D02*
X195674000Y-108966000D01*
X194644000Y-125603000D02*
X194644000Y-121873000D01*
X206295001Y-104695001D02*
X194723999Y-104695001D01*
X171530000Y-87710000D02*
X171958000Y-88138000D01*
X168466000Y-69278000D02*
X170434000Y-67310000D01*
X194644000Y-63119000D02*
X194644000Y-66882000D01*
X191580000Y-69278000D02*
X193548000Y-67310000D01*
X168466000Y-110934000D02*
X170434000Y-108966000D01*
X194723999Y-104695001D02*
X194644000Y-104775000D01*
X193548000Y-67310000D02*
X195072000Y-67310000D01*
X168055000Y-114838000D02*
X168055000Y-112933000D01*
X191580000Y-112522000D02*
X191580000Y-110934000D01*
X171530000Y-125603000D02*
X171530000Y-129366000D01*
X195072000Y-129794000D02*
X195674000Y-129794000D01*
X206295001Y-125523001D02*
X194723999Y-125523001D01*
X194723999Y-83867001D02*
X194644000Y-83947000D01*
X191169000Y-94010000D02*
X191169000Y-92105000D01*
X194644000Y-83947000D02*
X194644000Y-87710000D01*
X191169000Y-135666000D02*
X191169000Y-133761000D01*
X170434000Y-108966000D02*
X171958000Y-108966000D01*
X171530000Y-101045000D02*
X171450000Y-100965000D01*
X168466000Y-133350000D02*
X168466000Y-131762000D01*
X168055000Y-94010000D02*
X168055000Y-92105000D01*
X171958000Y-129794000D02*
X172560000Y-129794000D01*
X183181001Y-125523001D02*
X171609999Y-125523001D01*
X194644000Y-101045000D02*
X194564000Y-100965000D01*
X171609999Y-104695001D02*
X171530000Y-104775000D01*
X190216000Y-135666000D02*
X191169000Y-135666000D01*
X171530000Y-129366000D02*
X171958000Y-129794000D01*
X191169000Y-71277000D02*
X191580000Y-70866000D01*
X168466000Y-112522000D02*
X168466000Y-110934000D01*
X194644000Y-66882000D02*
X195072000Y-67310000D01*
X168055000Y-71277000D02*
X168466000Y-70866000D01*
X167102000Y-135666000D02*
X168055000Y-135666000D01*
X191169000Y-112933000D02*
X191580000Y-112522000D01*
X194644000Y-108538000D02*
X195072000Y-108966000D01*
X168055000Y-112933000D02*
X168466000Y-112522000D01*
X191169000Y-114838000D02*
X191169000Y-112933000D01*
X171530000Y-80217000D02*
X171450000Y-80137000D01*
X167102000Y-114838000D02*
X168055000Y-114838000D01*
X171530000Y-83947000D02*
X171530000Y-80217000D01*
X194644000Y-80217000D02*
X194564000Y-80137000D01*
X171609999Y-83867001D02*
X171530000Y-83947000D01*
X168466000Y-90106000D02*
X170434000Y-88138000D01*
X171958000Y-88138000D02*
X172560000Y-88138000D01*
X183181001Y-83867001D02*
X171609999Y-83867001D01*
X171958000Y-108966000D02*
X172560000Y-108966000D01*
X183181001Y-104695001D02*
X171609999Y-104695001D01*
X195072000Y-67310000D02*
X195674000Y-67310000D01*
X194644000Y-83947000D02*
X194644000Y-80217000D01*
X206295001Y-63039001D02*
X194723999Y-63039001D01*
X171958000Y-67310000D02*
X172560000Y-67310000D01*
X183181001Y-63039001D02*
X171609999Y-63039001D01*
X195072000Y-88138000D02*
X195674000Y-88138000D01*
X206295001Y-83867001D02*
X194723999Y-83867001D01*
X194644000Y-104775000D02*
X194644000Y-108538000D01*
X194723999Y-63039001D02*
X194644000Y-63119000D01*
X190216000Y-114838000D02*
X191169000Y-114838000D01*
X191169000Y-73182000D02*
X191169000Y-71277000D01*
X171530000Y-108538000D02*
X171958000Y-108966000D01*
X171530000Y-121873000D02*
X171450000Y-121793000D01*
X193548000Y-108966000D02*
X195072000Y-108966000D01*
X191580000Y-133350000D02*
X191580000Y-131762000D01*
X171530000Y-104775000D02*
X171530000Y-108538000D01*
X194644000Y-104775000D02*
X194644000Y-101045000D01*
X193548000Y-129794000D02*
X195072000Y-129794000D01*
X191580000Y-91694000D02*
X191580000Y-90106000D01*
X194723999Y-125523001D02*
X194644000Y-125603000D01*
X168466000Y-70866000D02*
X168466000Y-69278000D01*
X190216000Y-73182000D02*
X191169000Y-73182000D01*
X171530000Y-125603000D02*
X171530000Y-121873000D01*
X194644000Y-121873000D02*
X194564000Y-121793000D01*
X171609999Y-125523001D02*
X171530000Y-125603000D01*
X168466000Y-131762000D02*
X170434000Y-129794000D01*
X168055000Y-73182000D02*
X168055000Y-71277000D01*
X191169000Y-133761000D02*
X191580000Y-133350000D01*
X194644000Y-129366000D02*
X195072000Y-129794000D01*
X168055000Y-133761000D02*
X168466000Y-133350000D01*
X170434000Y-129794000D02*
X171958000Y-129794000D01*
X191580000Y-70866000D02*
X191580000Y-69278000D01*
X171530000Y-104775000D02*
X171530000Y-101045000D01*
X171530000Y-83947000D02*
X171530000Y-87710000D01*
X170434000Y-67310000D02*
X171958000Y-67310000D01*
X194644000Y-125603000D02*
X194644000Y-129366000D01*
X171530000Y-59389000D02*
X171450000Y-59309000D01*
X168466000Y-91694000D02*
X168466000Y-90106000D01*
X171530000Y-66882000D02*
X171958000Y-67310000D01*
X191169000Y-92105000D02*
X191580000Y-91694000D01*
X194644000Y-87710000D02*
X195072000Y-88138000D01*
X168055000Y-92105000D02*
X168466000Y-91694000D01*
X170434000Y-88138000D02*
X171958000Y-88138000D01*
X171530000Y-63119000D02*
X171530000Y-66882000D01*
X241808000Y-70866000D02*
X241808000Y-72390000D01*
X242730000Y-73312000D02*
X244856000Y-73312000D01*
X241808000Y-72390000D02*
X242730000Y-73312000D01*
X244856000Y-73312000D02*
X246220000Y-73312000D01*
X246220000Y-73312000D02*
X246220000Y-73312000D01*
X218694000Y-70866000D02*
X218694000Y-72390000D01*
X223106000Y-73312000D02*
X223106000Y-73312000D01*
X219616000Y-73312000D02*
X221742000Y-73312000D01*
X218694000Y-72390000D02*
X219616000Y-73312000D01*
X221742000Y-73312000D02*
X223106000Y-73312000D01*
X218694000Y-91694000D02*
X218694000Y-93218000D01*
X223106000Y-94140000D02*
X223106000Y-94140000D01*
X219616000Y-94140000D02*
X221742000Y-94140000D01*
X241808000Y-91694000D02*
X241808000Y-93218000D01*
X246220000Y-94140000D02*
X246220000Y-94140000D01*
X242730000Y-94140000D02*
X244856000Y-94140000D01*
X221742000Y-94140000D02*
X223106000Y-94140000D01*
X218694000Y-93218000D02*
X219616000Y-94140000D01*
X241808000Y-93218000D02*
X242730000Y-94140000D01*
X244856000Y-94140000D02*
X246220000Y-94140000D01*
X241808000Y-133350000D02*
X241808000Y-134874000D01*
X218694000Y-112522000D02*
X218694000Y-114046000D01*
X223106000Y-114968000D02*
X223106000Y-114968000D01*
X219616000Y-114968000D02*
X221742000Y-114968000D01*
X246220000Y-135796000D02*
X246220000Y-135796000D01*
X244856000Y-135796000D02*
X246220000Y-135796000D01*
X241808000Y-112522000D02*
X241808000Y-114046000D01*
X246220000Y-114968000D02*
X246220000Y-114968000D01*
X221742000Y-135796000D02*
X223106000Y-135796000D01*
X242730000Y-114968000D02*
X244856000Y-114968000D01*
X221742000Y-114968000D02*
X223106000Y-114968000D01*
X223106000Y-135796000D02*
X223106000Y-135796000D01*
X218694000Y-114046000D02*
X219616000Y-114968000D01*
X241808000Y-114046000D02*
X242730000Y-114968000D01*
X218694000Y-133350000D02*
X218694000Y-134874000D01*
X242730000Y-135796000D02*
X244856000Y-135796000D01*
X218694000Y-134874000D02*
X219616000Y-135796000D01*
X244856000Y-114968000D02*
X246220000Y-114968000D01*
X241808000Y-134874000D02*
X242730000Y-135796000D01*
X219616000Y-135796000D02*
X221742000Y-135796000D01*
X175514000Y-114968000D02*
X176878000Y-114968000D01*
X198628000Y-135796000D02*
X199992000Y-135796000D01*
X195580000Y-91694000D02*
X195580000Y-93218000D01*
X172466000Y-70866000D02*
X172466000Y-72390000D01*
X176878000Y-73312000D02*
X176878000Y-73312000D01*
X195580000Y-112522000D02*
X195580000Y-114046000D01*
X199992000Y-114968000D02*
X199992000Y-114968000D01*
X175514000Y-135796000D02*
X176878000Y-135796000D01*
X173388000Y-73312000D02*
X175514000Y-73312000D01*
X199992000Y-94140000D02*
X199992000Y-94140000D01*
X198628000Y-94140000D02*
X199992000Y-94140000D01*
X172466000Y-134874000D02*
X173388000Y-135796000D01*
X195580000Y-70866000D02*
X195580000Y-72390000D01*
X199992000Y-73312000D02*
X199992000Y-73312000D01*
X175514000Y-94140000D02*
X176878000Y-94140000D01*
X172466000Y-114046000D02*
X173388000Y-114968000D01*
X196502000Y-73312000D02*
X198628000Y-73312000D01*
X175514000Y-73312000D02*
X176878000Y-73312000D01*
X176878000Y-94140000D02*
X176878000Y-94140000D01*
X198628000Y-114968000D02*
X199992000Y-114968000D01*
X172466000Y-72390000D02*
X173388000Y-73312000D01*
X176878000Y-135796000D02*
X176878000Y-135796000D01*
X195580000Y-72390000D02*
X196502000Y-73312000D01*
X172466000Y-133350000D02*
X172466000Y-134874000D01*
X172466000Y-91694000D02*
X172466000Y-93218000D01*
X196502000Y-94140000D02*
X198628000Y-94140000D01*
X172466000Y-93218000D02*
X173388000Y-94140000D01*
X195580000Y-134874000D02*
X196502000Y-135796000D01*
X196502000Y-114968000D02*
X198628000Y-114968000D01*
X195580000Y-133350000D02*
X195580000Y-134874000D01*
X172466000Y-112522000D02*
X172466000Y-114046000D01*
X198628000Y-73312000D02*
X199992000Y-73312000D01*
X195580000Y-114046000D02*
X196502000Y-114968000D01*
X173388000Y-135796000D02*
X175514000Y-135796000D01*
X176878000Y-114968000D02*
X176878000Y-114968000D01*
X173388000Y-114968000D02*
X175514000Y-114968000D01*
X199992000Y-135796000D02*
X199992000Y-135796000D01*
X196502000Y-135796000D02*
X198628000Y-135796000D01*
X195580000Y-93218000D02*
X196502000Y-94140000D01*
X173388000Y-94140000D02*
X175514000Y-94140000D01*
X238172000Y-63119000D02*
X236601000Y-63119000D01*
X215058000Y-63119000D02*
X213487000Y-63119000D01*
X215058000Y-83947000D02*
X213487000Y-83947000D01*
X238172000Y-83947000D02*
X236601000Y-83947000D01*
X215058000Y-104775000D02*
X213487000Y-104775000D01*
X238172000Y-125603000D02*
X236601000Y-125603000D01*
X215058000Y-125603000D02*
X213487000Y-125603000D01*
X238172000Y-104775000D02*
X236601000Y-104775000D01*
X191944000Y-104775000D02*
X190373000Y-104775000D01*
X168830000Y-63119000D02*
X167259000Y-63119000D01*
X191944000Y-83947000D02*
X190373000Y-83947000D01*
X191944000Y-125603000D02*
X190373000Y-125603000D01*
X168830000Y-83947000D02*
X167259000Y-83947000D01*
X168830000Y-125603000D02*
X167259000Y-125603000D01*
X191944000Y-63119000D02*
X190373000Y-63119000D01*
X168830000Y-104775000D02*
X167259000Y-104775000D01*
X237850001Y-59067001D02*
X238092000Y-59309000D01*
X236406001Y-59067001D02*
X237850001Y-59067001D01*
X213292001Y-59067001D02*
X214736001Y-59067001D01*
X214736001Y-59067001D02*
X214978000Y-59309000D01*
X236406001Y-79895001D02*
X237850001Y-79895001D01*
X214736001Y-79895001D02*
X214978000Y-80137000D01*
X237850001Y-79895001D02*
X238092000Y-80137000D01*
X213292001Y-79895001D02*
X214736001Y-79895001D01*
X236406001Y-100723001D02*
X237850001Y-100723001D01*
X214736001Y-100723001D02*
X214978000Y-100965000D01*
X213292001Y-121551001D02*
X214736001Y-121551001D01*
X237850001Y-100723001D02*
X238092000Y-100965000D01*
X236406001Y-121551001D02*
X237850001Y-121551001D01*
X213292001Y-100723001D02*
X214736001Y-100723001D01*
X214736001Y-121551001D02*
X214978000Y-121793000D01*
X237850001Y-121551001D02*
X238092000Y-121793000D01*
X190178001Y-59067001D02*
X191622001Y-59067001D01*
X168508001Y-59067001D02*
X168750000Y-59309000D01*
X191622001Y-100723001D02*
X191864000Y-100965000D01*
X167064001Y-79895001D02*
X168508001Y-79895001D01*
X191622001Y-59067001D02*
X191864000Y-59309000D01*
X190178001Y-79895001D02*
X191622001Y-79895001D01*
X167064001Y-59067001D02*
X168508001Y-59067001D01*
X167064001Y-100723001D02*
X168508001Y-100723001D01*
X168508001Y-79895001D02*
X168750000Y-80137000D01*
X191622001Y-79895001D02*
X191864000Y-80137000D01*
X168508001Y-121551001D02*
X168750000Y-121793000D01*
X167064001Y-121551001D02*
X168508001Y-121551001D01*
X190178001Y-100723001D02*
X191622001Y-100723001D01*
X168508001Y-100723001D02*
X168750000Y-100965000D01*
X190178001Y-121551001D02*
X191622001Y-121551001D01*
X191622001Y-121551001D02*
X191864000Y-121793000D01*
X244856000Y-70612000D02*
X246380000Y-70612000D01*
X246380000Y-70612000D02*
X246380000Y-70612000D01*
X221742000Y-70612000D02*
X223266000Y-70612000D01*
X223266000Y-70612000D02*
X223266000Y-70612000D01*
X244856000Y-91440000D02*
X246380000Y-91440000D01*
X246380000Y-91440000D02*
X246380000Y-91440000D01*
X221742000Y-91440000D02*
X223266000Y-91440000D01*
X223266000Y-91440000D02*
X223266000Y-91440000D01*
X223266000Y-133096000D02*
X223266000Y-133096000D01*
X244856000Y-112268000D02*
X246380000Y-112268000D01*
X246380000Y-112268000D02*
X246380000Y-112268000D01*
X221742000Y-112268000D02*
X223266000Y-112268000D01*
X221742000Y-133096000D02*
X223266000Y-133096000D01*
X244856000Y-133096000D02*
X246380000Y-133096000D01*
X223266000Y-112268000D02*
X223266000Y-112268000D01*
X246380000Y-133096000D02*
X246380000Y-133096000D01*
X200152000Y-112268000D02*
X200152000Y-112268000D01*
X198628000Y-112268000D02*
X200152000Y-112268000D01*
X198628000Y-133096000D02*
X200152000Y-133096000D01*
X177038000Y-91440000D02*
X177038000Y-91440000D01*
X175514000Y-133096000D02*
X177038000Y-133096000D01*
X177038000Y-133096000D02*
X177038000Y-133096000D01*
X198628000Y-70612000D02*
X200152000Y-70612000D01*
X200152000Y-70612000D02*
X200152000Y-70612000D01*
X175514000Y-70612000D02*
X177038000Y-70612000D01*
X175514000Y-91440000D02*
X177038000Y-91440000D01*
X177038000Y-112268000D02*
X177038000Y-112268000D01*
X175514000Y-112268000D02*
X177038000Y-112268000D01*
X198628000Y-91440000D02*
X200152000Y-91440000D01*
X200152000Y-133096000D02*
X200152000Y-133096000D01*
X177038000Y-70612000D02*
X177038000Y-70612000D01*
X200152000Y-91440000D02*
X200152000Y-91440000D01*
X244602000Y-67310000D02*
X246126000Y-67310000D01*
X246126000Y-67310000D02*
X246126000Y-67310000D01*
X223012000Y-67310000D02*
X223012000Y-67310000D01*
X221488000Y-67310000D02*
X223012000Y-67310000D01*
X246126000Y-88138000D02*
X246126000Y-88138000D01*
X244602000Y-88138000D02*
X246126000Y-88138000D01*
X223012000Y-88138000D02*
X223012000Y-88138000D01*
X221488000Y-88138000D02*
X223012000Y-88138000D01*
X221488000Y-129794000D02*
X223012000Y-129794000D01*
X246126000Y-108966000D02*
X246126000Y-108966000D01*
X244602000Y-129794000D02*
X246126000Y-129794000D01*
X246126000Y-129794000D02*
X246126000Y-129794000D01*
X244602000Y-108966000D02*
X246126000Y-108966000D01*
X223012000Y-108966000D02*
X223012000Y-108966000D01*
X221488000Y-108966000D02*
X223012000Y-108966000D01*
X223012000Y-129794000D02*
X223012000Y-129794000D01*
X175260000Y-129794000D02*
X176784000Y-129794000D01*
X198374000Y-108966000D02*
X199898000Y-108966000D01*
X176784000Y-129794000D02*
X176784000Y-129794000D01*
X175260000Y-88138000D02*
X176784000Y-88138000D01*
X198374000Y-129794000D02*
X199898000Y-129794000D01*
X199898000Y-129794000D02*
X199898000Y-129794000D01*
X199898000Y-67310000D02*
X199898000Y-67310000D01*
X199898000Y-108966000D02*
X199898000Y-108966000D01*
X198374000Y-88138000D02*
X199898000Y-88138000D01*
X199898000Y-88138000D02*
X199898000Y-88138000D01*
X198374000Y-67310000D02*
X199898000Y-67310000D01*
X176784000Y-67310000D02*
X176784000Y-67310000D01*
X175260000Y-108966000D02*
X176784000Y-108966000D01*
X176784000Y-108966000D02*
X176784000Y-108966000D01*
X175260000Y-67310000D02*
X176784000Y-67310000D01*
X176784000Y-88138000D02*
X176784000Y-88138000D01*
M02*
