G04 #@! TF.GenerationSoftware,KiCad,Pcbnew,5.1.6-c6e7f7d~86~ubuntu19.10.1*
G04 #@! TF.CreationDate,2021-03-24T16:57:24+01:00*
G04 #@! TF.ProjectId,ESP_12F,4553505f-3132-4462-9e6b-696361645f70,rev?*
G04 #@! TF.SameCoordinates,Original*
G04 #@! TF.FileFunction,Profile,NP*
%FSLAX46Y46*%
G04 Gerber Fmt 4.6, Leading zero omitted, Abs format (unit mm)*
G04 Created by KiCad (PCBNEW 5.1.6-c6e7f7d~86~ubuntu19.10.1) date 2021-03-24 16:57:24*
%MOMM*%
%LPD*%
G01*
G04 APERTURE LIST*
G04 #@! TA.AperFunction,Profile*
%ADD10C,0.150000*%
G04 #@! TD*
G04 APERTURE END LIST*
D10*
X185928000Y-138430000D02*
X208280000Y-138430000D01*
X162814000Y-75946000D02*
X185166000Y-75946000D01*
X185928000Y-117602000D02*
X208280000Y-117602000D01*
X185166000Y-117602000D02*
X185166000Y-97536000D01*
X162814000Y-76708000D02*
X162814000Y-96774000D01*
X185928000Y-75946000D02*
X208280000Y-75946000D01*
X185166000Y-138430000D02*
X185166000Y-118364000D01*
X185928000Y-76708000D02*
X185928000Y-96774000D01*
X208280000Y-75946000D02*
X208280000Y-55880000D01*
X185928000Y-118364000D02*
X185928000Y-138430000D01*
X208280000Y-76708000D02*
X185928000Y-76708000D01*
X162814000Y-118364000D02*
X162814000Y-138430000D01*
X185928000Y-55880000D02*
X185928000Y-75946000D01*
X162814000Y-117602000D02*
X185166000Y-117602000D01*
X185166000Y-118364000D02*
X162814000Y-118364000D01*
X185166000Y-76708000D02*
X162814000Y-76708000D01*
X208280000Y-118364000D02*
X185928000Y-118364000D01*
X185928000Y-97536000D02*
X185928000Y-117602000D01*
X208280000Y-97536000D02*
X185928000Y-97536000D01*
X185166000Y-97536000D02*
X162814000Y-97536000D01*
X162814000Y-97536000D02*
X162814000Y-117602000D01*
X185166000Y-55880000D02*
X162814000Y-55880000D01*
X208280000Y-138430000D02*
X208280000Y-118364000D01*
X185166000Y-75946000D02*
X185166000Y-55880000D01*
X185928000Y-96774000D02*
X208280000Y-96774000D01*
X162814000Y-138430000D02*
X185166000Y-138430000D01*
X208280000Y-55880000D02*
X185928000Y-55880000D01*
X162814000Y-55880000D02*
X162814000Y-75946000D01*
X208280000Y-96774000D02*
X208280000Y-76708000D01*
X162814000Y-96774000D02*
X185166000Y-96774000D01*
X208280000Y-117602000D02*
X208280000Y-97536000D01*
X185166000Y-96774000D02*
X185166000Y-76708000D01*
X209042000Y-117602000D02*
X231394000Y-117602000D01*
X209042000Y-118364000D02*
X209042000Y-138430000D01*
X232156000Y-117602000D02*
X254508000Y-117602000D01*
X232156000Y-118364000D02*
X232156000Y-138430000D01*
X254508000Y-117602000D02*
X254508000Y-97536000D01*
X254508000Y-118364000D02*
X232156000Y-118364000D01*
X232156000Y-97536000D02*
X232156000Y-117602000D01*
X231394000Y-118364000D02*
X209042000Y-118364000D01*
X231394000Y-97536000D02*
X209042000Y-97536000D01*
X231394000Y-117602000D02*
X231394000Y-97536000D01*
X232156000Y-138430000D02*
X254508000Y-138430000D01*
X254508000Y-97536000D02*
X232156000Y-97536000D01*
X209042000Y-97536000D02*
X209042000Y-117602000D01*
X254508000Y-138430000D02*
X254508000Y-118364000D01*
X209042000Y-138430000D02*
X231394000Y-138430000D01*
X231394000Y-138430000D02*
X231394000Y-118364000D01*
X209042000Y-96774000D02*
X231394000Y-96774000D01*
X232156000Y-96774000D02*
X254508000Y-96774000D01*
X254508000Y-96774000D02*
X254508000Y-76708000D01*
X232156000Y-76708000D02*
X232156000Y-96774000D01*
X231394000Y-76708000D02*
X209042000Y-76708000D01*
X231394000Y-96774000D02*
X231394000Y-76708000D01*
X254508000Y-76708000D02*
X232156000Y-76708000D01*
X209042000Y-76708000D02*
X209042000Y-96774000D01*
X209042000Y-75946000D02*
X231394000Y-75946000D01*
X231394000Y-75946000D02*
X231394000Y-55880000D01*
X209042000Y-55880000D02*
X209042000Y-75946000D01*
X231394000Y-55880000D02*
X209042000Y-55880000D01*
X254508000Y-75946000D02*
X254508000Y-55880000D01*
X232156000Y-75946000D02*
X254508000Y-75946000D01*
X232156000Y-55880000D02*
X232156000Y-75946000D01*
X254508000Y-55880000D02*
X232156000Y-55880000D01*
M02*
