M48
; DRILL file {KiCad 5.1.6-c6e7f7d~86~ubuntu19.10.1} date Wed Mar 24 16:57:49 2021
; FORMAT={-:-/ absolute / inch / decimal}
; #@! TF.CreationDate,2021-03-24T16:57:49+01:00
; #@! TF.GenerationSoftware,Kicad,Pcbnew,5.1.6-c6e7f7d~86~ubuntu19.10.1
; #@! TF.FileFunction,Plated,1,2,PTH
FMAT,2
INCH
T1C0.0157
T2C0.0394
%
G90
G05
T1
X6.5773Y-2.3255
X6.5773Y-3.1455
X6.5773Y-3.9655
X6.5773Y-4.7855
X6.5775Y-2.4875
X6.5775Y-3.3075
X6.5775Y-4.1275
X6.5775Y-4.9475
X6.5788Y-2.8812
X6.5788Y-3.7012
X6.5788Y-4.5212
X6.5788Y-5.3412
X6.96Y-2.65
X6.96Y-3.47
X6.96Y-4.29
X6.96Y-5.11
X6.9637Y-2.8863
X6.9637Y-3.7063
X6.9637Y-4.5263
X6.9637Y-5.3463
X6.97Y-2.78
X6.97Y-3.6
X6.97Y-4.42
X6.97Y-5.24
X7.4873Y-2.3255
X7.4873Y-3.1455
X7.4873Y-3.9655
X7.4873Y-4.7855
X7.4875Y-2.4875
X7.4875Y-3.3075
X7.4875Y-4.1275
X7.4875Y-4.9475
X7.4888Y-2.8812
X7.4888Y-3.7012
X7.4888Y-4.5212
X7.4888Y-5.3412
X7.87Y-2.65
X7.87Y-3.47
X7.87Y-4.29
X7.87Y-5.11
X7.8737Y-2.8863
X7.8737Y-3.7063
X7.8737Y-4.5263
X7.8737Y-5.3463
X7.88Y-2.78
X7.88Y-3.6
X7.88Y-4.42
X7.88Y-5.24
X8.3973Y-2.3255
X8.3973Y-3.1455
X8.3973Y-3.9655
X8.3973Y-4.7855
X8.3975Y-2.4875
X8.3975Y-3.3075
X8.3975Y-4.1275
X8.3975Y-4.9475
X8.3988Y-2.8812
X8.3988Y-3.7012
X8.3988Y-4.5212
X8.3988Y-5.3412
X8.78Y-2.65
X8.78Y-3.47
X8.78Y-4.29
X8.78Y-5.11
X8.7837Y-2.8863
X8.7837Y-3.7063
X8.7837Y-4.5263
X8.7837Y-5.3463
X8.79Y-2.78
X8.79Y-3.6
X8.79Y-4.42
X8.79Y-5.24
X9.3073Y-2.3255
X9.3073Y-3.1455
X9.3073Y-3.9655
X9.3073Y-4.7855
X9.3075Y-2.4875
X9.3075Y-3.3075
X9.3075Y-4.1275
X9.3075Y-4.9475
X9.3088Y-2.8812
X9.3088Y-3.7012
X9.3088Y-4.5212
X9.3088Y-5.3412
X9.69Y-2.65
X9.69Y-3.47
X9.69Y-4.29
X9.69Y-5.11
X9.6937Y-2.8863
X9.6937Y-3.7063
X9.6937Y-4.5263
X9.6937Y-5.3463
X9.7Y-2.78
X9.7Y-3.6
X9.7Y-4.42
X9.7Y-5.24
T2
X7.22Y-4.74
X7.22Y-4.84
X7.22Y-4.94
X7.22Y-5.04
X7.22Y-5.14
X7.22Y-5.24
X7.22Y-5.34
X8.13Y-3.92
X8.13Y-4.02
X8.13Y-4.12
X8.13Y-4.22
X8.13Y-4.32
X8.13Y-4.42
X8.13Y-4.52
X8.13Y-2.28
X8.13Y-2.38
X8.13Y-2.48
X8.13Y-2.58
X8.13Y-2.68
X8.13Y-2.78
X8.13Y-2.88
X9.95Y-4.74
X9.95Y-4.84
X9.95Y-4.94
X9.95Y-5.04
X9.95Y-5.14
X9.95Y-5.24
X9.95Y-5.34
X9.04Y-2.28
X9.04Y-2.38
X9.04Y-2.48
X9.04Y-2.58
X9.04Y-2.68
X9.04Y-2.78
X9.04Y-2.88
X8.13Y-3.1
X8.13Y-3.2
X8.13Y-3.3
X8.13Y-3.4
X8.13Y-3.5
X8.13Y-3.6
X8.13Y-3.7
X7.22Y-2.28
X7.22Y-2.38
X7.22Y-2.48
X7.22Y-2.58
X7.22Y-2.68
X7.22Y-2.78
X7.22Y-2.88
X8.13Y-4.74
X8.13Y-4.84
X8.13Y-4.94
X8.13Y-5.04
X8.13Y-5.14
X8.13Y-5.24
X8.13Y-5.34
X7.22Y-3.1
X7.22Y-3.2
X7.22Y-3.3
X7.22Y-3.4
X7.22Y-3.5
X7.22Y-3.6
X7.22Y-3.7
X9.04Y-3.1
X9.04Y-3.2
X9.04Y-3.3
X9.04Y-3.4
X9.04Y-3.5
X9.04Y-3.6
X9.04Y-3.7
X9.04Y-3.92
X9.04Y-4.02
X9.04Y-4.12
X9.04Y-4.22
X9.04Y-4.32
X9.04Y-4.42
X9.04Y-4.52
X9.95Y-3.1
X9.95Y-3.2
X9.95Y-3.3
X9.95Y-3.4
X9.95Y-3.5
X9.95Y-3.6
X9.95Y-3.7
X9.95Y-3.92
X9.95Y-4.02
X9.95Y-4.12
X9.95Y-4.22
X9.95Y-4.32
X9.95Y-4.42
X9.95Y-4.52
X7.22Y-3.92
X7.22Y-4.02
X7.22Y-4.12
X7.22Y-4.22
X7.22Y-4.32
X7.22Y-4.42
X7.22Y-4.52
X9.04Y-4.74
X9.04Y-4.84
X9.04Y-4.94
X9.04Y-5.04
X9.04Y-5.14
X9.04Y-5.24
X9.04Y-5.34
X9.95Y-2.28
X9.95Y-2.38
X9.95Y-2.48
X9.95Y-2.58
X9.95Y-2.68
X9.95Y-2.78
X9.95Y-2.88
T0
M30
