G04 #@! TF.GenerationSoftware,KiCad,Pcbnew,5.1.6-c6e7f7d~86~ubuntu19.10.1*
G04 #@! TF.CreationDate,2021-03-24T16:57:24+01:00*
G04 #@! TF.ProjectId,ESP_12F,4553505f-3132-4462-9e6b-696361645f70,rev?*
G04 #@! TF.SameCoordinates,Original*
G04 #@! TF.FileFunction,Legend,Bot*
G04 #@! TF.FilePolarity,Positive*
%FSLAX46Y46*%
G04 Gerber Fmt 4.6, Leading zero omitted, Abs format (unit mm)*
G04 Created by KiCad (PCBNEW 5.1.6-c6e7f7d~86~ubuntu19.10.1) date 2021-03-24 16:57:24*
%MOMM*%
%LPD*%
G01*
G04 APERTURE LIST*
%ADD10C,0.150000*%
%ADD11C,0.120000*%
G04 APERTURE END LIST*
D10*
X200437523Y-78192380D02*
X200437523Y-78906666D01*
X200485142Y-79049523D01*
X200580380Y-79144761D01*
X200723238Y-79192380D01*
X200818476Y-79192380D01*
X200104190Y-78192380D02*
X199532761Y-78192380D01*
X199818476Y-79192380D02*
X199818476Y-78192380D01*
X199199428Y-78811428D02*
X198437523Y-78811428D01*
X197770857Y-78192380D02*
X197675619Y-78192380D01*
X197580380Y-78240000D01*
X197532761Y-78287619D01*
X197485142Y-78382857D01*
X197437523Y-78573333D01*
X197437523Y-78811428D01*
X197485142Y-79001904D01*
X197532761Y-79097142D01*
X197580380Y-79144761D01*
X197675619Y-79192380D01*
X197770857Y-79192380D01*
X197866095Y-79144761D01*
X197913714Y-79097142D01*
X197961333Y-79001904D01*
X198008952Y-78811428D01*
X198008952Y-78573333D01*
X197961333Y-78382857D01*
X197913714Y-78287619D01*
X197866095Y-78240000D01*
X197770857Y-78192380D01*
X197056571Y-78287619D02*
X197008952Y-78240000D01*
X196913714Y-78192380D01*
X196675619Y-78192380D01*
X196580380Y-78240000D01*
X196532761Y-78287619D01*
X196485142Y-78382857D01*
X196485142Y-78478095D01*
X196532761Y-78620952D01*
X197104190Y-79192380D01*
X196485142Y-79192380D01*
X200437523Y-99020380D02*
X200437523Y-99734666D01*
X200485142Y-99877523D01*
X200580380Y-99972761D01*
X200723238Y-100020380D01*
X200818476Y-100020380D01*
X200104190Y-99020380D02*
X199532761Y-99020380D01*
X199818476Y-100020380D02*
X199818476Y-99020380D01*
X199199428Y-99639428D02*
X198437523Y-99639428D01*
X197770857Y-99020380D02*
X197675619Y-99020380D01*
X197580380Y-99068000D01*
X197532761Y-99115619D01*
X197485142Y-99210857D01*
X197437523Y-99401333D01*
X197437523Y-99639428D01*
X197485142Y-99829904D01*
X197532761Y-99925142D01*
X197580380Y-99972761D01*
X197675619Y-100020380D01*
X197770857Y-100020380D01*
X197866095Y-99972761D01*
X197913714Y-99925142D01*
X197961333Y-99829904D01*
X198008952Y-99639428D01*
X198008952Y-99401333D01*
X197961333Y-99210857D01*
X197913714Y-99115619D01*
X197866095Y-99068000D01*
X197770857Y-99020380D01*
X197056571Y-99115619D02*
X197008952Y-99068000D01*
X196913714Y-99020380D01*
X196675619Y-99020380D01*
X196580380Y-99068000D01*
X196532761Y-99115619D01*
X196485142Y-99210857D01*
X196485142Y-99306095D01*
X196532761Y-99448952D01*
X197104190Y-100020380D01*
X196485142Y-100020380D01*
X177323523Y-99020380D02*
X177323523Y-99734666D01*
X177371142Y-99877523D01*
X177466380Y-99972761D01*
X177609238Y-100020380D01*
X177704476Y-100020380D01*
X176990190Y-99020380D02*
X176418761Y-99020380D01*
X176704476Y-100020380D02*
X176704476Y-99020380D01*
X176085428Y-99639428D02*
X175323523Y-99639428D01*
X174656857Y-99020380D02*
X174561619Y-99020380D01*
X174466380Y-99068000D01*
X174418761Y-99115619D01*
X174371142Y-99210857D01*
X174323523Y-99401333D01*
X174323523Y-99639428D01*
X174371142Y-99829904D01*
X174418761Y-99925142D01*
X174466380Y-99972761D01*
X174561619Y-100020380D01*
X174656857Y-100020380D01*
X174752095Y-99972761D01*
X174799714Y-99925142D01*
X174847333Y-99829904D01*
X174894952Y-99639428D01*
X174894952Y-99401333D01*
X174847333Y-99210857D01*
X174799714Y-99115619D01*
X174752095Y-99068000D01*
X174656857Y-99020380D01*
X173942571Y-99115619D02*
X173894952Y-99068000D01*
X173799714Y-99020380D01*
X173561619Y-99020380D01*
X173466380Y-99068000D01*
X173418761Y-99115619D01*
X173371142Y-99210857D01*
X173371142Y-99306095D01*
X173418761Y-99448952D01*
X173990190Y-100020380D01*
X173371142Y-100020380D01*
X177323523Y-78192380D02*
X177323523Y-78906666D01*
X177371142Y-79049523D01*
X177466380Y-79144761D01*
X177609238Y-79192380D01*
X177704476Y-79192380D01*
X176990190Y-78192380D02*
X176418761Y-78192380D01*
X176704476Y-79192380D02*
X176704476Y-78192380D01*
X176085428Y-78811428D02*
X175323523Y-78811428D01*
X174656857Y-78192380D02*
X174561619Y-78192380D01*
X174466380Y-78240000D01*
X174418761Y-78287619D01*
X174371142Y-78382857D01*
X174323523Y-78573333D01*
X174323523Y-78811428D01*
X174371142Y-79001904D01*
X174418761Y-79097142D01*
X174466380Y-79144761D01*
X174561619Y-79192380D01*
X174656857Y-79192380D01*
X174752095Y-79144761D01*
X174799714Y-79097142D01*
X174847333Y-79001904D01*
X174894952Y-78811428D01*
X174894952Y-78573333D01*
X174847333Y-78382857D01*
X174799714Y-78287619D01*
X174752095Y-78240000D01*
X174656857Y-78192380D01*
X173942571Y-78287619D02*
X173894952Y-78240000D01*
X173799714Y-78192380D01*
X173561619Y-78192380D01*
X173466380Y-78240000D01*
X173418761Y-78287619D01*
X173371142Y-78382857D01*
X173371142Y-78478095D01*
X173418761Y-78620952D01*
X173990190Y-79192380D01*
X173371142Y-79192380D01*
X177323523Y-119848380D02*
X177323523Y-120562666D01*
X177371142Y-120705523D01*
X177466380Y-120800761D01*
X177609238Y-120848380D01*
X177704476Y-120848380D01*
X176990190Y-119848380D02*
X176418761Y-119848380D01*
X176704476Y-120848380D02*
X176704476Y-119848380D01*
X176085428Y-120467428D02*
X175323523Y-120467428D01*
X174656857Y-119848380D02*
X174561619Y-119848380D01*
X174466380Y-119896000D01*
X174418761Y-119943619D01*
X174371142Y-120038857D01*
X174323523Y-120229333D01*
X174323523Y-120467428D01*
X174371142Y-120657904D01*
X174418761Y-120753142D01*
X174466380Y-120800761D01*
X174561619Y-120848380D01*
X174656857Y-120848380D01*
X174752095Y-120800761D01*
X174799714Y-120753142D01*
X174847333Y-120657904D01*
X174894952Y-120467428D01*
X174894952Y-120229333D01*
X174847333Y-120038857D01*
X174799714Y-119943619D01*
X174752095Y-119896000D01*
X174656857Y-119848380D01*
X173942571Y-119943619D02*
X173894952Y-119896000D01*
X173799714Y-119848380D01*
X173561619Y-119848380D01*
X173466380Y-119896000D01*
X173418761Y-119943619D01*
X173371142Y-120038857D01*
X173371142Y-120134095D01*
X173418761Y-120276952D01*
X173990190Y-120848380D01*
X173371142Y-120848380D01*
X200437523Y-119848380D02*
X200437523Y-120562666D01*
X200485142Y-120705523D01*
X200580380Y-120800761D01*
X200723238Y-120848380D01*
X200818476Y-120848380D01*
X200104190Y-119848380D02*
X199532761Y-119848380D01*
X199818476Y-120848380D02*
X199818476Y-119848380D01*
X199199428Y-120467428D02*
X198437523Y-120467428D01*
X197770857Y-119848380D02*
X197675619Y-119848380D01*
X197580380Y-119896000D01*
X197532761Y-119943619D01*
X197485142Y-120038857D01*
X197437523Y-120229333D01*
X197437523Y-120467428D01*
X197485142Y-120657904D01*
X197532761Y-120753142D01*
X197580380Y-120800761D01*
X197675619Y-120848380D01*
X197770857Y-120848380D01*
X197866095Y-120800761D01*
X197913714Y-120753142D01*
X197961333Y-120657904D01*
X198008952Y-120467428D01*
X198008952Y-120229333D01*
X197961333Y-120038857D01*
X197913714Y-119943619D01*
X197866095Y-119896000D01*
X197770857Y-119848380D01*
X197056571Y-119943619D02*
X197008952Y-119896000D01*
X196913714Y-119848380D01*
X196675619Y-119848380D01*
X196580380Y-119896000D01*
X196532761Y-119943619D01*
X196485142Y-120038857D01*
X196485142Y-120134095D01*
X196532761Y-120276952D01*
X197104190Y-120848380D01*
X196485142Y-120848380D01*
X177323523Y-57364380D02*
X177323523Y-58078666D01*
X177371142Y-58221523D01*
X177466380Y-58316761D01*
X177609238Y-58364380D01*
X177704476Y-58364380D01*
X176990190Y-57364380D02*
X176418761Y-57364380D01*
X176704476Y-58364380D02*
X176704476Y-57364380D01*
X176085428Y-57983428D02*
X175323523Y-57983428D01*
X174656857Y-57364380D02*
X174561619Y-57364380D01*
X174466380Y-57412000D01*
X174418761Y-57459619D01*
X174371142Y-57554857D01*
X174323523Y-57745333D01*
X174323523Y-57983428D01*
X174371142Y-58173904D01*
X174418761Y-58269142D01*
X174466380Y-58316761D01*
X174561619Y-58364380D01*
X174656857Y-58364380D01*
X174752095Y-58316761D01*
X174799714Y-58269142D01*
X174847333Y-58173904D01*
X174894952Y-57983428D01*
X174894952Y-57745333D01*
X174847333Y-57554857D01*
X174799714Y-57459619D01*
X174752095Y-57412000D01*
X174656857Y-57364380D01*
X173942571Y-57459619D02*
X173894952Y-57412000D01*
X173799714Y-57364380D01*
X173561619Y-57364380D01*
X173466380Y-57412000D01*
X173418761Y-57459619D01*
X173371142Y-57554857D01*
X173371142Y-57650095D01*
X173418761Y-57792952D01*
X173990190Y-58364380D01*
X173371142Y-58364380D01*
X200437523Y-57364380D02*
X200437523Y-58078666D01*
X200485142Y-58221523D01*
X200580380Y-58316761D01*
X200723238Y-58364380D01*
X200818476Y-58364380D01*
X200104190Y-57364380D02*
X199532761Y-57364380D01*
X199818476Y-58364380D02*
X199818476Y-57364380D01*
X199199428Y-57983428D02*
X198437523Y-57983428D01*
X197770857Y-57364380D02*
X197675619Y-57364380D01*
X197580380Y-57412000D01*
X197532761Y-57459619D01*
X197485142Y-57554857D01*
X197437523Y-57745333D01*
X197437523Y-57983428D01*
X197485142Y-58173904D01*
X197532761Y-58269142D01*
X197580380Y-58316761D01*
X197675619Y-58364380D01*
X197770857Y-58364380D01*
X197866095Y-58316761D01*
X197913714Y-58269142D01*
X197961333Y-58173904D01*
X198008952Y-57983428D01*
X198008952Y-57745333D01*
X197961333Y-57554857D01*
X197913714Y-57459619D01*
X197866095Y-57412000D01*
X197770857Y-57364380D01*
X197056571Y-57459619D02*
X197008952Y-57412000D01*
X196913714Y-57364380D01*
X196675619Y-57364380D01*
X196580380Y-57412000D01*
X196532761Y-57459619D01*
X196485142Y-57554857D01*
X196485142Y-57650095D01*
X196532761Y-57792952D01*
X197104190Y-58364380D01*
X196485142Y-58364380D01*
X246665523Y-119848380D02*
X246665523Y-120562666D01*
X246713142Y-120705523D01*
X246808380Y-120800761D01*
X246951238Y-120848380D01*
X247046476Y-120848380D01*
X246332190Y-119848380D02*
X245760761Y-119848380D01*
X246046476Y-120848380D02*
X246046476Y-119848380D01*
X245427428Y-120467428D02*
X244665523Y-120467428D01*
X243998857Y-119848380D02*
X243903619Y-119848380D01*
X243808380Y-119896000D01*
X243760761Y-119943619D01*
X243713142Y-120038857D01*
X243665523Y-120229333D01*
X243665523Y-120467428D01*
X243713142Y-120657904D01*
X243760761Y-120753142D01*
X243808380Y-120800761D01*
X243903619Y-120848380D01*
X243998857Y-120848380D01*
X244094095Y-120800761D01*
X244141714Y-120753142D01*
X244189333Y-120657904D01*
X244236952Y-120467428D01*
X244236952Y-120229333D01*
X244189333Y-120038857D01*
X244141714Y-119943619D01*
X244094095Y-119896000D01*
X243998857Y-119848380D01*
X243284571Y-119943619D02*
X243236952Y-119896000D01*
X243141714Y-119848380D01*
X242903619Y-119848380D01*
X242808380Y-119896000D01*
X242760761Y-119943619D01*
X242713142Y-120038857D01*
X242713142Y-120134095D01*
X242760761Y-120276952D01*
X243332190Y-120848380D01*
X242713142Y-120848380D01*
X223551523Y-119848380D02*
X223551523Y-120562666D01*
X223599142Y-120705523D01*
X223694380Y-120800761D01*
X223837238Y-120848380D01*
X223932476Y-120848380D01*
X223218190Y-119848380D02*
X222646761Y-119848380D01*
X222932476Y-120848380D02*
X222932476Y-119848380D01*
X222313428Y-120467428D02*
X221551523Y-120467428D01*
X220884857Y-119848380D02*
X220789619Y-119848380D01*
X220694380Y-119896000D01*
X220646761Y-119943619D01*
X220599142Y-120038857D01*
X220551523Y-120229333D01*
X220551523Y-120467428D01*
X220599142Y-120657904D01*
X220646761Y-120753142D01*
X220694380Y-120800761D01*
X220789619Y-120848380D01*
X220884857Y-120848380D01*
X220980095Y-120800761D01*
X221027714Y-120753142D01*
X221075333Y-120657904D01*
X221122952Y-120467428D01*
X221122952Y-120229333D01*
X221075333Y-120038857D01*
X221027714Y-119943619D01*
X220980095Y-119896000D01*
X220884857Y-119848380D01*
X220170571Y-119943619D02*
X220122952Y-119896000D01*
X220027714Y-119848380D01*
X219789619Y-119848380D01*
X219694380Y-119896000D01*
X219646761Y-119943619D01*
X219599142Y-120038857D01*
X219599142Y-120134095D01*
X219646761Y-120276952D01*
X220218190Y-120848380D01*
X219599142Y-120848380D01*
X223551523Y-99020380D02*
X223551523Y-99734666D01*
X223599142Y-99877523D01*
X223694380Y-99972761D01*
X223837238Y-100020380D01*
X223932476Y-100020380D01*
X223218190Y-99020380D02*
X222646761Y-99020380D01*
X222932476Y-100020380D02*
X222932476Y-99020380D01*
X222313428Y-99639428D02*
X221551523Y-99639428D01*
X220884857Y-99020380D02*
X220789619Y-99020380D01*
X220694380Y-99068000D01*
X220646761Y-99115619D01*
X220599142Y-99210857D01*
X220551523Y-99401333D01*
X220551523Y-99639428D01*
X220599142Y-99829904D01*
X220646761Y-99925142D01*
X220694380Y-99972761D01*
X220789619Y-100020380D01*
X220884857Y-100020380D01*
X220980095Y-99972761D01*
X221027714Y-99925142D01*
X221075333Y-99829904D01*
X221122952Y-99639428D01*
X221122952Y-99401333D01*
X221075333Y-99210857D01*
X221027714Y-99115619D01*
X220980095Y-99068000D01*
X220884857Y-99020380D01*
X220170571Y-99115619D02*
X220122952Y-99068000D01*
X220027714Y-99020380D01*
X219789619Y-99020380D01*
X219694380Y-99068000D01*
X219646761Y-99115619D01*
X219599142Y-99210857D01*
X219599142Y-99306095D01*
X219646761Y-99448952D01*
X220218190Y-100020380D01*
X219599142Y-100020380D01*
X246665523Y-99020380D02*
X246665523Y-99734666D01*
X246713142Y-99877523D01*
X246808380Y-99972761D01*
X246951238Y-100020380D01*
X247046476Y-100020380D01*
X246332190Y-99020380D02*
X245760761Y-99020380D01*
X246046476Y-100020380D02*
X246046476Y-99020380D01*
X245427428Y-99639428D02*
X244665523Y-99639428D01*
X243998857Y-99020380D02*
X243903619Y-99020380D01*
X243808380Y-99068000D01*
X243760761Y-99115619D01*
X243713142Y-99210857D01*
X243665523Y-99401333D01*
X243665523Y-99639428D01*
X243713142Y-99829904D01*
X243760761Y-99925142D01*
X243808380Y-99972761D01*
X243903619Y-100020380D01*
X243998857Y-100020380D01*
X244094095Y-99972761D01*
X244141714Y-99925142D01*
X244189333Y-99829904D01*
X244236952Y-99639428D01*
X244236952Y-99401333D01*
X244189333Y-99210857D01*
X244141714Y-99115619D01*
X244094095Y-99068000D01*
X243998857Y-99020380D01*
X243284571Y-99115619D02*
X243236952Y-99068000D01*
X243141714Y-99020380D01*
X242903619Y-99020380D01*
X242808380Y-99068000D01*
X242760761Y-99115619D01*
X242713142Y-99210857D01*
X242713142Y-99306095D01*
X242760761Y-99448952D01*
X243332190Y-100020380D01*
X242713142Y-100020380D01*
X223551523Y-78192380D02*
X223551523Y-78906666D01*
X223599142Y-79049523D01*
X223694380Y-79144761D01*
X223837238Y-79192380D01*
X223932476Y-79192380D01*
X223218190Y-78192380D02*
X222646761Y-78192380D01*
X222932476Y-79192380D02*
X222932476Y-78192380D01*
X222313428Y-78811428D02*
X221551523Y-78811428D01*
X220884857Y-78192380D02*
X220789619Y-78192380D01*
X220694380Y-78240000D01*
X220646761Y-78287619D01*
X220599142Y-78382857D01*
X220551523Y-78573333D01*
X220551523Y-78811428D01*
X220599142Y-79001904D01*
X220646761Y-79097142D01*
X220694380Y-79144761D01*
X220789619Y-79192380D01*
X220884857Y-79192380D01*
X220980095Y-79144761D01*
X221027714Y-79097142D01*
X221075333Y-79001904D01*
X221122952Y-78811428D01*
X221122952Y-78573333D01*
X221075333Y-78382857D01*
X221027714Y-78287619D01*
X220980095Y-78240000D01*
X220884857Y-78192380D01*
X220170571Y-78287619D02*
X220122952Y-78240000D01*
X220027714Y-78192380D01*
X219789619Y-78192380D01*
X219694380Y-78240000D01*
X219646761Y-78287619D01*
X219599142Y-78382857D01*
X219599142Y-78478095D01*
X219646761Y-78620952D01*
X220218190Y-79192380D01*
X219599142Y-79192380D01*
X246665523Y-78192380D02*
X246665523Y-78906666D01*
X246713142Y-79049523D01*
X246808380Y-79144761D01*
X246951238Y-79192380D01*
X247046476Y-79192380D01*
X246332190Y-78192380D02*
X245760761Y-78192380D01*
X246046476Y-79192380D02*
X246046476Y-78192380D01*
X245427428Y-78811428D02*
X244665523Y-78811428D01*
X243998857Y-78192380D02*
X243903619Y-78192380D01*
X243808380Y-78240000D01*
X243760761Y-78287619D01*
X243713142Y-78382857D01*
X243665523Y-78573333D01*
X243665523Y-78811428D01*
X243713142Y-79001904D01*
X243760761Y-79097142D01*
X243808380Y-79144761D01*
X243903619Y-79192380D01*
X243998857Y-79192380D01*
X244094095Y-79144761D01*
X244141714Y-79097142D01*
X244189333Y-79001904D01*
X244236952Y-78811428D01*
X244236952Y-78573333D01*
X244189333Y-78382857D01*
X244141714Y-78287619D01*
X244094095Y-78240000D01*
X243998857Y-78192380D01*
X243284571Y-78287619D02*
X243236952Y-78240000D01*
X243141714Y-78192380D01*
X242903619Y-78192380D01*
X242808380Y-78240000D01*
X242760761Y-78287619D01*
X242713142Y-78382857D01*
X242713142Y-78478095D01*
X242760761Y-78620952D01*
X243332190Y-79192380D01*
X242713142Y-79192380D01*
X223551523Y-57364380D02*
X223551523Y-58078666D01*
X223599142Y-58221523D01*
X223694380Y-58316761D01*
X223837238Y-58364380D01*
X223932476Y-58364380D01*
X223218190Y-57364380D02*
X222646761Y-57364380D01*
X222932476Y-58364380D02*
X222932476Y-57364380D01*
X222313428Y-57983428D02*
X221551523Y-57983428D01*
X220884857Y-57364380D02*
X220789619Y-57364380D01*
X220694380Y-57412000D01*
X220646761Y-57459619D01*
X220599142Y-57554857D01*
X220551523Y-57745333D01*
X220551523Y-57983428D01*
X220599142Y-58173904D01*
X220646761Y-58269142D01*
X220694380Y-58316761D01*
X220789619Y-58364380D01*
X220884857Y-58364380D01*
X220980095Y-58316761D01*
X221027714Y-58269142D01*
X221075333Y-58173904D01*
X221122952Y-57983428D01*
X221122952Y-57745333D01*
X221075333Y-57554857D01*
X221027714Y-57459619D01*
X220980095Y-57412000D01*
X220884857Y-57364380D01*
X220170571Y-57459619D02*
X220122952Y-57412000D01*
X220027714Y-57364380D01*
X219789619Y-57364380D01*
X219694380Y-57412000D01*
X219646761Y-57459619D01*
X219599142Y-57554857D01*
X219599142Y-57650095D01*
X219646761Y-57792952D01*
X220218190Y-58364380D01*
X219599142Y-58364380D01*
X246665523Y-57364380D02*
X246665523Y-58078666D01*
X246713142Y-58221523D01*
X246808380Y-58316761D01*
X246951238Y-58364380D01*
X247046476Y-58364380D01*
X246332190Y-57364380D02*
X245760761Y-57364380D01*
X246046476Y-58364380D02*
X246046476Y-57364380D01*
X245427428Y-57983428D02*
X244665523Y-57983428D01*
X243998857Y-57364380D02*
X243903619Y-57364380D01*
X243808380Y-57412000D01*
X243760761Y-57459619D01*
X243713142Y-57554857D01*
X243665523Y-57745333D01*
X243665523Y-57983428D01*
X243713142Y-58173904D01*
X243760761Y-58269142D01*
X243808380Y-58316761D01*
X243903619Y-58364380D01*
X243998857Y-58364380D01*
X244094095Y-58316761D01*
X244141714Y-58269142D01*
X244189333Y-58173904D01*
X244236952Y-57983428D01*
X244236952Y-57745333D01*
X244189333Y-57554857D01*
X244141714Y-57459619D01*
X244094095Y-57412000D01*
X243998857Y-57364380D01*
X243284571Y-57459619D02*
X243236952Y-57412000D01*
X243141714Y-57364380D01*
X242903619Y-57364380D01*
X242808380Y-57412000D01*
X242760761Y-57459619D01*
X242713142Y-57554857D01*
X242713142Y-57650095D01*
X242760761Y-57792952D01*
X243332190Y-58364380D01*
X242713142Y-58364380D01*
D11*
X193814000Y-79257000D02*
X192614000Y-79257000D01*
X192614000Y-81017000D02*
X193814000Y-81017000D01*
X169466000Y-90674000D02*
X171466000Y-90674000D01*
X171466000Y-92714000D02*
X169466000Y-92714000D01*
X192580000Y-132330000D02*
X194580000Y-132330000D01*
X194580000Y-134370000D02*
X192580000Y-134370000D01*
X192694000Y-84827000D02*
X193894000Y-84827000D01*
X193894000Y-83067000D02*
X192694000Y-83067000D01*
X170780000Y-103895000D02*
X169580000Y-103895000D01*
X169580000Y-105655000D02*
X170780000Y-105655000D01*
X196424000Y-130674000D02*
X197624000Y-130674000D01*
X197624000Y-128914000D02*
X196424000Y-128914000D01*
X193894000Y-124723000D02*
X192694000Y-124723000D01*
X192694000Y-126483000D02*
X193894000Y-126483000D01*
X192694000Y-105655000D02*
X193894000Y-105655000D01*
X193894000Y-103895000D02*
X192694000Y-103895000D01*
X169580000Y-63999000D02*
X170780000Y-63999000D01*
X170780000Y-62239000D02*
X169580000Y-62239000D01*
X169580000Y-126483000D02*
X170780000Y-126483000D01*
X170780000Y-124723000D02*
X169580000Y-124723000D01*
X197624000Y-87258000D02*
X196424000Y-87258000D01*
X196424000Y-89018000D02*
X197624000Y-89018000D01*
X174634000Y-71362000D02*
X174634000Y-72562000D01*
X176394000Y-72562000D02*
X176394000Y-71362000D01*
X199508000Y-72562000D02*
X199508000Y-71362000D01*
X197748000Y-71362000D02*
X197748000Y-72562000D01*
X171466000Y-134370000D02*
X169466000Y-134370000D01*
X169466000Y-132330000D02*
X171466000Y-132330000D01*
X193814000Y-100085000D02*
X192614000Y-100085000D01*
X192614000Y-101845000D02*
X193814000Y-101845000D01*
X194580000Y-92714000D02*
X192580000Y-92714000D01*
X192580000Y-90674000D02*
X194580000Y-90674000D01*
X169500000Y-81017000D02*
X170700000Y-81017000D01*
X170700000Y-79257000D02*
X169500000Y-79257000D01*
X193894000Y-62239000D02*
X192694000Y-62239000D01*
X192694000Y-63999000D02*
X193894000Y-63999000D01*
X197624000Y-108086000D02*
X196424000Y-108086000D01*
X196424000Y-109846000D02*
X197624000Y-109846000D01*
X174510000Y-66430000D02*
X173310000Y-66430000D01*
X173310000Y-68190000D02*
X174510000Y-68190000D01*
X169466000Y-111502000D02*
X171466000Y-111502000D01*
X171466000Y-113542000D02*
X169466000Y-113542000D01*
X169500000Y-101845000D02*
X170700000Y-101845000D01*
X170700000Y-100085000D02*
X169500000Y-100085000D01*
X176394000Y-93390000D02*
X176394000Y-92190000D01*
X174634000Y-92190000D02*
X174634000Y-93390000D01*
X192580000Y-69846000D02*
X194580000Y-69846000D01*
X194580000Y-71886000D02*
X192580000Y-71886000D01*
X197748000Y-92190000D02*
X197748000Y-93390000D01*
X199508000Y-93390000D02*
X199508000Y-92190000D01*
X192614000Y-122673000D02*
X193814000Y-122673000D01*
X193814000Y-120913000D02*
X192614000Y-120913000D01*
X170700000Y-120913000D02*
X169500000Y-120913000D01*
X169500000Y-122673000D02*
X170700000Y-122673000D01*
X174510000Y-128914000D02*
X173310000Y-128914000D01*
X173310000Y-130674000D02*
X174510000Y-130674000D01*
X170780000Y-83067000D02*
X169580000Y-83067000D01*
X169580000Y-84827000D02*
X170780000Y-84827000D01*
X173310000Y-89018000D02*
X174510000Y-89018000D01*
X174510000Y-87258000D02*
X173310000Y-87258000D01*
X173310000Y-109846000D02*
X174510000Y-109846000D01*
X174510000Y-108086000D02*
X173310000Y-108086000D01*
X197748000Y-113018000D02*
X197748000Y-114218000D01*
X199508000Y-114218000D02*
X199508000Y-113018000D01*
X199508000Y-135046000D02*
X199508000Y-133846000D01*
X197748000Y-133846000D02*
X197748000Y-135046000D01*
X194580000Y-113542000D02*
X192580000Y-113542000D01*
X192580000Y-111502000D02*
X194580000Y-111502000D01*
X196424000Y-68190000D02*
X197624000Y-68190000D01*
X197624000Y-66430000D02*
X196424000Y-66430000D01*
X192614000Y-60189000D02*
X193814000Y-60189000D01*
X193814000Y-58429000D02*
X192614000Y-58429000D01*
X170700000Y-58429000D02*
X169500000Y-58429000D01*
X169500000Y-60189000D02*
X170700000Y-60189000D01*
X171466000Y-71886000D02*
X169466000Y-71886000D01*
X169466000Y-69846000D02*
X171466000Y-69846000D01*
X174634000Y-133846000D02*
X174634000Y-135046000D01*
X176394000Y-135046000D02*
X176394000Y-133846000D01*
X176394000Y-114218000D02*
X176394000Y-113018000D01*
X174634000Y-113018000D02*
X174634000Y-114218000D01*
X240042000Y-120913000D02*
X238842000Y-120913000D01*
X238842000Y-122673000D02*
X240042000Y-122673000D01*
X215694000Y-132330000D02*
X217694000Y-132330000D01*
X217694000Y-134370000D02*
X215694000Y-134370000D01*
X238922000Y-126483000D02*
X240122000Y-126483000D01*
X240122000Y-124723000D02*
X238922000Y-124723000D01*
X215808000Y-105655000D02*
X217008000Y-105655000D01*
X217008000Y-103895000D02*
X215808000Y-103895000D01*
X243852000Y-128914000D02*
X242652000Y-128914000D01*
X242652000Y-130674000D02*
X243852000Y-130674000D01*
X220862000Y-113018000D02*
X220862000Y-114218000D01*
X222622000Y-114218000D02*
X222622000Y-113018000D01*
X245736000Y-114218000D02*
X245736000Y-113018000D01*
X243976000Y-113018000D02*
X243976000Y-114218000D01*
X240808000Y-134370000D02*
X238808000Y-134370000D01*
X238808000Y-132330000D02*
X240808000Y-132330000D01*
X215728000Y-122673000D02*
X216928000Y-122673000D01*
X216928000Y-120913000D02*
X215728000Y-120913000D01*
X240122000Y-103895000D02*
X238922000Y-103895000D01*
X238922000Y-105655000D02*
X240122000Y-105655000D01*
X220738000Y-108086000D02*
X219538000Y-108086000D01*
X219538000Y-109846000D02*
X220738000Y-109846000D01*
X222622000Y-135046000D02*
X222622000Y-133846000D01*
X220862000Y-133846000D02*
X220862000Y-135046000D01*
X238808000Y-111502000D02*
X240808000Y-111502000D01*
X240808000Y-113542000D02*
X238808000Y-113542000D01*
X243976000Y-133846000D02*
X243976000Y-135046000D01*
X245736000Y-135046000D02*
X245736000Y-133846000D01*
X217008000Y-124723000D02*
X215808000Y-124723000D01*
X215808000Y-126483000D02*
X217008000Y-126483000D01*
X219538000Y-130674000D02*
X220738000Y-130674000D01*
X220738000Y-128914000D02*
X219538000Y-128914000D01*
X242652000Y-109846000D02*
X243852000Y-109846000D01*
X243852000Y-108086000D02*
X242652000Y-108086000D01*
X238842000Y-101845000D02*
X240042000Y-101845000D01*
X240042000Y-100085000D02*
X238842000Y-100085000D01*
X216928000Y-100085000D02*
X215728000Y-100085000D01*
X215728000Y-101845000D02*
X216928000Y-101845000D01*
X217694000Y-113542000D02*
X215694000Y-113542000D01*
X215694000Y-111502000D02*
X217694000Y-111502000D01*
X215808000Y-84827000D02*
X217008000Y-84827000D01*
X217008000Y-83067000D02*
X215808000Y-83067000D01*
X220862000Y-92190000D02*
X220862000Y-93390000D01*
X222622000Y-93390000D02*
X222622000Y-92190000D01*
X245736000Y-93390000D02*
X245736000Y-92190000D01*
X243976000Y-92190000D02*
X243976000Y-93390000D01*
X240122000Y-83067000D02*
X238922000Y-83067000D01*
X238922000Y-84827000D02*
X240122000Y-84827000D01*
X220738000Y-87258000D02*
X219538000Y-87258000D01*
X219538000Y-89018000D02*
X220738000Y-89018000D01*
X238808000Y-90674000D02*
X240808000Y-90674000D01*
X240808000Y-92714000D02*
X238808000Y-92714000D01*
X242652000Y-89018000D02*
X243852000Y-89018000D01*
X243852000Y-87258000D02*
X242652000Y-87258000D01*
X238842000Y-81017000D02*
X240042000Y-81017000D01*
X240042000Y-79257000D02*
X238842000Y-79257000D01*
X216928000Y-79257000D02*
X215728000Y-79257000D01*
X215728000Y-81017000D02*
X216928000Y-81017000D01*
X217694000Y-92714000D02*
X215694000Y-92714000D01*
X215694000Y-90674000D02*
X217694000Y-90674000D01*
X222622000Y-72562000D02*
X222622000Y-71362000D01*
X220862000Y-71362000D02*
X220862000Y-72562000D01*
X217008000Y-62239000D02*
X215808000Y-62239000D01*
X215808000Y-63999000D02*
X217008000Y-63999000D01*
X215694000Y-69846000D02*
X217694000Y-69846000D01*
X217694000Y-71886000D02*
X215694000Y-71886000D01*
X219538000Y-68190000D02*
X220738000Y-68190000D01*
X220738000Y-66430000D02*
X219538000Y-66430000D01*
X215728000Y-60189000D02*
X216928000Y-60189000D01*
X216928000Y-58429000D02*
X215728000Y-58429000D01*
X240808000Y-71886000D02*
X238808000Y-71886000D01*
X238808000Y-69846000D02*
X240808000Y-69846000D01*
X238922000Y-63999000D02*
X240122000Y-63999000D01*
X240122000Y-62239000D02*
X238922000Y-62239000D01*
X240042000Y-58429000D02*
X238842000Y-58429000D01*
X238842000Y-60189000D02*
X240042000Y-60189000D01*
X243852000Y-66430000D02*
X242652000Y-66430000D01*
X242652000Y-68190000D02*
X243852000Y-68190000D01*
X243976000Y-71362000D02*
X243976000Y-72562000D01*
X245736000Y-72562000D02*
X245736000Y-71362000D01*
D10*
X193380666Y-82289380D02*
X193714000Y-81813190D01*
X193952095Y-82289380D02*
X193952095Y-81289380D01*
X193571142Y-81289380D01*
X193475904Y-81337000D01*
X193428285Y-81384619D01*
X193380666Y-81479857D01*
X193380666Y-81622714D01*
X193428285Y-81717952D01*
X193475904Y-81765571D01*
X193571142Y-81813190D01*
X193952095Y-81813190D01*
X192999714Y-81384619D02*
X192952095Y-81337000D01*
X192856857Y-81289380D01*
X192618761Y-81289380D01*
X192523523Y-81337000D01*
X192475904Y-81384619D01*
X192428285Y-81479857D01*
X192428285Y-81575095D01*
X192475904Y-81717952D01*
X193047333Y-82289380D01*
X192428285Y-82289380D01*
X170632666Y-93801142D02*
X170680285Y-93848761D01*
X170823142Y-93896380D01*
X170918380Y-93896380D01*
X171061238Y-93848761D01*
X171156476Y-93753523D01*
X171204095Y-93658285D01*
X171251714Y-93467809D01*
X171251714Y-93324952D01*
X171204095Y-93134476D01*
X171156476Y-93039238D01*
X171061238Y-92944000D01*
X170918380Y-92896380D01*
X170823142Y-92896380D01*
X170680285Y-92944000D01*
X170632666Y-92991619D01*
X169680285Y-93896380D02*
X170251714Y-93896380D01*
X169966000Y-93896380D02*
X169966000Y-92896380D01*
X170061238Y-93039238D01*
X170156476Y-93134476D01*
X170251714Y-93182095D01*
X193746666Y-135457142D02*
X193794285Y-135504761D01*
X193937142Y-135552380D01*
X194032380Y-135552380D01*
X194175238Y-135504761D01*
X194270476Y-135409523D01*
X194318095Y-135314285D01*
X194365714Y-135123809D01*
X194365714Y-134980952D01*
X194318095Y-134790476D01*
X194270476Y-134695238D01*
X194175238Y-134600000D01*
X194032380Y-134552380D01*
X193937142Y-134552380D01*
X193794285Y-134600000D01*
X193746666Y-134647619D01*
X192794285Y-135552380D02*
X193365714Y-135552380D01*
X193080000Y-135552380D02*
X193080000Y-134552380D01*
X193175238Y-134695238D01*
X193270476Y-134790476D01*
X193365714Y-134838095D01*
X193460666Y-86099380D02*
X193794000Y-85623190D01*
X194032095Y-86099380D02*
X194032095Y-85099380D01*
X193651142Y-85099380D01*
X193555904Y-85147000D01*
X193508285Y-85194619D01*
X193460666Y-85289857D01*
X193460666Y-85432714D01*
X193508285Y-85527952D01*
X193555904Y-85575571D01*
X193651142Y-85623190D01*
X194032095Y-85623190D01*
X192508285Y-86099380D02*
X193079714Y-86099380D01*
X192794000Y-86099380D02*
X192794000Y-85099380D01*
X192889238Y-85242238D01*
X192984476Y-85337476D01*
X193079714Y-85385095D01*
X170346666Y-106927380D02*
X170680000Y-106451190D01*
X170918095Y-106927380D02*
X170918095Y-105927380D01*
X170537142Y-105927380D01*
X170441904Y-105975000D01*
X170394285Y-106022619D01*
X170346666Y-106117857D01*
X170346666Y-106260714D01*
X170394285Y-106355952D01*
X170441904Y-106403571D01*
X170537142Y-106451190D01*
X170918095Y-106451190D01*
X169394285Y-106927380D02*
X169965714Y-106927380D01*
X169680000Y-106927380D02*
X169680000Y-105927380D01*
X169775238Y-106070238D01*
X169870476Y-106165476D01*
X169965714Y-106213095D01*
X197190666Y-128546380D02*
X197524000Y-128070190D01*
X197762095Y-128546380D02*
X197762095Y-127546380D01*
X197381142Y-127546380D01*
X197285904Y-127594000D01*
X197238285Y-127641619D01*
X197190666Y-127736857D01*
X197190666Y-127879714D01*
X197238285Y-127974952D01*
X197285904Y-128022571D01*
X197381142Y-128070190D01*
X197762095Y-128070190D01*
X196857333Y-127546380D02*
X196238285Y-127546380D01*
X196571619Y-127927333D01*
X196428761Y-127927333D01*
X196333523Y-127974952D01*
X196285904Y-128022571D01*
X196238285Y-128117809D01*
X196238285Y-128355904D01*
X196285904Y-128451142D01*
X196333523Y-128498761D01*
X196428761Y-128546380D01*
X196714476Y-128546380D01*
X196809714Y-128498761D01*
X196857333Y-128451142D01*
X193460666Y-127755380D02*
X193794000Y-127279190D01*
X194032095Y-127755380D02*
X194032095Y-126755380D01*
X193651142Y-126755380D01*
X193555904Y-126803000D01*
X193508285Y-126850619D01*
X193460666Y-126945857D01*
X193460666Y-127088714D01*
X193508285Y-127183952D01*
X193555904Y-127231571D01*
X193651142Y-127279190D01*
X194032095Y-127279190D01*
X192508285Y-127755380D02*
X193079714Y-127755380D01*
X192794000Y-127755380D02*
X192794000Y-126755380D01*
X192889238Y-126898238D01*
X192984476Y-126993476D01*
X193079714Y-127041095D01*
X193460666Y-106927380D02*
X193794000Y-106451190D01*
X194032095Y-106927380D02*
X194032095Y-105927380D01*
X193651142Y-105927380D01*
X193555904Y-105975000D01*
X193508285Y-106022619D01*
X193460666Y-106117857D01*
X193460666Y-106260714D01*
X193508285Y-106355952D01*
X193555904Y-106403571D01*
X193651142Y-106451190D01*
X194032095Y-106451190D01*
X192508285Y-106927380D02*
X193079714Y-106927380D01*
X192794000Y-106927380D02*
X192794000Y-105927380D01*
X192889238Y-106070238D01*
X192984476Y-106165476D01*
X193079714Y-106213095D01*
X170346666Y-65271380D02*
X170680000Y-64795190D01*
X170918095Y-65271380D02*
X170918095Y-64271380D01*
X170537142Y-64271380D01*
X170441904Y-64319000D01*
X170394285Y-64366619D01*
X170346666Y-64461857D01*
X170346666Y-64604714D01*
X170394285Y-64699952D01*
X170441904Y-64747571D01*
X170537142Y-64795190D01*
X170918095Y-64795190D01*
X169394285Y-65271380D02*
X169965714Y-65271380D01*
X169680000Y-65271380D02*
X169680000Y-64271380D01*
X169775238Y-64414238D01*
X169870476Y-64509476D01*
X169965714Y-64557095D01*
X170346666Y-127755380D02*
X170680000Y-127279190D01*
X170918095Y-127755380D02*
X170918095Y-126755380D01*
X170537142Y-126755380D01*
X170441904Y-126803000D01*
X170394285Y-126850619D01*
X170346666Y-126945857D01*
X170346666Y-127088714D01*
X170394285Y-127183952D01*
X170441904Y-127231571D01*
X170537142Y-127279190D01*
X170918095Y-127279190D01*
X169394285Y-127755380D02*
X169965714Y-127755380D01*
X169680000Y-127755380D02*
X169680000Y-126755380D01*
X169775238Y-126898238D01*
X169870476Y-126993476D01*
X169965714Y-127041095D01*
X197190666Y-86890380D02*
X197524000Y-86414190D01*
X197762095Y-86890380D02*
X197762095Y-85890380D01*
X197381142Y-85890380D01*
X197285904Y-85938000D01*
X197238285Y-85985619D01*
X197190666Y-86080857D01*
X197190666Y-86223714D01*
X197238285Y-86318952D01*
X197285904Y-86366571D01*
X197381142Y-86414190D01*
X197762095Y-86414190D01*
X196857333Y-85890380D02*
X196238285Y-85890380D01*
X196571619Y-86271333D01*
X196428761Y-86271333D01*
X196333523Y-86318952D01*
X196285904Y-86366571D01*
X196238285Y-86461809D01*
X196238285Y-86699904D01*
X196285904Y-86795142D01*
X196333523Y-86842761D01*
X196428761Y-86890380D01*
X196714476Y-86890380D01*
X196809714Y-86842761D01*
X196857333Y-86795142D01*
X177998380Y-71969333D02*
X177522190Y-71636000D01*
X177998380Y-71397904D02*
X176998380Y-71397904D01*
X176998380Y-71778857D01*
X177046000Y-71874095D01*
X177093619Y-71921714D01*
X177188857Y-71969333D01*
X177331714Y-71969333D01*
X177426952Y-71921714D01*
X177474571Y-71874095D01*
X177522190Y-71778857D01*
X177522190Y-71397904D01*
X177331714Y-72826476D02*
X177998380Y-72826476D01*
X176950761Y-72588380D02*
X177665047Y-72350285D01*
X177665047Y-72969333D01*
X201112380Y-71969333D02*
X200636190Y-71636000D01*
X201112380Y-71397904D02*
X200112380Y-71397904D01*
X200112380Y-71778857D01*
X200160000Y-71874095D01*
X200207619Y-71921714D01*
X200302857Y-71969333D01*
X200445714Y-71969333D01*
X200540952Y-71921714D01*
X200588571Y-71874095D01*
X200636190Y-71778857D01*
X200636190Y-71397904D01*
X200445714Y-72826476D02*
X201112380Y-72826476D01*
X200064761Y-72588380D02*
X200779047Y-72350285D01*
X200779047Y-72969333D01*
X170632666Y-135457142D02*
X170680285Y-135504761D01*
X170823142Y-135552380D01*
X170918380Y-135552380D01*
X171061238Y-135504761D01*
X171156476Y-135409523D01*
X171204095Y-135314285D01*
X171251714Y-135123809D01*
X171251714Y-134980952D01*
X171204095Y-134790476D01*
X171156476Y-134695238D01*
X171061238Y-134600000D01*
X170918380Y-134552380D01*
X170823142Y-134552380D01*
X170680285Y-134600000D01*
X170632666Y-134647619D01*
X169680285Y-135552380D02*
X170251714Y-135552380D01*
X169966000Y-135552380D02*
X169966000Y-134552380D01*
X170061238Y-134695238D01*
X170156476Y-134790476D01*
X170251714Y-134838095D01*
X193380666Y-103117380D02*
X193714000Y-102641190D01*
X193952095Y-103117380D02*
X193952095Y-102117380D01*
X193571142Y-102117380D01*
X193475904Y-102165000D01*
X193428285Y-102212619D01*
X193380666Y-102307857D01*
X193380666Y-102450714D01*
X193428285Y-102545952D01*
X193475904Y-102593571D01*
X193571142Y-102641190D01*
X193952095Y-102641190D01*
X192999714Y-102212619D02*
X192952095Y-102165000D01*
X192856857Y-102117380D01*
X192618761Y-102117380D01*
X192523523Y-102165000D01*
X192475904Y-102212619D01*
X192428285Y-102307857D01*
X192428285Y-102403095D01*
X192475904Y-102545952D01*
X193047333Y-103117380D01*
X192428285Y-103117380D01*
X193746666Y-93801142D02*
X193794285Y-93848761D01*
X193937142Y-93896380D01*
X194032380Y-93896380D01*
X194175238Y-93848761D01*
X194270476Y-93753523D01*
X194318095Y-93658285D01*
X194365714Y-93467809D01*
X194365714Y-93324952D01*
X194318095Y-93134476D01*
X194270476Y-93039238D01*
X194175238Y-92944000D01*
X194032380Y-92896380D01*
X193937142Y-92896380D01*
X193794285Y-92944000D01*
X193746666Y-92991619D01*
X192794285Y-93896380D02*
X193365714Y-93896380D01*
X193080000Y-93896380D02*
X193080000Y-92896380D01*
X193175238Y-93039238D01*
X193270476Y-93134476D01*
X193365714Y-93182095D01*
X170266666Y-82289380D02*
X170600000Y-81813190D01*
X170838095Y-82289380D02*
X170838095Y-81289380D01*
X170457142Y-81289380D01*
X170361904Y-81337000D01*
X170314285Y-81384619D01*
X170266666Y-81479857D01*
X170266666Y-81622714D01*
X170314285Y-81717952D01*
X170361904Y-81765571D01*
X170457142Y-81813190D01*
X170838095Y-81813190D01*
X169885714Y-81384619D02*
X169838095Y-81337000D01*
X169742857Y-81289380D01*
X169504761Y-81289380D01*
X169409523Y-81337000D01*
X169361904Y-81384619D01*
X169314285Y-81479857D01*
X169314285Y-81575095D01*
X169361904Y-81717952D01*
X169933333Y-82289380D01*
X169314285Y-82289380D01*
X193460666Y-65271380D02*
X193794000Y-64795190D01*
X194032095Y-65271380D02*
X194032095Y-64271380D01*
X193651142Y-64271380D01*
X193555904Y-64319000D01*
X193508285Y-64366619D01*
X193460666Y-64461857D01*
X193460666Y-64604714D01*
X193508285Y-64699952D01*
X193555904Y-64747571D01*
X193651142Y-64795190D01*
X194032095Y-64795190D01*
X192508285Y-65271380D02*
X193079714Y-65271380D01*
X192794000Y-65271380D02*
X192794000Y-64271380D01*
X192889238Y-64414238D01*
X192984476Y-64509476D01*
X193079714Y-64557095D01*
X197190666Y-107718380D02*
X197524000Y-107242190D01*
X197762095Y-107718380D02*
X197762095Y-106718380D01*
X197381142Y-106718380D01*
X197285904Y-106766000D01*
X197238285Y-106813619D01*
X197190666Y-106908857D01*
X197190666Y-107051714D01*
X197238285Y-107146952D01*
X197285904Y-107194571D01*
X197381142Y-107242190D01*
X197762095Y-107242190D01*
X196857333Y-106718380D02*
X196238285Y-106718380D01*
X196571619Y-107099333D01*
X196428761Y-107099333D01*
X196333523Y-107146952D01*
X196285904Y-107194571D01*
X196238285Y-107289809D01*
X196238285Y-107527904D01*
X196285904Y-107623142D01*
X196333523Y-107670761D01*
X196428761Y-107718380D01*
X196714476Y-107718380D01*
X196809714Y-107670761D01*
X196857333Y-107623142D01*
X174076666Y-66062380D02*
X174410000Y-65586190D01*
X174648095Y-66062380D02*
X174648095Y-65062380D01*
X174267142Y-65062380D01*
X174171904Y-65110000D01*
X174124285Y-65157619D01*
X174076666Y-65252857D01*
X174076666Y-65395714D01*
X174124285Y-65490952D01*
X174171904Y-65538571D01*
X174267142Y-65586190D01*
X174648095Y-65586190D01*
X173743333Y-65062380D02*
X173124285Y-65062380D01*
X173457619Y-65443333D01*
X173314761Y-65443333D01*
X173219523Y-65490952D01*
X173171904Y-65538571D01*
X173124285Y-65633809D01*
X173124285Y-65871904D01*
X173171904Y-65967142D01*
X173219523Y-66014761D01*
X173314761Y-66062380D01*
X173600476Y-66062380D01*
X173695714Y-66014761D01*
X173743333Y-65967142D01*
X170632666Y-114629142D02*
X170680285Y-114676761D01*
X170823142Y-114724380D01*
X170918380Y-114724380D01*
X171061238Y-114676761D01*
X171156476Y-114581523D01*
X171204095Y-114486285D01*
X171251714Y-114295809D01*
X171251714Y-114152952D01*
X171204095Y-113962476D01*
X171156476Y-113867238D01*
X171061238Y-113772000D01*
X170918380Y-113724380D01*
X170823142Y-113724380D01*
X170680285Y-113772000D01*
X170632666Y-113819619D01*
X169680285Y-114724380D02*
X170251714Y-114724380D01*
X169966000Y-114724380D02*
X169966000Y-113724380D01*
X170061238Y-113867238D01*
X170156476Y-113962476D01*
X170251714Y-114010095D01*
X170266666Y-103117380D02*
X170600000Y-102641190D01*
X170838095Y-103117380D02*
X170838095Y-102117380D01*
X170457142Y-102117380D01*
X170361904Y-102165000D01*
X170314285Y-102212619D01*
X170266666Y-102307857D01*
X170266666Y-102450714D01*
X170314285Y-102545952D01*
X170361904Y-102593571D01*
X170457142Y-102641190D01*
X170838095Y-102641190D01*
X169885714Y-102212619D02*
X169838095Y-102165000D01*
X169742857Y-102117380D01*
X169504761Y-102117380D01*
X169409523Y-102165000D01*
X169361904Y-102212619D01*
X169314285Y-102307857D01*
X169314285Y-102403095D01*
X169361904Y-102545952D01*
X169933333Y-103117380D01*
X169314285Y-103117380D01*
X177998380Y-92797333D02*
X177522190Y-92464000D01*
X177998380Y-92225904D02*
X176998380Y-92225904D01*
X176998380Y-92606857D01*
X177046000Y-92702095D01*
X177093619Y-92749714D01*
X177188857Y-92797333D01*
X177331714Y-92797333D01*
X177426952Y-92749714D01*
X177474571Y-92702095D01*
X177522190Y-92606857D01*
X177522190Y-92225904D01*
X177331714Y-93654476D02*
X177998380Y-93654476D01*
X176950761Y-93416380D02*
X177665047Y-93178285D01*
X177665047Y-93797333D01*
X193746666Y-72973142D02*
X193794285Y-73020761D01*
X193937142Y-73068380D01*
X194032380Y-73068380D01*
X194175238Y-73020761D01*
X194270476Y-72925523D01*
X194318095Y-72830285D01*
X194365714Y-72639809D01*
X194365714Y-72496952D01*
X194318095Y-72306476D01*
X194270476Y-72211238D01*
X194175238Y-72116000D01*
X194032380Y-72068380D01*
X193937142Y-72068380D01*
X193794285Y-72116000D01*
X193746666Y-72163619D01*
X192794285Y-73068380D02*
X193365714Y-73068380D01*
X193080000Y-73068380D02*
X193080000Y-72068380D01*
X193175238Y-72211238D01*
X193270476Y-72306476D01*
X193365714Y-72354095D01*
X201112380Y-92797333D02*
X200636190Y-92464000D01*
X201112380Y-92225904D02*
X200112380Y-92225904D01*
X200112380Y-92606857D01*
X200160000Y-92702095D01*
X200207619Y-92749714D01*
X200302857Y-92797333D01*
X200445714Y-92797333D01*
X200540952Y-92749714D01*
X200588571Y-92702095D01*
X200636190Y-92606857D01*
X200636190Y-92225904D01*
X200445714Y-93654476D02*
X201112380Y-93654476D01*
X200064761Y-93416380D02*
X200779047Y-93178285D01*
X200779047Y-93797333D01*
X193380666Y-123945380D02*
X193714000Y-123469190D01*
X193952095Y-123945380D02*
X193952095Y-122945380D01*
X193571142Y-122945380D01*
X193475904Y-122993000D01*
X193428285Y-123040619D01*
X193380666Y-123135857D01*
X193380666Y-123278714D01*
X193428285Y-123373952D01*
X193475904Y-123421571D01*
X193571142Y-123469190D01*
X193952095Y-123469190D01*
X192999714Y-123040619D02*
X192952095Y-122993000D01*
X192856857Y-122945380D01*
X192618761Y-122945380D01*
X192523523Y-122993000D01*
X192475904Y-123040619D01*
X192428285Y-123135857D01*
X192428285Y-123231095D01*
X192475904Y-123373952D01*
X193047333Y-123945380D01*
X192428285Y-123945380D01*
X170266666Y-123945380D02*
X170600000Y-123469190D01*
X170838095Y-123945380D02*
X170838095Y-122945380D01*
X170457142Y-122945380D01*
X170361904Y-122993000D01*
X170314285Y-123040619D01*
X170266666Y-123135857D01*
X170266666Y-123278714D01*
X170314285Y-123373952D01*
X170361904Y-123421571D01*
X170457142Y-123469190D01*
X170838095Y-123469190D01*
X169885714Y-123040619D02*
X169838095Y-122993000D01*
X169742857Y-122945380D01*
X169504761Y-122945380D01*
X169409523Y-122993000D01*
X169361904Y-123040619D01*
X169314285Y-123135857D01*
X169314285Y-123231095D01*
X169361904Y-123373952D01*
X169933333Y-123945380D01*
X169314285Y-123945380D01*
X174076666Y-128546380D02*
X174410000Y-128070190D01*
X174648095Y-128546380D02*
X174648095Y-127546380D01*
X174267142Y-127546380D01*
X174171904Y-127594000D01*
X174124285Y-127641619D01*
X174076666Y-127736857D01*
X174076666Y-127879714D01*
X174124285Y-127974952D01*
X174171904Y-128022571D01*
X174267142Y-128070190D01*
X174648095Y-128070190D01*
X173743333Y-127546380D02*
X173124285Y-127546380D01*
X173457619Y-127927333D01*
X173314761Y-127927333D01*
X173219523Y-127974952D01*
X173171904Y-128022571D01*
X173124285Y-128117809D01*
X173124285Y-128355904D01*
X173171904Y-128451142D01*
X173219523Y-128498761D01*
X173314761Y-128546380D01*
X173600476Y-128546380D01*
X173695714Y-128498761D01*
X173743333Y-128451142D01*
X170346666Y-86099380D02*
X170680000Y-85623190D01*
X170918095Y-86099380D02*
X170918095Y-85099380D01*
X170537142Y-85099380D01*
X170441904Y-85147000D01*
X170394285Y-85194619D01*
X170346666Y-85289857D01*
X170346666Y-85432714D01*
X170394285Y-85527952D01*
X170441904Y-85575571D01*
X170537142Y-85623190D01*
X170918095Y-85623190D01*
X169394285Y-86099380D02*
X169965714Y-86099380D01*
X169680000Y-86099380D02*
X169680000Y-85099380D01*
X169775238Y-85242238D01*
X169870476Y-85337476D01*
X169965714Y-85385095D01*
X174076666Y-86890380D02*
X174410000Y-86414190D01*
X174648095Y-86890380D02*
X174648095Y-85890380D01*
X174267142Y-85890380D01*
X174171904Y-85938000D01*
X174124285Y-85985619D01*
X174076666Y-86080857D01*
X174076666Y-86223714D01*
X174124285Y-86318952D01*
X174171904Y-86366571D01*
X174267142Y-86414190D01*
X174648095Y-86414190D01*
X173743333Y-85890380D02*
X173124285Y-85890380D01*
X173457619Y-86271333D01*
X173314761Y-86271333D01*
X173219523Y-86318952D01*
X173171904Y-86366571D01*
X173124285Y-86461809D01*
X173124285Y-86699904D01*
X173171904Y-86795142D01*
X173219523Y-86842761D01*
X173314761Y-86890380D01*
X173600476Y-86890380D01*
X173695714Y-86842761D01*
X173743333Y-86795142D01*
X174076666Y-107718380D02*
X174410000Y-107242190D01*
X174648095Y-107718380D02*
X174648095Y-106718380D01*
X174267142Y-106718380D01*
X174171904Y-106766000D01*
X174124285Y-106813619D01*
X174076666Y-106908857D01*
X174076666Y-107051714D01*
X174124285Y-107146952D01*
X174171904Y-107194571D01*
X174267142Y-107242190D01*
X174648095Y-107242190D01*
X173743333Y-106718380D02*
X173124285Y-106718380D01*
X173457619Y-107099333D01*
X173314761Y-107099333D01*
X173219523Y-107146952D01*
X173171904Y-107194571D01*
X173124285Y-107289809D01*
X173124285Y-107527904D01*
X173171904Y-107623142D01*
X173219523Y-107670761D01*
X173314761Y-107718380D01*
X173600476Y-107718380D01*
X173695714Y-107670761D01*
X173743333Y-107623142D01*
X201112380Y-113625333D02*
X200636190Y-113292000D01*
X201112380Y-113053904D02*
X200112380Y-113053904D01*
X200112380Y-113434857D01*
X200160000Y-113530095D01*
X200207619Y-113577714D01*
X200302857Y-113625333D01*
X200445714Y-113625333D01*
X200540952Y-113577714D01*
X200588571Y-113530095D01*
X200636190Y-113434857D01*
X200636190Y-113053904D01*
X200445714Y-114482476D02*
X201112380Y-114482476D01*
X200064761Y-114244380D02*
X200779047Y-114006285D01*
X200779047Y-114625333D01*
X201112380Y-134453333D02*
X200636190Y-134120000D01*
X201112380Y-133881904D02*
X200112380Y-133881904D01*
X200112380Y-134262857D01*
X200160000Y-134358095D01*
X200207619Y-134405714D01*
X200302857Y-134453333D01*
X200445714Y-134453333D01*
X200540952Y-134405714D01*
X200588571Y-134358095D01*
X200636190Y-134262857D01*
X200636190Y-133881904D01*
X200445714Y-135310476D02*
X201112380Y-135310476D01*
X200064761Y-135072380D02*
X200779047Y-134834285D01*
X200779047Y-135453333D01*
X193746666Y-114629142D02*
X193794285Y-114676761D01*
X193937142Y-114724380D01*
X194032380Y-114724380D01*
X194175238Y-114676761D01*
X194270476Y-114581523D01*
X194318095Y-114486285D01*
X194365714Y-114295809D01*
X194365714Y-114152952D01*
X194318095Y-113962476D01*
X194270476Y-113867238D01*
X194175238Y-113772000D01*
X194032380Y-113724380D01*
X193937142Y-113724380D01*
X193794285Y-113772000D01*
X193746666Y-113819619D01*
X192794285Y-114724380D02*
X193365714Y-114724380D01*
X193080000Y-114724380D02*
X193080000Y-113724380D01*
X193175238Y-113867238D01*
X193270476Y-113962476D01*
X193365714Y-114010095D01*
X197190666Y-66062380D02*
X197524000Y-65586190D01*
X197762095Y-66062380D02*
X197762095Y-65062380D01*
X197381142Y-65062380D01*
X197285904Y-65110000D01*
X197238285Y-65157619D01*
X197190666Y-65252857D01*
X197190666Y-65395714D01*
X197238285Y-65490952D01*
X197285904Y-65538571D01*
X197381142Y-65586190D01*
X197762095Y-65586190D01*
X196857333Y-65062380D02*
X196238285Y-65062380D01*
X196571619Y-65443333D01*
X196428761Y-65443333D01*
X196333523Y-65490952D01*
X196285904Y-65538571D01*
X196238285Y-65633809D01*
X196238285Y-65871904D01*
X196285904Y-65967142D01*
X196333523Y-66014761D01*
X196428761Y-66062380D01*
X196714476Y-66062380D01*
X196809714Y-66014761D01*
X196857333Y-65967142D01*
X193380666Y-61461380D02*
X193714000Y-60985190D01*
X193952095Y-61461380D02*
X193952095Y-60461380D01*
X193571142Y-60461380D01*
X193475904Y-60509000D01*
X193428285Y-60556619D01*
X193380666Y-60651857D01*
X193380666Y-60794714D01*
X193428285Y-60889952D01*
X193475904Y-60937571D01*
X193571142Y-60985190D01*
X193952095Y-60985190D01*
X192999714Y-60556619D02*
X192952095Y-60509000D01*
X192856857Y-60461380D01*
X192618761Y-60461380D01*
X192523523Y-60509000D01*
X192475904Y-60556619D01*
X192428285Y-60651857D01*
X192428285Y-60747095D01*
X192475904Y-60889952D01*
X193047333Y-61461380D01*
X192428285Y-61461380D01*
X170266666Y-61461380D02*
X170600000Y-60985190D01*
X170838095Y-61461380D02*
X170838095Y-60461380D01*
X170457142Y-60461380D01*
X170361904Y-60509000D01*
X170314285Y-60556619D01*
X170266666Y-60651857D01*
X170266666Y-60794714D01*
X170314285Y-60889952D01*
X170361904Y-60937571D01*
X170457142Y-60985190D01*
X170838095Y-60985190D01*
X169885714Y-60556619D02*
X169838095Y-60509000D01*
X169742857Y-60461380D01*
X169504761Y-60461380D01*
X169409523Y-60509000D01*
X169361904Y-60556619D01*
X169314285Y-60651857D01*
X169314285Y-60747095D01*
X169361904Y-60889952D01*
X169933333Y-61461380D01*
X169314285Y-61461380D01*
X170632666Y-72973142D02*
X170680285Y-73020761D01*
X170823142Y-73068380D01*
X170918380Y-73068380D01*
X171061238Y-73020761D01*
X171156476Y-72925523D01*
X171204095Y-72830285D01*
X171251714Y-72639809D01*
X171251714Y-72496952D01*
X171204095Y-72306476D01*
X171156476Y-72211238D01*
X171061238Y-72116000D01*
X170918380Y-72068380D01*
X170823142Y-72068380D01*
X170680285Y-72116000D01*
X170632666Y-72163619D01*
X169680285Y-73068380D02*
X170251714Y-73068380D01*
X169966000Y-73068380D02*
X169966000Y-72068380D01*
X170061238Y-72211238D01*
X170156476Y-72306476D01*
X170251714Y-72354095D01*
X177998380Y-134453333D02*
X177522190Y-134120000D01*
X177998380Y-133881904D02*
X176998380Y-133881904D01*
X176998380Y-134262857D01*
X177046000Y-134358095D01*
X177093619Y-134405714D01*
X177188857Y-134453333D01*
X177331714Y-134453333D01*
X177426952Y-134405714D01*
X177474571Y-134358095D01*
X177522190Y-134262857D01*
X177522190Y-133881904D01*
X177331714Y-135310476D02*
X177998380Y-135310476D01*
X176950761Y-135072380D02*
X177665047Y-134834285D01*
X177665047Y-135453333D01*
X177998380Y-113625333D02*
X177522190Y-113292000D01*
X177998380Y-113053904D02*
X176998380Y-113053904D01*
X176998380Y-113434857D01*
X177046000Y-113530095D01*
X177093619Y-113577714D01*
X177188857Y-113625333D01*
X177331714Y-113625333D01*
X177426952Y-113577714D01*
X177474571Y-113530095D01*
X177522190Y-113434857D01*
X177522190Y-113053904D01*
X177331714Y-114482476D02*
X177998380Y-114482476D01*
X176950761Y-114244380D02*
X177665047Y-114006285D01*
X177665047Y-114625333D01*
X239608666Y-123945380D02*
X239942000Y-123469190D01*
X240180095Y-123945380D02*
X240180095Y-122945380D01*
X239799142Y-122945380D01*
X239703904Y-122993000D01*
X239656285Y-123040619D01*
X239608666Y-123135857D01*
X239608666Y-123278714D01*
X239656285Y-123373952D01*
X239703904Y-123421571D01*
X239799142Y-123469190D01*
X240180095Y-123469190D01*
X239227714Y-123040619D02*
X239180095Y-122993000D01*
X239084857Y-122945380D01*
X238846761Y-122945380D01*
X238751523Y-122993000D01*
X238703904Y-123040619D01*
X238656285Y-123135857D01*
X238656285Y-123231095D01*
X238703904Y-123373952D01*
X239275333Y-123945380D01*
X238656285Y-123945380D01*
X216860666Y-135457142D02*
X216908285Y-135504761D01*
X217051142Y-135552380D01*
X217146380Y-135552380D01*
X217289238Y-135504761D01*
X217384476Y-135409523D01*
X217432095Y-135314285D01*
X217479714Y-135123809D01*
X217479714Y-134980952D01*
X217432095Y-134790476D01*
X217384476Y-134695238D01*
X217289238Y-134600000D01*
X217146380Y-134552380D01*
X217051142Y-134552380D01*
X216908285Y-134600000D01*
X216860666Y-134647619D01*
X215908285Y-135552380D02*
X216479714Y-135552380D01*
X216194000Y-135552380D02*
X216194000Y-134552380D01*
X216289238Y-134695238D01*
X216384476Y-134790476D01*
X216479714Y-134838095D01*
X239688666Y-127755380D02*
X240022000Y-127279190D01*
X240260095Y-127755380D02*
X240260095Y-126755380D01*
X239879142Y-126755380D01*
X239783904Y-126803000D01*
X239736285Y-126850619D01*
X239688666Y-126945857D01*
X239688666Y-127088714D01*
X239736285Y-127183952D01*
X239783904Y-127231571D01*
X239879142Y-127279190D01*
X240260095Y-127279190D01*
X238736285Y-127755380D02*
X239307714Y-127755380D01*
X239022000Y-127755380D02*
X239022000Y-126755380D01*
X239117238Y-126898238D01*
X239212476Y-126993476D01*
X239307714Y-127041095D01*
X216574666Y-106927380D02*
X216908000Y-106451190D01*
X217146095Y-106927380D02*
X217146095Y-105927380D01*
X216765142Y-105927380D01*
X216669904Y-105975000D01*
X216622285Y-106022619D01*
X216574666Y-106117857D01*
X216574666Y-106260714D01*
X216622285Y-106355952D01*
X216669904Y-106403571D01*
X216765142Y-106451190D01*
X217146095Y-106451190D01*
X215622285Y-106927380D02*
X216193714Y-106927380D01*
X215908000Y-106927380D02*
X215908000Y-105927380D01*
X216003238Y-106070238D01*
X216098476Y-106165476D01*
X216193714Y-106213095D01*
X243418666Y-128546380D02*
X243752000Y-128070190D01*
X243990095Y-128546380D02*
X243990095Y-127546380D01*
X243609142Y-127546380D01*
X243513904Y-127594000D01*
X243466285Y-127641619D01*
X243418666Y-127736857D01*
X243418666Y-127879714D01*
X243466285Y-127974952D01*
X243513904Y-128022571D01*
X243609142Y-128070190D01*
X243990095Y-128070190D01*
X243085333Y-127546380D02*
X242466285Y-127546380D01*
X242799619Y-127927333D01*
X242656761Y-127927333D01*
X242561523Y-127974952D01*
X242513904Y-128022571D01*
X242466285Y-128117809D01*
X242466285Y-128355904D01*
X242513904Y-128451142D01*
X242561523Y-128498761D01*
X242656761Y-128546380D01*
X242942476Y-128546380D01*
X243037714Y-128498761D01*
X243085333Y-128451142D01*
X224226380Y-113625333D02*
X223750190Y-113292000D01*
X224226380Y-113053904D02*
X223226380Y-113053904D01*
X223226380Y-113434857D01*
X223274000Y-113530095D01*
X223321619Y-113577714D01*
X223416857Y-113625333D01*
X223559714Y-113625333D01*
X223654952Y-113577714D01*
X223702571Y-113530095D01*
X223750190Y-113434857D01*
X223750190Y-113053904D01*
X223559714Y-114482476D02*
X224226380Y-114482476D01*
X223178761Y-114244380D02*
X223893047Y-114006285D01*
X223893047Y-114625333D01*
X247340380Y-113625333D02*
X246864190Y-113292000D01*
X247340380Y-113053904D02*
X246340380Y-113053904D01*
X246340380Y-113434857D01*
X246388000Y-113530095D01*
X246435619Y-113577714D01*
X246530857Y-113625333D01*
X246673714Y-113625333D01*
X246768952Y-113577714D01*
X246816571Y-113530095D01*
X246864190Y-113434857D01*
X246864190Y-113053904D01*
X246673714Y-114482476D02*
X247340380Y-114482476D01*
X246292761Y-114244380D02*
X247007047Y-114006285D01*
X247007047Y-114625333D01*
X239974666Y-135457142D02*
X240022285Y-135504761D01*
X240165142Y-135552380D01*
X240260380Y-135552380D01*
X240403238Y-135504761D01*
X240498476Y-135409523D01*
X240546095Y-135314285D01*
X240593714Y-135123809D01*
X240593714Y-134980952D01*
X240546095Y-134790476D01*
X240498476Y-134695238D01*
X240403238Y-134600000D01*
X240260380Y-134552380D01*
X240165142Y-134552380D01*
X240022285Y-134600000D01*
X239974666Y-134647619D01*
X239022285Y-135552380D02*
X239593714Y-135552380D01*
X239308000Y-135552380D02*
X239308000Y-134552380D01*
X239403238Y-134695238D01*
X239498476Y-134790476D01*
X239593714Y-134838095D01*
X216494666Y-123945380D02*
X216828000Y-123469190D01*
X217066095Y-123945380D02*
X217066095Y-122945380D01*
X216685142Y-122945380D01*
X216589904Y-122993000D01*
X216542285Y-123040619D01*
X216494666Y-123135857D01*
X216494666Y-123278714D01*
X216542285Y-123373952D01*
X216589904Y-123421571D01*
X216685142Y-123469190D01*
X217066095Y-123469190D01*
X216113714Y-123040619D02*
X216066095Y-122993000D01*
X215970857Y-122945380D01*
X215732761Y-122945380D01*
X215637523Y-122993000D01*
X215589904Y-123040619D01*
X215542285Y-123135857D01*
X215542285Y-123231095D01*
X215589904Y-123373952D01*
X216161333Y-123945380D01*
X215542285Y-123945380D01*
X239688666Y-106927380D02*
X240022000Y-106451190D01*
X240260095Y-106927380D02*
X240260095Y-105927380D01*
X239879142Y-105927380D01*
X239783904Y-105975000D01*
X239736285Y-106022619D01*
X239688666Y-106117857D01*
X239688666Y-106260714D01*
X239736285Y-106355952D01*
X239783904Y-106403571D01*
X239879142Y-106451190D01*
X240260095Y-106451190D01*
X238736285Y-106927380D02*
X239307714Y-106927380D01*
X239022000Y-106927380D02*
X239022000Y-105927380D01*
X239117238Y-106070238D01*
X239212476Y-106165476D01*
X239307714Y-106213095D01*
X220304666Y-107718380D02*
X220638000Y-107242190D01*
X220876095Y-107718380D02*
X220876095Y-106718380D01*
X220495142Y-106718380D01*
X220399904Y-106766000D01*
X220352285Y-106813619D01*
X220304666Y-106908857D01*
X220304666Y-107051714D01*
X220352285Y-107146952D01*
X220399904Y-107194571D01*
X220495142Y-107242190D01*
X220876095Y-107242190D01*
X219971333Y-106718380D02*
X219352285Y-106718380D01*
X219685619Y-107099333D01*
X219542761Y-107099333D01*
X219447523Y-107146952D01*
X219399904Y-107194571D01*
X219352285Y-107289809D01*
X219352285Y-107527904D01*
X219399904Y-107623142D01*
X219447523Y-107670761D01*
X219542761Y-107718380D01*
X219828476Y-107718380D01*
X219923714Y-107670761D01*
X219971333Y-107623142D01*
X224226380Y-134453333D02*
X223750190Y-134120000D01*
X224226380Y-133881904D02*
X223226380Y-133881904D01*
X223226380Y-134262857D01*
X223274000Y-134358095D01*
X223321619Y-134405714D01*
X223416857Y-134453333D01*
X223559714Y-134453333D01*
X223654952Y-134405714D01*
X223702571Y-134358095D01*
X223750190Y-134262857D01*
X223750190Y-133881904D01*
X223559714Y-135310476D02*
X224226380Y-135310476D01*
X223178761Y-135072380D02*
X223893047Y-134834285D01*
X223893047Y-135453333D01*
X239974666Y-114629142D02*
X240022285Y-114676761D01*
X240165142Y-114724380D01*
X240260380Y-114724380D01*
X240403238Y-114676761D01*
X240498476Y-114581523D01*
X240546095Y-114486285D01*
X240593714Y-114295809D01*
X240593714Y-114152952D01*
X240546095Y-113962476D01*
X240498476Y-113867238D01*
X240403238Y-113772000D01*
X240260380Y-113724380D01*
X240165142Y-113724380D01*
X240022285Y-113772000D01*
X239974666Y-113819619D01*
X239022285Y-114724380D02*
X239593714Y-114724380D01*
X239308000Y-114724380D02*
X239308000Y-113724380D01*
X239403238Y-113867238D01*
X239498476Y-113962476D01*
X239593714Y-114010095D01*
X247340380Y-134453333D02*
X246864190Y-134120000D01*
X247340380Y-133881904D02*
X246340380Y-133881904D01*
X246340380Y-134262857D01*
X246388000Y-134358095D01*
X246435619Y-134405714D01*
X246530857Y-134453333D01*
X246673714Y-134453333D01*
X246768952Y-134405714D01*
X246816571Y-134358095D01*
X246864190Y-134262857D01*
X246864190Y-133881904D01*
X246673714Y-135310476D02*
X247340380Y-135310476D01*
X246292761Y-135072380D02*
X247007047Y-134834285D01*
X247007047Y-135453333D01*
X216574666Y-127755380D02*
X216908000Y-127279190D01*
X217146095Y-127755380D02*
X217146095Y-126755380D01*
X216765142Y-126755380D01*
X216669904Y-126803000D01*
X216622285Y-126850619D01*
X216574666Y-126945857D01*
X216574666Y-127088714D01*
X216622285Y-127183952D01*
X216669904Y-127231571D01*
X216765142Y-127279190D01*
X217146095Y-127279190D01*
X215622285Y-127755380D02*
X216193714Y-127755380D01*
X215908000Y-127755380D02*
X215908000Y-126755380D01*
X216003238Y-126898238D01*
X216098476Y-126993476D01*
X216193714Y-127041095D01*
X220304666Y-128546380D02*
X220638000Y-128070190D01*
X220876095Y-128546380D02*
X220876095Y-127546380D01*
X220495142Y-127546380D01*
X220399904Y-127594000D01*
X220352285Y-127641619D01*
X220304666Y-127736857D01*
X220304666Y-127879714D01*
X220352285Y-127974952D01*
X220399904Y-128022571D01*
X220495142Y-128070190D01*
X220876095Y-128070190D01*
X219971333Y-127546380D02*
X219352285Y-127546380D01*
X219685619Y-127927333D01*
X219542761Y-127927333D01*
X219447523Y-127974952D01*
X219399904Y-128022571D01*
X219352285Y-128117809D01*
X219352285Y-128355904D01*
X219399904Y-128451142D01*
X219447523Y-128498761D01*
X219542761Y-128546380D01*
X219828476Y-128546380D01*
X219923714Y-128498761D01*
X219971333Y-128451142D01*
X243418666Y-107718380D02*
X243752000Y-107242190D01*
X243990095Y-107718380D02*
X243990095Y-106718380D01*
X243609142Y-106718380D01*
X243513904Y-106766000D01*
X243466285Y-106813619D01*
X243418666Y-106908857D01*
X243418666Y-107051714D01*
X243466285Y-107146952D01*
X243513904Y-107194571D01*
X243609142Y-107242190D01*
X243990095Y-107242190D01*
X243085333Y-106718380D02*
X242466285Y-106718380D01*
X242799619Y-107099333D01*
X242656761Y-107099333D01*
X242561523Y-107146952D01*
X242513904Y-107194571D01*
X242466285Y-107289809D01*
X242466285Y-107527904D01*
X242513904Y-107623142D01*
X242561523Y-107670761D01*
X242656761Y-107718380D01*
X242942476Y-107718380D01*
X243037714Y-107670761D01*
X243085333Y-107623142D01*
X239608666Y-103117380D02*
X239942000Y-102641190D01*
X240180095Y-103117380D02*
X240180095Y-102117380D01*
X239799142Y-102117380D01*
X239703904Y-102165000D01*
X239656285Y-102212619D01*
X239608666Y-102307857D01*
X239608666Y-102450714D01*
X239656285Y-102545952D01*
X239703904Y-102593571D01*
X239799142Y-102641190D01*
X240180095Y-102641190D01*
X239227714Y-102212619D02*
X239180095Y-102165000D01*
X239084857Y-102117380D01*
X238846761Y-102117380D01*
X238751523Y-102165000D01*
X238703904Y-102212619D01*
X238656285Y-102307857D01*
X238656285Y-102403095D01*
X238703904Y-102545952D01*
X239275333Y-103117380D01*
X238656285Y-103117380D01*
X216494666Y-103117380D02*
X216828000Y-102641190D01*
X217066095Y-103117380D02*
X217066095Y-102117380D01*
X216685142Y-102117380D01*
X216589904Y-102165000D01*
X216542285Y-102212619D01*
X216494666Y-102307857D01*
X216494666Y-102450714D01*
X216542285Y-102545952D01*
X216589904Y-102593571D01*
X216685142Y-102641190D01*
X217066095Y-102641190D01*
X216113714Y-102212619D02*
X216066095Y-102165000D01*
X215970857Y-102117380D01*
X215732761Y-102117380D01*
X215637523Y-102165000D01*
X215589904Y-102212619D01*
X215542285Y-102307857D01*
X215542285Y-102403095D01*
X215589904Y-102545952D01*
X216161333Y-103117380D01*
X215542285Y-103117380D01*
X216860666Y-114629142D02*
X216908285Y-114676761D01*
X217051142Y-114724380D01*
X217146380Y-114724380D01*
X217289238Y-114676761D01*
X217384476Y-114581523D01*
X217432095Y-114486285D01*
X217479714Y-114295809D01*
X217479714Y-114152952D01*
X217432095Y-113962476D01*
X217384476Y-113867238D01*
X217289238Y-113772000D01*
X217146380Y-113724380D01*
X217051142Y-113724380D01*
X216908285Y-113772000D01*
X216860666Y-113819619D01*
X215908285Y-114724380D02*
X216479714Y-114724380D01*
X216194000Y-114724380D02*
X216194000Y-113724380D01*
X216289238Y-113867238D01*
X216384476Y-113962476D01*
X216479714Y-114010095D01*
X216574666Y-86099380D02*
X216908000Y-85623190D01*
X217146095Y-86099380D02*
X217146095Y-85099380D01*
X216765142Y-85099380D01*
X216669904Y-85147000D01*
X216622285Y-85194619D01*
X216574666Y-85289857D01*
X216574666Y-85432714D01*
X216622285Y-85527952D01*
X216669904Y-85575571D01*
X216765142Y-85623190D01*
X217146095Y-85623190D01*
X215622285Y-86099380D02*
X216193714Y-86099380D01*
X215908000Y-86099380D02*
X215908000Y-85099380D01*
X216003238Y-85242238D01*
X216098476Y-85337476D01*
X216193714Y-85385095D01*
X224226380Y-92797333D02*
X223750190Y-92464000D01*
X224226380Y-92225904D02*
X223226380Y-92225904D01*
X223226380Y-92606857D01*
X223274000Y-92702095D01*
X223321619Y-92749714D01*
X223416857Y-92797333D01*
X223559714Y-92797333D01*
X223654952Y-92749714D01*
X223702571Y-92702095D01*
X223750190Y-92606857D01*
X223750190Y-92225904D01*
X223559714Y-93654476D02*
X224226380Y-93654476D01*
X223178761Y-93416380D02*
X223893047Y-93178285D01*
X223893047Y-93797333D01*
X247340380Y-92797333D02*
X246864190Y-92464000D01*
X247340380Y-92225904D02*
X246340380Y-92225904D01*
X246340380Y-92606857D01*
X246388000Y-92702095D01*
X246435619Y-92749714D01*
X246530857Y-92797333D01*
X246673714Y-92797333D01*
X246768952Y-92749714D01*
X246816571Y-92702095D01*
X246864190Y-92606857D01*
X246864190Y-92225904D01*
X246673714Y-93654476D02*
X247340380Y-93654476D01*
X246292761Y-93416380D02*
X247007047Y-93178285D01*
X247007047Y-93797333D01*
X239688666Y-86099380D02*
X240022000Y-85623190D01*
X240260095Y-86099380D02*
X240260095Y-85099380D01*
X239879142Y-85099380D01*
X239783904Y-85147000D01*
X239736285Y-85194619D01*
X239688666Y-85289857D01*
X239688666Y-85432714D01*
X239736285Y-85527952D01*
X239783904Y-85575571D01*
X239879142Y-85623190D01*
X240260095Y-85623190D01*
X238736285Y-86099380D02*
X239307714Y-86099380D01*
X239022000Y-86099380D02*
X239022000Y-85099380D01*
X239117238Y-85242238D01*
X239212476Y-85337476D01*
X239307714Y-85385095D01*
X220304666Y-86890380D02*
X220638000Y-86414190D01*
X220876095Y-86890380D02*
X220876095Y-85890380D01*
X220495142Y-85890380D01*
X220399904Y-85938000D01*
X220352285Y-85985619D01*
X220304666Y-86080857D01*
X220304666Y-86223714D01*
X220352285Y-86318952D01*
X220399904Y-86366571D01*
X220495142Y-86414190D01*
X220876095Y-86414190D01*
X219971333Y-85890380D02*
X219352285Y-85890380D01*
X219685619Y-86271333D01*
X219542761Y-86271333D01*
X219447523Y-86318952D01*
X219399904Y-86366571D01*
X219352285Y-86461809D01*
X219352285Y-86699904D01*
X219399904Y-86795142D01*
X219447523Y-86842761D01*
X219542761Y-86890380D01*
X219828476Y-86890380D01*
X219923714Y-86842761D01*
X219971333Y-86795142D01*
X239974666Y-93801142D02*
X240022285Y-93848761D01*
X240165142Y-93896380D01*
X240260380Y-93896380D01*
X240403238Y-93848761D01*
X240498476Y-93753523D01*
X240546095Y-93658285D01*
X240593714Y-93467809D01*
X240593714Y-93324952D01*
X240546095Y-93134476D01*
X240498476Y-93039238D01*
X240403238Y-92944000D01*
X240260380Y-92896380D01*
X240165142Y-92896380D01*
X240022285Y-92944000D01*
X239974666Y-92991619D01*
X239022285Y-93896380D02*
X239593714Y-93896380D01*
X239308000Y-93896380D02*
X239308000Y-92896380D01*
X239403238Y-93039238D01*
X239498476Y-93134476D01*
X239593714Y-93182095D01*
X243418666Y-86890380D02*
X243752000Y-86414190D01*
X243990095Y-86890380D02*
X243990095Y-85890380D01*
X243609142Y-85890380D01*
X243513904Y-85938000D01*
X243466285Y-85985619D01*
X243418666Y-86080857D01*
X243418666Y-86223714D01*
X243466285Y-86318952D01*
X243513904Y-86366571D01*
X243609142Y-86414190D01*
X243990095Y-86414190D01*
X243085333Y-85890380D02*
X242466285Y-85890380D01*
X242799619Y-86271333D01*
X242656761Y-86271333D01*
X242561523Y-86318952D01*
X242513904Y-86366571D01*
X242466285Y-86461809D01*
X242466285Y-86699904D01*
X242513904Y-86795142D01*
X242561523Y-86842761D01*
X242656761Y-86890380D01*
X242942476Y-86890380D01*
X243037714Y-86842761D01*
X243085333Y-86795142D01*
X239608666Y-82289380D02*
X239942000Y-81813190D01*
X240180095Y-82289380D02*
X240180095Y-81289380D01*
X239799142Y-81289380D01*
X239703904Y-81337000D01*
X239656285Y-81384619D01*
X239608666Y-81479857D01*
X239608666Y-81622714D01*
X239656285Y-81717952D01*
X239703904Y-81765571D01*
X239799142Y-81813190D01*
X240180095Y-81813190D01*
X239227714Y-81384619D02*
X239180095Y-81337000D01*
X239084857Y-81289380D01*
X238846761Y-81289380D01*
X238751523Y-81337000D01*
X238703904Y-81384619D01*
X238656285Y-81479857D01*
X238656285Y-81575095D01*
X238703904Y-81717952D01*
X239275333Y-82289380D01*
X238656285Y-82289380D01*
X216494666Y-82289380D02*
X216828000Y-81813190D01*
X217066095Y-82289380D02*
X217066095Y-81289380D01*
X216685142Y-81289380D01*
X216589904Y-81337000D01*
X216542285Y-81384619D01*
X216494666Y-81479857D01*
X216494666Y-81622714D01*
X216542285Y-81717952D01*
X216589904Y-81765571D01*
X216685142Y-81813190D01*
X217066095Y-81813190D01*
X216113714Y-81384619D02*
X216066095Y-81337000D01*
X215970857Y-81289380D01*
X215732761Y-81289380D01*
X215637523Y-81337000D01*
X215589904Y-81384619D01*
X215542285Y-81479857D01*
X215542285Y-81575095D01*
X215589904Y-81717952D01*
X216161333Y-82289380D01*
X215542285Y-82289380D01*
X216860666Y-93801142D02*
X216908285Y-93848761D01*
X217051142Y-93896380D01*
X217146380Y-93896380D01*
X217289238Y-93848761D01*
X217384476Y-93753523D01*
X217432095Y-93658285D01*
X217479714Y-93467809D01*
X217479714Y-93324952D01*
X217432095Y-93134476D01*
X217384476Y-93039238D01*
X217289238Y-92944000D01*
X217146380Y-92896380D01*
X217051142Y-92896380D01*
X216908285Y-92944000D01*
X216860666Y-92991619D01*
X215908285Y-93896380D02*
X216479714Y-93896380D01*
X216194000Y-93896380D02*
X216194000Y-92896380D01*
X216289238Y-93039238D01*
X216384476Y-93134476D01*
X216479714Y-93182095D01*
X224226380Y-71969333D02*
X223750190Y-71636000D01*
X224226380Y-71397904D02*
X223226380Y-71397904D01*
X223226380Y-71778857D01*
X223274000Y-71874095D01*
X223321619Y-71921714D01*
X223416857Y-71969333D01*
X223559714Y-71969333D01*
X223654952Y-71921714D01*
X223702571Y-71874095D01*
X223750190Y-71778857D01*
X223750190Y-71397904D01*
X223559714Y-72826476D02*
X224226380Y-72826476D01*
X223178761Y-72588380D02*
X223893047Y-72350285D01*
X223893047Y-72969333D01*
X216574666Y-65271380D02*
X216908000Y-64795190D01*
X217146095Y-65271380D02*
X217146095Y-64271380D01*
X216765142Y-64271380D01*
X216669904Y-64319000D01*
X216622285Y-64366619D01*
X216574666Y-64461857D01*
X216574666Y-64604714D01*
X216622285Y-64699952D01*
X216669904Y-64747571D01*
X216765142Y-64795190D01*
X217146095Y-64795190D01*
X215622285Y-65271380D02*
X216193714Y-65271380D01*
X215908000Y-65271380D02*
X215908000Y-64271380D01*
X216003238Y-64414238D01*
X216098476Y-64509476D01*
X216193714Y-64557095D01*
X216860666Y-72973142D02*
X216908285Y-73020761D01*
X217051142Y-73068380D01*
X217146380Y-73068380D01*
X217289238Y-73020761D01*
X217384476Y-72925523D01*
X217432095Y-72830285D01*
X217479714Y-72639809D01*
X217479714Y-72496952D01*
X217432095Y-72306476D01*
X217384476Y-72211238D01*
X217289238Y-72116000D01*
X217146380Y-72068380D01*
X217051142Y-72068380D01*
X216908285Y-72116000D01*
X216860666Y-72163619D01*
X215908285Y-73068380D02*
X216479714Y-73068380D01*
X216194000Y-73068380D02*
X216194000Y-72068380D01*
X216289238Y-72211238D01*
X216384476Y-72306476D01*
X216479714Y-72354095D01*
X220304666Y-66062380D02*
X220638000Y-65586190D01*
X220876095Y-66062380D02*
X220876095Y-65062380D01*
X220495142Y-65062380D01*
X220399904Y-65110000D01*
X220352285Y-65157619D01*
X220304666Y-65252857D01*
X220304666Y-65395714D01*
X220352285Y-65490952D01*
X220399904Y-65538571D01*
X220495142Y-65586190D01*
X220876095Y-65586190D01*
X219971333Y-65062380D02*
X219352285Y-65062380D01*
X219685619Y-65443333D01*
X219542761Y-65443333D01*
X219447523Y-65490952D01*
X219399904Y-65538571D01*
X219352285Y-65633809D01*
X219352285Y-65871904D01*
X219399904Y-65967142D01*
X219447523Y-66014761D01*
X219542761Y-66062380D01*
X219828476Y-66062380D01*
X219923714Y-66014761D01*
X219971333Y-65967142D01*
X216494666Y-61461380D02*
X216828000Y-60985190D01*
X217066095Y-61461380D02*
X217066095Y-60461380D01*
X216685142Y-60461380D01*
X216589904Y-60509000D01*
X216542285Y-60556619D01*
X216494666Y-60651857D01*
X216494666Y-60794714D01*
X216542285Y-60889952D01*
X216589904Y-60937571D01*
X216685142Y-60985190D01*
X217066095Y-60985190D01*
X216113714Y-60556619D02*
X216066095Y-60509000D01*
X215970857Y-60461380D01*
X215732761Y-60461380D01*
X215637523Y-60509000D01*
X215589904Y-60556619D01*
X215542285Y-60651857D01*
X215542285Y-60747095D01*
X215589904Y-60889952D01*
X216161333Y-61461380D01*
X215542285Y-61461380D01*
X239974666Y-72973142D02*
X240022285Y-73020761D01*
X240165142Y-73068380D01*
X240260380Y-73068380D01*
X240403238Y-73020761D01*
X240498476Y-72925523D01*
X240546095Y-72830285D01*
X240593714Y-72639809D01*
X240593714Y-72496952D01*
X240546095Y-72306476D01*
X240498476Y-72211238D01*
X240403238Y-72116000D01*
X240260380Y-72068380D01*
X240165142Y-72068380D01*
X240022285Y-72116000D01*
X239974666Y-72163619D01*
X239022285Y-73068380D02*
X239593714Y-73068380D01*
X239308000Y-73068380D02*
X239308000Y-72068380D01*
X239403238Y-72211238D01*
X239498476Y-72306476D01*
X239593714Y-72354095D01*
X239688666Y-65271380D02*
X240022000Y-64795190D01*
X240260095Y-65271380D02*
X240260095Y-64271380D01*
X239879142Y-64271380D01*
X239783904Y-64319000D01*
X239736285Y-64366619D01*
X239688666Y-64461857D01*
X239688666Y-64604714D01*
X239736285Y-64699952D01*
X239783904Y-64747571D01*
X239879142Y-64795190D01*
X240260095Y-64795190D01*
X238736285Y-65271380D02*
X239307714Y-65271380D01*
X239022000Y-65271380D02*
X239022000Y-64271380D01*
X239117238Y-64414238D01*
X239212476Y-64509476D01*
X239307714Y-64557095D01*
X239608666Y-61461380D02*
X239942000Y-60985190D01*
X240180095Y-61461380D02*
X240180095Y-60461380D01*
X239799142Y-60461380D01*
X239703904Y-60509000D01*
X239656285Y-60556619D01*
X239608666Y-60651857D01*
X239608666Y-60794714D01*
X239656285Y-60889952D01*
X239703904Y-60937571D01*
X239799142Y-60985190D01*
X240180095Y-60985190D01*
X239227714Y-60556619D02*
X239180095Y-60509000D01*
X239084857Y-60461380D01*
X238846761Y-60461380D01*
X238751523Y-60509000D01*
X238703904Y-60556619D01*
X238656285Y-60651857D01*
X238656285Y-60747095D01*
X238703904Y-60889952D01*
X239275333Y-61461380D01*
X238656285Y-61461380D01*
X243418666Y-66062380D02*
X243752000Y-65586190D01*
X243990095Y-66062380D02*
X243990095Y-65062380D01*
X243609142Y-65062380D01*
X243513904Y-65110000D01*
X243466285Y-65157619D01*
X243418666Y-65252857D01*
X243418666Y-65395714D01*
X243466285Y-65490952D01*
X243513904Y-65538571D01*
X243609142Y-65586190D01*
X243990095Y-65586190D01*
X243085333Y-65062380D02*
X242466285Y-65062380D01*
X242799619Y-65443333D01*
X242656761Y-65443333D01*
X242561523Y-65490952D01*
X242513904Y-65538571D01*
X242466285Y-65633809D01*
X242466285Y-65871904D01*
X242513904Y-65967142D01*
X242561523Y-66014761D01*
X242656761Y-66062380D01*
X242942476Y-66062380D01*
X243037714Y-66014761D01*
X243085333Y-65967142D01*
X247340380Y-71969333D02*
X246864190Y-71636000D01*
X247340380Y-71397904D02*
X246340380Y-71397904D01*
X246340380Y-71778857D01*
X246388000Y-71874095D01*
X246435619Y-71921714D01*
X246530857Y-71969333D01*
X246673714Y-71969333D01*
X246768952Y-71921714D01*
X246816571Y-71874095D01*
X246864190Y-71778857D01*
X246864190Y-71397904D01*
X246673714Y-72826476D02*
X247340380Y-72826476D01*
X246292761Y-72588380D02*
X247007047Y-72350285D01*
X247007047Y-72969333D01*
M02*
