G04 #@! TF.GenerationSoftware,KiCad,Pcbnew,5.1.6-c6e7f7d~86~ubuntu19.10.1*
G04 #@! TF.CreationDate,2021-03-24T15:38:50+01:00*
G04 #@! TF.ProjectId,Switch3V,53776974-6368-4335-962e-6b696361645f,rev?*
G04 #@! TF.SameCoordinates,Original*
G04 #@! TF.FileFunction,Copper,L1,Top*
G04 #@! TF.FilePolarity,Positive*
%FSLAX46Y46*%
G04 Gerber Fmt 4.6, Leading zero omitted, Abs format (unit mm)*
G04 Created by KiCad (PCBNEW 5.1.6-c6e7f7d~86~ubuntu19.10.1) date 2021-03-24 15:38:50*
%MOMM*%
%LPD*%
G01*
G04 APERTURE LIST*
G04 #@! TA.AperFunction,SMDPad,CuDef*
%ADD10R,2.000000X3.800000*%
G04 #@! TD*
G04 #@! TA.AperFunction,SMDPad,CuDef*
%ADD11R,2.000000X1.500000*%
G04 #@! TD*
G04 #@! TA.AperFunction,ComponentPad*
%ADD12C,1.000000*%
G04 #@! TD*
G04 #@! TA.AperFunction,ComponentPad*
%ADD13R,1.000000X1.000000*%
G04 #@! TD*
G04 #@! TA.AperFunction,ComponentPad*
%ADD14R,1.800000X1.800000*%
G04 #@! TD*
G04 #@! TA.AperFunction,ComponentPad*
%ADD15C,1.800000*%
G04 #@! TD*
G04 #@! TA.AperFunction,SMDPad,CuDef*
%ADD16R,1.550000X1.300000*%
G04 #@! TD*
G04 #@! TA.AperFunction,SMDPad,CuDef*
%ADD17R,1.600000X2.000000*%
G04 #@! TD*
G04 #@! TA.AperFunction,ComponentPad*
%ADD18R,1.700000X1.700000*%
G04 #@! TD*
G04 #@! TA.AperFunction,ComponentPad*
%ADD19O,1.700000X1.700000*%
G04 #@! TD*
G04 #@! TA.AperFunction,SMDPad,CuDef*
%ADD20R,2.000000X1.700000*%
G04 #@! TD*
G04 #@! TA.AperFunction,SMDPad,CuDef*
%ADD21R,2.000000X1.600000*%
G04 #@! TD*
G04 #@! TA.AperFunction,SMDPad,CuDef*
%ADD22R,1.300000X1.500000*%
G04 #@! TD*
G04 #@! TA.AperFunction,SMDPad,CuDef*
%ADD23R,1.600000X1.000000*%
G04 #@! TD*
G04 #@! TA.AperFunction,ViaPad*
%ADD24C,0.800000*%
G04 #@! TD*
G04 #@! TA.AperFunction,Conductor*
%ADD25C,1.500000*%
G04 #@! TD*
G04 #@! TA.AperFunction,Conductor*
%ADD26C,1.000000*%
G04 #@! TD*
G04 #@! TA.AperFunction,Conductor*
%ADD27C,0.800000*%
G04 #@! TD*
G04 APERTURE END LIST*
D10*
X205892000Y-123063000D03*
D11*
X212192000Y-123063000D03*
X212192000Y-120763000D03*
X212192000Y-125363000D03*
D12*
X208153000Y-133096000D03*
X206883000Y-134366000D03*
D13*
X209423000Y-134366000D03*
D14*
X221234000Y-121920000D03*
D15*
X218694000Y-121920000D03*
D16*
X224028000Y-130266000D03*
X216078000Y-130266000D03*
X224028000Y-125766000D03*
X216078000Y-125766000D03*
X248336000Y-125766000D03*
X256286000Y-125766000D03*
X248336000Y-130266000D03*
X256286000Y-130266000D03*
D17*
X227076000Y-125762000D03*
X227076000Y-129762000D03*
D18*
X230124000Y-133350000D03*
D19*
X230124000Y-130810000D03*
X230124000Y-128270000D03*
X230124000Y-125730000D03*
X230124000Y-123190000D03*
D20*
X206820000Y-130302000D03*
X210820000Y-130302000D03*
D19*
X262382000Y-123190000D03*
X262382000Y-125730000D03*
X262382000Y-128270000D03*
X262382000Y-130810000D03*
D18*
X262382000Y-133350000D03*
D13*
X241681000Y-134366000D03*
D12*
X239141000Y-134366000D03*
X240411000Y-133096000D03*
D19*
X234696000Y-122936000D03*
X234696000Y-125476000D03*
X234696000Y-128016000D03*
X234696000Y-130556000D03*
D18*
X234696000Y-133096000D03*
X202438000Y-133096000D03*
D19*
X202438000Y-130556000D03*
X202438000Y-128016000D03*
X202438000Y-125476000D03*
X202438000Y-122936000D03*
D21*
X210915000Y-128016000D03*
X206915000Y-128016000D03*
X239173000Y-128016000D03*
X243173000Y-128016000D03*
D20*
X243078000Y-130302000D03*
X239078000Y-130302000D03*
X253683000Y-134112000D03*
X257683000Y-134112000D03*
D15*
X250952000Y-121920000D03*
D14*
X253492000Y-121920000D03*
D20*
X225425000Y-134112000D03*
X221425000Y-134112000D03*
D22*
X248031000Y-123048000D03*
X248031000Y-120348000D03*
D23*
X256032000Y-123166000D03*
X256032000Y-120166000D03*
D17*
X259334000Y-129762000D03*
X259334000Y-125762000D03*
D11*
X244450000Y-125363000D03*
X244450000Y-120763000D03*
X244450000Y-123063000D03*
D10*
X238150000Y-123063000D03*
D23*
X223774000Y-120166000D03*
X223774000Y-123166000D03*
D18*
X258572000Y-120142000D03*
D19*
X258572000Y-122682000D03*
X226314000Y-122682000D03*
D18*
X226314000Y-120142000D03*
D22*
X215773000Y-120348000D03*
X215773000Y-123048000D03*
X215773000Y-104506000D03*
X215773000Y-101806000D03*
D23*
X256032000Y-101624000D03*
X256032000Y-104624000D03*
D12*
X240411000Y-114554000D03*
X239141000Y-115824000D03*
D13*
X241681000Y-115824000D03*
D20*
X239078000Y-111760000D03*
X243078000Y-111760000D03*
D10*
X205892000Y-85979000D03*
D11*
X212192000Y-85979000D03*
X212192000Y-83679000D03*
X212192000Y-88279000D03*
D12*
X208153000Y-96012000D03*
X206883000Y-97282000D03*
D13*
X209423000Y-97282000D03*
D21*
X206915000Y-109474000D03*
X210915000Y-109474000D03*
D19*
X258572000Y-104140000D03*
D18*
X258572000Y-101600000D03*
D19*
X202438000Y-104394000D03*
X202438000Y-106934000D03*
X202438000Y-109474000D03*
X202438000Y-112014000D03*
D18*
X202438000Y-114554000D03*
D14*
X221234000Y-84836000D03*
D15*
X218694000Y-84836000D03*
D18*
X226314000Y-101600000D03*
D19*
X226314000Y-104140000D03*
D16*
X224028000Y-93182000D03*
X216078000Y-93182000D03*
X224028000Y-88682000D03*
X216078000Y-88682000D03*
X248336000Y-88682000D03*
X256286000Y-88682000D03*
X248336000Y-93182000D03*
X256286000Y-93182000D03*
D20*
X257683000Y-115570000D03*
X253683000Y-115570000D03*
D17*
X227076000Y-88678000D03*
X227076000Y-92678000D03*
D18*
X230124000Y-96266000D03*
D19*
X230124000Y-93726000D03*
X230124000Y-91186000D03*
X230124000Y-88646000D03*
X230124000Y-86106000D03*
D20*
X206820000Y-93218000D03*
X210820000Y-93218000D03*
D19*
X262382000Y-86106000D03*
X262382000Y-88646000D03*
X262382000Y-91186000D03*
X262382000Y-93726000D03*
D18*
X262382000Y-96266000D03*
D11*
X212192000Y-106821000D03*
X212192000Y-102221000D03*
X212192000Y-104521000D03*
D10*
X205892000Y-104521000D03*
D13*
X241681000Y-97282000D03*
D12*
X239141000Y-97282000D03*
X240411000Y-96012000D03*
D19*
X234696000Y-85852000D03*
X234696000Y-88392000D03*
X234696000Y-90932000D03*
X234696000Y-93472000D03*
D18*
X234696000Y-96012000D03*
D23*
X223774000Y-104624000D03*
X223774000Y-101624000D03*
D22*
X248031000Y-101806000D03*
X248031000Y-104506000D03*
D18*
X202438000Y-96012000D03*
D19*
X202438000Y-93472000D03*
X202438000Y-90932000D03*
X202438000Y-88392000D03*
X202438000Y-85852000D03*
D21*
X210915000Y-90932000D03*
X206915000Y-90932000D03*
X239173000Y-90932000D03*
X243173000Y-90932000D03*
D18*
X234696000Y-114554000D03*
D19*
X234696000Y-112014000D03*
X234696000Y-109474000D03*
X234696000Y-106934000D03*
X234696000Y-104394000D03*
D20*
X243078000Y-93218000D03*
X239078000Y-93218000D03*
D18*
X262382000Y-114808000D03*
D19*
X262382000Y-112268000D03*
X262382000Y-109728000D03*
X262382000Y-107188000D03*
X262382000Y-104648000D03*
D21*
X243173000Y-109474000D03*
X239173000Y-109474000D03*
D20*
X253683000Y-97028000D03*
X257683000Y-97028000D03*
D16*
X256286000Y-111724000D03*
X248336000Y-111724000D03*
X256286000Y-107224000D03*
X248336000Y-107224000D03*
D15*
X250952000Y-84836000D03*
D14*
X253492000Y-84836000D03*
D17*
X259334000Y-107220000D03*
X259334000Y-111220000D03*
D13*
X209423000Y-115824000D03*
D12*
X206883000Y-115824000D03*
X208153000Y-114554000D03*
D20*
X225425000Y-97028000D03*
X221425000Y-97028000D03*
D16*
X216078000Y-107224000D03*
X224028000Y-107224000D03*
X216078000Y-111724000D03*
X224028000Y-111724000D03*
D22*
X248031000Y-85964000D03*
X248031000Y-83264000D03*
D23*
X256032000Y-86082000D03*
X256032000Y-83082000D03*
D17*
X259334000Y-92678000D03*
X259334000Y-88678000D03*
D11*
X244450000Y-88279000D03*
X244450000Y-83679000D03*
X244450000Y-85979000D03*
D10*
X238150000Y-85979000D03*
D23*
X223774000Y-83082000D03*
X223774000Y-86082000D03*
D14*
X253492000Y-103378000D03*
D15*
X250952000Y-103378000D03*
X218694000Y-103378000D03*
D14*
X221234000Y-103378000D03*
D20*
X210820000Y-111760000D03*
X206820000Y-111760000D03*
D17*
X227076000Y-111220000D03*
X227076000Y-107220000D03*
D20*
X221425000Y-115570000D03*
X225425000Y-115570000D03*
D10*
X238150000Y-104521000D03*
D11*
X244450000Y-104521000D03*
X244450000Y-102221000D03*
X244450000Y-106821000D03*
D19*
X230124000Y-104648000D03*
X230124000Y-107188000D03*
X230124000Y-109728000D03*
X230124000Y-112268000D03*
D18*
X230124000Y-114808000D03*
X258572000Y-83058000D03*
D19*
X258572000Y-85598000D03*
X226314000Y-85598000D03*
D18*
X226314000Y-83058000D03*
D22*
X215773000Y-83264000D03*
X215773000Y-85964000D03*
D10*
X205892000Y-67437000D03*
D11*
X212192000Y-67437000D03*
X212192000Y-65137000D03*
X212192000Y-69737000D03*
D12*
X208153000Y-77470000D03*
X206883000Y-78740000D03*
D13*
X209423000Y-78740000D03*
D14*
X221234000Y-66294000D03*
D15*
X218694000Y-66294000D03*
D16*
X224028000Y-74640000D03*
X216078000Y-74640000D03*
X224028000Y-70140000D03*
X216078000Y-70140000D03*
X248336000Y-70140000D03*
X256286000Y-70140000D03*
X248336000Y-74640000D03*
X256286000Y-74640000D03*
D17*
X227076000Y-70136000D03*
X227076000Y-74136000D03*
D18*
X230124000Y-77724000D03*
D19*
X230124000Y-75184000D03*
X230124000Y-72644000D03*
X230124000Y-70104000D03*
X230124000Y-67564000D03*
D20*
X206820000Y-74676000D03*
X210820000Y-74676000D03*
D19*
X262382000Y-67564000D03*
X262382000Y-70104000D03*
X262382000Y-72644000D03*
X262382000Y-75184000D03*
D18*
X262382000Y-77724000D03*
D13*
X241681000Y-78740000D03*
D12*
X239141000Y-78740000D03*
X240411000Y-77470000D03*
D19*
X234696000Y-67310000D03*
X234696000Y-69850000D03*
X234696000Y-72390000D03*
X234696000Y-74930000D03*
D18*
X234696000Y-77470000D03*
X202438000Y-77470000D03*
D19*
X202438000Y-74930000D03*
X202438000Y-72390000D03*
X202438000Y-69850000D03*
X202438000Y-67310000D03*
D21*
X210915000Y-72390000D03*
X206915000Y-72390000D03*
X239173000Y-72390000D03*
X243173000Y-72390000D03*
D20*
X243078000Y-74676000D03*
X239078000Y-74676000D03*
X253683000Y-78486000D03*
X257683000Y-78486000D03*
D15*
X250952000Y-66294000D03*
D14*
X253492000Y-66294000D03*
D20*
X225425000Y-78486000D03*
X221425000Y-78486000D03*
D22*
X248031000Y-67422000D03*
X248031000Y-64722000D03*
D23*
X256032000Y-67540000D03*
X256032000Y-64540000D03*
D17*
X259334000Y-74136000D03*
X259334000Y-70136000D03*
D11*
X244450000Y-69737000D03*
X244450000Y-65137000D03*
X244450000Y-67437000D03*
D10*
X238150000Y-67437000D03*
D23*
X223774000Y-64540000D03*
X223774000Y-67540000D03*
D18*
X258572000Y-64516000D03*
D19*
X258572000Y-67056000D03*
X226314000Y-67056000D03*
D18*
X226314000Y-64516000D03*
D22*
X215773000Y-64722000D03*
X215773000Y-67422000D03*
D16*
X216078000Y-51598000D03*
X224028000Y-51598000D03*
X216078000Y-56098000D03*
X224028000Y-56098000D03*
D19*
X230124000Y-49022000D03*
X230124000Y-51562000D03*
X230124000Y-54102000D03*
X230124000Y-56642000D03*
D18*
X230124000Y-59182000D03*
D13*
X209423000Y-60198000D03*
D12*
X206883000Y-60198000D03*
X208153000Y-58928000D03*
D19*
X202438000Y-48768000D03*
X202438000Y-51308000D03*
X202438000Y-53848000D03*
X202438000Y-56388000D03*
D18*
X202438000Y-58928000D03*
D21*
X206915000Y-53848000D03*
X210915000Y-53848000D03*
D20*
X210820000Y-56134000D03*
X206820000Y-56134000D03*
X221425000Y-59944000D03*
X225425000Y-59944000D03*
D15*
X218694000Y-47752000D03*
D14*
X221234000Y-47752000D03*
D22*
X215773000Y-48880000D03*
X215773000Y-46180000D03*
D23*
X223774000Y-48998000D03*
X223774000Y-45998000D03*
D17*
X227076000Y-55594000D03*
X227076000Y-51594000D03*
D11*
X212192000Y-51195000D03*
X212192000Y-46595000D03*
X212192000Y-48895000D03*
D10*
X205892000Y-48895000D03*
D18*
X226314000Y-45974000D03*
D19*
X226314000Y-48514000D03*
X258572000Y-48514000D03*
D18*
X258572000Y-45974000D03*
D22*
X248031000Y-46180000D03*
X248031000Y-48880000D03*
D16*
X256286000Y-56098000D03*
X248336000Y-56098000D03*
X256286000Y-51598000D03*
X248336000Y-51598000D03*
D21*
X243173000Y-53848000D03*
X239173000Y-53848000D03*
D17*
X259334000Y-51594000D03*
X259334000Y-55594000D03*
D23*
X256032000Y-45998000D03*
X256032000Y-48998000D03*
D14*
X253492000Y-47752000D03*
D15*
X250952000Y-47752000D03*
D18*
X234696000Y-58928000D03*
D19*
X234696000Y-56388000D03*
X234696000Y-53848000D03*
X234696000Y-51308000D03*
X234696000Y-48768000D03*
D12*
X240411000Y-58928000D03*
X239141000Y-60198000D03*
D13*
X241681000Y-60198000D03*
D20*
X239078000Y-56134000D03*
X243078000Y-56134000D03*
X257683000Y-59944000D03*
X253683000Y-59944000D03*
D10*
X238150000Y-48895000D03*
D11*
X244450000Y-48895000D03*
X244450000Y-46595000D03*
X244450000Y-51195000D03*
D18*
X262382000Y-59182000D03*
D19*
X262382000Y-56642000D03*
X262382000Y-54102000D03*
X262382000Y-51562000D03*
X262382000Y-49022000D03*
D24*
X246253000Y-55499000D03*
X213995000Y-55499000D03*
X246253000Y-74041000D03*
X213995000Y-74041000D03*
X246253000Y-92583000D03*
X213995000Y-111125000D03*
X213995000Y-92583000D03*
X246253000Y-111125000D03*
X246253000Y-129667000D03*
X213995000Y-129667000D03*
X246126000Y-48895000D03*
X213868000Y-48895000D03*
X246126000Y-67437000D03*
X213868000Y-67437000D03*
X246126000Y-104521000D03*
X213868000Y-104521000D03*
X246126000Y-85979000D03*
X213868000Y-85979000D03*
X246126000Y-123063000D03*
X213868000Y-123063000D03*
X246253000Y-52832000D03*
X213995000Y-52832000D03*
X213995000Y-71374000D03*
X246253000Y-71374000D03*
X213995000Y-89916000D03*
X246253000Y-108458000D03*
X213995000Y-108458000D03*
X246253000Y-89916000D03*
X213995000Y-127000000D03*
X246253000Y-127000000D03*
X250190000Y-60706000D03*
X217932000Y-60706000D03*
X250190000Y-79248000D03*
X217932000Y-79248000D03*
X217932000Y-116332000D03*
X250190000Y-97790000D03*
X250190000Y-116332000D03*
X217932000Y-97790000D03*
X250190000Y-134874000D03*
X217932000Y-134874000D03*
D25*
X237871000Y-58928000D02*
X239141000Y-60198000D01*
X234696000Y-58928000D02*
X236728000Y-58928000D01*
X243173000Y-52472000D02*
X244450000Y-51195000D01*
D26*
X243173000Y-53467000D02*
X243173000Y-52472000D01*
D25*
X248539000Y-55499000D02*
X246253000Y-55499000D01*
X236728000Y-58928000D02*
X237871000Y-58928000D01*
X244221000Y-53467000D02*
X243173000Y-53467000D01*
D26*
X246253000Y-55499000D02*
X244221000Y-53467000D01*
X258064000Y-55626000D02*
X258572000Y-55118000D01*
X256286000Y-55626000D02*
X258064000Y-55626000D01*
X262382000Y-51562000D02*
X262382000Y-54102000D01*
X260826000Y-54102000D02*
X259334000Y-55594000D01*
X262382000Y-54102000D02*
X260826000Y-54102000D01*
D25*
X204470000Y-58928000D02*
X205613000Y-58928000D01*
D26*
X228568000Y-54102000D02*
X227076000Y-55594000D01*
D25*
X202438000Y-58928000D02*
X204470000Y-58928000D01*
D26*
X230124000Y-51562000D02*
X230124000Y-54102000D01*
X225806000Y-55626000D02*
X226314000Y-55118000D01*
X230124000Y-54102000D02*
X228568000Y-54102000D01*
D25*
X211963000Y-53467000D02*
X210915000Y-53467000D01*
D26*
X224028000Y-55626000D02*
X225806000Y-55626000D01*
D25*
X205613000Y-58928000D02*
X206883000Y-60198000D01*
X216281000Y-55499000D02*
X213995000Y-55499000D01*
X210915000Y-52472000D02*
X212192000Y-51195000D01*
D26*
X213995000Y-55499000D02*
X211963000Y-53467000D01*
X210915000Y-53467000D02*
X210915000Y-52472000D01*
D25*
X236728000Y-77470000D02*
X237871000Y-77470000D01*
D26*
X230124000Y-70104000D02*
X230124000Y-72644000D01*
X260826000Y-72644000D02*
X259334000Y-74136000D01*
D25*
X234696000Y-77470000D02*
X236728000Y-77470000D01*
D26*
X262382000Y-70104000D02*
X262382000Y-72644000D01*
X258064000Y-74168000D02*
X258572000Y-73660000D01*
D25*
X202438000Y-77470000D02*
X204470000Y-77470000D01*
D26*
X262382000Y-72644000D02*
X260826000Y-72644000D01*
D25*
X244221000Y-72009000D02*
X243173000Y-72009000D01*
D26*
X256286000Y-74168000D02*
X258064000Y-74168000D01*
D25*
X237871000Y-77470000D02*
X239141000Y-78740000D01*
D26*
X210915000Y-72009000D02*
X210915000Y-71014000D01*
D25*
X216281000Y-74041000D02*
X213995000Y-74041000D01*
X211963000Y-72009000D02*
X210915000Y-72009000D01*
D26*
X224028000Y-74168000D02*
X225806000Y-74168000D01*
D25*
X248539000Y-74041000D02*
X246253000Y-74041000D01*
X243173000Y-71014000D02*
X244450000Y-69737000D01*
D26*
X246253000Y-74041000D02*
X244221000Y-72009000D01*
X228568000Y-72644000D02*
X227076000Y-74136000D01*
D25*
X204470000Y-77470000D02*
X205613000Y-77470000D01*
D26*
X243173000Y-72009000D02*
X243173000Y-71014000D01*
D25*
X205613000Y-77470000D02*
X206883000Y-78740000D01*
D26*
X225806000Y-74168000D02*
X226314000Y-73660000D01*
X213995000Y-74041000D02*
X211963000Y-72009000D01*
D25*
X210915000Y-71014000D02*
X212192000Y-69737000D01*
D26*
X230124000Y-72644000D02*
X228568000Y-72644000D01*
X262382000Y-107188000D02*
X262382000Y-109728000D01*
D25*
X236728000Y-96012000D02*
X237871000Y-96012000D01*
D26*
X230124000Y-88646000D02*
X230124000Y-91186000D01*
X260826000Y-91186000D02*
X259334000Y-92678000D01*
D25*
X205613000Y-114554000D02*
X206883000Y-115824000D01*
D26*
X210915000Y-109093000D02*
X210915000Y-108098000D01*
D25*
X234696000Y-96012000D02*
X236728000Y-96012000D01*
D26*
X262382000Y-88646000D02*
X262382000Y-91186000D01*
X258064000Y-111252000D02*
X258572000Y-110744000D01*
X258064000Y-92710000D02*
X258572000Y-92202000D01*
D25*
X202438000Y-96012000D02*
X204470000Y-96012000D01*
D26*
X262382000Y-91186000D02*
X260826000Y-91186000D01*
D25*
X216281000Y-111125000D02*
X213995000Y-111125000D01*
X244221000Y-90551000D02*
X243173000Y-90551000D01*
D26*
X256286000Y-92710000D02*
X258064000Y-92710000D01*
X225806000Y-111252000D02*
X226314000Y-110744000D01*
D25*
X211963000Y-109093000D02*
X210915000Y-109093000D01*
X237871000Y-96012000D02*
X239141000Y-97282000D01*
D26*
X210915000Y-90551000D02*
X210915000Y-89556000D01*
D25*
X216281000Y-92583000D02*
X213995000Y-92583000D01*
D26*
X246253000Y-111125000D02*
X244221000Y-109093000D01*
D25*
X211963000Y-90551000D02*
X210915000Y-90551000D01*
D26*
X224028000Y-92710000D02*
X225806000Y-92710000D01*
D25*
X244221000Y-109093000D02*
X243173000Y-109093000D01*
X248539000Y-92583000D02*
X246253000Y-92583000D01*
X202438000Y-114554000D02*
X204470000Y-114554000D01*
X243173000Y-89556000D02*
X244450000Y-88279000D01*
D26*
X246253000Y-92583000D02*
X244221000Y-90551000D01*
D25*
X237871000Y-114554000D02*
X239141000Y-115824000D01*
D26*
X228568000Y-91186000D02*
X227076000Y-92678000D01*
D25*
X210915000Y-108098000D02*
X212192000Y-106821000D01*
D26*
X213995000Y-111125000D02*
X211963000Y-109093000D01*
D25*
X204470000Y-96012000D02*
X205613000Y-96012000D01*
D26*
X230124000Y-109728000D02*
X228568000Y-109728000D01*
X243173000Y-90551000D02*
X243173000Y-89556000D01*
X256286000Y-111252000D02*
X258064000Y-111252000D01*
D25*
X236728000Y-114554000D02*
X237871000Y-114554000D01*
X243173000Y-108098000D02*
X244450000Y-106821000D01*
X205613000Y-96012000D02*
X206883000Y-97282000D01*
D26*
X262382000Y-109728000D02*
X260826000Y-109728000D01*
X225806000Y-92710000D02*
X226314000Y-92202000D01*
D25*
X204470000Y-114554000D02*
X205613000Y-114554000D01*
D26*
X213995000Y-92583000D02*
X211963000Y-90551000D01*
D25*
X234696000Y-114554000D02*
X236728000Y-114554000D01*
X248539000Y-111125000D02*
X246253000Y-111125000D01*
D26*
X228568000Y-109728000D02*
X227076000Y-111220000D01*
X243173000Y-109093000D02*
X243173000Y-108098000D01*
D25*
X210915000Y-89556000D02*
X212192000Y-88279000D01*
D26*
X224028000Y-111252000D02*
X225806000Y-111252000D01*
X260826000Y-109728000D02*
X259334000Y-111220000D01*
X230124000Y-91186000D02*
X228568000Y-91186000D01*
X230124000Y-107188000D02*
X230124000Y-109728000D01*
D25*
X236728000Y-133096000D02*
X237871000Y-133096000D01*
D26*
X230124000Y-125730000D02*
X230124000Y-128270000D01*
X260826000Y-128270000D02*
X259334000Y-129762000D01*
D25*
X234696000Y-133096000D02*
X236728000Y-133096000D01*
D26*
X262382000Y-125730000D02*
X262382000Y-128270000D01*
X258064000Y-129794000D02*
X258572000Y-129286000D01*
D25*
X202438000Y-133096000D02*
X204470000Y-133096000D01*
D26*
X262382000Y-128270000D02*
X260826000Y-128270000D01*
D25*
X244221000Y-127635000D02*
X243173000Y-127635000D01*
D26*
X256286000Y-129794000D02*
X258064000Y-129794000D01*
D25*
X237871000Y-133096000D02*
X239141000Y-134366000D01*
D26*
X210915000Y-127635000D02*
X210915000Y-126640000D01*
D25*
X216281000Y-129667000D02*
X213995000Y-129667000D01*
X211963000Y-127635000D02*
X210915000Y-127635000D01*
D26*
X224028000Y-129794000D02*
X225806000Y-129794000D01*
D25*
X248539000Y-129667000D02*
X246253000Y-129667000D01*
X243173000Y-126640000D02*
X244450000Y-125363000D01*
D26*
X246253000Y-129667000D02*
X244221000Y-127635000D01*
X228568000Y-128270000D02*
X227076000Y-129762000D01*
D25*
X204470000Y-133096000D02*
X205613000Y-133096000D01*
D26*
X243173000Y-127635000D02*
X243173000Y-126640000D01*
D25*
X205613000Y-133096000D02*
X206883000Y-134366000D01*
D26*
X225806000Y-129794000D02*
X226314000Y-129286000D01*
X213995000Y-129667000D02*
X211963000Y-127635000D01*
D25*
X210915000Y-126640000D02*
X212192000Y-125363000D01*
D26*
X230124000Y-128270000D02*
X228568000Y-128270000D01*
D25*
X261493000Y-59182000D02*
X258953000Y-59182000D01*
D26*
X238023000Y-48768000D02*
X238150000Y-48895000D01*
D25*
X234696000Y-48768000D02*
X238023000Y-48768000D01*
D26*
X239173000Y-49918000D02*
X238150000Y-48895000D01*
D25*
X239173000Y-53467000D02*
X239173000Y-49918000D01*
D26*
X258953000Y-59182000D02*
X258699000Y-59436000D01*
D25*
X244450000Y-48895000D02*
X246126000Y-48895000D01*
X258445000Y-59182000D02*
X257683000Y-59944000D01*
D26*
X258953000Y-59182000D02*
X258445000Y-59182000D01*
D25*
X244450000Y-48895000D02*
X238150000Y-48895000D01*
X226187000Y-59182000D02*
X225425000Y-59944000D01*
D26*
X226695000Y-59182000D02*
X226187000Y-59182000D01*
D25*
X212192000Y-48895000D02*
X205892000Y-48895000D01*
D26*
X206915000Y-49918000D02*
X205892000Y-48895000D01*
D25*
X212192000Y-48895000D02*
X213868000Y-48895000D01*
D26*
X205765000Y-48768000D02*
X205892000Y-48895000D01*
D25*
X206915000Y-53467000D02*
X206915000Y-49918000D01*
X229235000Y-59182000D02*
X226695000Y-59182000D01*
X202438000Y-48768000D02*
X205765000Y-48768000D01*
D26*
X226695000Y-59182000D02*
X226441000Y-59436000D01*
D25*
X206915000Y-72009000D02*
X206915000Y-68460000D01*
X212192000Y-67437000D02*
X213868000Y-67437000D01*
X258445000Y-77724000D02*
X257683000Y-78486000D01*
D26*
X258953000Y-77724000D02*
X258445000Y-77724000D01*
D25*
X244450000Y-67437000D02*
X238150000Y-67437000D01*
D26*
X239173000Y-68460000D02*
X238150000Y-67437000D01*
D25*
X244450000Y-67437000D02*
X246126000Y-67437000D01*
D26*
X238023000Y-67310000D02*
X238150000Y-67437000D01*
X206915000Y-68460000D02*
X205892000Y-67437000D01*
D25*
X239173000Y-72009000D02*
X239173000Y-68460000D01*
X261493000Y-77724000D02*
X258953000Y-77724000D01*
X229235000Y-77724000D02*
X226695000Y-77724000D01*
D26*
X226695000Y-77724000D02*
X226441000Y-77978000D01*
D25*
X234696000Y-67310000D02*
X238023000Y-67310000D01*
X226187000Y-77724000D02*
X225425000Y-78486000D01*
D26*
X226695000Y-77724000D02*
X226187000Y-77724000D01*
D25*
X212192000Y-67437000D02*
X205892000Y-67437000D01*
D26*
X258953000Y-77724000D02*
X258699000Y-77978000D01*
D25*
X202438000Y-67310000D02*
X205765000Y-67310000D01*
D26*
X205765000Y-67310000D02*
X205892000Y-67437000D01*
D25*
X206915000Y-90551000D02*
X206915000Y-87002000D01*
X212192000Y-85979000D02*
X213868000Y-85979000D01*
X258445000Y-96266000D02*
X257683000Y-97028000D01*
D26*
X258953000Y-96266000D02*
X258445000Y-96266000D01*
D25*
X244450000Y-85979000D02*
X238150000Y-85979000D01*
D26*
X258953000Y-114808000D02*
X258699000Y-115062000D01*
D25*
X229235000Y-114808000D02*
X226695000Y-114808000D01*
D26*
X239173000Y-87002000D02*
X238150000Y-85979000D01*
X226695000Y-114808000D02*
X226441000Y-115062000D01*
X205765000Y-104394000D02*
X205892000Y-104521000D01*
D25*
X206915000Y-109093000D02*
X206915000Y-105544000D01*
X258445000Y-114808000D02*
X257683000Y-115570000D01*
D26*
X258953000Y-114808000D02*
X258445000Y-114808000D01*
D25*
X244450000Y-85979000D02*
X246126000Y-85979000D01*
D26*
X238023000Y-85852000D02*
X238150000Y-85979000D01*
D25*
X212192000Y-104521000D02*
X205892000Y-104521000D01*
X239173000Y-109093000D02*
X239173000Y-105544000D01*
D26*
X206915000Y-87002000D02*
X205892000Y-85979000D01*
D25*
X239173000Y-90551000D02*
X239173000Y-87002000D01*
X261493000Y-96266000D02*
X258953000Y-96266000D01*
X229235000Y-96266000D02*
X226695000Y-96266000D01*
D26*
X226695000Y-96266000D02*
X226441000Y-96520000D01*
D25*
X234696000Y-104394000D02*
X238023000Y-104394000D01*
X202438000Y-104394000D02*
X205765000Y-104394000D01*
D26*
X206915000Y-105544000D02*
X205892000Y-104521000D01*
D25*
X234696000Y-85852000D02*
X238023000Y-85852000D01*
X226187000Y-96266000D02*
X225425000Y-97028000D01*
D26*
X226695000Y-96266000D02*
X226187000Y-96266000D01*
D25*
X212192000Y-85979000D02*
X205892000Y-85979000D01*
X244450000Y-104521000D02*
X246126000Y-104521000D01*
D26*
X226695000Y-114808000D02*
X226187000Y-114808000D01*
X239173000Y-105544000D02*
X238150000Y-104521000D01*
D25*
X261493000Y-114808000D02*
X258953000Y-114808000D01*
D26*
X258953000Y-96266000D02*
X258699000Y-96520000D01*
D25*
X226187000Y-114808000D02*
X225425000Y-115570000D01*
D26*
X238023000Y-104394000D02*
X238150000Y-104521000D01*
D25*
X202438000Y-85852000D02*
X205765000Y-85852000D01*
X212192000Y-104521000D02*
X213868000Y-104521000D01*
X244450000Y-104521000D02*
X238150000Y-104521000D01*
D26*
X205765000Y-85852000D02*
X205892000Y-85979000D01*
D25*
X206915000Y-127635000D02*
X206915000Y-124086000D01*
X212192000Y-123063000D02*
X213868000Y-123063000D01*
X258445000Y-133350000D02*
X257683000Y-134112000D01*
D26*
X258953000Y-133350000D02*
X258445000Y-133350000D01*
D25*
X244450000Y-123063000D02*
X238150000Y-123063000D01*
D26*
X239173000Y-124086000D02*
X238150000Y-123063000D01*
D25*
X244450000Y-123063000D02*
X246126000Y-123063000D01*
D26*
X238023000Y-122936000D02*
X238150000Y-123063000D01*
X206915000Y-124086000D02*
X205892000Y-123063000D01*
D25*
X239173000Y-127635000D02*
X239173000Y-124086000D01*
X261493000Y-133350000D02*
X258953000Y-133350000D01*
X229235000Y-133350000D02*
X226695000Y-133350000D01*
D26*
X226695000Y-133350000D02*
X226441000Y-133604000D01*
D25*
X234696000Y-122936000D02*
X238023000Y-122936000D01*
X226187000Y-133350000D02*
X225425000Y-134112000D01*
D26*
X226695000Y-133350000D02*
X226187000Y-133350000D01*
D25*
X212192000Y-123063000D02*
X205892000Y-123063000D01*
D26*
X258953000Y-133350000D02*
X258699000Y-133604000D01*
D25*
X202438000Y-122936000D02*
X205765000Y-122936000D01*
D26*
X205765000Y-122936000D02*
X205892000Y-123063000D01*
D25*
X247140000Y-52832000D02*
X248247000Y-51725000D01*
X246253000Y-52832000D02*
X247140000Y-52832000D01*
D26*
X258564000Y-51126000D02*
X258572000Y-51118000D01*
X256286000Y-51126000D02*
X258564000Y-51126000D01*
D25*
X214882000Y-52832000D02*
X215989000Y-51725000D01*
X213995000Y-52832000D02*
X214882000Y-52832000D01*
D26*
X224028000Y-51126000D02*
X226306000Y-51126000D01*
X226306000Y-51126000D02*
X226314000Y-51118000D01*
X224028000Y-69668000D02*
X226306000Y-69668000D01*
D25*
X213995000Y-71374000D02*
X214882000Y-71374000D01*
X247140000Y-71374000D02*
X248247000Y-70267000D01*
X246253000Y-71374000D02*
X247140000Y-71374000D01*
X214882000Y-71374000D02*
X215989000Y-70267000D01*
D26*
X256286000Y-69668000D02*
X258564000Y-69668000D01*
X226306000Y-69668000D02*
X226314000Y-69660000D01*
X258564000Y-69668000D02*
X258572000Y-69660000D01*
X224028000Y-88210000D02*
X226306000Y-88210000D01*
D25*
X213995000Y-89916000D02*
X214882000Y-89916000D01*
X247140000Y-89916000D02*
X248247000Y-88809000D01*
X246253000Y-89916000D02*
X247140000Y-89916000D01*
D26*
X258564000Y-106752000D02*
X258572000Y-106744000D01*
X256286000Y-106752000D02*
X258564000Y-106752000D01*
D25*
X214882000Y-89916000D02*
X215989000Y-88809000D01*
D26*
X256286000Y-88210000D02*
X258564000Y-88210000D01*
X226306000Y-88210000D02*
X226314000Y-88202000D01*
X226306000Y-106752000D02*
X226314000Y-106744000D01*
X258564000Y-88210000D02*
X258572000Y-88202000D01*
X224028000Y-106752000D02*
X226306000Y-106752000D01*
D25*
X214882000Y-108458000D02*
X215989000Y-107351000D01*
X246253000Y-108458000D02*
X247140000Y-108458000D01*
X247140000Y-108458000D02*
X248247000Y-107351000D01*
X213995000Y-108458000D02*
X214882000Y-108458000D01*
D26*
X224028000Y-125294000D02*
X226306000Y-125294000D01*
D25*
X213995000Y-127000000D02*
X214882000Y-127000000D01*
X247140000Y-127000000D02*
X248247000Y-125893000D01*
X246253000Y-127000000D02*
X247140000Y-127000000D01*
X214882000Y-127000000D02*
X215989000Y-125893000D01*
D26*
X256286000Y-125294000D02*
X258564000Y-125294000D01*
X226306000Y-125294000D02*
X226314000Y-125286000D01*
X258564000Y-125294000D02*
X258572000Y-125286000D01*
X247728000Y-46595000D02*
X247777000Y-46546000D01*
D25*
X244450000Y-46595000D02*
X247728000Y-46595000D01*
D26*
X247777000Y-46546000D02*
X248348000Y-46546000D01*
X256492000Y-45974000D02*
X256667000Y-46149000D01*
X258747000Y-46149000D02*
X258572000Y-45974000D01*
X261191000Y-46149000D02*
X258747000Y-46149000D01*
X258572000Y-45974000D02*
X256492000Y-45974000D01*
X248467000Y-45744000D02*
X248031000Y-46180000D01*
X255778000Y-45744000D02*
X248467000Y-45744000D01*
X262382000Y-49022000D02*
X262382000Y-46228000D01*
X261270000Y-46228000D02*
X261191000Y-46149000D01*
X262382000Y-46228000D02*
X261270000Y-46228000D01*
X223520000Y-45744000D02*
X216209000Y-45744000D01*
X215519000Y-46546000D02*
X216090000Y-46546000D01*
X224234000Y-45974000D02*
X224409000Y-46149000D01*
X215470000Y-46595000D02*
X215519000Y-46546000D01*
D25*
X212192000Y-46595000D02*
X215470000Y-46595000D01*
D26*
X226489000Y-46149000D02*
X226314000Y-45974000D01*
X230124000Y-46228000D02*
X229012000Y-46228000D01*
X230124000Y-49022000D02*
X230124000Y-46228000D01*
X229012000Y-46228000D02*
X228933000Y-46149000D01*
X216209000Y-45744000D02*
X215773000Y-46180000D01*
X226314000Y-45974000D02*
X224234000Y-45974000D01*
X228933000Y-46149000D02*
X226489000Y-46149000D01*
X255778000Y-64286000D02*
X248467000Y-64286000D01*
X247777000Y-65088000D02*
X248348000Y-65088000D01*
X256492000Y-64516000D02*
X256667000Y-64691000D01*
X247728000Y-65137000D02*
X247777000Y-65088000D01*
D25*
X244450000Y-65137000D02*
X247728000Y-65137000D01*
D26*
X258747000Y-64691000D02*
X258572000Y-64516000D01*
X262382000Y-64770000D02*
X261270000Y-64770000D01*
X262382000Y-67564000D02*
X262382000Y-64770000D01*
X215519000Y-65088000D02*
X216090000Y-65088000D01*
X224234000Y-64516000D02*
X224409000Y-64691000D01*
X261270000Y-64770000D02*
X261191000Y-64691000D01*
X230124000Y-64770000D02*
X229012000Y-64770000D01*
X226314000Y-64516000D02*
X224234000Y-64516000D01*
X228933000Y-64691000D02*
X226489000Y-64691000D01*
X248467000Y-64286000D02*
X248031000Y-64722000D01*
X226489000Y-64691000D02*
X226314000Y-64516000D01*
X215470000Y-65137000D02*
X215519000Y-65088000D01*
D25*
X212192000Y-65137000D02*
X215470000Y-65137000D01*
D26*
X258572000Y-64516000D02*
X256492000Y-64516000D01*
X216209000Y-64286000D02*
X215773000Y-64722000D01*
X230124000Y-67564000D02*
X230124000Y-64770000D01*
X223520000Y-64286000D02*
X216209000Y-64286000D01*
X261191000Y-64691000D02*
X258747000Y-64691000D01*
X229012000Y-64770000D02*
X228933000Y-64691000D01*
X255778000Y-82828000D02*
X248467000Y-82828000D01*
X247777000Y-83630000D02*
X248348000Y-83630000D01*
X256492000Y-83058000D02*
X256667000Y-83233000D01*
X247728000Y-83679000D02*
X247777000Y-83630000D01*
D25*
X244450000Y-83679000D02*
X247728000Y-83679000D01*
D26*
X226489000Y-101775000D02*
X226314000Y-101600000D01*
X247728000Y-102221000D02*
X247777000Y-102172000D01*
X230124000Y-101854000D02*
X229012000Y-101854000D01*
X256492000Y-101600000D02*
X256667000Y-101775000D01*
X258747000Y-83233000D02*
X258572000Y-83058000D01*
X262382000Y-83312000D02*
X261270000Y-83312000D01*
X262382000Y-86106000D02*
X262382000Y-83312000D01*
X215519000Y-83630000D02*
X216090000Y-83630000D01*
X224234000Y-83058000D02*
X224409000Y-83233000D01*
X230124000Y-104648000D02*
X230124000Y-101854000D01*
X261270000Y-83312000D02*
X261191000Y-83233000D01*
X261191000Y-101775000D02*
X258747000Y-101775000D01*
X223520000Y-101370000D02*
X216209000Y-101370000D01*
X230124000Y-83312000D02*
X229012000Y-83312000D01*
X228933000Y-101775000D02*
X226489000Y-101775000D01*
X248467000Y-101370000D02*
X248031000Y-101806000D01*
X216209000Y-101370000D02*
X215773000Y-101806000D01*
X226314000Y-83058000D02*
X224234000Y-83058000D01*
X228933000Y-83233000D02*
X226489000Y-83233000D01*
X261270000Y-101854000D02*
X261191000Y-101775000D01*
X226314000Y-101600000D02*
X224234000Y-101600000D01*
X248467000Y-82828000D02*
X248031000Y-83264000D01*
X226489000Y-83233000D02*
X226314000Y-83058000D01*
X215470000Y-83679000D02*
X215519000Y-83630000D01*
D25*
X212192000Y-83679000D02*
X215470000Y-83679000D01*
D26*
X258572000Y-83058000D02*
X256492000Y-83058000D01*
X247777000Y-102172000D02*
X248348000Y-102172000D01*
X262382000Y-104648000D02*
X262382000Y-101854000D01*
D25*
X244450000Y-102221000D02*
X247728000Y-102221000D01*
D26*
X224234000Y-101600000D02*
X224409000Y-101775000D01*
X216209000Y-82828000D02*
X215773000Y-83264000D01*
X262382000Y-101854000D02*
X261270000Y-101854000D01*
X215470000Y-102221000D02*
X215519000Y-102172000D01*
X230124000Y-86106000D02*
X230124000Y-83312000D01*
X223520000Y-82828000D02*
X216209000Y-82828000D01*
X258572000Y-101600000D02*
X256492000Y-101600000D01*
D25*
X212192000Y-102221000D02*
X215470000Y-102221000D01*
D26*
X229012000Y-101854000D02*
X228933000Y-101775000D01*
X261191000Y-83233000D02*
X258747000Y-83233000D01*
X255778000Y-101370000D02*
X248467000Y-101370000D01*
X229012000Y-83312000D02*
X228933000Y-83233000D01*
X258747000Y-101775000D02*
X258572000Y-101600000D01*
X215519000Y-102172000D02*
X216090000Y-102172000D01*
X255778000Y-119912000D02*
X248467000Y-119912000D01*
X247777000Y-120714000D02*
X248348000Y-120714000D01*
X256492000Y-120142000D02*
X256667000Y-120317000D01*
X247728000Y-120763000D02*
X247777000Y-120714000D01*
D25*
X244450000Y-120763000D02*
X247728000Y-120763000D01*
D26*
X258747000Y-120317000D02*
X258572000Y-120142000D01*
X262382000Y-120396000D02*
X261270000Y-120396000D01*
X262382000Y-123190000D02*
X262382000Y-120396000D01*
X215519000Y-120714000D02*
X216090000Y-120714000D01*
X224234000Y-120142000D02*
X224409000Y-120317000D01*
X261270000Y-120396000D02*
X261191000Y-120317000D01*
X230124000Y-120396000D02*
X229012000Y-120396000D01*
X226314000Y-120142000D02*
X224234000Y-120142000D01*
X228933000Y-120317000D02*
X226489000Y-120317000D01*
X248467000Y-119912000D02*
X248031000Y-120348000D01*
X226489000Y-120317000D02*
X226314000Y-120142000D01*
X215470000Y-120763000D02*
X215519000Y-120714000D01*
D25*
X212192000Y-120763000D02*
X215470000Y-120763000D01*
D26*
X258572000Y-120142000D02*
X256492000Y-120142000D01*
X216209000Y-119912000D02*
X215773000Y-120348000D01*
X230124000Y-123190000D02*
X230124000Y-120396000D01*
X223520000Y-119912000D02*
X216209000Y-119912000D01*
X261191000Y-120317000D02*
X258747000Y-120317000D01*
X229012000Y-120396000D02*
X228933000Y-120317000D01*
D25*
X241681000Y-60198000D02*
X243181000Y-60198000D01*
X243181000Y-60198000D02*
X244324000Y-59055000D01*
D26*
X244324000Y-59055000D02*
X248539000Y-59055000D01*
X253619000Y-53975000D02*
X253619000Y-48514000D01*
X248539000Y-59055000D02*
X253619000Y-53975000D01*
X256008000Y-48514000D02*
X255778000Y-48744000D01*
X258572000Y-48514000D02*
X256008000Y-48514000D01*
X253849000Y-48744000D02*
X253619000Y-48514000D01*
X255778000Y-48744000D02*
X253849000Y-48744000D01*
D25*
X209423000Y-60198000D02*
X210923000Y-60198000D01*
X210923000Y-60198000D02*
X212066000Y-59055000D01*
D26*
X223520000Y-48744000D02*
X221591000Y-48744000D01*
X223750000Y-48514000D02*
X223520000Y-48744000D01*
X212066000Y-59055000D02*
X216281000Y-59055000D01*
X221361000Y-53975000D02*
X221361000Y-48514000D01*
X216281000Y-59055000D02*
X221361000Y-53975000D01*
X226314000Y-48514000D02*
X223750000Y-48514000D01*
X221591000Y-48744000D02*
X221361000Y-48514000D01*
D25*
X241681000Y-78740000D02*
X243181000Y-78740000D01*
X243181000Y-78740000D02*
X244324000Y-77597000D01*
D26*
X255778000Y-67286000D02*
X253849000Y-67286000D01*
X221361000Y-72517000D02*
X221361000Y-67056000D01*
X256008000Y-67056000D02*
X255778000Y-67286000D01*
D25*
X210923000Y-78740000D02*
X212066000Y-77597000D01*
D26*
X244324000Y-77597000D02*
X248539000Y-77597000D01*
X212066000Y-77597000D02*
X216281000Y-77597000D01*
X253619000Y-72517000D02*
X253619000Y-67056000D01*
X248539000Y-77597000D02*
X253619000Y-72517000D01*
D25*
X209423000Y-78740000D02*
X210923000Y-78740000D01*
D26*
X258572000Y-67056000D02*
X256008000Y-67056000D01*
X221591000Y-67286000D02*
X221361000Y-67056000D01*
X226314000Y-67056000D02*
X223750000Y-67056000D01*
X223750000Y-67056000D02*
X223520000Y-67286000D01*
X223520000Y-67286000D02*
X221591000Y-67286000D01*
X216281000Y-77597000D02*
X221361000Y-72517000D01*
X253849000Y-67286000D02*
X253619000Y-67056000D01*
X221591000Y-104370000D02*
X221361000Y-104140000D01*
D25*
X241681000Y-97282000D02*
X243181000Y-97282000D01*
X243181000Y-97282000D02*
X244324000Y-96139000D01*
D26*
X255778000Y-85828000D02*
X253849000Y-85828000D01*
X212066000Y-114681000D02*
X216281000Y-114681000D01*
X248539000Y-114681000D02*
X253619000Y-109601000D01*
X221361000Y-109601000D02*
X221361000Y-104140000D01*
X226314000Y-104140000D02*
X223750000Y-104140000D01*
X221361000Y-91059000D02*
X221361000Y-85598000D01*
X256008000Y-85598000D02*
X255778000Y-85828000D01*
X258572000Y-104140000D02*
X256008000Y-104140000D01*
D25*
X210923000Y-97282000D02*
X212066000Y-96139000D01*
D26*
X253849000Y-104370000D02*
X253619000Y-104140000D01*
X244324000Y-96139000D02*
X248539000Y-96139000D01*
X212066000Y-96139000D02*
X216281000Y-96139000D01*
D25*
X243181000Y-115824000D02*
X244324000Y-114681000D01*
X210923000Y-115824000D02*
X212066000Y-114681000D01*
D26*
X256008000Y-104140000D02*
X255778000Y-104370000D01*
X244324000Y-114681000D02*
X248539000Y-114681000D01*
X253619000Y-109601000D02*
X253619000Y-104140000D01*
X253619000Y-91059000D02*
X253619000Y-85598000D01*
D25*
X209423000Y-115824000D02*
X210923000Y-115824000D01*
D26*
X248539000Y-96139000D02*
X253619000Y-91059000D01*
D25*
X209423000Y-97282000D02*
X210923000Y-97282000D01*
D26*
X258572000Y-85598000D02*
X256008000Y-85598000D01*
X221591000Y-85828000D02*
X221361000Y-85598000D01*
X226314000Y-85598000D02*
X223750000Y-85598000D01*
D25*
X241681000Y-115824000D02*
X243181000Y-115824000D01*
D26*
X223520000Y-104370000D02*
X221591000Y-104370000D01*
X255778000Y-104370000D02*
X253849000Y-104370000D01*
X223750000Y-85598000D02*
X223520000Y-85828000D01*
X223520000Y-85828000D02*
X221591000Y-85828000D01*
X216281000Y-114681000D02*
X221361000Y-109601000D01*
X216281000Y-96139000D02*
X221361000Y-91059000D01*
X253849000Y-85828000D02*
X253619000Y-85598000D01*
X223750000Y-104140000D02*
X223520000Y-104370000D01*
D25*
X241681000Y-134366000D02*
X243181000Y-134366000D01*
X243181000Y-134366000D02*
X244324000Y-133223000D01*
D26*
X255778000Y-122912000D02*
X253849000Y-122912000D01*
X221361000Y-128143000D02*
X221361000Y-122682000D01*
X256008000Y-122682000D02*
X255778000Y-122912000D01*
D25*
X210923000Y-134366000D02*
X212066000Y-133223000D01*
D26*
X244324000Y-133223000D02*
X248539000Y-133223000D01*
X212066000Y-133223000D02*
X216281000Y-133223000D01*
X253619000Y-128143000D02*
X253619000Y-122682000D01*
X248539000Y-133223000D02*
X253619000Y-128143000D01*
D25*
X209423000Y-134366000D02*
X210923000Y-134366000D01*
D26*
X258572000Y-122682000D02*
X256008000Y-122682000D01*
X221591000Y-122912000D02*
X221361000Y-122682000D01*
X226314000Y-122682000D02*
X223750000Y-122682000D01*
X223750000Y-122682000D02*
X223520000Y-122912000D01*
X223520000Y-122912000D02*
X221591000Y-122912000D01*
X216281000Y-133223000D02*
X221361000Y-128143000D01*
X253849000Y-122912000D02*
X253619000Y-122682000D01*
X250713000Y-48880000D02*
X251079000Y-48514000D01*
X248031000Y-48880000D02*
X250713000Y-48880000D01*
X218455000Y-48880000D02*
X218821000Y-48514000D01*
X215773000Y-48880000D02*
X218455000Y-48880000D01*
X218455000Y-67422000D02*
X218821000Y-67056000D01*
X215773000Y-67422000D02*
X218455000Y-67422000D01*
X250713000Y-67422000D02*
X251079000Y-67056000D01*
X248031000Y-67422000D02*
X250713000Y-67422000D01*
X218455000Y-85964000D02*
X218821000Y-85598000D01*
X215773000Y-85964000D02*
X218455000Y-85964000D01*
X215773000Y-104506000D02*
X218455000Y-104506000D01*
X250713000Y-85964000D02*
X251079000Y-85598000D01*
X248031000Y-85964000D02*
X250713000Y-85964000D01*
X248031000Y-104506000D02*
X250713000Y-104506000D01*
X250713000Y-104506000D02*
X251079000Y-104140000D01*
X218455000Y-104506000D02*
X218821000Y-104140000D01*
X218455000Y-123048000D02*
X218821000Y-122682000D01*
X215773000Y-123048000D02*
X218455000Y-123048000D01*
X250713000Y-123048000D02*
X251079000Y-122682000D01*
X248031000Y-123048000D02*
X250713000Y-123048000D01*
X253833000Y-59944000D02*
X253683000Y-59944000D01*
X252921000Y-60706000D02*
X253683000Y-59944000D01*
X250190000Y-60706000D02*
X252921000Y-60706000D01*
D27*
X255969000Y-57658000D02*
X253683000Y-59944000D01*
X260604000Y-57658000D02*
X255969000Y-57658000D01*
X261620000Y-56642000D02*
X260604000Y-57658000D01*
X262382000Y-56642000D02*
X261620000Y-56642000D01*
D26*
X217932000Y-60706000D02*
X220663000Y-60706000D01*
X221575000Y-59944000D02*
X221425000Y-59944000D01*
D27*
X230124000Y-56642000D02*
X229362000Y-56642000D01*
X229362000Y-56642000D02*
X228346000Y-57658000D01*
X223711000Y-57658000D02*
X221425000Y-59944000D01*
D26*
X220663000Y-60706000D02*
X221425000Y-59944000D01*
D27*
X228346000Y-57658000D02*
X223711000Y-57658000D01*
D26*
X250190000Y-79248000D02*
X252921000Y-79248000D01*
X253833000Y-78486000D02*
X253683000Y-78486000D01*
D27*
X262382000Y-75184000D02*
X261620000Y-75184000D01*
X229362000Y-75184000D02*
X228346000Y-76200000D01*
X261620000Y-75184000D02*
X260604000Y-76200000D01*
D26*
X221575000Y-78486000D02*
X221425000Y-78486000D01*
D27*
X255969000Y-76200000D02*
X253683000Y-78486000D01*
X228346000Y-76200000D02*
X223711000Y-76200000D01*
X230124000Y-75184000D02*
X229362000Y-75184000D01*
D26*
X252921000Y-79248000D02*
X253683000Y-78486000D01*
X217932000Y-79248000D02*
X220663000Y-79248000D01*
D27*
X223711000Y-76200000D02*
X221425000Y-78486000D01*
D26*
X220663000Y-79248000D02*
X221425000Y-78486000D01*
D27*
X260604000Y-76200000D02*
X255969000Y-76200000D01*
D26*
X250190000Y-97790000D02*
X252921000Y-97790000D01*
X253833000Y-97028000D02*
X253683000Y-97028000D01*
D27*
X261620000Y-112268000D02*
X260604000Y-113284000D01*
D26*
X220663000Y-116332000D02*
X221425000Y-115570000D01*
D27*
X262382000Y-112268000D02*
X261620000Y-112268000D01*
X262382000Y-93726000D02*
X261620000Y-93726000D01*
X230124000Y-112268000D02*
X229362000Y-112268000D01*
X229362000Y-112268000D02*
X228346000Y-113284000D01*
X229362000Y-93726000D02*
X228346000Y-94742000D01*
X261620000Y-93726000D02*
X260604000Y-94742000D01*
D26*
X221575000Y-115570000D02*
X221425000Y-115570000D01*
X221575000Y-97028000D02*
X221425000Y-97028000D01*
D27*
X255969000Y-94742000D02*
X253683000Y-97028000D01*
X223711000Y-113284000D02*
X221425000Y-115570000D01*
X255969000Y-113284000D02*
X253683000Y-115570000D01*
X228346000Y-94742000D02*
X223711000Y-94742000D01*
X230124000Y-93726000D02*
X229362000Y-93726000D01*
D26*
X252921000Y-97790000D02*
X253683000Y-97028000D01*
D27*
X228346000Y-113284000D02*
X223711000Y-113284000D01*
D26*
X252921000Y-116332000D02*
X253683000Y-115570000D01*
D27*
X260604000Y-113284000D02*
X255969000Y-113284000D01*
D26*
X217932000Y-97790000D02*
X220663000Y-97790000D01*
X250190000Y-116332000D02*
X252921000Y-116332000D01*
X217932000Y-116332000D02*
X220663000Y-116332000D01*
X253833000Y-115570000D02*
X253683000Y-115570000D01*
D27*
X223711000Y-94742000D02*
X221425000Y-97028000D01*
D26*
X220663000Y-97790000D02*
X221425000Y-97028000D01*
D27*
X260604000Y-94742000D02*
X255969000Y-94742000D01*
D26*
X250190000Y-134874000D02*
X252921000Y-134874000D01*
X253833000Y-134112000D02*
X253683000Y-134112000D01*
D27*
X262382000Y-130810000D02*
X261620000Y-130810000D01*
X229362000Y-130810000D02*
X228346000Y-131826000D01*
X261620000Y-130810000D02*
X260604000Y-131826000D01*
D26*
X221575000Y-134112000D02*
X221425000Y-134112000D01*
D27*
X255969000Y-131826000D02*
X253683000Y-134112000D01*
X228346000Y-131826000D02*
X223711000Y-131826000D01*
X230124000Y-130810000D02*
X229362000Y-130810000D01*
D26*
X252921000Y-134874000D02*
X253683000Y-134112000D01*
X217932000Y-134874000D02*
X220663000Y-134874000D01*
D27*
X223711000Y-131826000D02*
X221425000Y-134112000D01*
D26*
X220663000Y-134874000D02*
X221425000Y-134112000D01*
D27*
X260604000Y-131826000D02*
X255969000Y-131826000D01*
D25*
X240411000Y-58674000D02*
X243078000Y-56007000D01*
D26*
X240411000Y-58928000D02*
X240411000Y-58674000D01*
D25*
X208153000Y-58674000D02*
X210820000Y-56007000D01*
D26*
X208153000Y-58928000D02*
X208153000Y-58674000D01*
D25*
X240411000Y-77216000D02*
X243078000Y-74549000D01*
D26*
X240411000Y-77470000D02*
X240411000Y-77216000D01*
X208153000Y-77470000D02*
X208153000Y-77216000D01*
D25*
X208153000Y-77216000D02*
X210820000Y-74549000D01*
X240411000Y-95758000D02*
X243078000Y-93091000D01*
D26*
X240411000Y-96012000D02*
X240411000Y-95758000D01*
D25*
X208153000Y-114300000D02*
X210820000Y-111633000D01*
X240411000Y-114300000D02*
X243078000Y-111633000D01*
D26*
X208153000Y-96012000D02*
X208153000Y-95758000D01*
D25*
X208153000Y-95758000D02*
X210820000Y-93091000D01*
D26*
X240411000Y-114554000D02*
X240411000Y-114300000D01*
X208153000Y-114554000D02*
X208153000Y-114300000D01*
D25*
X240411000Y-132842000D02*
X243078000Y-130175000D01*
D26*
X240411000Y-133096000D02*
X240411000Y-132842000D01*
X208153000Y-133096000D02*
X208153000Y-132842000D01*
D25*
X208153000Y-132842000D02*
X210820000Y-130175000D01*
D26*
X238697000Y-56388000D02*
X239078000Y-56007000D01*
D25*
X234696000Y-56388000D02*
X238697000Y-56388000D01*
D26*
X206439000Y-56388000D02*
X206820000Y-56007000D01*
D25*
X202438000Y-56388000D02*
X206439000Y-56388000D01*
D26*
X238697000Y-74930000D02*
X239078000Y-74549000D01*
D25*
X234696000Y-74930000D02*
X238697000Y-74930000D01*
X202438000Y-74930000D02*
X206439000Y-74930000D01*
D26*
X206439000Y-74930000D02*
X206820000Y-74549000D01*
X238697000Y-93472000D02*
X239078000Y-93091000D01*
D25*
X234696000Y-93472000D02*
X238697000Y-93472000D01*
D26*
X206439000Y-112014000D02*
X206820000Y-111633000D01*
X238697000Y-112014000D02*
X239078000Y-111633000D01*
D25*
X234696000Y-112014000D02*
X238697000Y-112014000D01*
X202438000Y-93472000D02*
X206439000Y-93472000D01*
D26*
X206439000Y-93472000D02*
X206820000Y-93091000D01*
D25*
X202438000Y-112014000D02*
X206439000Y-112014000D01*
D26*
X238697000Y-130556000D02*
X239078000Y-130175000D01*
D25*
X234696000Y-130556000D02*
X238697000Y-130556000D01*
X202438000Y-130556000D02*
X206439000Y-130556000D01*
D26*
X206439000Y-130556000D02*
X206820000Y-130175000D01*
M02*
