G04 #@! TF.GenerationSoftware,KiCad,Pcbnew,5.1.9-73d0e3b20d~88~ubuntu20.04.1*
G04 #@! TF.CreationDate,2021-04-15T15:02:38+02:00*
G04 #@! TF.ProjectId,Switch3Vx,53776974-6368-4335-9678-2e6b69636164,rev?*
G04 #@! TF.SameCoordinates,Original*
G04 #@! TF.FileFunction,Copper,L2,Bot*
G04 #@! TF.FilePolarity,Positive*
%FSLAX46Y46*%
G04 Gerber Fmt 4.6, Leading zero omitted, Abs format (unit mm)*
G04 Created by KiCad (PCBNEW 5.1.9-73d0e3b20d~88~ubuntu20.04.1) date 2021-04-15 15:02:38*
%MOMM*%
%LPD*%
G01*
G04 APERTURE LIST*
G04 #@! TA.AperFunction,ComponentPad*
%ADD10C,1.000000*%
G04 #@! TD*
G04 #@! TA.AperFunction,ComponentPad*
%ADD11R,1.000000X1.000000*%
G04 #@! TD*
G04 #@! TA.AperFunction,ComponentPad*
%ADD12R,1.700000X1.700000*%
G04 #@! TD*
G04 #@! TA.AperFunction,ComponentPad*
%ADD13O,1.700000X1.700000*%
G04 #@! TD*
G04 #@! TA.AperFunction,ComponentPad*
%ADD14R,1.800000X1.800000*%
G04 #@! TD*
G04 #@! TA.AperFunction,ComponentPad*
%ADD15C,1.800000*%
G04 #@! TD*
G04 #@! TA.AperFunction,ViaPad*
%ADD16C,0.800000*%
G04 #@! TD*
G04 #@! TA.AperFunction,Conductor*
%ADD17C,1.000000*%
G04 #@! TD*
G04 #@! TA.AperFunction,Conductor*
%ADD18C,0.800000*%
G04 #@! TD*
G04 APERTURE END LIST*
D10*
X41529000Y-96520000D03*
X40259000Y-97790000D03*
D11*
X42799000Y-97790000D03*
D12*
X63500000Y-96774000D03*
D13*
X63500000Y-94234000D03*
X63500000Y-91694000D03*
X63500000Y-89154000D03*
X63500000Y-86614000D03*
D14*
X54610000Y-85344000D03*
D15*
X52070000Y-85344000D03*
D12*
X35814000Y-96520000D03*
D13*
X35814000Y-93980000D03*
X35814000Y-91440000D03*
X35814000Y-88900000D03*
X35814000Y-86360000D03*
D12*
X60071000Y-83947000D03*
D13*
X60071000Y-86487000D03*
D16*
X47371000Y-93091000D03*
X47244000Y-86487000D03*
X47371000Y-90424000D03*
X52705000Y-91694000D03*
X52705000Y-97028000D03*
X50927000Y-95504000D03*
D17*
X37846000Y-96520000D02*
X35814000Y-96520000D01*
X38411685Y-96520000D02*
X37846000Y-96520000D01*
X41840685Y-93091000D02*
X38411685Y-96520000D01*
X47371000Y-93091000D02*
X41840685Y-93091000D01*
X49149000Y-86487000D02*
X47244000Y-86487000D01*
X51308000Y-88646000D02*
X49149000Y-86487000D01*
X57785000Y-95123000D02*
X51308000Y-88646000D01*
X57854315Y-95123000D02*
X57785000Y-95123000D01*
X59505315Y-96774000D02*
X57854315Y-95123000D01*
X62484000Y-96774000D02*
X59505315Y-96774000D01*
X37846000Y-90424000D02*
X47371000Y-90424000D01*
X37846000Y-90424000D02*
X36830000Y-91440000D01*
X36830000Y-91440000D02*
X35814000Y-91440000D01*
D18*
X52705000Y-97028000D02*
X52705000Y-91694000D01*
X35814000Y-88900000D02*
X48514000Y-88900000D01*
X48514000Y-88900000D02*
X50927000Y-91313000D01*
X50927000Y-91313000D02*
X50927000Y-95504000D01*
X50927000Y-95504000D02*
X50927000Y-95504000D01*
M02*
