G04 #@! TF.GenerationSoftware,KiCad,Pcbnew,5.1.9-73d0e3b20d~88~ubuntu20.04.1*
G04 #@! TF.CreationDate,2021-04-15T15:02:38+02:00*
G04 #@! TF.ProjectId,Switch3Vx,53776974-6368-4335-9678-2e6b69636164,rev?*
G04 #@! TF.SameCoordinates,Original*
G04 #@! TF.FileFunction,Legend,Bot*
G04 #@! TF.FilePolarity,Positive*
%FSLAX46Y46*%
G04 Gerber Fmt 4.6, Leading zero omitted, Abs format (unit mm)*
G04 Created by KiCad (PCBNEW 5.1.9-73d0e3b20d~88~ubuntu20.04.1) date 2021-04-15 15:02:38*
%MOMM*%
%LPD*%
G01*
G04 APERTURE LIST*
%ADD10C,0.120000*%
%ADD11C,0.150000*%
G04 APERTURE END LIST*
D10*
X43329000Y-99640000D02*
X39729000Y-99640000D01*
X43367478Y-99628478D02*
G75*
G03*
X41529000Y-95190000I-1838478J1838478D01*
G01*
X39690522Y-99628478D02*
G75*
G02*
X41529000Y-95190000I1838478J1838478D01*
G01*
X62170000Y-98104000D02*
X63500000Y-98104000D01*
X62170000Y-96774000D02*
X62170000Y-98104000D01*
X62170000Y-95504000D02*
X64830000Y-95504000D01*
X64830000Y-95504000D02*
X64830000Y-85284000D01*
X62170000Y-95504000D02*
X62170000Y-85284000D01*
X62170000Y-85284000D02*
X64830000Y-85284000D01*
X34484000Y-97850000D02*
X35814000Y-97850000D01*
X34484000Y-96520000D02*
X34484000Y-97850000D01*
X34484000Y-95250000D02*
X37144000Y-95250000D01*
X37144000Y-95250000D02*
X37144000Y-85030000D01*
X34484000Y-95250000D02*
X34484000Y-85030000D01*
X34484000Y-85030000D02*
X37144000Y-85030000D01*
D11*
X41624238Y-94777619D02*
X41719476Y-94730000D01*
X41814714Y-94634761D01*
X41957571Y-94491904D01*
X42052809Y-94444285D01*
X42148047Y-94444285D01*
X42100428Y-94682380D02*
X42195666Y-94634761D01*
X42290904Y-94539523D01*
X42338523Y-94349047D01*
X42338523Y-94015714D01*
X42290904Y-93825238D01*
X42195666Y-93730000D01*
X42100428Y-93682380D01*
X41909952Y-93682380D01*
X41814714Y-93730000D01*
X41719476Y-93825238D01*
X41671857Y-94015714D01*
X41671857Y-94349047D01*
X41719476Y-94539523D01*
X41814714Y-94634761D01*
X41909952Y-94682380D01*
X42100428Y-94682380D01*
X40719476Y-94682380D02*
X41290904Y-94682380D01*
X41005190Y-94682380D02*
X41005190Y-93682380D01*
X41100428Y-93825238D01*
X41195666Y-93920476D01*
X41290904Y-93968095D01*
X63833333Y-98556380D02*
X63833333Y-99270666D01*
X63880952Y-99413523D01*
X63976190Y-99508761D01*
X64119047Y-99556380D01*
X64214285Y-99556380D01*
X63404761Y-98651619D02*
X63357142Y-98604000D01*
X63261904Y-98556380D01*
X63023809Y-98556380D01*
X62928571Y-98604000D01*
X62880952Y-98651619D01*
X62833333Y-98746857D01*
X62833333Y-98842095D01*
X62880952Y-98984952D01*
X63452380Y-99556380D01*
X62833333Y-99556380D01*
X36147333Y-98302380D02*
X36147333Y-99016666D01*
X36194952Y-99159523D01*
X36290190Y-99254761D01*
X36433047Y-99302380D01*
X36528285Y-99302380D01*
X35147333Y-99302380D02*
X35718761Y-99302380D01*
X35433047Y-99302380D02*
X35433047Y-98302380D01*
X35528285Y-98445238D01*
X35623523Y-98540476D01*
X35718761Y-98588095D01*
M02*
