G04 #@! TF.GenerationSoftware,KiCad,Pcbnew,5.1.9-73d0e3b20d~88~ubuntu20.04.1*
G04 #@! TF.CreationDate,2021-04-15T15:02:38+02:00*
G04 #@! TF.ProjectId,Switch3Vx,53776974-6368-4335-9678-2e6b69636164,rev?*
G04 #@! TF.SameCoordinates,Original*
G04 #@! TF.FileFunction,Soldermask,Top*
G04 #@! TF.FilePolarity,Negative*
%FSLAX46Y46*%
G04 Gerber Fmt 4.6, Leading zero omitted, Abs format (unit mm)*
G04 Created by KiCad (PCBNEW 5.1.9-73d0e3b20d~88~ubuntu20.04.1) date 2021-04-15 15:02:38*
%MOMM*%
%LPD*%
G01*
G04 APERTURE LIST*
%ADD10R,1.550000X1.300000*%
%ADD11C,1.000000*%
%ADD12R,1.000000X1.000000*%
%ADD13R,1.700000X1.700000*%
%ADD14O,1.700000X1.700000*%
%ADD15R,1.800000X1.800000*%
%ADD16C,1.800000*%
%ADD17R,0.900000X0.800000*%
%ADD18R,2.000000X3.800000*%
%ADD19R,2.000000X1.500000*%
G04 APERTURE END LIST*
D10*
X49238000Y-93309000D03*
X49238000Y-88809000D03*
X57188000Y-88809000D03*
X57188000Y-93309000D03*
D11*
X41529000Y-96520000D03*
X40259000Y-97790000D03*
D12*
X42799000Y-97790000D03*
D13*
X63500000Y-96774000D03*
D14*
X63500000Y-94234000D03*
X63500000Y-91694000D03*
X63500000Y-89154000D03*
X63500000Y-86614000D03*
G36*
G01*
X38059000Y-92065000D02*
X38059000Y-90815000D01*
G75*
G02*
X38309000Y-90565000I250000J0D01*
G01*
X39234000Y-90565000D01*
G75*
G02*
X39484000Y-90815000I0J-250000D01*
G01*
X39484000Y-92065000D01*
G75*
G02*
X39234000Y-92315000I-250000J0D01*
G01*
X38309000Y-92315000D01*
G75*
G02*
X38059000Y-92065000I0J250000D01*
G01*
G37*
G36*
G01*
X41034000Y-92065000D02*
X41034000Y-90815000D01*
G75*
G02*
X41284000Y-90565000I250000J0D01*
G01*
X42209000Y-90565000D01*
G75*
G02*
X42459000Y-90815000I0J-250000D01*
G01*
X42459000Y-92065000D01*
G75*
G02*
X42209000Y-92315000I-250000J0D01*
G01*
X41284000Y-92315000D01*
G75*
G02*
X41034000Y-92065000I0J250000D01*
G01*
G37*
G36*
G01*
X59827000Y-91961000D02*
X61077000Y-91961000D01*
G75*
G02*
X61327000Y-92211000I0J-250000D01*
G01*
X61327000Y-93136000D01*
G75*
G02*
X61077000Y-93386000I-250000J0D01*
G01*
X59827000Y-93386000D01*
G75*
G02*
X59577000Y-93136000I0J250000D01*
G01*
X59577000Y-92211000D01*
G75*
G02*
X59827000Y-91961000I250000J0D01*
G01*
G37*
G36*
G01*
X59827000Y-88986000D02*
X61077000Y-88986000D01*
G75*
G02*
X61327000Y-89236000I0J-250000D01*
G01*
X61327000Y-90161000D01*
G75*
G02*
X61077000Y-90411000I-250000J0D01*
G01*
X59827000Y-90411000D01*
G75*
G02*
X59577000Y-90161000I0J250000D01*
G01*
X59577000Y-89236000D01*
G75*
G02*
X59827000Y-88986000I250000J0D01*
G01*
G37*
G36*
G01*
X56398000Y-82890000D02*
X57648000Y-82890000D01*
G75*
G02*
X57898000Y-83140000I0J-250000D01*
G01*
X57898000Y-84065000D01*
G75*
G02*
X57648000Y-84315000I-250000J0D01*
G01*
X56398000Y-84315000D01*
G75*
G02*
X56148000Y-84065000I0J250000D01*
G01*
X56148000Y-83140000D01*
G75*
G02*
X56398000Y-82890000I250000J0D01*
G01*
G37*
G36*
G01*
X56398000Y-85865000D02*
X57648000Y-85865000D01*
G75*
G02*
X57898000Y-86115000I0J-250000D01*
G01*
X57898000Y-87040000D01*
G75*
G02*
X57648000Y-87290000I-250000J0D01*
G01*
X56398000Y-87290000D01*
G75*
G02*
X56148000Y-87040000I0J250000D01*
G01*
X56148000Y-86115000D01*
G75*
G02*
X56398000Y-85865000I250000J0D01*
G01*
G37*
D15*
X54610000Y-85344000D03*
D16*
X52070000Y-85344000D03*
D13*
X35814000Y-96520000D03*
D14*
X35814000Y-93980000D03*
X35814000Y-91440000D03*
X35814000Y-88900000D03*
X35814000Y-86360000D03*
D13*
X60071000Y-83947000D03*
D14*
X60071000Y-86487000D03*
D17*
X45228000Y-97028000D03*
X47228000Y-96078000D03*
X47228000Y-97978000D03*
G36*
G01*
X38186000Y-94605000D02*
X38186000Y-93355000D01*
G75*
G02*
X38436000Y-93105000I250000J0D01*
G01*
X39361000Y-93105000D01*
G75*
G02*
X39611000Y-93355000I0J-250000D01*
G01*
X39611000Y-94605000D01*
G75*
G02*
X39361000Y-94855000I-250000J0D01*
G01*
X38436000Y-94855000D01*
G75*
G02*
X38186000Y-94605000I0J250000D01*
G01*
G37*
G36*
G01*
X41161000Y-94605000D02*
X41161000Y-93355000D01*
G75*
G02*
X41411000Y-93105000I250000J0D01*
G01*
X42336000Y-93105000D01*
G75*
G02*
X42586000Y-93355000I0J-250000D01*
G01*
X42586000Y-94605000D01*
G75*
G02*
X42336000Y-94855000I-250000J0D01*
G01*
X41411000Y-94855000D01*
G75*
G02*
X41161000Y-94605000I0J250000D01*
G01*
G37*
G36*
G01*
X57576000Y-98161000D02*
X57576000Y-96911000D01*
G75*
G02*
X57826000Y-96661000I250000J0D01*
G01*
X58751000Y-96661000D01*
G75*
G02*
X59001000Y-96911000I0J-250000D01*
G01*
X59001000Y-98161000D01*
G75*
G02*
X58751000Y-98411000I-250000J0D01*
G01*
X57826000Y-98411000D01*
G75*
G02*
X57576000Y-98161000I0J250000D01*
G01*
G37*
G36*
G01*
X54601000Y-98161000D02*
X54601000Y-96911000D01*
G75*
G02*
X54851000Y-96661000I250000J0D01*
G01*
X55776000Y-96661000D01*
G75*
G02*
X56026000Y-96911000I0J-250000D01*
G01*
X56026000Y-98161000D01*
G75*
G02*
X55776000Y-98411000I-250000J0D01*
G01*
X54851000Y-98411000D01*
G75*
G02*
X54601000Y-98161000I0J250000D01*
G01*
G37*
G36*
G01*
X49774000Y-87322000D02*
X48524000Y-87322000D01*
G75*
G02*
X48274000Y-87072000I0J250000D01*
G01*
X48274000Y-86147000D01*
G75*
G02*
X48524000Y-85897000I250000J0D01*
G01*
X49774000Y-85897000D01*
G75*
G02*
X50024000Y-86147000I0J-250000D01*
G01*
X50024000Y-87072000D01*
G75*
G02*
X49774000Y-87322000I-250000J0D01*
G01*
G37*
G36*
G01*
X49774000Y-84347000D02*
X48524000Y-84347000D01*
G75*
G02*
X48274000Y-84097000I0J250000D01*
G01*
X48274000Y-83172000D01*
G75*
G02*
X48524000Y-82922000I250000J0D01*
G01*
X49774000Y-82922000D01*
G75*
G02*
X50024000Y-83172000I0J-250000D01*
G01*
X50024000Y-84097000D01*
G75*
G02*
X49774000Y-84347000I-250000J0D01*
G01*
G37*
G36*
G01*
X43571000Y-93394500D02*
X44821000Y-93394500D01*
G75*
G02*
X45071000Y-93644500I0J-250000D01*
G01*
X45071000Y-94569500D01*
G75*
G02*
X44821000Y-94819500I-250000J0D01*
G01*
X43571000Y-94819500D01*
G75*
G02*
X43321000Y-94569500I0J250000D01*
G01*
X43321000Y-93644500D01*
G75*
G02*
X43571000Y-93394500I250000J0D01*
G01*
G37*
G36*
G01*
X43571000Y-90419500D02*
X44821000Y-90419500D01*
G75*
G02*
X45071000Y-90669500I0J-250000D01*
G01*
X45071000Y-91594500D01*
G75*
G02*
X44821000Y-91844500I-250000J0D01*
G01*
X43571000Y-91844500D01*
G75*
G02*
X43321000Y-91594500I0J250000D01*
G01*
X43321000Y-90669500D01*
G75*
G02*
X43571000Y-90419500I250000J0D01*
G01*
G37*
D18*
X39268000Y-86487000D03*
D19*
X45568000Y-86487000D03*
X45568000Y-84187000D03*
X45568000Y-88787000D03*
M02*
