G04 #@! TF.GenerationSoftware,KiCad,Pcbnew,5.1.6-c6e7f7d~86~ubuntu19.10.1*
G04 #@! TF.CreationDate,2021-03-24T15:38:50+01:00*
G04 #@! TF.ProjectId,Switch3V,53776974-6368-4335-962e-6b696361645f,rev?*
G04 #@! TF.SameCoordinates,Original*
G04 #@! TF.FileFunction,Legend,Top*
G04 #@! TF.FilePolarity,Positive*
%FSLAX46Y46*%
G04 Gerber Fmt 4.6, Leading zero omitted, Abs format (unit mm)*
G04 Created by KiCad (PCBNEW 5.1.6-c6e7f7d~86~ubuntu19.10.1) date 2021-03-24 15:38:50*
%MOMM*%
%LPD*%
G01*
G04 APERTURE LIST*
%ADD10C,0.300000*%
%ADD11C,0.120000*%
%ADD12C,0.150000*%
G04 APERTURE END LIST*
D10*
X244462571Y-134978857D02*
X244462571Y-135836000D01*
X244405428Y-136007428D01*
X244291142Y-136121714D01*
X244119714Y-136178857D01*
X244005428Y-136178857D01*
X244862571Y-134978857D02*
X245548285Y-134978857D01*
X245205428Y-136178857D02*
X245205428Y-134978857D01*
X245948285Y-135721714D02*
X246862571Y-135721714D01*
X247662571Y-134978857D02*
X247776857Y-134978857D01*
X247891142Y-135036000D01*
X247948285Y-135093142D01*
X248005428Y-135207428D01*
X248062571Y-135436000D01*
X248062571Y-135721714D01*
X248005428Y-135950285D01*
X247948285Y-136064571D01*
X247891142Y-136121714D01*
X247776857Y-136178857D01*
X247662571Y-136178857D01*
X247548285Y-136121714D01*
X247491142Y-136064571D01*
X247434000Y-135950285D01*
X247376857Y-135721714D01*
X247376857Y-135436000D01*
X247434000Y-135207428D01*
X247491142Y-135093142D01*
X247548285Y-135036000D01*
X247662571Y-134978857D01*
X249205428Y-136178857D02*
X248519714Y-136178857D01*
X248862571Y-136178857D02*
X248862571Y-134978857D01*
X248748285Y-135150285D01*
X248634000Y-135264571D01*
X248519714Y-135321714D01*
X212204571Y-134978857D02*
X212204571Y-135836000D01*
X212147428Y-136007428D01*
X212033142Y-136121714D01*
X211861714Y-136178857D01*
X211747428Y-136178857D01*
X212604571Y-134978857D02*
X213290285Y-134978857D01*
X212947428Y-136178857D02*
X212947428Y-134978857D01*
X213690285Y-135721714D02*
X214604571Y-135721714D01*
X215404571Y-134978857D02*
X215518857Y-134978857D01*
X215633142Y-135036000D01*
X215690285Y-135093142D01*
X215747428Y-135207428D01*
X215804571Y-135436000D01*
X215804571Y-135721714D01*
X215747428Y-135950285D01*
X215690285Y-136064571D01*
X215633142Y-136121714D01*
X215518857Y-136178857D01*
X215404571Y-136178857D01*
X215290285Y-136121714D01*
X215233142Y-136064571D01*
X215176000Y-135950285D01*
X215118857Y-135721714D01*
X215118857Y-135436000D01*
X215176000Y-135207428D01*
X215233142Y-135093142D01*
X215290285Y-135036000D01*
X215404571Y-134978857D01*
X216947428Y-136178857D02*
X216261714Y-136178857D01*
X216604571Y-136178857D02*
X216604571Y-134978857D01*
X216490285Y-135150285D01*
X216376000Y-135264571D01*
X216261714Y-135321714D01*
X212204571Y-116436857D02*
X212204571Y-117294000D01*
X212147428Y-117465428D01*
X212033142Y-117579714D01*
X211861714Y-117636857D01*
X211747428Y-117636857D01*
X212604571Y-116436857D02*
X213290285Y-116436857D01*
X212947428Y-117636857D02*
X212947428Y-116436857D01*
X213690285Y-117179714D02*
X214604571Y-117179714D01*
X215404571Y-116436857D02*
X215518857Y-116436857D01*
X215633142Y-116494000D01*
X215690285Y-116551142D01*
X215747428Y-116665428D01*
X215804571Y-116894000D01*
X215804571Y-117179714D01*
X215747428Y-117408285D01*
X215690285Y-117522571D01*
X215633142Y-117579714D01*
X215518857Y-117636857D01*
X215404571Y-117636857D01*
X215290285Y-117579714D01*
X215233142Y-117522571D01*
X215176000Y-117408285D01*
X215118857Y-117179714D01*
X215118857Y-116894000D01*
X215176000Y-116665428D01*
X215233142Y-116551142D01*
X215290285Y-116494000D01*
X215404571Y-116436857D01*
X216947428Y-117636857D02*
X216261714Y-117636857D01*
X216604571Y-117636857D02*
X216604571Y-116436857D01*
X216490285Y-116608285D01*
X216376000Y-116722571D01*
X216261714Y-116779714D01*
X244462571Y-97894857D02*
X244462571Y-98752000D01*
X244405428Y-98923428D01*
X244291142Y-99037714D01*
X244119714Y-99094857D01*
X244005428Y-99094857D01*
X244862571Y-97894857D02*
X245548285Y-97894857D01*
X245205428Y-99094857D02*
X245205428Y-97894857D01*
X245948285Y-98637714D02*
X246862571Y-98637714D01*
X247662571Y-97894857D02*
X247776857Y-97894857D01*
X247891142Y-97952000D01*
X247948285Y-98009142D01*
X248005428Y-98123428D01*
X248062571Y-98352000D01*
X248062571Y-98637714D01*
X248005428Y-98866285D01*
X247948285Y-98980571D01*
X247891142Y-99037714D01*
X247776857Y-99094857D01*
X247662571Y-99094857D01*
X247548285Y-99037714D01*
X247491142Y-98980571D01*
X247434000Y-98866285D01*
X247376857Y-98637714D01*
X247376857Y-98352000D01*
X247434000Y-98123428D01*
X247491142Y-98009142D01*
X247548285Y-97952000D01*
X247662571Y-97894857D01*
X249205428Y-99094857D02*
X248519714Y-99094857D01*
X248862571Y-99094857D02*
X248862571Y-97894857D01*
X248748285Y-98066285D01*
X248634000Y-98180571D01*
X248519714Y-98237714D01*
X244462571Y-116436857D02*
X244462571Y-117294000D01*
X244405428Y-117465428D01*
X244291142Y-117579714D01*
X244119714Y-117636857D01*
X244005428Y-117636857D01*
X244862571Y-116436857D02*
X245548285Y-116436857D01*
X245205428Y-117636857D02*
X245205428Y-116436857D01*
X245948285Y-117179714D02*
X246862571Y-117179714D01*
X247662571Y-116436857D02*
X247776857Y-116436857D01*
X247891142Y-116494000D01*
X247948285Y-116551142D01*
X248005428Y-116665428D01*
X248062571Y-116894000D01*
X248062571Y-117179714D01*
X248005428Y-117408285D01*
X247948285Y-117522571D01*
X247891142Y-117579714D01*
X247776857Y-117636857D01*
X247662571Y-117636857D01*
X247548285Y-117579714D01*
X247491142Y-117522571D01*
X247434000Y-117408285D01*
X247376857Y-117179714D01*
X247376857Y-116894000D01*
X247434000Y-116665428D01*
X247491142Y-116551142D01*
X247548285Y-116494000D01*
X247662571Y-116436857D01*
X249205428Y-117636857D02*
X248519714Y-117636857D01*
X248862571Y-117636857D02*
X248862571Y-116436857D01*
X248748285Y-116608285D01*
X248634000Y-116722571D01*
X248519714Y-116779714D01*
X212204571Y-97894857D02*
X212204571Y-98752000D01*
X212147428Y-98923428D01*
X212033142Y-99037714D01*
X211861714Y-99094857D01*
X211747428Y-99094857D01*
X212604571Y-97894857D02*
X213290285Y-97894857D01*
X212947428Y-99094857D02*
X212947428Y-97894857D01*
X213690285Y-98637714D02*
X214604571Y-98637714D01*
X215404571Y-97894857D02*
X215518857Y-97894857D01*
X215633142Y-97952000D01*
X215690285Y-98009142D01*
X215747428Y-98123428D01*
X215804571Y-98352000D01*
X215804571Y-98637714D01*
X215747428Y-98866285D01*
X215690285Y-98980571D01*
X215633142Y-99037714D01*
X215518857Y-99094857D01*
X215404571Y-99094857D01*
X215290285Y-99037714D01*
X215233142Y-98980571D01*
X215176000Y-98866285D01*
X215118857Y-98637714D01*
X215118857Y-98352000D01*
X215176000Y-98123428D01*
X215233142Y-98009142D01*
X215290285Y-97952000D01*
X215404571Y-97894857D01*
X216947428Y-99094857D02*
X216261714Y-99094857D01*
X216604571Y-99094857D02*
X216604571Y-97894857D01*
X216490285Y-98066285D01*
X216376000Y-98180571D01*
X216261714Y-98237714D01*
X244462571Y-79352857D02*
X244462571Y-80210000D01*
X244405428Y-80381428D01*
X244291142Y-80495714D01*
X244119714Y-80552857D01*
X244005428Y-80552857D01*
X244862571Y-79352857D02*
X245548285Y-79352857D01*
X245205428Y-80552857D02*
X245205428Y-79352857D01*
X245948285Y-80095714D02*
X246862571Y-80095714D01*
X247662571Y-79352857D02*
X247776857Y-79352857D01*
X247891142Y-79410000D01*
X247948285Y-79467142D01*
X248005428Y-79581428D01*
X248062571Y-79810000D01*
X248062571Y-80095714D01*
X248005428Y-80324285D01*
X247948285Y-80438571D01*
X247891142Y-80495714D01*
X247776857Y-80552857D01*
X247662571Y-80552857D01*
X247548285Y-80495714D01*
X247491142Y-80438571D01*
X247434000Y-80324285D01*
X247376857Y-80095714D01*
X247376857Y-79810000D01*
X247434000Y-79581428D01*
X247491142Y-79467142D01*
X247548285Y-79410000D01*
X247662571Y-79352857D01*
X249205428Y-80552857D02*
X248519714Y-80552857D01*
X248862571Y-80552857D02*
X248862571Y-79352857D01*
X248748285Y-79524285D01*
X248634000Y-79638571D01*
X248519714Y-79695714D01*
X212204571Y-79352857D02*
X212204571Y-80210000D01*
X212147428Y-80381428D01*
X212033142Y-80495714D01*
X211861714Y-80552857D01*
X211747428Y-80552857D01*
X212604571Y-79352857D02*
X213290285Y-79352857D01*
X212947428Y-80552857D02*
X212947428Y-79352857D01*
X213690285Y-80095714D02*
X214604571Y-80095714D01*
X215404571Y-79352857D02*
X215518857Y-79352857D01*
X215633142Y-79410000D01*
X215690285Y-79467142D01*
X215747428Y-79581428D01*
X215804571Y-79810000D01*
X215804571Y-80095714D01*
X215747428Y-80324285D01*
X215690285Y-80438571D01*
X215633142Y-80495714D01*
X215518857Y-80552857D01*
X215404571Y-80552857D01*
X215290285Y-80495714D01*
X215233142Y-80438571D01*
X215176000Y-80324285D01*
X215118857Y-80095714D01*
X215118857Y-79810000D01*
X215176000Y-79581428D01*
X215233142Y-79467142D01*
X215290285Y-79410000D01*
X215404571Y-79352857D01*
X216947428Y-80552857D02*
X216261714Y-80552857D01*
X216604571Y-80552857D02*
X216604571Y-79352857D01*
X216490285Y-79524285D01*
X216376000Y-79638571D01*
X216261714Y-79695714D01*
X212204571Y-60810857D02*
X212204571Y-61668000D01*
X212147428Y-61839428D01*
X212033142Y-61953714D01*
X211861714Y-62010857D01*
X211747428Y-62010857D01*
X212604571Y-60810857D02*
X213290285Y-60810857D01*
X212947428Y-62010857D02*
X212947428Y-60810857D01*
X213690285Y-61553714D02*
X214604571Y-61553714D01*
X215404571Y-60810857D02*
X215518857Y-60810857D01*
X215633142Y-60868000D01*
X215690285Y-60925142D01*
X215747428Y-61039428D01*
X215804571Y-61268000D01*
X215804571Y-61553714D01*
X215747428Y-61782285D01*
X215690285Y-61896571D01*
X215633142Y-61953714D01*
X215518857Y-62010857D01*
X215404571Y-62010857D01*
X215290285Y-61953714D01*
X215233142Y-61896571D01*
X215176000Y-61782285D01*
X215118857Y-61553714D01*
X215118857Y-61268000D01*
X215176000Y-61039428D01*
X215233142Y-60925142D01*
X215290285Y-60868000D01*
X215404571Y-60810857D01*
X216947428Y-62010857D02*
X216261714Y-62010857D01*
X216604571Y-62010857D02*
X216604571Y-60810857D01*
X216490285Y-60982285D01*
X216376000Y-61096571D01*
X216261714Y-61153714D01*
X244462571Y-60810857D02*
X244462571Y-61668000D01*
X244405428Y-61839428D01*
X244291142Y-61953714D01*
X244119714Y-62010857D01*
X244005428Y-62010857D01*
X244862571Y-60810857D02*
X245548285Y-60810857D01*
X245205428Y-62010857D02*
X245205428Y-60810857D01*
X245948285Y-61553714D02*
X246862571Y-61553714D01*
X247662571Y-60810857D02*
X247776857Y-60810857D01*
X247891142Y-60868000D01*
X247948285Y-60925142D01*
X248005428Y-61039428D01*
X248062571Y-61268000D01*
X248062571Y-61553714D01*
X248005428Y-61782285D01*
X247948285Y-61896571D01*
X247891142Y-61953714D01*
X247776857Y-62010857D01*
X247662571Y-62010857D01*
X247548285Y-61953714D01*
X247491142Y-61896571D01*
X247434000Y-61782285D01*
X247376857Y-61553714D01*
X247376857Y-61268000D01*
X247434000Y-61039428D01*
X247491142Y-60925142D01*
X247548285Y-60868000D01*
X247662571Y-60810857D01*
X249205428Y-62010857D02*
X248519714Y-62010857D01*
X248862571Y-62010857D02*
X248862571Y-60810857D01*
X248748285Y-60982285D01*
X248634000Y-61096571D01*
X248519714Y-61153714D01*
D11*
X207132000Y-119653000D02*
X207132000Y-120913000D01*
X207132000Y-126473000D02*
X207132000Y-125213000D01*
X210892000Y-119653000D02*
X207132000Y-119653000D01*
X213142000Y-126473000D02*
X207132000Y-126473000D01*
X221524000Y-123156000D02*
X221524000Y-123000000D01*
X221524000Y-120840000D02*
X221524000Y-120684000D01*
X218291665Y-122998608D02*
G75*
G03*
X221524000Y-123155516I1672335J1078608D01*
G01*
X218291665Y-120841392D02*
G75*
G02*
X221524000Y-120684484I1672335J-1078608D01*
G01*
X218922870Y-122999837D02*
G75*
G03*
X221004961Y-123000000I1041130J1079837D01*
G01*
X218922870Y-120840163D02*
G75*
G02*
X221004961Y-120840000I1041130J-1079837D01*
G01*
X223203000Y-126716000D02*
X223203000Y-129316000D01*
X216903000Y-131466000D02*
X216903000Y-131216000D01*
X223203000Y-131466000D02*
X216903000Y-131466000D01*
X223203000Y-131216000D02*
X223203000Y-131466000D01*
X216903000Y-129316000D02*
X216903000Y-126716000D01*
X223203000Y-124566000D02*
X223203000Y-124816000D01*
X216903000Y-124566000D02*
X223203000Y-124566000D01*
X216903000Y-124816000D02*
X216903000Y-124566000D01*
X249161000Y-124816000D02*
X249161000Y-124566000D01*
X249161000Y-124566000D02*
X255461000Y-124566000D01*
X255461000Y-124566000D02*
X255461000Y-124816000D01*
X249161000Y-129316000D02*
X249161000Y-126716000D01*
X255461000Y-131216000D02*
X255461000Y-131466000D01*
X255461000Y-131466000D02*
X249161000Y-131466000D01*
X249161000Y-131466000D02*
X249161000Y-131216000D01*
X255461000Y-126716000D02*
X255461000Y-129316000D01*
X228096000Y-128762000D02*
X228096000Y-126762000D01*
X226056000Y-126762000D02*
X226056000Y-128762000D01*
X209820000Y-131372000D02*
X207820000Y-131372000D01*
X207820000Y-129232000D02*
X209820000Y-129232000D01*
X207915000Y-129036000D02*
X209915000Y-129036000D01*
X209915000Y-126996000D02*
X207915000Y-126996000D01*
X242173000Y-126996000D02*
X240173000Y-126996000D01*
X240173000Y-129036000D02*
X242173000Y-129036000D01*
X240078000Y-129232000D02*
X242078000Y-129232000D01*
X242078000Y-131372000D02*
X240078000Y-131372000D01*
X256683000Y-135182000D02*
X254683000Y-135182000D01*
X254683000Y-133042000D02*
X256683000Y-133042000D01*
X251180870Y-120840163D02*
G75*
G02*
X253262961Y-120840000I1041130J-1079837D01*
G01*
X251180870Y-122999837D02*
G75*
G03*
X253262961Y-123000000I1041130J1079837D01*
G01*
X250549665Y-120841392D02*
G75*
G02*
X253782000Y-120684484I1672335J-1078608D01*
G01*
X250549665Y-122998608D02*
G75*
G03*
X253782000Y-123155516I1672335J1078608D01*
G01*
X253782000Y-120840000D02*
X253782000Y-120684000D01*
X253782000Y-123156000D02*
X253782000Y-123000000D01*
X222425000Y-133042000D02*
X224425000Y-133042000D01*
X224425000Y-135182000D02*
X222425000Y-135182000D01*
X248911000Y-121098000D02*
X248911000Y-122298000D01*
X247151000Y-122298000D02*
X247151000Y-121098000D01*
X254972000Y-119466000D02*
X254972000Y-122666000D01*
X257092000Y-122666000D02*
X257092000Y-119466000D01*
X257092000Y-119466000D02*
X254972000Y-119466000D01*
X258314000Y-126762000D02*
X258314000Y-128762000D01*
X260354000Y-128762000D02*
X260354000Y-126762000D01*
X245400000Y-126473000D02*
X239390000Y-126473000D01*
X243150000Y-119653000D02*
X239390000Y-119653000D01*
X239390000Y-126473000D02*
X239390000Y-125213000D01*
X239390000Y-119653000D02*
X239390000Y-120913000D01*
X224834000Y-119466000D02*
X222714000Y-119466000D01*
X224834000Y-122666000D02*
X224834000Y-119466000D01*
X222714000Y-119466000D02*
X222714000Y-122666000D01*
X214893000Y-122298000D02*
X214893000Y-121098000D01*
X216653000Y-121098000D02*
X216653000Y-122298000D01*
X216653000Y-102556000D02*
X216653000Y-103756000D01*
X214893000Y-103756000D02*
X214893000Y-102556000D01*
X257092000Y-100924000D02*
X254972000Y-100924000D01*
X257092000Y-104124000D02*
X257092000Y-100924000D01*
X254972000Y-100924000D02*
X254972000Y-104124000D01*
X242078000Y-112830000D02*
X240078000Y-112830000D01*
X240078000Y-110690000D02*
X242078000Y-110690000D01*
X207132000Y-82569000D02*
X207132000Y-83829000D01*
X207132000Y-89389000D02*
X207132000Y-88129000D01*
X210892000Y-82569000D02*
X207132000Y-82569000D01*
X213142000Y-89389000D02*
X207132000Y-89389000D01*
X209915000Y-108454000D02*
X207915000Y-108454000D01*
X207915000Y-110494000D02*
X209915000Y-110494000D01*
X221524000Y-86072000D02*
X221524000Y-85916000D01*
X221524000Y-83756000D02*
X221524000Y-83600000D01*
X218291665Y-85914608D02*
G75*
G03*
X221524000Y-86071516I1672335J1078608D01*
G01*
X218291665Y-83757392D02*
G75*
G02*
X221524000Y-83600484I1672335J-1078608D01*
G01*
X218922870Y-85915837D02*
G75*
G03*
X221004961Y-85916000I1041130J1079837D01*
G01*
X218922870Y-83756163D02*
G75*
G02*
X221004961Y-83756000I1041130J-1079837D01*
G01*
X223203000Y-89632000D02*
X223203000Y-92232000D01*
X216903000Y-94382000D02*
X216903000Y-94132000D01*
X223203000Y-94382000D02*
X216903000Y-94382000D01*
X223203000Y-94132000D02*
X223203000Y-94382000D01*
X216903000Y-92232000D02*
X216903000Y-89632000D01*
X223203000Y-87482000D02*
X223203000Y-87732000D01*
X216903000Y-87482000D02*
X223203000Y-87482000D01*
X216903000Y-87732000D02*
X216903000Y-87482000D01*
X249161000Y-87732000D02*
X249161000Y-87482000D01*
X249161000Y-87482000D02*
X255461000Y-87482000D01*
X255461000Y-87482000D02*
X255461000Y-87732000D01*
X249161000Y-92232000D02*
X249161000Y-89632000D01*
X255461000Y-94132000D02*
X255461000Y-94382000D01*
X255461000Y-94382000D02*
X249161000Y-94382000D01*
X249161000Y-94382000D02*
X249161000Y-94132000D01*
X255461000Y-89632000D02*
X255461000Y-92232000D01*
X254683000Y-114500000D02*
X256683000Y-114500000D01*
X256683000Y-116640000D02*
X254683000Y-116640000D01*
X228096000Y-91678000D02*
X228096000Y-89678000D01*
X226056000Y-89678000D02*
X226056000Y-91678000D01*
X209820000Y-94288000D02*
X207820000Y-94288000D01*
X207820000Y-92148000D02*
X209820000Y-92148000D01*
X213142000Y-107931000D02*
X207132000Y-107931000D01*
X210892000Y-101111000D02*
X207132000Y-101111000D01*
X207132000Y-107931000D02*
X207132000Y-106671000D01*
X207132000Y-101111000D02*
X207132000Y-102371000D01*
X222714000Y-100924000D02*
X222714000Y-104124000D01*
X224834000Y-104124000D02*
X224834000Y-100924000D01*
X224834000Y-100924000D02*
X222714000Y-100924000D01*
X247151000Y-103756000D02*
X247151000Y-102556000D01*
X248911000Y-102556000D02*
X248911000Y-103756000D01*
X207915000Y-91952000D02*
X209915000Y-91952000D01*
X209915000Y-89912000D02*
X207915000Y-89912000D01*
X242173000Y-89912000D02*
X240173000Y-89912000D01*
X240173000Y-91952000D02*
X242173000Y-91952000D01*
X240078000Y-92148000D02*
X242078000Y-92148000D01*
X242078000Y-94288000D02*
X240078000Y-94288000D01*
X240173000Y-110494000D02*
X242173000Y-110494000D01*
X242173000Y-108454000D02*
X240173000Y-108454000D01*
X256683000Y-98098000D02*
X254683000Y-98098000D01*
X254683000Y-95958000D02*
X256683000Y-95958000D01*
X255461000Y-108174000D02*
X255461000Y-110774000D01*
X249161000Y-112924000D02*
X249161000Y-112674000D01*
X255461000Y-112924000D02*
X249161000Y-112924000D01*
X255461000Y-112674000D02*
X255461000Y-112924000D01*
X249161000Y-110774000D02*
X249161000Y-108174000D01*
X255461000Y-106024000D02*
X255461000Y-106274000D01*
X249161000Y-106024000D02*
X255461000Y-106024000D01*
X249161000Y-106274000D02*
X249161000Y-106024000D01*
X251180870Y-83756163D02*
G75*
G02*
X253262961Y-83756000I1041130J-1079837D01*
G01*
X251180870Y-85915837D02*
G75*
G03*
X253262961Y-85916000I1041130J1079837D01*
G01*
X250549665Y-83757392D02*
G75*
G02*
X253782000Y-83600484I1672335J-1078608D01*
G01*
X250549665Y-85914608D02*
G75*
G03*
X253782000Y-86071516I1672335J1078608D01*
G01*
X253782000Y-83756000D02*
X253782000Y-83600000D01*
X253782000Y-86072000D02*
X253782000Y-85916000D01*
X260354000Y-110220000D02*
X260354000Y-108220000D01*
X258314000Y-108220000D02*
X258314000Y-110220000D01*
X222425000Y-95958000D02*
X224425000Y-95958000D01*
X224425000Y-98098000D02*
X222425000Y-98098000D01*
X216903000Y-106274000D02*
X216903000Y-106024000D01*
X216903000Y-106024000D02*
X223203000Y-106024000D01*
X223203000Y-106024000D02*
X223203000Y-106274000D01*
X216903000Y-110774000D02*
X216903000Y-108174000D01*
X223203000Y-112674000D02*
X223203000Y-112924000D01*
X223203000Y-112924000D02*
X216903000Y-112924000D01*
X216903000Y-112924000D02*
X216903000Y-112674000D01*
X223203000Y-108174000D02*
X223203000Y-110774000D01*
X248911000Y-84014000D02*
X248911000Y-85214000D01*
X247151000Y-85214000D02*
X247151000Y-84014000D01*
X254972000Y-82382000D02*
X254972000Y-85582000D01*
X257092000Y-85582000D02*
X257092000Y-82382000D01*
X257092000Y-82382000D02*
X254972000Y-82382000D01*
X258314000Y-89678000D02*
X258314000Y-91678000D01*
X260354000Y-91678000D02*
X260354000Y-89678000D01*
X245400000Y-89389000D02*
X239390000Y-89389000D01*
X243150000Y-82569000D02*
X239390000Y-82569000D01*
X239390000Y-89389000D02*
X239390000Y-88129000D01*
X239390000Y-82569000D02*
X239390000Y-83829000D01*
X224834000Y-82382000D02*
X222714000Y-82382000D01*
X224834000Y-85582000D02*
X224834000Y-82382000D01*
X222714000Y-82382000D02*
X222714000Y-85582000D01*
X253782000Y-104614000D02*
X253782000Y-104458000D01*
X253782000Y-102298000D02*
X253782000Y-102142000D01*
X250549665Y-104456608D02*
G75*
G03*
X253782000Y-104613516I1672335J1078608D01*
G01*
X250549665Y-102299392D02*
G75*
G02*
X253782000Y-102142484I1672335J-1078608D01*
G01*
X251180870Y-104457837D02*
G75*
G03*
X253262961Y-104458000I1041130J1079837D01*
G01*
X251180870Y-102298163D02*
G75*
G02*
X253262961Y-102298000I1041130J-1079837D01*
G01*
X218922870Y-102298163D02*
G75*
G02*
X221004961Y-102298000I1041130J-1079837D01*
G01*
X218922870Y-104457837D02*
G75*
G03*
X221004961Y-104458000I1041130J1079837D01*
G01*
X218291665Y-102299392D02*
G75*
G02*
X221524000Y-102142484I1672335J-1078608D01*
G01*
X218291665Y-104456608D02*
G75*
G03*
X221524000Y-104613516I1672335J1078608D01*
G01*
X221524000Y-102298000D02*
X221524000Y-102142000D01*
X221524000Y-104614000D02*
X221524000Y-104458000D01*
X207820000Y-110690000D02*
X209820000Y-110690000D01*
X209820000Y-112830000D02*
X207820000Y-112830000D01*
X226056000Y-108220000D02*
X226056000Y-110220000D01*
X228096000Y-110220000D02*
X228096000Y-108220000D01*
X224425000Y-116640000D02*
X222425000Y-116640000D01*
X222425000Y-114500000D02*
X224425000Y-114500000D01*
X239390000Y-101111000D02*
X239390000Y-102371000D01*
X239390000Y-107931000D02*
X239390000Y-106671000D01*
X243150000Y-101111000D02*
X239390000Y-101111000D01*
X245400000Y-107931000D02*
X239390000Y-107931000D01*
X214893000Y-85214000D02*
X214893000Y-84014000D01*
X216653000Y-84014000D02*
X216653000Y-85214000D01*
X207132000Y-64027000D02*
X207132000Y-65287000D01*
X207132000Y-70847000D02*
X207132000Y-69587000D01*
X210892000Y-64027000D02*
X207132000Y-64027000D01*
X213142000Y-70847000D02*
X207132000Y-70847000D01*
X221524000Y-67530000D02*
X221524000Y-67374000D01*
X221524000Y-65214000D02*
X221524000Y-65058000D01*
X218291665Y-67372608D02*
G75*
G03*
X221524000Y-67529516I1672335J1078608D01*
G01*
X218291665Y-65215392D02*
G75*
G02*
X221524000Y-65058484I1672335J-1078608D01*
G01*
X218922870Y-67373837D02*
G75*
G03*
X221004961Y-67374000I1041130J1079837D01*
G01*
X218922870Y-65214163D02*
G75*
G02*
X221004961Y-65214000I1041130J-1079837D01*
G01*
X223203000Y-71090000D02*
X223203000Y-73690000D01*
X216903000Y-75840000D02*
X216903000Y-75590000D01*
X223203000Y-75840000D02*
X216903000Y-75840000D01*
X223203000Y-75590000D02*
X223203000Y-75840000D01*
X216903000Y-73690000D02*
X216903000Y-71090000D01*
X223203000Y-68940000D02*
X223203000Y-69190000D01*
X216903000Y-68940000D02*
X223203000Y-68940000D01*
X216903000Y-69190000D02*
X216903000Y-68940000D01*
X249161000Y-69190000D02*
X249161000Y-68940000D01*
X249161000Y-68940000D02*
X255461000Y-68940000D01*
X255461000Y-68940000D02*
X255461000Y-69190000D01*
X249161000Y-73690000D02*
X249161000Y-71090000D01*
X255461000Y-75590000D02*
X255461000Y-75840000D01*
X255461000Y-75840000D02*
X249161000Y-75840000D01*
X249161000Y-75840000D02*
X249161000Y-75590000D01*
X255461000Y-71090000D02*
X255461000Y-73690000D01*
X228096000Y-73136000D02*
X228096000Y-71136000D01*
X226056000Y-71136000D02*
X226056000Y-73136000D01*
X209820000Y-75746000D02*
X207820000Y-75746000D01*
X207820000Y-73606000D02*
X209820000Y-73606000D01*
X207915000Y-73410000D02*
X209915000Y-73410000D01*
X209915000Y-71370000D02*
X207915000Y-71370000D01*
X242173000Y-71370000D02*
X240173000Y-71370000D01*
X240173000Y-73410000D02*
X242173000Y-73410000D01*
X240078000Y-73606000D02*
X242078000Y-73606000D01*
X242078000Y-75746000D02*
X240078000Y-75746000D01*
X256683000Y-79556000D02*
X254683000Y-79556000D01*
X254683000Y-77416000D02*
X256683000Y-77416000D01*
X251180870Y-65214163D02*
G75*
G02*
X253262961Y-65214000I1041130J-1079837D01*
G01*
X251180870Y-67373837D02*
G75*
G03*
X253262961Y-67374000I1041130J1079837D01*
G01*
X250549665Y-65215392D02*
G75*
G02*
X253782000Y-65058484I1672335J-1078608D01*
G01*
X250549665Y-67372608D02*
G75*
G03*
X253782000Y-67529516I1672335J1078608D01*
G01*
X253782000Y-65214000D02*
X253782000Y-65058000D01*
X253782000Y-67530000D02*
X253782000Y-67374000D01*
X222425000Y-77416000D02*
X224425000Y-77416000D01*
X224425000Y-79556000D02*
X222425000Y-79556000D01*
X248911000Y-65472000D02*
X248911000Y-66672000D01*
X247151000Y-66672000D02*
X247151000Y-65472000D01*
X254972000Y-63840000D02*
X254972000Y-67040000D01*
X257092000Y-67040000D02*
X257092000Y-63840000D01*
X257092000Y-63840000D02*
X254972000Y-63840000D01*
X258314000Y-71136000D02*
X258314000Y-73136000D01*
X260354000Y-73136000D02*
X260354000Y-71136000D01*
X245400000Y-70847000D02*
X239390000Y-70847000D01*
X243150000Y-64027000D02*
X239390000Y-64027000D01*
X239390000Y-70847000D02*
X239390000Y-69587000D01*
X239390000Y-64027000D02*
X239390000Y-65287000D01*
X224834000Y-63840000D02*
X222714000Y-63840000D01*
X224834000Y-67040000D02*
X224834000Y-63840000D01*
X222714000Y-63840000D02*
X222714000Y-67040000D01*
X214893000Y-66672000D02*
X214893000Y-65472000D01*
X216653000Y-65472000D02*
X216653000Y-66672000D01*
X216903000Y-50648000D02*
X216903000Y-50398000D01*
X216903000Y-50398000D02*
X223203000Y-50398000D01*
X223203000Y-50398000D02*
X223203000Y-50648000D01*
X216903000Y-55148000D02*
X216903000Y-52548000D01*
X223203000Y-57048000D02*
X223203000Y-57298000D01*
X223203000Y-57298000D02*
X216903000Y-57298000D01*
X216903000Y-57298000D02*
X216903000Y-57048000D01*
X223203000Y-52548000D02*
X223203000Y-55148000D01*
X209915000Y-52828000D02*
X207915000Y-52828000D01*
X207915000Y-54868000D02*
X209915000Y-54868000D01*
X207820000Y-55064000D02*
X209820000Y-55064000D01*
X209820000Y-57204000D02*
X207820000Y-57204000D01*
X224425000Y-61014000D02*
X222425000Y-61014000D01*
X222425000Y-58874000D02*
X224425000Y-58874000D01*
X218922870Y-46672163D02*
G75*
G02*
X221004961Y-46672000I1041130J-1079837D01*
G01*
X218922870Y-48831837D02*
G75*
G03*
X221004961Y-48832000I1041130J1079837D01*
G01*
X218291665Y-46673392D02*
G75*
G02*
X221524000Y-46516484I1672335J-1078608D01*
G01*
X218291665Y-48830608D02*
G75*
G03*
X221524000Y-48987516I1672335J1078608D01*
G01*
X221524000Y-46672000D02*
X221524000Y-46516000D01*
X221524000Y-48988000D02*
X221524000Y-48832000D01*
X216653000Y-46930000D02*
X216653000Y-48130000D01*
X214893000Y-48130000D02*
X214893000Y-46930000D01*
X222714000Y-45298000D02*
X222714000Y-48498000D01*
X224834000Y-48498000D02*
X224834000Y-45298000D01*
X224834000Y-45298000D02*
X222714000Y-45298000D01*
X226056000Y-52594000D02*
X226056000Y-54594000D01*
X228096000Y-54594000D02*
X228096000Y-52594000D01*
X213142000Y-52305000D02*
X207132000Y-52305000D01*
X210892000Y-45485000D02*
X207132000Y-45485000D01*
X207132000Y-52305000D02*
X207132000Y-51045000D01*
X207132000Y-45485000D02*
X207132000Y-46745000D01*
X247151000Y-48130000D02*
X247151000Y-46930000D01*
X248911000Y-46930000D02*
X248911000Y-48130000D01*
X255461000Y-52548000D02*
X255461000Y-55148000D01*
X249161000Y-57298000D02*
X249161000Y-57048000D01*
X255461000Y-57298000D02*
X249161000Y-57298000D01*
X255461000Y-57048000D02*
X255461000Y-57298000D01*
X249161000Y-55148000D02*
X249161000Y-52548000D01*
X255461000Y-50398000D02*
X255461000Y-50648000D01*
X249161000Y-50398000D02*
X255461000Y-50398000D01*
X249161000Y-50648000D02*
X249161000Y-50398000D01*
X240173000Y-54868000D02*
X242173000Y-54868000D01*
X242173000Y-52828000D02*
X240173000Y-52828000D01*
X260354000Y-54594000D02*
X260354000Y-52594000D01*
X258314000Y-52594000D02*
X258314000Y-54594000D01*
X257092000Y-45298000D02*
X254972000Y-45298000D01*
X257092000Y-48498000D02*
X257092000Y-45298000D01*
X254972000Y-45298000D02*
X254972000Y-48498000D01*
X253782000Y-48988000D02*
X253782000Y-48832000D01*
X253782000Y-46672000D02*
X253782000Y-46516000D01*
X250549665Y-48830608D02*
G75*
G03*
X253782000Y-48987516I1672335J1078608D01*
G01*
X250549665Y-46673392D02*
G75*
G02*
X253782000Y-46516484I1672335J-1078608D01*
G01*
X251180870Y-48831837D02*
G75*
G03*
X253262961Y-48832000I1041130J1079837D01*
G01*
X251180870Y-46672163D02*
G75*
G02*
X253262961Y-46672000I1041130J-1079837D01*
G01*
X242078000Y-57204000D02*
X240078000Y-57204000D01*
X240078000Y-55064000D02*
X242078000Y-55064000D01*
X254683000Y-58874000D02*
X256683000Y-58874000D01*
X256683000Y-61014000D02*
X254683000Y-61014000D01*
X239390000Y-45485000D02*
X239390000Y-46745000D01*
X239390000Y-52305000D02*
X239390000Y-51045000D01*
X243150000Y-45485000D02*
X239390000Y-45485000D01*
X245400000Y-52305000D02*
X239390000Y-52305000D01*
D12*
X208026095Y-121118380D02*
X208026095Y-121927904D01*
X208073714Y-122023142D01*
X208121333Y-122070761D01*
X208216571Y-122118380D01*
X208407047Y-122118380D01*
X208502285Y-122070761D01*
X208549904Y-122023142D01*
X208597523Y-121927904D01*
X208597523Y-121118380D01*
X209597523Y-122118380D02*
X209026095Y-122118380D01*
X209311809Y-122118380D02*
X209311809Y-121118380D01*
X209216571Y-121261238D01*
X209121333Y-121356476D01*
X209026095Y-121404095D01*
X219225904Y-120848380D02*
X219225904Y-119848380D01*
X219464000Y-119848380D01*
X219606857Y-119896000D01*
X219702095Y-119991238D01*
X219749714Y-120086476D01*
X219797333Y-120276952D01*
X219797333Y-120419809D01*
X219749714Y-120610285D01*
X219702095Y-120705523D01*
X219606857Y-120800761D01*
X219464000Y-120848380D01*
X219225904Y-120848380D01*
X220178285Y-119943619D02*
X220225904Y-119896000D01*
X220321142Y-119848380D01*
X220559238Y-119848380D01*
X220654476Y-119896000D01*
X220702095Y-119943619D01*
X220749714Y-120038857D01*
X220749714Y-120134095D01*
X220702095Y-120276952D01*
X220130666Y-120848380D01*
X220749714Y-120848380D01*
X218376666Y-126896761D02*
X218519523Y-126944380D01*
X218757619Y-126944380D01*
X218852857Y-126896761D01*
X218900476Y-126849142D01*
X218948095Y-126753904D01*
X218948095Y-126658666D01*
X218900476Y-126563428D01*
X218852857Y-126515809D01*
X218757619Y-126468190D01*
X218567142Y-126420571D01*
X218471904Y-126372952D01*
X218424285Y-126325333D01*
X218376666Y-126230095D01*
X218376666Y-126134857D01*
X218424285Y-126039619D01*
X218471904Y-125992000D01*
X218567142Y-125944380D01*
X218805238Y-125944380D01*
X218948095Y-125992000D01*
X219281428Y-125944380D02*
X219519523Y-126944380D01*
X219710000Y-126230095D01*
X219900476Y-126944380D01*
X220138571Y-125944380D01*
X221043333Y-126944380D02*
X220471904Y-126944380D01*
X220757619Y-126944380D02*
X220757619Y-125944380D01*
X220662380Y-126087238D01*
X220567142Y-126182476D01*
X220471904Y-126230095D01*
X250634666Y-126896761D02*
X250777523Y-126944380D01*
X251015619Y-126944380D01*
X251110857Y-126896761D01*
X251158476Y-126849142D01*
X251206095Y-126753904D01*
X251206095Y-126658666D01*
X251158476Y-126563428D01*
X251110857Y-126515809D01*
X251015619Y-126468190D01*
X250825142Y-126420571D01*
X250729904Y-126372952D01*
X250682285Y-126325333D01*
X250634666Y-126230095D01*
X250634666Y-126134857D01*
X250682285Y-126039619D01*
X250729904Y-125992000D01*
X250825142Y-125944380D01*
X251063238Y-125944380D01*
X251206095Y-125992000D01*
X251539428Y-125944380D02*
X251777523Y-126944380D01*
X251968000Y-126230095D01*
X252158476Y-126944380D01*
X252396571Y-125944380D01*
X253301333Y-126944380D02*
X252729904Y-126944380D01*
X253015619Y-126944380D02*
X253015619Y-125944380D01*
X252920380Y-126087238D01*
X252825142Y-126182476D01*
X252729904Y-126230095D01*
X229183142Y-127928666D02*
X229230761Y-127976285D01*
X229278380Y-128119142D01*
X229278380Y-128214380D01*
X229230761Y-128357238D01*
X229135523Y-128452476D01*
X229040285Y-128500095D01*
X228849809Y-128547714D01*
X228706952Y-128547714D01*
X228516476Y-128500095D01*
X228421238Y-128452476D01*
X228326000Y-128357238D01*
X228278380Y-128214380D01*
X228278380Y-128119142D01*
X228326000Y-127976285D01*
X228373619Y-127928666D01*
X228373619Y-127547714D02*
X228326000Y-127500095D01*
X228278380Y-127404857D01*
X228278380Y-127166761D01*
X228326000Y-127071523D01*
X228373619Y-127023904D01*
X228468857Y-126976285D01*
X228564095Y-126976285D01*
X228706952Y-127023904D01*
X229278380Y-127595333D01*
X229278380Y-126976285D01*
X204557333Y-129992380D02*
X204224000Y-129516190D01*
X203985904Y-129992380D02*
X203985904Y-128992380D01*
X204366857Y-128992380D01*
X204462095Y-129040000D01*
X204509714Y-129087619D01*
X204557333Y-129182857D01*
X204557333Y-129325714D01*
X204509714Y-129420952D01*
X204462095Y-129468571D01*
X204366857Y-129516190D01*
X203985904Y-129516190D01*
X205509714Y-129992380D02*
X204938285Y-129992380D01*
X205224000Y-129992380D02*
X205224000Y-128992380D01*
X205128761Y-129135238D01*
X205033523Y-129230476D01*
X204938285Y-129278095D01*
X204557333Y-128119142D02*
X204509714Y-128166761D01*
X204366857Y-128214380D01*
X204271619Y-128214380D01*
X204128761Y-128166761D01*
X204033523Y-128071523D01*
X203985904Y-127976285D01*
X203938285Y-127785809D01*
X203938285Y-127642952D01*
X203985904Y-127452476D01*
X204033523Y-127357238D01*
X204128761Y-127262000D01*
X204271619Y-127214380D01*
X204366857Y-127214380D01*
X204509714Y-127262000D01*
X204557333Y-127309619D01*
X205509714Y-128214380D02*
X204938285Y-128214380D01*
X205224000Y-128214380D02*
X205224000Y-127214380D01*
X205128761Y-127357238D01*
X205033523Y-127452476D01*
X204938285Y-127500095D01*
X236815333Y-128119142D02*
X236767714Y-128166761D01*
X236624857Y-128214380D01*
X236529619Y-128214380D01*
X236386761Y-128166761D01*
X236291523Y-128071523D01*
X236243904Y-127976285D01*
X236196285Y-127785809D01*
X236196285Y-127642952D01*
X236243904Y-127452476D01*
X236291523Y-127357238D01*
X236386761Y-127262000D01*
X236529619Y-127214380D01*
X236624857Y-127214380D01*
X236767714Y-127262000D01*
X236815333Y-127309619D01*
X237767714Y-128214380D02*
X237196285Y-128214380D01*
X237482000Y-128214380D02*
X237482000Y-127214380D01*
X237386761Y-127357238D01*
X237291523Y-127452476D01*
X237196285Y-127500095D01*
X236815333Y-129992380D02*
X236482000Y-129516190D01*
X236243904Y-129992380D02*
X236243904Y-128992380D01*
X236624857Y-128992380D01*
X236720095Y-129040000D01*
X236767714Y-129087619D01*
X236815333Y-129182857D01*
X236815333Y-129325714D01*
X236767714Y-129420952D01*
X236720095Y-129468571D01*
X236624857Y-129516190D01*
X236243904Y-129516190D01*
X237767714Y-129992380D02*
X237196285Y-129992380D01*
X237482000Y-129992380D02*
X237482000Y-128992380D01*
X237386761Y-129135238D01*
X237291523Y-129230476D01*
X237196285Y-129278095D01*
X255516333Y-132714380D02*
X255183000Y-132238190D01*
X254944904Y-132714380D02*
X254944904Y-131714380D01*
X255325857Y-131714380D01*
X255421095Y-131762000D01*
X255468714Y-131809619D01*
X255516333Y-131904857D01*
X255516333Y-132047714D01*
X255468714Y-132142952D01*
X255421095Y-132190571D01*
X255325857Y-132238190D01*
X254944904Y-132238190D01*
X255897285Y-131809619D02*
X255944904Y-131762000D01*
X256040142Y-131714380D01*
X256278238Y-131714380D01*
X256373476Y-131762000D01*
X256421095Y-131809619D01*
X256468714Y-131904857D01*
X256468714Y-132000095D01*
X256421095Y-132142952D01*
X255849666Y-132714380D01*
X256468714Y-132714380D01*
X251483904Y-120848380D02*
X251483904Y-119848380D01*
X251722000Y-119848380D01*
X251864857Y-119896000D01*
X251960095Y-119991238D01*
X252007714Y-120086476D01*
X252055333Y-120276952D01*
X252055333Y-120419809D01*
X252007714Y-120610285D01*
X251960095Y-120705523D01*
X251864857Y-120800761D01*
X251722000Y-120848380D01*
X251483904Y-120848380D01*
X252436285Y-119943619D02*
X252483904Y-119896000D01*
X252579142Y-119848380D01*
X252817238Y-119848380D01*
X252912476Y-119896000D01*
X252960095Y-119943619D01*
X253007714Y-120038857D01*
X253007714Y-120134095D01*
X252960095Y-120276952D01*
X252388666Y-120848380D01*
X253007714Y-120848380D01*
X223258333Y-132714380D02*
X222925000Y-132238190D01*
X222686904Y-132714380D02*
X222686904Y-131714380D01*
X223067857Y-131714380D01*
X223163095Y-131762000D01*
X223210714Y-131809619D01*
X223258333Y-131904857D01*
X223258333Y-132047714D01*
X223210714Y-132142952D01*
X223163095Y-132190571D01*
X223067857Y-132238190D01*
X222686904Y-132238190D01*
X223639285Y-131809619D02*
X223686904Y-131762000D01*
X223782142Y-131714380D01*
X224020238Y-131714380D01*
X224115476Y-131762000D01*
X224163095Y-131809619D01*
X224210714Y-131904857D01*
X224210714Y-132000095D01*
X224163095Y-132142952D01*
X223591666Y-132714380D01*
X224210714Y-132714380D01*
X246783380Y-121864666D02*
X246307190Y-122198000D01*
X246783380Y-122436095D02*
X245783380Y-122436095D01*
X245783380Y-122055142D01*
X245831000Y-121959904D01*
X245878619Y-121912285D01*
X245973857Y-121864666D01*
X246116714Y-121864666D01*
X246211952Y-121912285D01*
X246259571Y-121959904D01*
X246307190Y-122055142D01*
X246307190Y-122436095D01*
X245783380Y-121531333D02*
X245783380Y-120912285D01*
X246164333Y-121245619D01*
X246164333Y-121102761D01*
X246211952Y-121007523D01*
X246259571Y-120959904D01*
X246354809Y-120912285D01*
X246592904Y-120912285D01*
X246688142Y-120959904D01*
X246735761Y-121007523D01*
X246783380Y-121102761D01*
X246783380Y-121388476D01*
X246735761Y-121483714D01*
X246688142Y-121531333D01*
X258284380Y-122404095D02*
X257284380Y-122404095D01*
X257284380Y-122166000D01*
X257332000Y-122023142D01*
X257427238Y-121927904D01*
X257522476Y-121880285D01*
X257712952Y-121832666D01*
X257855809Y-121832666D01*
X258046285Y-121880285D01*
X258141523Y-121927904D01*
X258236761Y-122023142D01*
X258284380Y-122166000D01*
X258284380Y-122404095D01*
X258284380Y-120880285D02*
X258284380Y-121451714D01*
X258284380Y-121166000D02*
X257284380Y-121166000D01*
X257427238Y-121261238D01*
X257522476Y-121356476D01*
X257570095Y-121451714D01*
X261441142Y-127928666D02*
X261488761Y-127976285D01*
X261536380Y-128119142D01*
X261536380Y-128214380D01*
X261488761Y-128357238D01*
X261393523Y-128452476D01*
X261298285Y-128500095D01*
X261107809Y-128547714D01*
X260964952Y-128547714D01*
X260774476Y-128500095D01*
X260679238Y-128452476D01*
X260584000Y-128357238D01*
X260536380Y-128214380D01*
X260536380Y-128119142D01*
X260584000Y-127976285D01*
X260631619Y-127928666D01*
X260631619Y-127547714D02*
X260584000Y-127500095D01*
X260536380Y-127404857D01*
X260536380Y-127166761D01*
X260584000Y-127071523D01*
X260631619Y-127023904D01*
X260726857Y-126976285D01*
X260822095Y-126976285D01*
X260964952Y-127023904D01*
X261536380Y-127595333D01*
X261536380Y-126976285D01*
X240284095Y-121118380D02*
X240284095Y-121927904D01*
X240331714Y-122023142D01*
X240379333Y-122070761D01*
X240474571Y-122118380D01*
X240665047Y-122118380D01*
X240760285Y-122070761D01*
X240807904Y-122023142D01*
X240855523Y-121927904D01*
X240855523Y-121118380D01*
X241855523Y-122118380D02*
X241284095Y-122118380D01*
X241569809Y-122118380D02*
X241569809Y-121118380D01*
X241474571Y-121261238D01*
X241379333Y-121356476D01*
X241284095Y-121404095D01*
X226026380Y-122404095D02*
X225026380Y-122404095D01*
X225026380Y-122166000D01*
X225074000Y-122023142D01*
X225169238Y-121927904D01*
X225264476Y-121880285D01*
X225454952Y-121832666D01*
X225597809Y-121832666D01*
X225788285Y-121880285D01*
X225883523Y-121927904D01*
X225978761Y-122023142D01*
X226026380Y-122166000D01*
X226026380Y-122404095D01*
X226026380Y-120880285D02*
X226026380Y-121451714D01*
X226026380Y-121166000D02*
X225026380Y-121166000D01*
X225169238Y-121261238D01*
X225264476Y-121356476D01*
X225312095Y-121451714D01*
X214525380Y-121864666D02*
X214049190Y-122198000D01*
X214525380Y-122436095D02*
X213525380Y-122436095D01*
X213525380Y-122055142D01*
X213573000Y-121959904D01*
X213620619Y-121912285D01*
X213715857Y-121864666D01*
X213858714Y-121864666D01*
X213953952Y-121912285D01*
X214001571Y-121959904D01*
X214049190Y-122055142D01*
X214049190Y-122436095D01*
X213525380Y-121531333D02*
X213525380Y-120912285D01*
X213906333Y-121245619D01*
X213906333Y-121102761D01*
X213953952Y-121007523D01*
X214001571Y-120959904D01*
X214096809Y-120912285D01*
X214334904Y-120912285D01*
X214430142Y-120959904D01*
X214477761Y-121007523D01*
X214525380Y-121102761D01*
X214525380Y-121388476D01*
X214477761Y-121483714D01*
X214430142Y-121531333D01*
X214525380Y-103322666D02*
X214049190Y-103656000D01*
X214525380Y-103894095D02*
X213525380Y-103894095D01*
X213525380Y-103513142D01*
X213573000Y-103417904D01*
X213620619Y-103370285D01*
X213715857Y-103322666D01*
X213858714Y-103322666D01*
X213953952Y-103370285D01*
X214001571Y-103417904D01*
X214049190Y-103513142D01*
X214049190Y-103894095D01*
X213525380Y-102989333D02*
X213525380Y-102370285D01*
X213906333Y-102703619D01*
X213906333Y-102560761D01*
X213953952Y-102465523D01*
X214001571Y-102417904D01*
X214096809Y-102370285D01*
X214334904Y-102370285D01*
X214430142Y-102417904D01*
X214477761Y-102465523D01*
X214525380Y-102560761D01*
X214525380Y-102846476D01*
X214477761Y-102941714D01*
X214430142Y-102989333D01*
X258284380Y-103862095D02*
X257284380Y-103862095D01*
X257284380Y-103624000D01*
X257332000Y-103481142D01*
X257427238Y-103385904D01*
X257522476Y-103338285D01*
X257712952Y-103290666D01*
X257855809Y-103290666D01*
X258046285Y-103338285D01*
X258141523Y-103385904D01*
X258236761Y-103481142D01*
X258284380Y-103624000D01*
X258284380Y-103862095D01*
X258284380Y-102338285D02*
X258284380Y-102909714D01*
X258284380Y-102624000D02*
X257284380Y-102624000D01*
X257427238Y-102719238D01*
X257522476Y-102814476D01*
X257570095Y-102909714D01*
X236815333Y-111450380D02*
X236482000Y-110974190D01*
X236243904Y-111450380D02*
X236243904Y-110450380D01*
X236624857Y-110450380D01*
X236720095Y-110498000D01*
X236767714Y-110545619D01*
X236815333Y-110640857D01*
X236815333Y-110783714D01*
X236767714Y-110878952D01*
X236720095Y-110926571D01*
X236624857Y-110974190D01*
X236243904Y-110974190D01*
X237767714Y-111450380D02*
X237196285Y-111450380D01*
X237482000Y-111450380D02*
X237482000Y-110450380D01*
X237386761Y-110593238D01*
X237291523Y-110688476D01*
X237196285Y-110736095D01*
X208026095Y-84034380D02*
X208026095Y-84843904D01*
X208073714Y-84939142D01*
X208121333Y-84986761D01*
X208216571Y-85034380D01*
X208407047Y-85034380D01*
X208502285Y-84986761D01*
X208549904Y-84939142D01*
X208597523Y-84843904D01*
X208597523Y-84034380D01*
X209597523Y-85034380D02*
X209026095Y-85034380D01*
X209311809Y-85034380D02*
X209311809Y-84034380D01*
X209216571Y-84177238D01*
X209121333Y-84272476D01*
X209026095Y-84320095D01*
X204557333Y-109577142D02*
X204509714Y-109624761D01*
X204366857Y-109672380D01*
X204271619Y-109672380D01*
X204128761Y-109624761D01*
X204033523Y-109529523D01*
X203985904Y-109434285D01*
X203938285Y-109243809D01*
X203938285Y-109100952D01*
X203985904Y-108910476D01*
X204033523Y-108815238D01*
X204128761Y-108720000D01*
X204271619Y-108672380D01*
X204366857Y-108672380D01*
X204509714Y-108720000D01*
X204557333Y-108767619D01*
X205509714Y-109672380D02*
X204938285Y-109672380D01*
X205224000Y-109672380D02*
X205224000Y-108672380D01*
X205128761Y-108815238D01*
X205033523Y-108910476D01*
X204938285Y-108958095D01*
X219225904Y-83764380D02*
X219225904Y-82764380D01*
X219464000Y-82764380D01*
X219606857Y-82812000D01*
X219702095Y-82907238D01*
X219749714Y-83002476D01*
X219797333Y-83192952D01*
X219797333Y-83335809D01*
X219749714Y-83526285D01*
X219702095Y-83621523D01*
X219606857Y-83716761D01*
X219464000Y-83764380D01*
X219225904Y-83764380D01*
X220178285Y-82859619D02*
X220225904Y-82812000D01*
X220321142Y-82764380D01*
X220559238Y-82764380D01*
X220654476Y-82812000D01*
X220702095Y-82859619D01*
X220749714Y-82954857D01*
X220749714Y-83050095D01*
X220702095Y-83192952D01*
X220130666Y-83764380D01*
X220749714Y-83764380D01*
X218376666Y-89812761D02*
X218519523Y-89860380D01*
X218757619Y-89860380D01*
X218852857Y-89812761D01*
X218900476Y-89765142D01*
X218948095Y-89669904D01*
X218948095Y-89574666D01*
X218900476Y-89479428D01*
X218852857Y-89431809D01*
X218757619Y-89384190D01*
X218567142Y-89336571D01*
X218471904Y-89288952D01*
X218424285Y-89241333D01*
X218376666Y-89146095D01*
X218376666Y-89050857D01*
X218424285Y-88955619D01*
X218471904Y-88908000D01*
X218567142Y-88860380D01*
X218805238Y-88860380D01*
X218948095Y-88908000D01*
X219281428Y-88860380D02*
X219519523Y-89860380D01*
X219710000Y-89146095D01*
X219900476Y-89860380D01*
X220138571Y-88860380D01*
X221043333Y-89860380D02*
X220471904Y-89860380D01*
X220757619Y-89860380D02*
X220757619Y-88860380D01*
X220662380Y-89003238D01*
X220567142Y-89098476D01*
X220471904Y-89146095D01*
X250634666Y-89812761D02*
X250777523Y-89860380D01*
X251015619Y-89860380D01*
X251110857Y-89812761D01*
X251158476Y-89765142D01*
X251206095Y-89669904D01*
X251206095Y-89574666D01*
X251158476Y-89479428D01*
X251110857Y-89431809D01*
X251015619Y-89384190D01*
X250825142Y-89336571D01*
X250729904Y-89288952D01*
X250682285Y-89241333D01*
X250634666Y-89146095D01*
X250634666Y-89050857D01*
X250682285Y-88955619D01*
X250729904Y-88908000D01*
X250825142Y-88860380D01*
X251063238Y-88860380D01*
X251206095Y-88908000D01*
X251539428Y-88860380D02*
X251777523Y-89860380D01*
X251968000Y-89146095D01*
X252158476Y-89860380D01*
X252396571Y-88860380D01*
X253301333Y-89860380D02*
X252729904Y-89860380D01*
X253015619Y-89860380D02*
X253015619Y-88860380D01*
X252920380Y-89003238D01*
X252825142Y-89098476D01*
X252729904Y-89146095D01*
X255516333Y-114172380D02*
X255183000Y-113696190D01*
X254944904Y-114172380D02*
X254944904Y-113172380D01*
X255325857Y-113172380D01*
X255421095Y-113220000D01*
X255468714Y-113267619D01*
X255516333Y-113362857D01*
X255516333Y-113505714D01*
X255468714Y-113600952D01*
X255421095Y-113648571D01*
X255325857Y-113696190D01*
X254944904Y-113696190D01*
X255897285Y-113267619D02*
X255944904Y-113220000D01*
X256040142Y-113172380D01*
X256278238Y-113172380D01*
X256373476Y-113220000D01*
X256421095Y-113267619D01*
X256468714Y-113362857D01*
X256468714Y-113458095D01*
X256421095Y-113600952D01*
X255849666Y-114172380D01*
X256468714Y-114172380D01*
X229183142Y-90844666D02*
X229230761Y-90892285D01*
X229278380Y-91035142D01*
X229278380Y-91130380D01*
X229230761Y-91273238D01*
X229135523Y-91368476D01*
X229040285Y-91416095D01*
X228849809Y-91463714D01*
X228706952Y-91463714D01*
X228516476Y-91416095D01*
X228421238Y-91368476D01*
X228326000Y-91273238D01*
X228278380Y-91130380D01*
X228278380Y-91035142D01*
X228326000Y-90892285D01*
X228373619Y-90844666D01*
X228373619Y-90463714D02*
X228326000Y-90416095D01*
X228278380Y-90320857D01*
X228278380Y-90082761D01*
X228326000Y-89987523D01*
X228373619Y-89939904D01*
X228468857Y-89892285D01*
X228564095Y-89892285D01*
X228706952Y-89939904D01*
X229278380Y-90511333D01*
X229278380Y-89892285D01*
X204557333Y-92908380D02*
X204224000Y-92432190D01*
X203985904Y-92908380D02*
X203985904Y-91908380D01*
X204366857Y-91908380D01*
X204462095Y-91956000D01*
X204509714Y-92003619D01*
X204557333Y-92098857D01*
X204557333Y-92241714D01*
X204509714Y-92336952D01*
X204462095Y-92384571D01*
X204366857Y-92432190D01*
X203985904Y-92432190D01*
X205509714Y-92908380D02*
X204938285Y-92908380D01*
X205224000Y-92908380D02*
X205224000Y-91908380D01*
X205128761Y-92051238D01*
X205033523Y-92146476D01*
X204938285Y-92194095D01*
X208026095Y-102576380D02*
X208026095Y-103385904D01*
X208073714Y-103481142D01*
X208121333Y-103528761D01*
X208216571Y-103576380D01*
X208407047Y-103576380D01*
X208502285Y-103528761D01*
X208549904Y-103481142D01*
X208597523Y-103385904D01*
X208597523Y-102576380D01*
X209597523Y-103576380D02*
X209026095Y-103576380D01*
X209311809Y-103576380D02*
X209311809Y-102576380D01*
X209216571Y-102719238D01*
X209121333Y-102814476D01*
X209026095Y-102862095D01*
X226026380Y-103862095D02*
X225026380Y-103862095D01*
X225026380Y-103624000D01*
X225074000Y-103481142D01*
X225169238Y-103385904D01*
X225264476Y-103338285D01*
X225454952Y-103290666D01*
X225597809Y-103290666D01*
X225788285Y-103338285D01*
X225883523Y-103385904D01*
X225978761Y-103481142D01*
X226026380Y-103624000D01*
X226026380Y-103862095D01*
X226026380Y-102338285D02*
X226026380Y-102909714D01*
X226026380Y-102624000D02*
X225026380Y-102624000D01*
X225169238Y-102719238D01*
X225264476Y-102814476D01*
X225312095Y-102909714D01*
X246783380Y-103322666D02*
X246307190Y-103656000D01*
X246783380Y-103894095D02*
X245783380Y-103894095D01*
X245783380Y-103513142D01*
X245831000Y-103417904D01*
X245878619Y-103370285D01*
X245973857Y-103322666D01*
X246116714Y-103322666D01*
X246211952Y-103370285D01*
X246259571Y-103417904D01*
X246307190Y-103513142D01*
X246307190Y-103894095D01*
X245783380Y-102989333D02*
X245783380Y-102370285D01*
X246164333Y-102703619D01*
X246164333Y-102560761D01*
X246211952Y-102465523D01*
X246259571Y-102417904D01*
X246354809Y-102370285D01*
X246592904Y-102370285D01*
X246688142Y-102417904D01*
X246735761Y-102465523D01*
X246783380Y-102560761D01*
X246783380Y-102846476D01*
X246735761Y-102941714D01*
X246688142Y-102989333D01*
X204557333Y-91035142D02*
X204509714Y-91082761D01*
X204366857Y-91130380D01*
X204271619Y-91130380D01*
X204128761Y-91082761D01*
X204033523Y-90987523D01*
X203985904Y-90892285D01*
X203938285Y-90701809D01*
X203938285Y-90558952D01*
X203985904Y-90368476D01*
X204033523Y-90273238D01*
X204128761Y-90178000D01*
X204271619Y-90130380D01*
X204366857Y-90130380D01*
X204509714Y-90178000D01*
X204557333Y-90225619D01*
X205509714Y-91130380D02*
X204938285Y-91130380D01*
X205224000Y-91130380D02*
X205224000Y-90130380D01*
X205128761Y-90273238D01*
X205033523Y-90368476D01*
X204938285Y-90416095D01*
X236815333Y-91035142D02*
X236767714Y-91082761D01*
X236624857Y-91130380D01*
X236529619Y-91130380D01*
X236386761Y-91082761D01*
X236291523Y-90987523D01*
X236243904Y-90892285D01*
X236196285Y-90701809D01*
X236196285Y-90558952D01*
X236243904Y-90368476D01*
X236291523Y-90273238D01*
X236386761Y-90178000D01*
X236529619Y-90130380D01*
X236624857Y-90130380D01*
X236767714Y-90178000D01*
X236815333Y-90225619D01*
X237767714Y-91130380D02*
X237196285Y-91130380D01*
X237482000Y-91130380D02*
X237482000Y-90130380D01*
X237386761Y-90273238D01*
X237291523Y-90368476D01*
X237196285Y-90416095D01*
X236815333Y-92908380D02*
X236482000Y-92432190D01*
X236243904Y-92908380D02*
X236243904Y-91908380D01*
X236624857Y-91908380D01*
X236720095Y-91956000D01*
X236767714Y-92003619D01*
X236815333Y-92098857D01*
X236815333Y-92241714D01*
X236767714Y-92336952D01*
X236720095Y-92384571D01*
X236624857Y-92432190D01*
X236243904Y-92432190D01*
X237767714Y-92908380D02*
X237196285Y-92908380D01*
X237482000Y-92908380D02*
X237482000Y-91908380D01*
X237386761Y-92051238D01*
X237291523Y-92146476D01*
X237196285Y-92194095D01*
X236815333Y-109577142D02*
X236767714Y-109624761D01*
X236624857Y-109672380D01*
X236529619Y-109672380D01*
X236386761Y-109624761D01*
X236291523Y-109529523D01*
X236243904Y-109434285D01*
X236196285Y-109243809D01*
X236196285Y-109100952D01*
X236243904Y-108910476D01*
X236291523Y-108815238D01*
X236386761Y-108720000D01*
X236529619Y-108672380D01*
X236624857Y-108672380D01*
X236767714Y-108720000D01*
X236815333Y-108767619D01*
X237767714Y-109672380D02*
X237196285Y-109672380D01*
X237482000Y-109672380D02*
X237482000Y-108672380D01*
X237386761Y-108815238D01*
X237291523Y-108910476D01*
X237196285Y-108958095D01*
X255516333Y-95630380D02*
X255183000Y-95154190D01*
X254944904Y-95630380D02*
X254944904Y-94630380D01*
X255325857Y-94630380D01*
X255421095Y-94678000D01*
X255468714Y-94725619D01*
X255516333Y-94820857D01*
X255516333Y-94963714D01*
X255468714Y-95058952D01*
X255421095Y-95106571D01*
X255325857Y-95154190D01*
X254944904Y-95154190D01*
X255897285Y-94725619D02*
X255944904Y-94678000D01*
X256040142Y-94630380D01*
X256278238Y-94630380D01*
X256373476Y-94678000D01*
X256421095Y-94725619D01*
X256468714Y-94820857D01*
X256468714Y-94916095D01*
X256421095Y-95058952D01*
X255849666Y-95630380D01*
X256468714Y-95630380D01*
X250634666Y-108354761D02*
X250777523Y-108402380D01*
X251015619Y-108402380D01*
X251110857Y-108354761D01*
X251158476Y-108307142D01*
X251206095Y-108211904D01*
X251206095Y-108116666D01*
X251158476Y-108021428D01*
X251110857Y-107973809D01*
X251015619Y-107926190D01*
X250825142Y-107878571D01*
X250729904Y-107830952D01*
X250682285Y-107783333D01*
X250634666Y-107688095D01*
X250634666Y-107592857D01*
X250682285Y-107497619D01*
X250729904Y-107450000D01*
X250825142Y-107402380D01*
X251063238Y-107402380D01*
X251206095Y-107450000D01*
X251539428Y-107402380D02*
X251777523Y-108402380D01*
X251968000Y-107688095D01*
X252158476Y-108402380D01*
X252396571Y-107402380D01*
X253301333Y-108402380D02*
X252729904Y-108402380D01*
X253015619Y-108402380D02*
X253015619Y-107402380D01*
X252920380Y-107545238D01*
X252825142Y-107640476D01*
X252729904Y-107688095D01*
X251483904Y-83764380D02*
X251483904Y-82764380D01*
X251722000Y-82764380D01*
X251864857Y-82812000D01*
X251960095Y-82907238D01*
X252007714Y-83002476D01*
X252055333Y-83192952D01*
X252055333Y-83335809D01*
X252007714Y-83526285D01*
X251960095Y-83621523D01*
X251864857Y-83716761D01*
X251722000Y-83764380D01*
X251483904Y-83764380D01*
X252436285Y-82859619D02*
X252483904Y-82812000D01*
X252579142Y-82764380D01*
X252817238Y-82764380D01*
X252912476Y-82812000D01*
X252960095Y-82859619D01*
X253007714Y-82954857D01*
X253007714Y-83050095D01*
X252960095Y-83192952D01*
X252388666Y-83764380D01*
X253007714Y-83764380D01*
X261441142Y-109386666D02*
X261488761Y-109434285D01*
X261536380Y-109577142D01*
X261536380Y-109672380D01*
X261488761Y-109815238D01*
X261393523Y-109910476D01*
X261298285Y-109958095D01*
X261107809Y-110005714D01*
X260964952Y-110005714D01*
X260774476Y-109958095D01*
X260679238Y-109910476D01*
X260584000Y-109815238D01*
X260536380Y-109672380D01*
X260536380Y-109577142D01*
X260584000Y-109434285D01*
X260631619Y-109386666D01*
X260631619Y-109005714D02*
X260584000Y-108958095D01*
X260536380Y-108862857D01*
X260536380Y-108624761D01*
X260584000Y-108529523D01*
X260631619Y-108481904D01*
X260726857Y-108434285D01*
X260822095Y-108434285D01*
X260964952Y-108481904D01*
X261536380Y-109053333D01*
X261536380Y-108434285D01*
X223258333Y-95630380D02*
X222925000Y-95154190D01*
X222686904Y-95630380D02*
X222686904Y-94630380D01*
X223067857Y-94630380D01*
X223163095Y-94678000D01*
X223210714Y-94725619D01*
X223258333Y-94820857D01*
X223258333Y-94963714D01*
X223210714Y-95058952D01*
X223163095Y-95106571D01*
X223067857Y-95154190D01*
X222686904Y-95154190D01*
X223639285Y-94725619D02*
X223686904Y-94678000D01*
X223782142Y-94630380D01*
X224020238Y-94630380D01*
X224115476Y-94678000D01*
X224163095Y-94725619D01*
X224210714Y-94820857D01*
X224210714Y-94916095D01*
X224163095Y-95058952D01*
X223591666Y-95630380D01*
X224210714Y-95630380D01*
X218376666Y-108354761D02*
X218519523Y-108402380D01*
X218757619Y-108402380D01*
X218852857Y-108354761D01*
X218900476Y-108307142D01*
X218948095Y-108211904D01*
X218948095Y-108116666D01*
X218900476Y-108021428D01*
X218852857Y-107973809D01*
X218757619Y-107926190D01*
X218567142Y-107878571D01*
X218471904Y-107830952D01*
X218424285Y-107783333D01*
X218376666Y-107688095D01*
X218376666Y-107592857D01*
X218424285Y-107497619D01*
X218471904Y-107450000D01*
X218567142Y-107402380D01*
X218805238Y-107402380D01*
X218948095Y-107450000D01*
X219281428Y-107402380D02*
X219519523Y-108402380D01*
X219710000Y-107688095D01*
X219900476Y-108402380D01*
X220138571Y-107402380D01*
X221043333Y-108402380D02*
X220471904Y-108402380D01*
X220757619Y-108402380D02*
X220757619Y-107402380D01*
X220662380Y-107545238D01*
X220567142Y-107640476D01*
X220471904Y-107688095D01*
X246783380Y-84780666D02*
X246307190Y-85114000D01*
X246783380Y-85352095D02*
X245783380Y-85352095D01*
X245783380Y-84971142D01*
X245831000Y-84875904D01*
X245878619Y-84828285D01*
X245973857Y-84780666D01*
X246116714Y-84780666D01*
X246211952Y-84828285D01*
X246259571Y-84875904D01*
X246307190Y-84971142D01*
X246307190Y-85352095D01*
X245783380Y-84447333D02*
X245783380Y-83828285D01*
X246164333Y-84161619D01*
X246164333Y-84018761D01*
X246211952Y-83923523D01*
X246259571Y-83875904D01*
X246354809Y-83828285D01*
X246592904Y-83828285D01*
X246688142Y-83875904D01*
X246735761Y-83923523D01*
X246783380Y-84018761D01*
X246783380Y-84304476D01*
X246735761Y-84399714D01*
X246688142Y-84447333D01*
X258284380Y-85320095D02*
X257284380Y-85320095D01*
X257284380Y-85082000D01*
X257332000Y-84939142D01*
X257427238Y-84843904D01*
X257522476Y-84796285D01*
X257712952Y-84748666D01*
X257855809Y-84748666D01*
X258046285Y-84796285D01*
X258141523Y-84843904D01*
X258236761Y-84939142D01*
X258284380Y-85082000D01*
X258284380Y-85320095D01*
X258284380Y-83796285D02*
X258284380Y-84367714D01*
X258284380Y-84082000D02*
X257284380Y-84082000D01*
X257427238Y-84177238D01*
X257522476Y-84272476D01*
X257570095Y-84367714D01*
X261441142Y-90844666D02*
X261488761Y-90892285D01*
X261536380Y-91035142D01*
X261536380Y-91130380D01*
X261488761Y-91273238D01*
X261393523Y-91368476D01*
X261298285Y-91416095D01*
X261107809Y-91463714D01*
X260964952Y-91463714D01*
X260774476Y-91416095D01*
X260679238Y-91368476D01*
X260584000Y-91273238D01*
X260536380Y-91130380D01*
X260536380Y-91035142D01*
X260584000Y-90892285D01*
X260631619Y-90844666D01*
X260631619Y-90463714D02*
X260584000Y-90416095D01*
X260536380Y-90320857D01*
X260536380Y-90082761D01*
X260584000Y-89987523D01*
X260631619Y-89939904D01*
X260726857Y-89892285D01*
X260822095Y-89892285D01*
X260964952Y-89939904D01*
X261536380Y-90511333D01*
X261536380Y-89892285D01*
X240284095Y-84034380D02*
X240284095Y-84843904D01*
X240331714Y-84939142D01*
X240379333Y-84986761D01*
X240474571Y-85034380D01*
X240665047Y-85034380D01*
X240760285Y-84986761D01*
X240807904Y-84939142D01*
X240855523Y-84843904D01*
X240855523Y-84034380D01*
X241855523Y-85034380D02*
X241284095Y-85034380D01*
X241569809Y-85034380D02*
X241569809Y-84034380D01*
X241474571Y-84177238D01*
X241379333Y-84272476D01*
X241284095Y-84320095D01*
X226026380Y-85320095D02*
X225026380Y-85320095D01*
X225026380Y-85082000D01*
X225074000Y-84939142D01*
X225169238Y-84843904D01*
X225264476Y-84796285D01*
X225454952Y-84748666D01*
X225597809Y-84748666D01*
X225788285Y-84796285D01*
X225883523Y-84843904D01*
X225978761Y-84939142D01*
X226026380Y-85082000D01*
X226026380Y-85320095D01*
X226026380Y-83796285D02*
X226026380Y-84367714D01*
X226026380Y-84082000D02*
X225026380Y-84082000D01*
X225169238Y-84177238D01*
X225264476Y-84272476D01*
X225312095Y-84367714D01*
X251483904Y-102306380D02*
X251483904Y-101306380D01*
X251722000Y-101306380D01*
X251864857Y-101354000D01*
X251960095Y-101449238D01*
X252007714Y-101544476D01*
X252055333Y-101734952D01*
X252055333Y-101877809D01*
X252007714Y-102068285D01*
X251960095Y-102163523D01*
X251864857Y-102258761D01*
X251722000Y-102306380D01*
X251483904Y-102306380D01*
X252436285Y-101401619D02*
X252483904Y-101354000D01*
X252579142Y-101306380D01*
X252817238Y-101306380D01*
X252912476Y-101354000D01*
X252960095Y-101401619D01*
X253007714Y-101496857D01*
X253007714Y-101592095D01*
X252960095Y-101734952D01*
X252388666Y-102306380D01*
X253007714Y-102306380D01*
X219225904Y-102306380D02*
X219225904Y-101306380D01*
X219464000Y-101306380D01*
X219606857Y-101354000D01*
X219702095Y-101449238D01*
X219749714Y-101544476D01*
X219797333Y-101734952D01*
X219797333Y-101877809D01*
X219749714Y-102068285D01*
X219702095Y-102163523D01*
X219606857Y-102258761D01*
X219464000Y-102306380D01*
X219225904Y-102306380D01*
X220178285Y-101401619D02*
X220225904Y-101354000D01*
X220321142Y-101306380D01*
X220559238Y-101306380D01*
X220654476Y-101354000D01*
X220702095Y-101401619D01*
X220749714Y-101496857D01*
X220749714Y-101592095D01*
X220702095Y-101734952D01*
X220130666Y-102306380D01*
X220749714Y-102306380D01*
X204557333Y-111450380D02*
X204224000Y-110974190D01*
X203985904Y-111450380D02*
X203985904Y-110450380D01*
X204366857Y-110450380D01*
X204462095Y-110498000D01*
X204509714Y-110545619D01*
X204557333Y-110640857D01*
X204557333Y-110783714D01*
X204509714Y-110878952D01*
X204462095Y-110926571D01*
X204366857Y-110974190D01*
X203985904Y-110974190D01*
X205509714Y-111450380D02*
X204938285Y-111450380D01*
X205224000Y-111450380D02*
X205224000Y-110450380D01*
X205128761Y-110593238D01*
X205033523Y-110688476D01*
X204938285Y-110736095D01*
X229183142Y-109386666D02*
X229230761Y-109434285D01*
X229278380Y-109577142D01*
X229278380Y-109672380D01*
X229230761Y-109815238D01*
X229135523Y-109910476D01*
X229040285Y-109958095D01*
X228849809Y-110005714D01*
X228706952Y-110005714D01*
X228516476Y-109958095D01*
X228421238Y-109910476D01*
X228326000Y-109815238D01*
X228278380Y-109672380D01*
X228278380Y-109577142D01*
X228326000Y-109434285D01*
X228373619Y-109386666D01*
X228373619Y-109005714D02*
X228326000Y-108958095D01*
X228278380Y-108862857D01*
X228278380Y-108624761D01*
X228326000Y-108529523D01*
X228373619Y-108481904D01*
X228468857Y-108434285D01*
X228564095Y-108434285D01*
X228706952Y-108481904D01*
X229278380Y-109053333D01*
X229278380Y-108434285D01*
X223258333Y-114172380D02*
X222925000Y-113696190D01*
X222686904Y-114172380D02*
X222686904Y-113172380D01*
X223067857Y-113172380D01*
X223163095Y-113220000D01*
X223210714Y-113267619D01*
X223258333Y-113362857D01*
X223258333Y-113505714D01*
X223210714Y-113600952D01*
X223163095Y-113648571D01*
X223067857Y-113696190D01*
X222686904Y-113696190D01*
X223639285Y-113267619D02*
X223686904Y-113220000D01*
X223782142Y-113172380D01*
X224020238Y-113172380D01*
X224115476Y-113220000D01*
X224163095Y-113267619D01*
X224210714Y-113362857D01*
X224210714Y-113458095D01*
X224163095Y-113600952D01*
X223591666Y-114172380D01*
X224210714Y-114172380D01*
X240284095Y-102576380D02*
X240284095Y-103385904D01*
X240331714Y-103481142D01*
X240379333Y-103528761D01*
X240474571Y-103576380D01*
X240665047Y-103576380D01*
X240760285Y-103528761D01*
X240807904Y-103481142D01*
X240855523Y-103385904D01*
X240855523Y-102576380D01*
X241855523Y-103576380D02*
X241284095Y-103576380D01*
X241569809Y-103576380D02*
X241569809Y-102576380D01*
X241474571Y-102719238D01*
X241379333Y-102814476D01*
X241284095Y-102862095D01*
X214525380Y-84780666D02*
X214049190Y-85114000D01*
X214525380Y-85352095D02*
X213525380Y-85352095D01*
X213525380Y-84971142D01*
X213573000Y-84875904D01*
X213620619Y-84828285D01*
X213715857Y-84780666D01*
X213858714Y-84780666D01*
X213953952Y-84828285D01*
X214001571Y-84875904D01*
X214049190Y-84971142D01*
X214049190Y-85352095D01*
X213525380Y-84447333D02*
X213525380Y-83828285D01*
X213906333Y-84161619D01*
X213906333Y-84018761D01*
X213953952Y-83923523D01*
X214001571Y-83875904D01*
X214096809Y-83828285D01*
X214334904Y-83828285D01*
X214430142Y-83875904D01*
X214477761Y-83923523D01*
X214525380Y-84018761D01*
X214525380Y-84304476D01*
X214477761Y-84399714D01*
X214430142Y-84447333D01*
X208026095Y-65492380D02*
X208026095Y-66301904D01*
X208073714Y-66397142D01*
X208121333Y-66444761D01*
X208216571Y-66492380D01*
X208407047Y-66492380D01*
X208502285Y-66444761D01*
X208549904Y-66397142D01*
X208597523Y-66301904D01*
X208597523Y-65492380D01*
X209597523Y-66492380D02*
X209026095Y-66492380D01*
X209311809Y-66492380D02*
X209311809Y-65492380D01*
X209216571Y-65635238D01*
X209121333Y-65730476D01*
X209026095Y-65778095D01*
X219225904Y-65222380D02*
X219225904Y-64222380D01*
X219464000Y-64222380D01*
X219606857Y-64270000D01*
X219702095Y-64365238D01*
X219749714Y-64460476D01*
X219797333Y-64650952D01*
X219797333Y-64793809D01*
X219749714Y-64984285D01*
X219702095Y-65079523D01*
X219606857Y-65174761D01*
X219464000Y-65222380D01*
X219225904Y-65222380D01*
X220178285Y-64317619D02*
X220225904Y-64270000D01*
X220321142Y-64222380D01*
X220559238Y-64222380D01*
X220654476Y-64270000D01*
X220702095Y-64317619D01*
X220749714Y-64412857D01*
X220749714Y-64508095D01*
X220702095Y-64650952D01*
X220130666Y-65222380D01*
X220749714Y-65222380D01*
X218376666Y-71270761D02*
X218519523Y-71318380D01*
X218757619Y-71318380D01*
X218852857Y-71270761D01*
X218900476Y-71223142D01*
X218948095Y-71127904D01*
X218948095Y-71032666D01*
X218900476Y-70937428D01*
X218852857Y-70889809D01*
X218757619Y-70842190D01*
X218567142Y-70794571D01*
X218471904Y-70746952D01*
X218424285Y-70699333D01*
X218376666Y-70604095D01*
X218376666Y-70508857D01*
X218424285Y-70413619D01*
X218471904Y-70366000D01*
X218567142Y-70318380D01*
X218805238Y-70318380D01*
X218948095Y-70366000D01*
X219281428Y-70318380D02*
X219519523Y-71318380D01*
X219710000Y-70604095D01*
X219900476Y-71318380D01*
X220138571Y-70318380D01*
X221043333Y-71318380D02*
X220471904Y-71318380D01*
X220757619Y-71318380D02*
X220757619Y-70318380D01*
X220662380Y-70461238D01*
X220567142Y-70556476D01*
X220471904Y-70604095D01*
X250634666Y-71270761D02*
X250777523Y-71318380D01*
X251015619Y-71318380D01*
X251110857Y-71270761D01*
X251158476Y-71223142D01*
X251206095Y-71127904D01*
X251206095Y-71032666D01*
X251158476Y-70937428D01*
X251110857Y-70889809D01*
X251015619Y-70842190D01*
X250825142Y-70794571D01*
X250729904Y-70746952D01*
X250682285Y-70699333D01*
X250634666Y-70604095D01*
X250634666Y-70508857D01*
X250682285Y-70413619D01*
X250729904Y-70366000D01*
X250825142Y-70318380D01*
X251063238Y-70318380D01*
X251206095Y-70366000D01*
X251539428Y-70318380D02*
X251777523Y-71318380D01*
X251968000Y-70604095D01*
X252158476Y-71318380D01*
X252396571Y-70318380D01*
X253301333Y-71318380D02*
X252729904Y-71318380D01*
X253015619Y-71318380D02*
X253015619Y-70318380D01*
X252920380Y-70461238D01*
X252825142Y-70556476D01*
X252729904Y-70604095D01*
X229183142Y-72302666D02*
X229230761Y-72350285D01*
X229278380Y-72493142D01*
X229278380Y-72588380D01*
X229230761Y-72731238D01*
X229135523Y-72826476D01*
X229040285Y-72874095D01*
X228849809Y-72921714D01*
X228706952Y-72921714D01*
X228516476Y-72874095D01*
X228421238Y-72826476D01*
X228326000Y-72731238D01*
X228278380Y-72588380D01*
X228278380Y-72493142D01*
X228326000Y-72350285D01*
X228373619Y-72302666D01*
X228373619Y-71921714D02*
X228326000Y-71874095D01*
X228278380Y-71778857D01*
X228278380Y-71540761D01*
X228326000Y-71445523D01*
X228373619Y-71397904D01*
X228468857Y-71350285D01*
X228564095Y-71350285D01*
X228706952Y-71397904D01*
X229278380Y-71969333D01*
X229278380Y-71350285D01*
X204557333Y-74366380D02*
X204224000Y-73890190D01*
X203985904Y-74366380D02*
X203985904Y-73366380D01*
X204366857Y-73366380D01*
X204462095Y-73414000D01*
X204509714Y-73461619D01*
X204557333Y-73556857D01*
X204557333Y-73699714D01*
X204509714Y-73794952D01*
X204462095Y-73842571D01*
X204366857Y-73890190D01*
X203985904Y-73890190D01*
X205509714Y-74366380D02*
X204938285Y-74366380D01*
X205224000Y-74366380D02*
X205224000Y-73366380D01*
X205128761Y-73509238D01*
X205033523Y-73604476D01*
X204938285Y-73652095D01*
X204557333Y-72493142D02*
X204509714Y-72540761D01*
X204366857Y-72588380D01*
X204271619Y-72588380D01*
X204128761Y-72540761D01*
X204033523Y-72445523D01*
X203985904Y-72350285D01*
X203938285Y-72159809D01*
X203938285Y-72016952D01*
X203985904Y-71826476D01*
X204033523Y-71731238D01*
X204128761Y-71636000D01*
X204271619Y-71588380D01*
X204366857Y-71588380D01*
X204509714Y-71636000D01*
X204557333Y-71683619D01*
X205509714Y-72588380D02*
X204938285Y-72588380D01*
X205224000Y-72588380D02*
X205224000Y-71588380D01*
X205128761Y-71731238D01*
X205033523Y-71826476D01*
X204938285Y-71874095D01*
X236815333Y-72493142D02*
X236767714Y-72540761D01*
X236624857Y-72588380D01*
X236529619Y-72588380D01*
X236386761Y-72540761D01*
X236291523Y-72445523D01*
X236243904Y-72350285D01*
X236196285Y-72159809D01*
X236196285Y-72016952D01*
X236243904Y-71826476D01*
X236291523Y-71731238D01*
X236386761Y-71636000D01*
X236529619Y-71588380D01*
X236624857Y-71588380D01*
X236767714Y-71636000D01*
X236815333Y-71683619D01*
X237767714Y-72588380D02*
X237196285Y-72588380D01*
X237482000Y-72588380D02*
X237482000Y-71588380D01*
X237386761Y-71731238D01*
X237291523Y-71826476D01*
X237196285Y-71874095D01*
X236815333Y-74366380D02*
X236482000Y-73890190D01*
X236243904Y-74366380D02*
X236243904Y-73366380D01*
X236624857Y-73366380D01*
X236720095Y-73414000D01*
X236767714Y-73461619D01*
X236815333Y-73556857D01*
X236815333Y-73699714D01*
X236767714Y-73794952D01*
X236720095Y-73842571D01*
X236624857Y-73890190D01*
X236243904Y-73890190D01*
X237767714Y-74366380D02*
X237196285Y-74366380D01*
X237482000Y-74366380D02*
X237482000Y-73366380D01*
X237386761Y-73509238D01*
X237291523Y-73604476D01*
X237196285Y-73652095D01*
X255516333Y-77088380D02*
X255183000Y-76612190D01*
X254944904Y-77088380D02*
X254944904Y-76088380D01*
X255325857Y-76088380D01*
X255421095Y-76136000D01*
X255468714Y-76183619D01*
X255516333Y-76278857D01*
X255516333Y-76421714D01*
X255468714Y-76516952D01*
X255421095Y-76564571D01*
X255325857Y-76612190D01*
X254944904Y-76612190D01*
X255897285Y-76183619D02*
X255944904Y-76136000D01*
X256040142Y-76088380D01*
X256278238Y-76088380D01*
X256373476Y-76136000D01*
X256421095Y-76183619D01*
X256468714Y-76278857D01*
X256468714Y-76374095D01*
X256421095Y-76516952D01*
X255849666Y-77088380D01*
X256468714Y-77088380D01*
X251483904Y-65222380D02*
X251483904Y-64222380D01*
X251722000Y-64222380D01*
X251864857Y-64270000D01*
X251960095Y-64365238D01*
X252007714Y-64460476D01*
X252055333Y-64650952D01*
X252055333Y-64793809D01*
X252007714Y-64984285D01*
X251960095Y-65079523D01*
X251864857Y-65174761D01*
X251722000Y-65222380D01*
X251483904Y-65222380D01*
X252436285Y-64317619D02*
X252483904Y-64270000D01*
X252579142Y-64222380D01*
X252817238Y-64222380D01*
X252912476Y-64270000D01*
X252960095Y-64317619D01*
X253007714Y-64412857D01*
X253007714Y-64508095D01*
X252960095Y-64650952D01*
X252388666Y-65222380D01*
X253007714Y-65222380D01*
X223258333Y-77088380D02*
X222925000Y-76612190D01*
X222686904Y-77088380D02*
X222686904Y-76088380D01*
X223067857Y-76088380D01*
X223163095Y-76136000D01*
X223210714Y-76183619D01*
X223258333Y-76278857D01*
X223258333Y-76421714D01*
X223210714Y-76516952D01*
X223163095Y-76564571D01*
X223067857Y-76612190D01*
X222686904Y-76612190D01*
X223639285Y-76183619D02*
X223686904Y-76136000D01*
X223782142Y-76088380D01*
X224020238Y-76088380D01*
X224115476Y-76136000D01*
X224163095Y-76183619D01*
X224210714Y-76278857D01*
X224210714Y-76374095D01*
X224163095Y-76516952D01*
X223591666Y-77088380D01*
X224210714Y-77088380D01*
X246783380Y-66238666D02*
X246307190Y-66572000D01*
X246783380Y-66810095D02*
X245783380Y-66810095D01*
X245783380Y-66429142D01*
X245831000Y-66333904D01*
X245878619Y-66286285D01*
X245973857Y-66238666D01*
X246116714Y-66238666D01*
X246211952Y-66286285D01*
X246259571Y-66333904D01*
X246307190Y-66429142D01*
X246307190Y-66810095D01*
X245783380Y-65905333D02*
X245783380Y-65286285D01*
X246164333Y-65619619D01*
X246164333Y-65476761D01*
X246211952Y-65381523D01*
X246259571Y-65333904D01*
X246354809Y-65286285D01*
X246592904Y-65286285D01*
X246688142Y-65333904D01*
X246735761Y-65381523D01*
X246783380Y-65476761D01*
X246783380Y-65762476D01*
X246735761Y-65857714D01*
X246688142Y-65905333D01*
X258284380Y-66778095D02*
X257284380Y-66778095D01*
X257284380Y-66540000D01*
X257332000Y-66397142D01*
X257427238Y-66301904D01*
X257522476Y-66254285D01*
X257712952Y-66206666D01*
X257855809Y-66206666D01*
X258046285Y-66254285D01*
X258141523Y-66301904D01*
X258236761Y-66397142D01*
X258284380Y-66540000D01*
X258284380Y-66778095D01*
X258284380Y-65254285D02*
X258284380Y-65825714D01*
X258284380Y-65540000D02*
X257284380Y-65540000D01*
X257427238Y-65635238D01*
X257522476Y-65730476D01*
X257570095Y-65825714D01*
X261441142Y-72302666D02*
X261488761Y-72350285D01*
X261536380Y-72493142D01*
X261536380Y-72588380D01*
X261488761Y-72731238D01*
X261393523Y-72826476D01*
X261298285Y-72874095D01*
X261107809Y-72921714D01*
X260964952Y-72921714D01*
X260774476Y-72874095D01*
X260679238Y-72826476D01*
X260584000Y-72731238D01*
X260536380Y-72588380D01*
X260536380Y-72493142D01*
X260584000Y-72350285D01*
X260631619Y-72302666D01*
X260631619Y-71921714D02*
X260584000Y-71874095D01*
X260536380Y-71778857D01*
X260536380Y-71540761D01*
X260584000Y-71445523D01*
X260631619Y-71397904D01*
X260726857Y-71350285D01*
X260822095Y-71350285D01*
X260964952Y-71397904D01*
X261536380Y-71969333D01*
X261536380Y-71350285D01*
X240284095Y-65492380D02*
X240284095Y-66301904D01*
X240331714Y-66397142D01*
X240379333Y-66444761D01*
X240474571Y-66492380D01*
X240665047Y-66492380D01*
X240760285Y-66444761D01*
X240807904Y-66397142D01*
X240855523Y-66301904D01*
X240855523Y-65492380D01*
X241855523Y-66492380D02*
X241284095Y-66492380D01*
X241569809Y-66492380D02*
X241569809Y-65492380D01*
X241474571Y-65635238D01*
X241379333Y-65730476D01*
X241284095Y-65778095D01*
X226026380Y-66778095D02*
X225026380Y-66778095D01*
X225026380Y-66540000D01*
X225074000Y-66397142D01*
X225169238Y-66301904D01*
X225264476Y-66254285D01*
X225454952Y-66206666D01*
X225597809Y-66206666D01*
X225788285Y-66254285D01*
X225883523Y-66301904D01*
X225978761Y-66397142D01*
X226026380Y-66540000D01*
X226026380Y-66778095D01*
X226026380Y-65254285D02*
X226026380Y-65825714D01*
X226026380Y-65540000D02*
X225026380Y-65540000D01*
X225169238Y-65635238D01*
X225264476Y-65730476D01*
X225312095Y-65825714D01*
X214525380Y-66238666D02*
X214049190Y-66572000D01*
X214525380Y-66810095D02*
X213525380Y-66810095D01*
X213525380Y-66429142D01*
X213573000Y-66333904D01*
X213620619Y-66286285D01*
X213715857Y-66238666D01*
X213858714Y-66238666D01*
X213953952Y-66286285D01*
X214001571Y-66333904D01*
X214049190Y-66429142D01*
X214049190Y-66810095D01*
X213525380Y-65905333D02*
X213525380Y-65286285D01*
X213906333Y-65619619D01*
X213906333Y-65476761D01*
X213953952Y-65381523D01*
X214001571Y-65333904D01*
X214096809Y-65286285D01*
X214334904Y-65286285D01*
X214430142Y-65333904D01*
X214477761Y-65381523D01*
X214525380Y-65476761D01*
X214525380Y-65762476D01*
X214477761Y-65857714D01*
X214430142Y-65905333D01*
X218376666Y-52728761D02*
X218519523Y-52776380D01*
X218757619Y-52776380D01*
X218852857Y-52728761D01*
X218900476Y-52681142D01*
X218948095Y-52585904D01*
X218948095Y-52490666D01*
X218900476Y-52395428D01*
X218852857Y-52347809D01*
X218757619Y-52300190D01*
X218567142Y-52252571D01*
X218471904Y-52204952D01*
X218424285Y-52157333D01*
X218376666Y-52062095D01*
X218376666Y-51966857D01*
X218424285Y-51871619D01*
X218471904Y-51824000D01*
X218567142Y-51776380D01*
X218805238Y-51776380D01*
X218948095Y-51824000D01*
X219281428Y-51776380D02*
X219519523Y-52776380D01*
X219710000Y-52062095D01*
X219900476Y-52776380D01*
X220138571Y-51776380D01*
X221043333Y-52776380D02*
X220471904Y-52776380D01*
X220757619Y-52776380D02*
X220757619Y-51776380D01*
X220662380Y-51919238D01*
X220567142Y-52014476D01*
X220471904Y-52062095D01*
X204557333Y-53951142D02*
X204509714Y-53998761D01*
X204366857Y-54046380D01*
X204271619Y-54046380D01*
X204128761Y-53998761D01*
X204033523Y-53903523D01*
X203985904Y-53808285D01*
X203938285Y-53617809D01*
X203938285Y-53474952D01*
X203985904Y-53284476D01*
X204033523Y-53189238D01*
X204128761Y-53094000D01*
X204271619Y-53046380D01*
X204366857Y-53046380D01*
X204509714Y-53094000D01*
X204557333Y-53141619D01*
X205509714Y-54046380D02*
X204938285Y-54046380D01*
X205224000Y-54046380D02*
X205224000Y-53046380D01*
X205128761Y-53189238D01*
X205033523Y-53284476D01*
X204938285Y-53332095D01*
X204557333Y-55824380D02*
X204224000Y-55348190D01*
X203985904Y-55824380D02*
X203985904Y-54824380D01*
X204366857Y-54824380D01*
X204462095Y-54872000D01*
X204509714Y-54919619D01*
X204557333Y-55014857D01*
X204557333Y-55157714D01*
X204509714Y-55252952D01*
X204462095Y-55300571D01*
X204366857Y-55348190D01*
X203985904Y-55348190D01*
X205509714Y-55824380D02*
X204938285Y-55824380D01*
X205224000Y-55824380D02*
X205224000Y-54824380D01*
X205128761Y-54967238D01*
X205033523Y-55062476D01*
X204938285Y-55110095D01*
X223258333Y-58546380D02*
X222925000Y-58070190D01*
X222686904Y-58546380D02*
X222686904Y-57546380D01*
X223067857Y-57546380D01*
X223163095Y-57594000D01*
X223210714Y-57641619D01*
X223258333Y-57736857D01*
X223258333Y-57879714D01*
X223210714Y-57974952D01*
X223163095Y-58022571D01*
X223067857Y-58070190D01*
X222686904Y-58070190D01*
X223639285Y-57641619D02*
X223686904Y-57594000D01*
X223782142Y-57546380D01*
X224020238Y-57546380D01*
X224115476Y-57594000D01*
X224163095Y-57641619D01*
X224210714Y-57736857D01*
X224210714Y-57832095D01*
X224163095Y-57974952D01*
X223591666Y-58546380D01*
X224210714Y-58546380D01*
X219225904Y-46680380D02*
X219225904Y-45680380D01*
X219464000Y-45680380D01*
X219606857Y-45728000D01*
X219702095Y-45823238D01*
X219749714Y-45918476D01*
X219797333Y-46108952D01*
X219797333Y-46251809D01*
X219749714Y-46442285D01*
X219702095Y-46537523D01*
X219606857Y-46632761D01*
X219464000Y-46680380D01*
X219225904Y-46680380D01*
X220178285Y-45775619D02*
X220225904Y-45728000D01*
X220321142Y-45680380D01*
X220559238Y-45680380D01*
X220654476Y-45728000D01*
X220702095Y-45775619D01*
X220749714Y-45870857D01*
X220749714Y-45966095D01*
X220702095Y-46108952D01*
X220130666Y-46680380D01*
X220749714Y-46680380D01*
X214525380Y-47696666D02*
X214049190Y-48030000D01*
X214525380Y-48268095D02*
X213525380Y-48268095D01*
X213525380Y-47887142D01*
X213573000Y-47791904D01*
X213620619Y-47744285D01*
X213715857Y-47696666D01*
X213858714Y-47696666D01*
X213953952Y-47744285D01*
X214001571Y-47791904D01*
X214049190Y-47887142D01*
X214049190Y-48268095D01*
X213525380Y-47363333D02*
X213525380Y-46744285D01*
X213906333Y-47077619D01*
X213906333Y-46934761D01*
X213953952Y-46839523D01*
X214001571Y-46791904D01*
X214096809Y-46744285D01*
X214334904Y-46744285D01*
X214430142Y-46791904D01*
X214477761Y-46839523D01*
X214525380Y-46934761D01*
X214525380Y-47220476D01*
X214477761Y-47315714D01*
X214430142Y-47363333D01*
X226026380Y-48236095D02*
X225026380Y-48236095D01*
X225026380Y-47998000D01*
X225074000Y-47855142D01*
X225169238Y-47759904D01*
X225264476Y-47712285D01*
X225454952Y-47664666D01*
X225597809Y-47664666D01*
X225788285Y-47712285D01*
X225883523Y-47759904D01*
X225978761Y-47855142D01*
X226026380Y-47998000D01*
X226026380Y-48236095D01*
X226026380Y-46712285D02*
X226026380Y-47283714D01*
X226026380Y-46998000D02*
X225026380Y-46998000D01*
X225169238Y-47093238D01*
X225264476Y-47188476D01*
X225312095Y-47283714D01*
X229183142Y-53760666D02*
X229230761Y-53808285D01*
X229278380Y-53951142D01*
X229278380Y-54046380D01*
X229230761Y-54189238D01*
X229135523Y-54284476D01*
X229040285Y-54332095D01*
X228849809Y-54379714D01*
X228706952Y-54379714D01*
X228516476Y-54332095D01*
X228421238Y-54284476D01*
X228326000Y-54189238D01*
X228278380Y-54046380D01*
X228278380Y-53951142D01*
X228326000Y-53808285D01*
X228373619Y-53760666D01*
X228373619Y-53379714D02*
X228326000Y-53332095D01*
X228278380Y-53236857D01*
X228278380Y-52998761D01*
X228326000Y-52903523D01*
X228373619Y-52855904D01*
X228468857Y-52808285D01*
X228564095Y-52808285D01*
X228706952Y-52855904D01*
X229278380Y-53427333D01*
X229278380Y-52808285D01*
X208026095Y-46950380D02*
X208026095Y-47759904D01*
X208073714Y-47855142D01*
X208121333Y-47902761D01*
X208216571Y-47950380D01*
X208407047Y-47950380D01*
X208502285Y-47902761D01*
X208549904Y-47855142D01*
X208597523Y-47759904D01*
X208597523Y-46950380D01*
X209597523Y-47950380D02*
X209026095Y-47950380D01*
X209311809Y-47950380D02*
X209311809Y-46950380D01*
X209216571Y-47093238D01*
X209121333Y-47188476D01*
X209026095Y-47236095D01*
X246783380Y-47696666D02*
X246307190Y-48030000D01*
X246783380Y-48268095D02*
X245783380Y-48268095D01*
X245783380Y-47887142D01*
X245831000Y-47791904D01*
X245878619Y-47744285D01*
X245973857Y-47696666D01*
X246116714Y-47696666D01*
X246211952Y-47744285D01*
X246259571Y-47791904D01*
X246307190Y-47887142D01*
X246307190Y-48268095D01*
X245783380Y-47363333D02*
X245783380Y-46744285D01*
X246164333Y-47077619D01*
X246164333Y-46934761D01*
X246211952Y-46839523D01*
X246259571Y-46791904D01*
X246354809Y-46744285D01*
X246592904Y-46744285D01*
X246688142Y-46791904D01*
X246735761Y-46839523D01*
X246783380Y-46934761D01*
X246783380Y-47220476D01*
X246735761Y-47315714D01*
X246688142Y-47363333D01*
X250634666Y-52728761D02*
X250777523Y-52776380D01*
X251015619Y-52776380D01*
X251110857Y-52728761D01*
X251158476Y-52681142D01*
X251206095Y-52585904D01*
X251206095Y-52490666D01*
X251158476Y-52395428D01*
X251110857Y-52347809D01*
X251015619Y-52300190D01*
X250825142Y-52252571D01*
X250729904Y-52204952D01*
X250682285Y-52157333D01*
X250634666Y-52062095D01*
X250634666Y-51966857D01*
X250682285Y-51871619D01*
X250729904Y-51824000D01*
X250825142Y-51776380D01*
X251063238Y-51776380D01*
X251206095Y-51824000D01*
X251539428Y-51776380D02*
X251777523Y-52776380D01*
X251968000Y-52062095D01*
X252158476Y-52776380D01*
X252396571Y-51776380D01*
X253301333Y-52776380D02*
X252729904Y-52776380D01*
X253015619Y-52776380D02*
X253015619Y-51776380D01*
X252920380Y-51919238D01*
X252825142Y-52014476D01*
X252729904Y-52062095D01*
X236815333Y-53951142D02*
X236767714Y-53998761D01*
X236624857Y-54046380D01*
X236529619Y-54046380D01*
X236386761Y-53998761D01*
X236291523Y-53903523D01*
X236243904Y-53808285D01*
X236196285Y-53617809D01*
X236196285Y-53474952D01*
X236243904Y-53284476D01*
X236291523Y-53189238D01*
X236386761Y-53094000D01*
X236529619Y-53046380D01*
X236624857Y-53046380D01*
X236767714Y-53094000D01*
X236815333Y-53141619D01*
X237767714Y-54046380D02*
X237196285Y-54046380D01*
X237482000Y-54046380D02*
X237482000Y-53046380D01*
X237386761Y-53189238D01*
X237291523Y-53284476D01*
X237196285Y-53332095D01*
X261441142Y-53760666D02*
X261488761Y-53808285D01*
X261536380Y-53951142D01*
X261536380Y-54046380D01*
X261488761Y-54189238D01*
X261393523Y-54284476D01*
X261298285Y-54332095D01*
X261107809Y-54379714D01*
X260964952Y-54379714D01*
X260774476Y-54332095D01*
X260679238Y-54284476D01*
X260584000Y-54189238D01*
X260536380Y-54046380D01*
X260536380Y-53951142D01*
X260584000Y-53808285D01*
X260631619Y-53760666D01*
X260631619Y-53379714D02*
X260584000Y-53332095D01*
X260536380Y-53236857D01*
X260536380Y-52998761D01*
X260584000Y-52903523D01*
X260631619Y-52855904D01*
X260726857Y-52808285D01*
X260822095Y-52808285D01*
X260964952Y-52855904D01*
X261536380Y-53427333D01*
X261536380Y-52808285D01*
X258284380Y-48236095D02*
X257284380Y-48236095D01*
X257284380Y-47998000D01*
X257332000Y-47855142D01*
X257427238Y-47759904D01*
X257522476Y-47712285D01*
X257712952Y-47664666D01*
X257855809Y-47664666D01*
X258046285Y-47712285D01*
X258141523Y-47759904D01*
X258236761Y-47855142D01*
X258284380Y-47998000D01*
X258284380Y-48236095D01*
X258284380Y-46712285D02*
X258284380Y-47283714D01*
X258284380Y-46998000D02*
X257284380Y-46998000D01*
X257427238Y-47093238D01*
X257522476Y-47188476D01*
X257570095Y-47283714D01*
X251483904Y-46680380D02*
X251483904Y-45680380D01*
X251722000Y-45680380D01*
X251864857Y-45728000D01*
X251960095Y-45823238D01*
X252007714Y-45918476D01*
X252055333Y-46108952D01*
X252055333Y-46251809D01*
X252007714Y-46442285D01*
X251960095Y-46537523D01*
X251864857Y-46632761D01*
X251722000Y-46680380D01*
X251483904Y-46680380D01*
X252436285Y-45775619D02*
X252483904Y-45728000D01*
X252579142Y-45680380D01*
X252817238Y-45680380D01*
X252912476Y-45728000D01*
X252960095Y-45775619D01*
X253007714Y-45870857D01*
X253007714Y-45966095D01*
X252960095Y-46108952D01*
X252388666Y-46680380D01*
X253007714Y-46680380D01*
X236815333Y-55824380D02*
X236482000Y-55348190D01*
X236243904Y-55824380D02*
X236243904Y-54824380D01*
X236624857Y-54824380D01*
X236720095Y-54872000D01*
X236767714Y-54919619D01*
X236815333Y-55014857D01*
X236815333Y-55157714D01*
X236767714Y-55252952D01*
X236720095Y-55300571D01*
X236624857Y-55348190D01*
X236243904Y-55348190D01*
X237767714Y-55824380D02*
X237196285Y-55824380D01*
X237482000Y-55824380D02*
X237482000Y-54824380D01*
X237386761Y-54967238D01*
X237291523Y-55062476D01*
X237196285Y-55110095D01*
X255516333Y-58546380D02*
X255183000Y-58070190D01*
X254944904Y-58546380D02*
X254944904Y-57546380D01*
X255325857Y-57546380D01*
X255421095Y-57594000D01*
X255468714Y-57641619D01*
X255516333Y-57736857D01*
X255516333Y-57879714D01*
X255468714Y-57974952D01*
X255421095Y-58022571D01*
X255325857Y-58070190D01*
X254944904Y-58070190D01*
X255897285Y-57641619D02*
X255944904Y-57594000D01*
X256040142Y-57546380D01*
X256278238Y-57546380D01*
X256373476Y-57594000D01*
X256421095Y-57641619D01*
X256468714Y-57736857D01*
X256468714Y-57832095D01*
X256421095Y-57974952D01*
X255849666Y-58546380D01*
X256468714Y-58546380D01*
X240284095Y-46950380D02*
X240284095Y-47759904D01*
X240331714Y-47855142D01*
X240379333Y-47902761D01*
X240474571Y-47950380D01*
X240665047Y-47950380D01*
X240760285Y-47902761D01*
X240807904Y-47855142D01*
X240855523Y-47759904D01*
X240855523Y-46950380D01*
X241855523Y-47950380D02*
X241284095Y-47950380D01*
X241569809Y-47950380D02*
X241569809Y-46950380D01*
X241474571Y-47093238D01*
X241379333Y-47188476D01*
X241284095Y-47236095D01*
M02*
