M48
; DRILL file {KiCad 5.1.9-73d0e3b20d~88~ubuntu20.04.1} date Thu Apr 15 15:02:49 2021
; FORMAT={-:-/ absolute / inch / decimal}
; #@! TF.CreationDate,2021-04-15T15:02:49+02:00
; #@! TF.GenerationSoftware,Kicad,Pcbnew,5.1.9-73d0e3b20d~88~ubuntu20.04.1
; #@! TF.FileFunction,Plated,1,2,PTH
FMAT,2
INCH
T1C0.0157
T2C0.0236
T3C0.0354
T4C0.0394
%
G90
G05
T1
X1.86Y-3.405
X1.865Y-3.56
X1.865Y-3.665
X2.005Y-3.76
X2.075Y-3.61
X2.075Y-3.82
T2
X1.585Y-3.85
X1.635Y-3.8
X1.685Y-3.85
T3
X2.05Y-3.36
X2.15Y-3.36
T4
X1.41Y-3.4
X1.41Y-3.5
X1.41Y-3.6
X1.41Y-3.7
X1.41Y-3.8
X2.365Y-3.305
X2.365Y-3.405
X2.5Y-3.41
X2.5Y-3.51
X2.5Y-3.61
X2.5Y-3.71
X2.5Y-3.81
T0
M30
