G04 #@! TF.GenerationSoftware,KiCad,Pcbnew,5.1.6-c6e7f7d~86~ubuntu19.10.1*
G04 #@! TF.CreationDate,2021-03-24T15:38:50+01:00*
G04 #@! TF.ProjectId,Switch3V,53776974-6368-4335-962e-6b696361645f,rev?*
G04 #@! TF.SameCoordinates,Original*
G04 #@! TF.FileFunction,Copper,L2,Bot*
G04 #@! TF.FilePolarity,Positive*
%FSLAX46Y46*%
G04 Gerber Fmt 4.6, Leading zero omitted, Abs format (unit mm)*
G04 Created by KiCad (PCBNEW 5.1.6-c6e7f7d~86~ubuntu19.10.1) date 2021-03-24 15:38:50*
%MOMM*%
%LPD*%
G01*
G04 APERTURE LIST*
G04 #@! TA.AperFunction,ComponentPad*
%ADD10C,1.000000*%
G04 #@! TD*
G04 #@! TA.AperFunction,ComponentPad*
%ADD11R,1.000000X1.000000*%
G04 #@! TD*
G04 #@! TA.AperFunction,ComponentPad*
%ADD12R,1.800000X1.800000*%
G04 #@! TD*
G04 #@! TA.AperFunction,ComponentPad*
%ADD13C,1.800000*%
G04 #@! TD*
G04 #@! TA.AperFunction,ComponentPad*
%ADD14R,1.700000X1.700000*%
G04 #@! TD*
G04 #@! TA.AperFunction,ComponentPad*
%ADD15O,1.700000X1.700000*%
G04 #@! TD*
G04 #@! TA.AperFunction,ViaPad*
%ADD16C,0.800000*%
G04 #@! TD*
G04 #@! TA.AperFunction,Conductor*
%ADD17C,1.000000*%
G04 #@! TD*
G04 APERTURE END LIST*
D10*
X208153000Y-133096000D03*
X206883000Y-134366000D03*
D11*
X209423000Y-134366000D03*
D12*
X221234000Y-121920000D03*
D13*
X218694000Y-121920000D03*
D14*
X230124000Y-133350000D03*
D15*
X230124000Y-130810000D03*
X230124000Y-128270000D03*
X230124000Y-125730000D03*
X230124000Y-123190000D03*
X262382000Y-123190000D03*
X262382000Y-125730000D03*
X262382000Y-128270000D03*
X262382000Y-130810000D03*
D14*
X262382000Y-133350000D03*
D11*
X241681000Y-134366000D03*
D10*
X239141000Y-134366000D03*
X240411000Y-133096000D03*
D15*
X234696000Y-122936000D03*
X234696000Y-125476000D03*
X234696000Y-128016000D03*
X234696000Y-130556000D03*
D14*
X234696000Y-133096000D03*
X202438000Y-133096000D03*
D15*
X202438000Y-130556000D03*
X202438000Y-128016000D03*
X202438000Y-125476000D03*
X202438000Y-122936000D03*
D13*
X250952000Y-121920000D03*
D12*
X253492000Y-121920000D03*
D14*
X258572000Y-120142000D03*
D15*
X258572000Y-122682000D03*
X226314000Y-122682000D03*
D14*
X226314000Y-120142000D03*
D10*
X240411000Y-114554000D03*
X239141000Y-115824000D03*
D11*
X241681000Y-115824000D03*
D10*
X208153000Y-96012000D03*
X206883000Y-97282000D03*
D11*
X209423000Y-97282000D03*
D15*
X258572000Y-104140000D03*
D14*
X258572000Y-101600000D03*
D15*
X202438000Y-104394000D03*
X202438000Y-106934000D03*
X202438000Y-109474000D03*
X202438000Y-112014000D03*
D14*
X202438000Y-114554000D03*
D12*
X221234000Y-84836000D03*
D13*
X218694000Y-84836000D03*
D14*
X226314000Y-101600000D03*
D15*
X226314000Y-104140000D03*
D14*
X230124000Y-96266000D03*
D15*
X230124000Y-93726000D03*
X230124000Y-91186000D03*
X230124000Y-88646000D03*
X230124000Y-86106000D03*
X262382000Y-86106000D03*
X262382000Y-88646000D03*
X262382000Y-91186000D03*
X262382000Y-93726000D03*
D14*
X262382000Y-96266000D03*
D11*
X241681000Y-97282000D03*
D10*
X239141000Y-97282000D03*
X240411000Y-96012000D03*
D15*
X234696000Y-85852000D03*
X234696000Y-88392000D03*
X234696000Y-90932000D03*
X234696000Y-93472000D03*
D14*
X234696000Y-96012000D03*
X202438000Y-96012000D03*
D15*
X202438000Y-93472000D03*
X202438000Y-90932000D03*
X202438000Y-88392000D03*
X202438000Y-85852000D03*
D14*
X234696000Y-114554000D03*
D15*
X234696000Y-112014000D03*
X234696000Y-109474000D03*
X234696000Y-106934000D03*
X234696000Y-104394000D03*
D14*
X262382000Y-114808000D03*
D15*
X262382000Y-112268000D03*
X262382000Y-109728000D03*
X262382000Y-107188000D03*
X262382000Y-104648000D03*
D13*
X250952000Y-84836000D03*
D12*
X253492000Y-84836000D03*
D11*
X209423000Y-115824000D03*
D10*
X206883000Y-115824000D03*
X208153000Y-114554000D03*
D12*
X253492000Y-103378000D03*
D13*
X250952000Y-103378000D03*
X218694000Y-103378000D03*
D12*
X221234000Y-103378000D03*
D15*
X230124000Y-104648000D03*
X230124000Y-107188000D03*
X230124000Y-109728000D03*
X230124000Y-112268000D03*
D14*
X230124000Y-114808000D03*
X258572000Y-83058000D03*
D15*
X258572000Y-85598000D03*
X226314000Y-85598000D03*
D14*
X226314000Y-83058000D03*
D10*
X208153000Y-77470000D03*
X206883000Y-78740000D03*
D11*
X209423000Y-78740000D03*
D12*
X221234000Y-66294000D03*
D13*
X218694000Y-66294000D03*
D14*
X230124000Y-77724000D03*
D15*
X230124000Y-75184000D03*
X230124000Y-72644000D03*
X230124000Y-70104000D03*
X230124000Y-67564000D03*
X262382000Y-67564000D03*
X262382000Y-70104000D03*
X262382000Y-72644000D03*
X262382000Y-75184000D03*
D14*
X262382000Y-77724000D03*
D11*
X241681000Y-78740000D03*
D10*
X239141000Y-78740000D03*
X240411000Y-77470000D03*
D15*
X234696000Y-67310000D03*
X234696000Y-69850000D03*
X234696000Y-72390000D03*
X234696000Y-74930000D03*
D14*
X234696000Y-77470000D03*
X202438000Y-77470000D03*
D15*
X202438000Y-74930000D03*
X202438000Y-72390000D03*
X202438000Y-69850000D03*
X202438000Y-67310000D03*
D13*
X250952000Y-66294000D03*
D12*
X253492000Y-66294000D03*
D14*
X258572000Y-64516000D03*
D15*
X258572000Y-67056000D03*
X226314000Y-67056000D03*
D14*
X226314000Y-64516000D03*
D15*
X230124000Y-49022000D03*
X230124000Y-51562000D03*
X230124000Y-54102000D03*
X230124000Y-56642000D03*
D14*
X230124000Y-59182000D03*
D11*
X209423000Y-60198000D03*
D10*
X206883000Y-60198000D03*
X208153000Y-58928000D03*
D15*
X202438000Y-48768000D03*
X202438000Y-51308000D03*
X202438000Y-53848000D03*
X202438000Y-56388000D03*
D14*
X202438000Y-58928000D03*
D13*
X218694000Y-47752000D03*
D12*
X221234000Y-47752000D03*
D14*
X226314000Y-45974000D03*
D15*
X226314000Y-48514000D03*
X258572000Y-48514000D03*
D14*
X258572000Y-45974000D03*
D12*
X253492000Y-47752000D03*
D13*
X250952000Y-47752000D03*
D14*
X234696000Y-58928000D03*
D15*
X234696000Y-56388000D03*
X234696000Y-53848000D03*
X234696000Y-51308000D03*
X234696000Y-48768000D03*
D10*
X240411000Y-58928000D03*
X239141000Y-60198000D03*
D11*
X241681000Y-60198000D03*
D14*
X262382000Y-59182000D03*
D15*
X262382000Y-56642000D03*
X262382000Y-54102000D03*
X262382000Y-51562000D03*
X262382000Y-49022000D03*
D16*
X246253000Y-55499000D03*
X213995000Y-55499000D03*
X246253000Y-74041000D03*
X213995000Y-74041000D03*
X246253000Y-92583000D03*
X213995000Y-111125000D03*
X213995000Y-92583000D03*
X246253000Y-111125000D03*
X246253000Y-129667000D03*
X213995000Y-129667000D03*
X246126000Y-48895000D03*
X213868000Y-48895000D03*
X246126000Y-67437000D03*
X213868000Y-67437000D03*
X246126000Y-104521000D03*
X213868000Y-104521000D03*
X246126000Y-85979000D03*
X213868000Y-85979000D03*
X246126000Y-123063000D03*
X213868000Y-123063000D03*
X246253000Y-52832000D03*
X213995000Y-52832000D03*
X213995000Y-71374000D03*
X246253000Y-71374000D03*
X213995000Y-89916000D03*
X246253000Y-108458000D03*
X213995000Y-108458000D03*
X246253000Y-89916000D03*
X213995000Y-127000000D03*
X246253000Y-127000000D03*
X250190000Y-60706000D03*
X217932000Y-60706000D03*
X250190000Y-79248000D03*
X217932000Y-79248000D03*
X217932000Y-116332000D03*
X250190000Y-97790000D03*
X250190000Y-116332000D03*
X217932000Y-97790000D03*
X250190000Y-134874000D03*
X217932000Y-134874000D03*
D17*
X236728000Y-58928000D02*
X234696000Y-58928000D01*
X237293685Y-58928000D02*
X236728000Y-58928000D01*
X240722685Y-55499000D02*
X237293685Y-58928000D01*
X246253000Y-55499000D02*
X240722685Y-55499000D01*
X213995000Y-55499000D02*
X208464685Y-55499000D01*
X208464685Y-55499000D02*
X205035685Y-58928000D01*
X205035685Y-58928000D02*
X204470000Y-58928000D01*
X204470000Y-58928000D02*
X202438000Y-58928000D01*
X205035685Y-77470000D02*
X204470000Y-77470000D01*
X204470000Y-77470000D02*
X202438000Y-77470000D01*
X213995000Y-74041000D02*
X208464685Y-74041000D01*
X208464685Y-74041000D02*
X205035685Y-77470000D01*
X246253000Y-74041000D02*
X240722685Y-74041000D01*
X240722685Y-74041000D02*
X237293685Y-77470000D01*
X237293685Y-77470000D02*
X236728000Y-77470000D01*
X236728000Y-77470000D02*
X234696000Y-77470000D01*
X237293685Y-114554000D02*
X236728000Y-114554000D01*
X213995000Y-111125000D02*
X208464685Y-111125000D01*
X246253000Y-111125000D02*
X240722685Y-111125000D01*
X204470000Y-114554000D02*
X202438000Y-114554000D01*
X205035685Y-96012000D02*
X204470000Y-96012000D01*
X204470000Y-96012000D02*
X202438000Y-96012000D01*
X213995000Y-92583000D02*
X208464685Y-92583000D01*
X208464685Y-92583000D02*
X205035685Y-96012000D01*
X236728000Y-114554000D02*
X234696000Y-114554000D01*
X208464685Y-111125000D02*
X205035685Y-114554000D01*
X205035685Y-114554000D02*
X204470000Y-114554000D01*
X246253000Y-92583000D02*
X240722685Y-92583000D01*
X240722685Y-92583000D02*
X237293685Y-96012000D01*
X240722685Y-111125000D02*
X237293685Y-114554000D01*
X237293685Y-96012000D02*
X236728000Y-96012000D01*
X236728000Y-96012000D02*
X234696000Y-96012000D01*
X205035685Y-133096000D02*
X204470000Y-133096000D01*
X204470000Y-133096000D02*
X202438000Y-133096000D01*
X213995000Y-129667000D02*
X208464685Y-129667000D01*
X208464685Y-129667000D02*
X205035685Y-133096000D01*
X246253000Y-129667000D02*
X240722685Y-129667000D01*
X240722685Y-129667000D02*
X237293685Y-133096000D01*
X237293685Y-133096000D02*
X236728000Y-133096000D01*
X236728000Y-133096000D02*
X234696000Y-133096000D01*
X248031000Y-48895000D02*
X246126000Y-48895000D01*
X250190000Y-51054000D02*
X248031000Y-48895000D01*
X256667000Y-57531000D02*
X250190000Y-51054000D01*
X256736315Y-57531000D02*
X256667000Y-57531000D01*
X258387315Y-59182000D02*
X256736315Y-57531000D01*
X261366000Y-59182000D02*
X258387315Y-59182000D01*
X215773000Y-48895000D02*
X213868000Y-48895000D01*
X217932000Y-51054000D02*
X215773000Y-48895000D01*
X224478315Y-57531000D02*
X224409000Y-57531000D01*
X229108000Y-59182000D02*
X226129315Y-59182000D01*
X226129315Y-59182000D02*
X224478315Y-57531000D01*
X224409000Y-57531000D02*
X217932000Y-51054000D01*
X248031000Y-67437000D02*
X246126000Y-67437000D01*
X250190000Y-69596000D02*
X248031000Y-67437000D01*
X256736315Y-76073000D02*
X256667000Y-76073000D01*
X261366000Y-77724000D02*
X258387315Y-77724000D01*
X226129315Y-77724000D02*
X224478315Y-76073000D01*
X224409000Y-76073000D02*
X217932000Y-69596000D01*
X229108000Y-77724000D02*
X226129315Y-77724000D01*
X258387315Y-77724000D02*
X256736315Y-76073000D01*
X224478315Y-76073000D02*
X224409000Y-76073000D01*
X215773000Y-67437000D02*
X213868000Y-67437000D01*
X217932000Y-69596000D02*
X215773000Y-67437000D01*
X256667000Y-76073000D02*
X250190000Y-69596000D01*
X229108000Y-114808000D02*
X226129315Y-114808000D01*
X248031000Y-85979000D02*
X246126000Y-85979000D01*
X250190000Y-88138000D02*
X248031000Y-85979000D01*
X256736315Y-113157000D02*
X256667000Y-113157000D01*
X256736315Y-94615000D02*
X256667000Y-94615000D01*
X261366000Y-96266000D02*
X258387315Y-96266000D01*
X248031000Y-104521000D02*
X246126000Y-104521000D01*
X250190000Y-106680000D02*
X248031000Y-104521000D01*
X224409000Y-113157000D02*
X217932000Y-106680000D01*
X226129315Y-96266000D02*
X224478315Y-94615000D01*
X224409000Y-94615000D02*
X217932000Y-88138000D01*
X217932000Y-106680000D02*
X215773000Y-104521000D01*
X229108000Y-96266000D02*
X226129315Y-96266000D01*
X258387315Y-96266000D02*
X256736315Y-94615000D01*
X215773000Y-104521000D02*
X213868000Y-104521000D01*
X226129315Y-114808000D02*
X224478315Y-113157000D01*
X258387315Y-114808000D02*
X256736315Y-113157000D01*
X224478315Y-94615000D02*
X224409000Y-94615000D01*
X215773000Y-85979000D02*
X213868000Y-85979000D01*
X217932000Y-88138000D02*
X215773000Y-85979000D01*
X256667000Y-113157000D02*
X250190000Y-106680000D01*
X256667000Y-94615000D02*
X250190000Y-88138000D01*
X261366000Y-114808000D02*
X258387315Y-114808000D01*
X224478315Y-113157000D02*
X224409000Y-113157000D01*
X248031000Y-123063000D02*
X246126000Y-123063000D01*
X250190000Y-125222000D02*
X248031000Y-123063000D01*
X256736315Y-131699000D02*
X256667000Y-131699000D01*
X261366000Y-133350000D02*
X258387315Y-133350000D01*
X226129315Y-133350000D02*
X224478315Y-131699000D01*
X224409000Y-131699000D02*
X217932000Y-125222000D01*
X229108000Y-133350000D02*
X226129315Y-133350000D01*
X258387315Y-133350000D02*
X256736315Y-131699000D01*
X224478315Y-131699000D02*
X224409000Y-131699000D01*
X215773000Y-123063000D02*
X213868000Y-123063000D01*
X217932000Y-125222000D02*
X215773000Y-123063000D01*
X256667000Y-131699000D02*
X250190000Y-125222000D01*
X236728000Y-52832000D02*
X246253000Y-52832000D01*
X236728000Y-52832000D02*
X235712000Y-53848000D01*
X235712000Y-53848000D02*
X234696000Y-53848000D01*
X204470000Y-52832000D02*
X203454000Y-53848000D01*
X204470000Y-52832000D02*
X213995000Y-52832000D01*
X203454000Y-53848000D02*
X202438000Y-53848000D01*
X236728000Y-71374000D02*
X235712000Y-72390000D01*
X236728000Y-71374000D02*
X246253000Y-71374000D01*
X204470000Y-71374000D02*
X213995000Y-71374000D01*
X204470000Y-71374000D02*
X203454000Y-72390000D01*
X203454000Y-72390000D02*
X202438000Y-72390000D01*
X235712000Y-72390000D02*
X234696000Y-72390000D01*
X236728000Y-89916000D02*
X235712000Y-90932000D01*
X236728000Y-89916000D02*
X246253000Y-89916000D01*
X236728000Y-108458000D02*
X235712000Y-109474000D01*
X204470000Y-89916000D02*
X213995000Y-89916000D01*
X204470000Y-89916000D02*
X203454000Y-90932000D01*
X203454000Y-109474000D02*
X202438000Y-109474000D01*
X203454000Y-90932000D02*
X202438000Y-90932000D01*
X236728000Y-108458000D02*
X246253000Y-108458000D01*
X235712000Y-109474000D02*
X234696000Y-109474000D01*
X204470000Y-108458000D02*
X213995000Y-108458000D01*
X204470000Y-108458000D02*
X203454000Y-109474000D01*
X235712000Y-90932000D02*
X234696000Y-90932000D01*
X236728000Y-127000000D02*
X235712000Y-128016000D01*
X236728000Y-127000000D02*
X246253000Y-127000000D01*
X204470000Y-127000000D02*
X213995000Y-127000000D01*
X204470000Y-127000000D02*
X203454000Y-128016000D01*
X203454000Y-128016000D02*
X202438000Y-128016000D01*
X235712000Y-128016000D02*
X234696000Y-128016000D01*
X235966000Y-50800000D02*
X235458000Y-51308000D01*
X247650000Y-50800000D02*
X235966000Y-50800000D01*
X235458000Y-51308000D02*
X234696000Y-51308000D01*
X250190000Y-53340000D02*
X247650000Y-50800000D01*
X250190000Y-60706000D02*
X250190000Y-53340000D01*
X217932000Y-53340000D02*
X215392000Y-50800000D01*
X203708000Y-50800000D02*
X203200000Y-51308000D01*
X217932000Y-60706000D02*
X217932000Y-53340000D01*
X215392000Y-50800000D02*
X203708000Y-50800000D01*
X203200000Y-51308000D02*
X202438000Y-51308000D01*
X203200000Y-69850000D02*
X202438000Y-69850000D01*
X250190000Y-71882000D02*
X247650000Y-69342000D01*
X217932000Y-71882000D02*
X215392000Y-69342000D01*
X203708000Y-69342000D02*
X203200000Y-69850000D01*
X235966000Y-69342000D02*
X235458000Y-69850000D01*
X250190000Y-79248000D02*
X250190000Y-71882000D01*
X247650000Y-69342000D02*
X235966000Y-69342000D01*
X235458000Y-69850000D02*
X234696000Y-69850000D01*
X217932000Y-79248000D02*
X217932000Y-71882000D01*
X215392000Y-69342000D02*
X203708000Y-69342000D01*
X203200000Y-88392000D02*
X202438000Y-88392000D01*
X235458000Y-106934000D02*
X234696000Y-106934000D01*
X250190000Y-90424000D02*
X247650000Y-87884000D01*
X250190000Y-108966000D02*
X247650000Y-106426000D01*
X217932000Y-90424000D02*
X215392000Y-87884000D01*
X203708000Y-87884000D02*
X203200000Y-88392000D01*
X235966000Y-87884000D02*
X235458000Y-88392000D01*
X250190000Y-97790000D02*
X250190000Y-90424000D01*
X247650000Y-87884000D02*
X235966000Y-87884000D01*
X250190000Y-116332000D02*
X250190000Y-108966000D01*
X235458000Y-88392000D02*
X234696000Y-88392000D01*
X203200000Y-106934000D02*
X202438000Y-106934000D01*
X235966000Y-106426000D02*
X235458000Y-106934000D01*
X217932000Y-97790000D02*
X217932000Y-90424000D01*
X215392000Y-106426000D02*
X203708000Y-106426000D01*
X203708000Y-106426000D02*
X203200000Y-106934000D01*
X247650000Y-106426000D02*
X235966000Y-106426000D01*
X215392000Y-87884000D02*
X203708000Y-87884000D01*
X217932000Y-116332000D02*
X217932000Y-108966000D01*
X217932000Y-108966000D02*
X215392000Y-106426000D01*
X203200000Y-125476000D02*
X202438000Y-125476000D01*
X250190000Y-127508000D02*
X247650000Y-124968000D01*
X217932000Y-127508000D02*
X215392000Y-124968000D01*
X203708000Y-124968000D02*
X203200000Y-125476000D01*
X235966000Y-124968000D02*
X235458000Y-125476000D01*
X250190000Y-134874000D02*
X250190000Y-127508000D01*
X247650000Y-124968000D02*
X235966000Y-124968000D01*
X235458000Y-125476000D02*
X234696000Y-125476000D01*
X217932000Y-134874000D02*
X217932000Y-127508000D01*
X215392000Y-124968000D02*
X203708000Y-124968000D01*
M02*
