M48
; DRILL file {KiCad 5.1.6-c6e7f7d~86~ubuntu19.10.1} date Wed Mar 24 15:39:26 2021
; FORMAT={-:-/ absolute / inch / decimal}
; #@! TF.CreationDate,2021-03-24T15:39:26+01:00
; #@! TF.GenerationSoftware,Kicad,Pcbnew,5.1.6-c6e7f7d~86~ubuntu19.10.1
; #@! TF.FileFunction,Plated,1,2,PTH
FMAT,2
INCH
T1C0.0157
T2C0.0236
T3C0.0354
T4C0.0394
%
G90
G05
T1
X8.42Y-1.925
X8.42Y-2.655
X8.42Y-3.385
X8.42Y-4.115
X8.42Y-4.845
X8.425Y-2.08
X8.425Y-2.185
X8.425Y-2.81
X8.425Y-2.915
X8.425Y-3.54
X8.425Y-3.645
X8.425Y-4.27
X8.425Y-4.375
X8.425Y-5.0
X8.425Y-5.105
X8.58Y-2.39
X8.58Y-3.12
X8.58Y-3.85
X8.58Y-4.58
X8.58Y-5.31
X9.69Y-1.925
X9.69Y-2.655
X9.69Y-3.385
X9.69Y-4.115
X9.69Y-4.845
X9.695Y-2.08
X9.695Y-2.185
X9.695Y-2.81
X9.695Y-2.915
X9.695Y-3.54
X9.695Y-3.645
X9.695Y-4.27
X9.695Y-4.375
X9.695Y-5.0
X9.695Y-5.105
X9.85Y-2.39
X9.85Y-3.12
X9.85Y-3.85
X9.85Y-4.58
X9.85Y-5.31
T2
X9.415Y-2.37
X9.465Y-2.32
X9.515Y-2.37
X8.145Y-5.29
X8.195Y-5.24
X8.245Y-5.29
X9.415Y-5.29
X9.465Y-5.24
X9.515Y-5.29
X8.145Y-3.83
X8.195Y-3.78
X8.245Y-3.83
X9.415Y-3.83
X9.465Y-3.78
X9.515Y-3.83
X9.415Y-3.1
X9.465Y-3.05
X9.515Y-3.1
X8.145Y-2.37
X8.195Y-2.32
X8.245Y-2.37
X9.415Y-4.56
X9.465Y-4.51
X9.515Y-4.56
X8.145Y-3.1
X8.195Y-3.05
X8.245Y-3.1
X8.145Y-4.56
X8.195Y-4.51
X8.245Y-4.56
T3
X9.88Y-4.8
X9.98Y-4.8
X8.61Y-4.07
X8.71Y-4.07
X8.61Y-3.34
X8.71Y-3.34
X8.61Y-1.88
X8.71Y-1.88
X9.88Y-1.88
X9.98Y-1.88
X9.88Y-4.07
X9.98Y-4.07
X9.88Y-2.61
X9.98Y-2.61
X8.61Y-4.8
X8.71Y-4.8
X9.88Y-3.34
X9.98Y-3.34
X8.61Y-2.61
X8.71Y-2.61
T4
X9.24Y-1.92
X9.24Y-2.02
X9.24Y-2.12
X9.24Y-2.22
X9.24Y-2.32
X9.06Y-4.85
X9.06Y-4.95
X9.06Y-5.05
X9.06Y-5.15
X9.06Y-5.25
X10.18Y-2.54
X10.18Y-2.64
X9.24Y-4.11
X9.24Y-4.21
X9.24Y-4.31
X9.24Y-4.41
X9.24Y-4.51
X8.91Y-1.81
X8.91Y-1.91
X7.97Y-4.84
X7.97Y-4.94
X7.97Y-5.04
X7.97Y-5.14
X7.97Y-5.24
X9.06Y-4.12
X9.06Y-4.22
X9.06Y-4.32
X9.06Y-4.42
X9.06Y-4.52
X9.24Y-4.84
X9.24Y-4.94
X9.24Y-5.04
X9.24Y-5.14
X9.24Y-5.24
X7.97Y-3.38
X7.97Y-3.48
X7.97Y-3.58
X7.97Y-3.68
X7.97Y-3.78
X9.06Y-3.39
X9.06Y-3.49
X9.06Y-3.59
X9.06Y-3.69
X9.06Y-3.79
X8.91Y-2.54
X8.91Y-2.64
X7.97Y-4.11
X7.97Y-4.21
X7.97Y-4.31
X7.97Y-4.41
X7.97Y-4.51
X10.18Y-4.73
X10.18Y-4.83
X9.06Y-2.66
X9.06Y-2.76
X9.06Y-2.86
X9.06Y-2.96
X9.06Y-3.06
X10.18Y-3.27
X10.18Y-3.37
X10.33Y-1.93
X10.33Y-2.03
X10.33Y-2.13
X10.33Y-2.23
X10.33Y-2.33
X9.24Y-3.38
X9.24Y-3.48
X9.24Y-3.58
X9.24Y-3.68
X9.24Y-3.78
X10.33Y-4.85
X10.33Y-4.95
X10.33Y-5.05
X10.33Y-5.15
X10.33Y-5.25
X9.06Y-1.93
X9.06Y-2.03
X9.06Y-2.13
X9.06Y-2.23
X9.06Y-2.33
X10.33Y-3.39
X10.33Y-3.49
X10.33Y-3.59
X10.33Y-3.69
X10.33Y-3.79
X8.91Y-4.73
X8.91Y-4.83
X7.97Y-1.92
X7.97Y-2.02
X7.97Y-2.12
X7.97Y-2.22
X7.97Y-2.32
X10.33Y-4.12
X10.33Y-4.22
X10.33Y-4.32
X10.33Y-4.42
X10.33Y-4.52
X10.33Y-2.66
X10.33Y-2.76
X10.33Y-2.86
X10.33Y-2.96
X10.33Y-3.06
X9.24Y-2.65
X9.24Y-2.75
X9.24Y-2.85
X9.24Y-2.95
X9.24Y-3.05
X10.18Y-4.0
X10.18Y-4.1
X7.97Y-2.65
X7.97Y-2.75
X7.97Y-2.85
X7.97Y-2.95
X7.97Y-3.05
X10.18Y-1.81
X10.18Y-1.91
X8.91Y-3.27
X8.91Y-3.37
X8.91Y-4.0
X8.91Y-4.1
T0
M30
