G04 #@! TF.GenerationSoftware,KiCad,Pcbnew,5.1.9-73d0e3b20d~88~ubuntu20.04.1*
G04 #@! TF.CreationDate,2021-04-15T15:02:38+02:00*
G04 #@! TF.ProjectId,Switch3Vx,53776974-6368-4335-9678-2e6b69636164,rev?*
G04 #@! TF.SameCoordinates,Original*
G04 #@! TF.FileFunction,Legend,Top*
G04 #@! TF.FilePolarity,Positive*
%FSLAX46Y46*%
G04 Gerber Fmt 4.6, Leading zero omitted, Abs format (unit mm)*
G04 Created by KiCad (PCBNEW 5.1.9-73d0e3b20d~88~ubuntu20.04.1) date 2021-04-15 15:02:38*
%MOMM*%
%LPD*%
G01*
G04 APERTURE LIST*
%ADD10C,0.300000*%
%ADD11C,0.120000*%
%ADD12C,0.150000*%
G04 APERTURE END LIST*
D10*
X34680857Y-98402857D02*
X34680857Y-99260000D01*
X34623714Y-99431428D01*
X34509428Y-99545714D01*
X34338000Y-99602857D01*
X34223714Y-99602857D01*
X35080857Y-98402857D02*
X35766571Y-98402857D01*
X35423714Y-99602857D02*
X35423714Y-98402857D01*
X36166571Y-99145714D02*
X37080857Y-99145714D01*
X37880857Y-98402857D02*
X37995142Y-98402857D01*
X38109428Y-98460000D01*
X38166571Y-98517142D01*
X38223714Y-98631428D01*
X38280857Y-98860000D01*
X38280857Y-99145714D01*
X38223714Y-99374285D01*
X38166571Y-99488571D01*
X38109428Y-99545714D01*
X37995142Y-99602857D01*
X37880857Y-99602857D01*
X37766571Y-99545714D01*
X37709428Y-99488571D01*
X37652285Y-99374285D01*
X37595142Y-99145714D01*
X37595142Y-98860000D01*
X37652285Y-98631428D01*
X37709428Y-98517142D01*
X37766571Y-98460000D01*
X37880857Y-98402857D01*
X39423714Y-99602857D02*
X38738000Y-99602857D01*
X39080857Y-99602857D02*
X39080857Y-98402857D01*
X38966571Y-98574285D01*
X38852285Y-98688571D01*
X38738000Y-98745714D01*
X39823714Y-99602857D02*
X40452285Y-98802857D01*
X39823714Y-98802857D02*
X40452285Y-99602857D01*
D11*
X49983000Y-94289000D02*
X56443000Y-94289000D01*
X49983000Y-89759000D02*
X49983000Y-92359000D01*
X49983000Y-87829000D02*
X56443000Y-87829000D01*
X56443000Y-89759000D02*
X56443000Y-92359000D01*
X49983000Y-87859000D02*
X49983000Y-87829000D01*
X49983000Y-94289000D02*
X49983000Y-94259000D01*
X56443000Y-94289000D02*
X56443000Y-94259000D01*
X56443000Y-87829000D02*
X56443000Y-87859000D01*
X39656936Y-92350000D02*
X40861064Y-92350000D01*
X39656936Y-90530000D02*
X40861064Y-90530000D01*
X61362000Y-90583936D02*
X61362000Y-91788064D01*
X59542000Y-90583936D02*
X59542000Y-91788064D01*
X55888000Y-82630000D02*
X55888000Y-86690000D01*
X58158000Y-82630000D02*
X55888000Y-82630000D01*
X58158000Y-86690000D02*
X58158000Y-82630000D01*
X54900000Y-84264000D02*
X54900000Y-84108000D01*
X54900000Y-86580000D02*
X54900000Y-86424000D01*
X51667665Y-86422608D02*
G75*
G03*
X54900000Y-86579516I1672335J1078608D01*
G01*
X51667665Y-84265392D02*
G75*
G02*
X54900000Y-84108484I1672335J-1078608D01*
G01*
X52298870Y-86423837D02*
G75*
G03*
X54380961Y-86424000I1041130J1079837D01*
G01*
X52298870Y-84264163D02*
G75*
G02*
X54380961Y-84264000I1041130J-1079837D01*
G01*
X58741000Y-82617000D02*
X60071000Y-82617000D01*
X58741000Y-83947000D02*
X58741000Y-82617000D01*
X58741000Y-85217000D02*
X61401000Y-85217000D01*
X61401000Y-85217000D02*
X61401000Y-87817000D01*
X58741000Y-85217000D02*
X58741000Y-87817000D01*
X58741000Y-87817000D02*
X61401000Y-87817000D01*
X45468000Y-95448000D02*
X45468000Y-96378000D01*
X45468000Y-98608000D02*
X45468000Y-97678000D01*
X45468000Y-98608000D02*
X47628000Y-98608000D01*
X45468000Y-95448000D02*
X46928000Y-95448000D01*
X39783936Y-94890000D02*
X40988064Y-94890000D01*
X39783936Y-93070000D02*
X40988064Y-93070000D01*
X56198936Y-96626000D02*
X57403064Y-96626000D01*
X56198936Y-98446000D02*
X57403064Y-98446000D01*
X50059000Y-85724064D02*
X50059000Y-84519936D01*
X48239000Y-85724064D02*
X48239000Y-84519936D01*
X45106000Y-92017436D02*
X45106000Y-93221564D01*
X43286000Y-92017436D02*
X43286000Y-93221564D01*
X46518000Y-89897000D02*
X40508000Y-89897000D01*
X44268000Y-83077000D02*
X40508000Y-83077000D01*
X40508000Y-89897000D02*
X40508000Y-88637000D01*
X40508000Y-83077000D02*
X40508000Y-84337000D01*
D12*
X51625666Y-90955761D02*
X51768523Y-91003380D01*
X52006619Y-91003380D01*
X52101857Y-90955761D01*
X52149476Y-90908142D01*
X52197095Y-90812904D01*
X52197095Y-90717666D01*
X52149476Y-90622428D01*
X52101857Y-90574809D01*
X52006619Y-90527190D01*
X51816142Y-90479571D01*
X51720904Y-90431952D01*
X51673285Y-90384333D01*
X51625666Y-90289095D01*
X51625666Y-90193857D01*
X51673285Y-90098619D01*
X51720904Y-90051000D01*
X51816142Y-90003380D01*
X52054238Y-90003380D01*
X52197095Y-90051000D01*
X52530428Y-90003380D02*
X52768523Y-91003380D01*
X52959000Y-90289095D01*
X53149476Y-91003380D01*
X53387571Y-90003380D01*
X54292333Y-91003380D02*
X53720904Y-91003380D01*
X54006619Y-91003380D02*
X54006619Y-90003380D01*
X53911380Y-90146238D01*
X53816142Y-90241476D01*
X53720904Y-90289095D01*
X39330333Y-89638142D02*
X39282714Y-89685761D01*
X39139857Y-89733380D01*
X39044619Y-89733380D01*
X38901761Y-89685761D01*
X38806523Y-89590523D01*
X38758904Y-89495285D01*
X38711285Y-89304809D01*
X38711285Y-89161952D01*
X38758904Y-88971476D01*
X38806523Y-88876238D01*
X38901761Y-88781000D01*
X39044619Y-88733380D01*
X39139857Y-88733380D01*
X39282714Y-88781000D01*
X39330333Y-88828619D01*
X40282714Y-89733380D02*
X39711285Y-89733380D01*
X39997000Y-89733380D02*
X39997000Y-88733380D01*
X39901761Y-88876238D01*
X39806523Y-88971476D01*
X39711285Y-89019095D01*
X62629142Y-91352666D02*
X62676761Y-91400285D01*
X62724380Y-91543142D01*
X62724380Y-91638380D01*
X62676761Y-91781238D01*
X62581523Y-91876476D01*
X62486285Y-91924095D01*
X62295809Y-91971714D01*
X62152952Y-91971714D01*
X61962476Y-91924095D01*
X61867238Y-91876476D01*
X61772000Y-91781238D01*
X61724380Y-91638380D01*
X61724380Y-91543142D01*
X61772000Y-91400285D01*
X61819619Y-91352666D01*
X61819619Y-90971714D02*
X61772000Y-90924095D01*
X61724380Y-90828857D01*
X61724380Y-90590761D01*
X61772000Y-90495523D01*
X61819619Y-90447904D01*
X61914857Y-90400285D01*
X62010095Y-90400285D01*
X62152952Y-90447904D01*
X62724380Y-91019333D01*
X62724380Y-90400285D01*
X59295380Y-85828095D02*
X58295380Y-85828095D01*
X58295380Y-85590000D01*
X58343000Y-85447142D01*
X58438238Y-85351904D01*
X58533476Y-85304285D01*
X58723952Y-85256666D01*
X58866809Y-85256666D01*
X59057285Y-85304285D01*
X59152523Y-85351904D01*
X59247761Y-85447142D01*
X59295380Y-85590000D01*
X59295380Y-85828095D01*
X59295380Y-84304285D02*
X59295380Y-84875714D01*
X59295380Y-84590000D02*
X58295380Y-84590000D01*
X58438238Y-84685238D01*
X58533476Y-84780476D01*
X58581095Y-84875714D01*
X52601904Y-84272380D02*
X52601904Y-83272380D01*
X52840000Y-83272380D01*
X52982857Y-83320000D01*
X53078095Y-83415238D01*
X53125714Y-83510476D01*
X53173333Y-83700952D01*
X53173333Y-83843809D01*
X53125714Y-84034285D01*
X53078095Y-84129523D01*
X52982857Y-84224761D01*
X52840000Y-84272380D01*
X52601904Y-84272380D01*
X53554285Y-83367619D02*
X53601904Y-83320000D01*
X53697142Y-83272380D01*
X53935238Y-83272380D01*
X54030476Y-83320000D01*
X54078095Y-83367619D01*
X54125714Y-83462857D01*
X54125714Y-83558095D01*
X54078095Y-83700952D01*
X53506666Y-84272380D01*
X54125714Y-84272380D01*
X62277666Y-82637380D02*
X62277666Y-83351666D01*
X62230047Y-83494523D01*
X62134809Y-83589761D01*
X61991952Y-83637380D01*
X61896714Y-83637380D01*
X62658619Y-82637380D02*
X63277666Y-82637380D01*
X62944333Y-83018333D01*
X63087190Y-83018333D01*
X63182428Y-83065952D01*
X63230047Y-83113571D01*
X63277666Y-83208809D01*
X63277666Y-83446904D01*
X63230047Y-83542142D01*
X63182428Y-83589761D01*
X63087190Y-83637380D01*
X62801476Y-83637380D01*
X62706238Y-83589761D01*
X62658619Y-83542142D01*
X46132761Y-100075619D02*
X46037523Y-100028000D01*
X45942285Y-99932761D01*
X45799428Y-99789904D01*
X45704190Y-99742285D01*
X45608952Y-99742285D01*
X45656571Y-99980380D02*
X45561333Y-99932761D01*
X45466095Y-99837523D01*
X45418476Y-99647047D01*
X45418476Y-99313714D01*
X45466095Y-99123238D01*
X45561333Y-99028000D01*
X45656571Y-98980380D01*
X45847047Y-98980380D01*
X45942285Y-99028000D01*
X46037523Y-99123238D01*
X46085142Y-99313714D01*
X46085142Y-99647047D01*
X46037523Y-99837523D01*
X45942285Y-99932761D01*
X45847047Y-99980380D01*
X45656571Y-99980380D01*
X46466095Y-99075619D02*
X46513714Y-99028000D01*
X46608952Y-98980380D01*
X46847047Y-98980380D01*
X46942285Y-99028000D01*
X46989904Y-99075619D01*
X47037523Y-99170857D01*
X47037523Y-99266095D01*
X46989904Y-99408952D01*
X46418476Y-99980380D01*
X47037523Y-99980380D01*
X38695333Y-96464380D02*
X38362000Y-95988190D01*
X38123904Y-96464380D02*
X38123904Y-95464380D01*
X38504857Y-95464380D01*
X38600095Y-95512000D01*
X38647714Y-95559619D01*
X38695333Y-95654857D01*
X38695333Y-95797714D01*
X38647714Y-95892952D01*
X38600095Y-95940571D01*
X38504857Y-95988190D01*
X38123904Y-95988190D01*
X39647714Y-96464380D02*
X39076285Y-96464380D01*
X39362000Y-96464380D02*
X39362000Y-95464380D01*
X39266761Y-95607238D01*
X39171523Y-95702476D01*
X39076285Y-95750095D01*
X56634333Y-96168380D02*
X56301000Y-95692190D01*
X56062904Y-96168380D02*
X56062904Y-95168380D01*
X56443857Y-95168380D01*
X56539095Y-95216000D01*
X56586714Y-95263619D01*
X56634333Y-95358857D01*
X56634333Y-95501714D01*
X56586714Y-95596952D01*
X56539095Y-95644571D01*
X56443857Y-95692190D01*
X56062904Y-95692190D01*
X57015285Y-95263619D02*
X57062904Y-95216000D01*
X57158142Y-95168380D01*
X57396238Y-95168380D01*
X57491476Y-95216000D01*
X57539095Y-95263619D01*
X57586714Y-95358857D01*
X57586714Y-95454095D01*
X57539095Y-95596952D01*
X56967666Y-96168380D01*
X57586714Y-96168380D01*
X47781380Y-85288666D02*
X47305190Y-85622000D01*
X47781380Y-85860095D02*
X46781380Y-85860095D01*
X46781380Y-85479142D01*
X46829000Y-85383904D01*
X46876619Y-85336285D01*
X46971857Y-85288666D01*
X47114714Y-85288666D01*
X47209952Y-85336285D01*
X47257571Y-85383904D01*
X47305190Y-85479142D01*
X47305190Y-85860095D01*
X46781380Y-84955333D02*
X46781380Y-84336285D01*
X47162333Y-84669619D01*
X47162333Y-84526761D01*
X47209952Y-84431523D01*
X47257571Y-84383904D01*
X47352809Y-84336285D01*
X47590904Y-84336285D01*
X47686142Y-84383904D01*
X47733761Y-84431523D01*
X47781380Y-84526761D01*
X47781380Y-84812476D01*
X47733761Y-84907714D01*
X47686142Y-84955333D01*
X46468380Y-92786166D02*
X45992190Y-93119500D01*
X46468380Y-93357595D02*
X45468380Y-93357595D01*
X45468380Y-92976642D01*
X45516000Y-92881404D01*
X45563619Y-92833785D01*
X45658857Y-92786166D01*
X45801714Y-92786166D01*
X45896952Y-92833785D01*
X45944571Y-92881404D01*
X45992190Y-92976642D01*
X45992190Y-93357595D01*
X45801714Y-91929023D02*
X46468380Y-91929023D01*
X45420761Y-92167119D02*
X46135047Y-92405214D01*
X46135047Y-91786166D01*
X41656095Y-90439380D02*
X41656095Y-91248904D01*
X41703714Y-91344142D01*
X41751333Y-91391761D01*
X41846571Y-91439380D01*
X42037047Y-91439380D01*
X42132285Y-91391761D01*
X42179904Y-91344142D01*
X42227523Y-91248904D01*
X42227523Y-90439380D01*
X43227523Y-91439380D02*
X42656095Y-91439380D01*
X42941809Y-91439380D02*
X42941809Y-90439380D01*
X42846571Y-90582238D01*
X42751333Y-90677476D01*
X42656095Y-90725095D01*
M02*
