G04 #@! TF.GenerationSoftware,KiCad,Pcbnew,5.1.6-c6e7f7d~86~ubuntu19.10.1*
G04 #@! TF.CreationDate,2021-03-24T15:38:50+01:00*
G04 #@! TF.ProjectId,Switch3V,53776974-6368-4335-962e-6b696361645f,rev?*
G04 #@! TF.SameCoordinates,Original*
G04 #@! TF.FileFunction,Soldermask,Bot*
G04 #@! TF.FilePolarity,Negative*
%FSLAX46Y46*%
G04 Gerber Fmt 4.6, Leading zero omitted, Abs format (unit mm)*
G04 Created by KiCad (PCBNEW 5.1.6-c6e7f7d~86~ubuntu19.10.1) date 2021-03-24 15:38:50*
%MOMM*%
%LPD*%
G01*
G04 APERTURE LIST*
%ADD10C,0.100000*%
G04 APERTURE END LIST*
D10*
G36*
X242181000Y-134866000D02*
G01*
X241181000Y-134866000D01*
X241181000Y-133866000D01*
X242181000Y-133866000D01*
X242181000Y-134866000D01*
G37*
G36*
X239286843Y-133885214D02*
G01*
X239286846Y-133885215D01*
X239286845Y-133885215D01*
X239377839Y-133922906D01*
X239412401Y-133946000D01*
X239459730Y-133977624D01*
X239529376Y-134047270D01*
X239584095Y-134129163D01*
X239621786Y-134220157D01*
X239641000Y-134316753D01*
X239641000Y-134415247D01*
X239621786Y-134511843D01*
X239621785Y-134511845D01*
X239584094Y-134602839D01*
X239529375Y-134684731D01*
X239459731Y-134754375D01*
X239377839Y-134809094D01*
X239377838Y-134809095D01*
X239377837Y-134809095D01*
X239286843Y-134846786D01*
X239190247Y-134866000D01*
X239091753Y-134866000D01*
X238995157Y-134846786D01*
X238904163Y-134809095D01*
X238904162Y-134809095D01*
X238904161Y-134809094D01*
X238822269Y-134754375D01*
X238752625Y-134684731D01*
X238697906Y-134602839D01*
X238660215Y-134511845D01*
X238660214Y-134511843D01*
X238641000Y-134415247D01*
X238641000Y-134316753D01*
X238660214Y-134220157D01*
X238697905Y-134129163D01*
X238752624Y-134047270D01*
X238822270Y-133977624D01*
X238869599Y-133946000D01*
X238904161Y-133922906D01*
X238995155Y-133885215D01*
X238995154Y-133885215D01*
X238995157Y-133885214D01*
X239091753Y-133866000D01*
X239190247Y-133866000D01*
X239286843Y-133885214D01*
G37*
G36*
X209923000Y-134866000D02*
G01*
X208923000Y-134866000D01*
X208923000Y-133866000D01*
X209923000Y-133866000D01*
X209923000Y-134866000D01*
G37*
G36*
X207028843Y-133885214D02*
G01*
X207028846Y-133885215D01*
X207028845Y-133885215D01*
X207119839Y-133922906D01*
X207154401Y-133946000D01*
X207201730Y-133977624D01*
X207271376Y-134047270D01*
X207326095Y-134129163D01*
X207363786Y-134220157D01*
X207383000Y-134316753D01*
X207383000Y-134415247D01*
X207363786Y-134511843D01*
X207363785Y-134511845D01*
X207326094Y-134602839D01*
X207271375Y-134684731D01*
X207201731Y-134754375D01*
X207119839Y-134809094D01*
X207119838Y-134809095D01*
X207119837Y-134809095D01*
X207028843Y-134846786D01*
X206932247Y-134866000D01*
X206833753Y-134866000D01*
X206737157Y-134846786D01*
X206646163Y-134809095D01*
X206646162Y-134809095D01*
X206646161Y-134809094D01*
X206564269Y-134754375D01*
X206494625Y-134684731D01*
X206439906Y-134602839D01*
X206402215Y-134511845D01*
X206402214Y-134511843D01*
X206383000Y-134415247D01*
X206383000Y-134316753D01*
X206402214Y-134220157D01*
X206439905Y-134129163D01*
X206494624Y-134047270D01*
X206564270Y-133977624D01*
X206611599Y-133946000D01*
X206646161Y-133922906D01*
X206737155Y-133885215D01*
X206737154Y-133885215D01*
X206737157Y-133885214D01*
X206833753Y-133866000D01*
X206932247Y-133866000D01*
X207028843Y-133885214D01*
G37*
G36*
X230974000Y-134200000D02*
G01*
X229274000Y-134200000D01*
X229274000Y-132500000D01*
X230974000Y-132500000D01*
X230974000Y-134200000D01*
G37*
G36*
X263232000Y-134200000D02*
G01*
X261532000Y-134200000D01*
X261532000Y-132500000D01*
X263232000Y-132500000D01*
X263232000Y-134200000D01*
G37*
G36*
X235546000Y-133946000D02*
G01*
X233846000Y-133946000D01*
X233846000Y-132246000D01*
X235546000Y-132246000D01*
X235546000Y-133946000D01*
G37*
G36*
X203288000Y-133946000D02*
G01*
X201588000Y-133946000D01*
X201588000Y-132246000D01*
X203288000Y-132246000D01*
X203288000Y-133946000D01*
G37*
G36*
X240556843Y-132615214D02*
G01*
X240556846Y-132615215D01*
X240556845Y-132615215D01*
X240647839Y-132652906D01*
X240689063Y-132680451D01*
X240729730Y-132707624D01*
X240799376Y-132777270D01*
X240854095Y-132859163D01*
X240891786Y-132950157D01*
X240911000Y-133046753D01*
X240911000Y-133145247D01*
X240891786Y-133241843D01*
X240891785Y-133241845D01*
X240854094Y-133332839D01*
X240799375Y-133414731D01*
X240729731Y-133484375D01*
X240647839Y-133539094D01*
X240647838Y-133539095D01*
X240647837Y-133539095D01*
X240556843Y-133576786D01*
X240460247Y-133596000D01*
X240361753Y-133596000D01*
X240265157Y-133576786D01*
X240174163Y-133539095D01*
X240174162Y-133539095D01*
X240174161Y-133539094D01*
X240092269Y-133484375D01*
X240022625Y-133414731D01*
X239967906Y-133332839D01*
X239930215Y-133241845D01*
X239930214Y-133241843D01*
X239911000Y-133145247D01*
X239911000Y-133046753D01*
X239930214Y-132950157D01*
X239967905Y-132859163D01*
X240022624Y-132777270D01*
X240092270Y-132707624D01*
X240132937Y-132680451D01*
X240174161Y-132652906D01*
X240265155Y-132615215D01*
X240265154Y-132615215D01*
X240265157Y-132615214D01*
X240361753Y-132596000D01*
X240460247Y-132596000D01*
X240556843Y-132615214D01*
G37*
G36*
X208298843Y-132615214D02*
G01*
X208298846Y-132615215D01*
X208298845Y-132615215D01*
X208389839Y-132652906D01*
X208431063Y-132680451D01*
X208471730Y-132707624D01*
X208541376Y-132777270D01*
X208596095Y-132859163D01*
X208633786Y-132950157D01*
X208653000Y-133046753D01*
X208653000Y-133145247D01*
X208633786Y-133241843D01*
X208633785Y-133241845D01*
X208596094Y-133332839D01*
X208541375Y-133414731D01*
X208471731Y-133484375D01*
X208389839Y-133539094D01*
X208389838Y-133539095D01*
X208389837Y-133539095D01*
X208298843Y-133576786D01*
X208202247Y-133596000D01*
X208103753Y-133596000D01*
X208007157Y-133576786D01*
X207916163Y-133539095D01*
X207916162Y-133539095D01*
X207916161Y-133539094D01*
X207834269Y-133484375D01*
X207764625Y-133414731D01*
X207709906Y-133332839D01*
X207672215Y-133241845D01*
X207672214Y-133241843D01*
X207653000Y-133145247D01*
X207653000Y-133046753D01*
X207672214Y-132950157D01*
X207709905Y-132859163D01*
X207764624Y-132777270D01*
X207834270Y-132707624D01*
X207874937Y-132680451D01*
X207916161Y-132652906D01*
X208007155Y-132615215D01*
X208007154Y-132615215D01*
X208007157Y-132615214D01*
X208103753Y-132596000D01*
X208202247Y-132596000D01*
X208298843Y-132615214D01*
G37*
G36*
X230371935Y-129992664D02*
G01*
X230526624Y-130056739D01*
X230526626Y-130056740D01*
X230665844Y-130149762D01*
X230784238Y-130268156D01*
X230810904Y-130308065D01*
X230877261Y-130407376D01*
X230941336Y-130562065D01*
X230974000Y-130726281D01*
X230974000Y-130893719D01*
X230941336Y-131057935D01*
X230877261Y-131212624D01*
X230877260Y-131212626D01*
X230784238Y-131351844D01*
X230665844Y-131470238D01*
X230526626Y-131563260D01*
X230526625Y-131563261D01*
X230526624Y-131563261D01*
X230371935Y-131627336D01*
X230207719Y-131660000D01*
X230040281Y-131660000D01*
X229876065Y-131627336D01*
X229721376Y-131563261D01*
X229721375Y-131563261D01*
X229721374Y-131563260D01*
X229582156Y-131470238D01*
X229463762Y-131351844D01*
X229370740Y-131212626D01*
X229370739Y-131212624D01*
X229306664Y-131057935D01*
X229274000Y-130893719D01*
X229274000Y-130726281D01*
X229306664Y-130562065D01*
X229370739Y-130407376D01*
X229437096Y-130308065D01*
X229463762Y-130268156D01*
X229582156Y-130149762D01*
X229721374Y-130056740D01*
X229721376Y-130056739D01*
X229876065Y-129992664D01*
X230040281Y-129960000D01*
X230207719Y-129960000D01*
X230371935Y-129992664D01*
G37*
G36*
X262629935Y-129992664D02*
G01*
X262784624Y-130056739D01*
X262784626Y-130056740D01*
X262923844Y-130149762D01*
X263042238Y-130268156D01*
X263068904Y-130308065D01*
X263135261Y-130407376D01*
X263199336Y-130562065D01*
X263232000Y-130726281D01*
X263232000Y-130893719D01*
X263199336Y-131057935D01*
X263135261Y-131212624D01*
X263135260Y-131212626D01*
X263042238Y-131351844D01*
X262923844Y-131470238D01*
X262784626Y-131563260D01*
X262784625Y-131563261D01*
X262784624Y-131563261D01*
X262629935Y-131627336D01*
X262465719Y-131660000D01*
X262298281Y-131660000D01*
X262134065Y-131627336D01*
X261979376Y-131563261D01*
X261979375Y-131563261D01*
X261979374Y-131563260D01*
X261840156Y-131470238D01*
X261721762Y-131351844D01*
X261628740Y-131212626D01*
X261628739Y-131212624D01*
X261564664Y-131057935D01*
X261532000Y-130893719D01*
X261532000Y-130726281D01*
X261564664Y-130562065D01*
X261628739Y-130407376D01*
X261695096Y-130308065D01*
X261721762Y-130268156D01*
X261840156Y-130149762D01*
X261979374Y-130056740D01*
X261979376Y-130056739D01*
X262134065Y-129992664D01*
X262298281Y-129960000D01*
X262465719Y-129960000D01*
X262629935Y-129992664D01*
G37*
G36*
X202685935Y-129738664D02*
G01*
X202840624Y-129802739D01*
X202840626Y-129802740D01*
X202979844Y-129895762D01*
X203098238Y-130014156D01*
X203191260Y-130153374D01*
X203191261Y-130153376D01*
X203255336Y-130308065D01*
X203288000Y-130472281D01*
X203288000Y-130639719D01*
X203255336Y-130803935D01*
X203191261Y-130958624D01*
X203191260Y-130958626D01*
X203098238Y-131097844D01*
X202979844Y-131216238D01*
X202840626Y-131309260D01*
X202840625Y-131309261D01*
X202840624Y-131309261D01*
X202685935Y-131373336D01*
X202521719Y-131406000D01*
X202354281Y-131406000D01*
X202190065Y-131373336D01*
X202035376Y-131309261D01*
X202035375Y-131309261D01*
X202035374Y-131309260D01*
X201896156Y-131216238D01*
X201777762Y-131097844D01*
X201684740Y-130958626D01*
X201684739Y-130958624D01*
X201620664Y-130803935D01*
X201588000Y-130639719D01*
X201588000Y-130472281D01*
X201620664Y-130308065D01*
X201684739Y-130153376D01*
X201684740Y-130153374D01*
X201777762Y-130014156D01*
X201896156Y-129895762D01*
X202035374Y-129802740D01*
X202035376Y-129802739D01*
X202190065Y-129738664D01*
X202354281Y-129706000D01*
X202521719Y-129706000D01*
X202685935Y-129738664D01*
G37*
G36*
X234943935Y-129738664D02*
G01*
X235098624Y-129802739D01*
X235098626Y-129802740D01*
X235237844Y-129895762D01*
X235356238Y-130014156D01*
X235449260Y-130153374D01*
X235449261Y-130153376D01*
X235513336Y-130308065D01*
X235546000Y-130472281D01*
X235546000Y-130639719D01*
X235513336Y-130803935D01*
X235449261Y-130958624D01*
X235449260Y-130958626D01*
X235356238Y-131097844D01*
X235237844Y-131216238D01*
X235098626Y-131309260D01*
X235098625Y-131309261D01*
X235098624Y-131309261D01*
X234943935Y-131373336D01*
X234779719Y-131406000D01*
X234612281Y-131406000D01*
X234448065Y-131373336D01*
X234293376Y-131309261D01*
X234293375Y-131309261D01*
X234293374Y-131309260D01*
X234154156Y-131216238D01*
X234035762Y-131097844D01*
X233942740Y-130958626D01*
X233942739Y-130958624D01*
X233878664Y-130803935D01*
X233846000Y-130639719D01*
X233846000Y-130472281D01*
X233878664Y-130308065D01*
X233942739Y-130153376D01*
X233942740Y-130153374D01*
X234035762Y-130014156D01*
X234154156Y-129895762D01*
X234293374Y-129802740D01*
X234293376Y-129802739D01*
X234448065Y-129738664D01*
X234612281Y-129706000D01*
X234779719Y-129706000D01*
X234943935Y-129738664D01*
G37*
G36*
X230371935Y-127452664D02*
G01*
X230526624Y-127516739D01*
X230526626Y-127516740D01*
X230665844Y-127609762D01*
X230784238Y-127728156D01*
X230810904Y-127768065D01*
X230877261Y-127867376D01*
X230941336Y-128022065D01*
X230974000Y-128186281D01*
X230974000Y-128353719D01*
X230941336Y-128517935D01*
X230877261Y-128672624D01*
X230877260Y-128672626D01*
X230784238Y-128811844D01*
X230665844Y-128930238D01*
X230526626Y-129023260D01*
X230526625Y-129023261D01*
X230526624Y-129023261D01*
X230371935Y-129087336D01*
X230207719Y-129120000D01*
X230040281Y-129120000D01*
X229876065Y-129087336D01*
X229721376Y-129023261D01*
X229721375Y-129023261D01*
X229721374Y-129023260D01*
X229582156Y-128930238D01*
X229463762Y-128811844D01*
X229370740Y-128672626D01*
X229370739Y-128672624D01*
X229306664Y-128517935D01*
X229274000Y-128353719D01*
X229274000Y-128186281D01*
X229306664Y-128022065D01*
X229370739Y-127867376D01*
X229437096Y-127768065D01*
X229463762Y-127728156D01*
X229582156Y-127609762D01*
X229721374Y-127516740D01*
X229721376Y-127516739D01*
X229876065Y-127452664D01*
X230040281Y-127420000D01*
X230207719Y-127420000D01*
X230371935Y-127452664D01*
G37*
G36*
X262629935Y-127452664D02*
G01*
X262784624Y-127516739D01*
X262784626Y-127516740D01*
X262923844Y-127609762D01*
X263042238Y-127728156D01*
X263068904Y-127768065D01*
X263135261Y-127867376D01*
X263199336Y-128022065D01*
X263232000Y-128186281D01*
X263232000Y-128353719D01*
X263199336Y-128517935D01*
X263135261Y-128672624D01*
X263135260Y-128672626D01*
X263042238Y-128811844D01*
X262923844Y-128930238D01*
X262784626Y-129023260D01*
X262784625Y-129023261D01*
X262784624Y-129023261D01*
X262629935Y-129087336D01*
X262465719Y-129120000D01*
X262298281Y-129120000D01*
X262134065Y-129087336D01*
X261979376Y-129023261D01*
X261979375Y-129023261D01*
X261979374Y-129023260D01*
X261840156Y-128930238D01*
X261721762Y-128811844D01*
X261628740Y-128672626D01*
X261628739Y-128672624D01*
X261564664Y-128517935D01*
X261532000Y-128353719D01*
X261532000Y-128186281D01*
X261564664Y-128022065D01*
X261628739Y-127867376D01*
X261695096Y-127768065D01*
X261721762Y-127728156D01*
X261840156Y-127609762D01*
X261979374Y-127516740D01*
X261979376Y-127516739D01*
X262134065Y-127452664D01*
X262298281Y-127420000D01*
X262465719Y-127420000D01*
X262629935Y-127452664D01*
G37*
G36*
X202685935Y-127198664D02*
G01*
X202840624Y-127262739D01*
X202840626Y-127262740D01*
X202979844Y-127355762D01*
X203098238Y-127474156D01*
X203191260Y-127613374D01*
X203191261Y-127613376D01*
X203255336Y-127768065D01*
X203288000Y-127932281D01*
X203288000Y-128099719D01*
X203255336Y-128263935D01*
X203191261Y-128418624D01*
X203191260Y-128418626D01*
X203098238Y-128557844D01*
X202979844Y-128676238D01*
X202840626Y-128769260D01*
X202840625Y-128769261D01*
X202840624Y-128769261D01*
X202685935Y-128833336D01*
X202521719Y-128866000D01*
X202354281Y-128866000D01*
X202190065Y-128833336D01*
X202035376Y-128769261D01*
X202035375Y-128769261D01*
X202035374Y-128769260D01*
X201896156Y-128676238D01*
X201777762Y-128557844D01*
X201684740Y-128418626D01*
X201684739Y-128418624D01*
X201620664Y-128263935D01*
X201588000Y-128099719D01*
X201588000Y-127932281D01*
X201620664Y-127768065D01*
X201684739Y-127613376D01*
X201684740Y-127613374D01*
X201777762Y-127474156D01*
X201896156Y-127355762D01*
X202035374Y-127262740D01*
X202035376Y-127262739D01*
X202190065Y-127198664D01*
X202354281Y-127166000D01*
X202521719Y-127166000D01*
X202685935Y-127198664D01*
G37*
G36*
X234943935Y-127198664D02*
G01*
X235098624Y-127262739D01*
X235098626Y-127262740D01*
X235237844Y-127355762D01*
X235356238Y-127474156D01*
X235449260Y-127613374D01*
X235449261Y-127613376D01*
X235513336Y-127768065D01*
X235546000Y-127932281D01*
X235546000Y-128099719D01*
X235513336Y-128263935D01*
X235449261Y-128418624D01*
X235449260Y-128418626D01*
X235356238Y-128557844D01*
X235237844Y-128676238D01*
X235098626Y-128769260D01*
X235098625Y-128769261D01*
X235098624Y-128769261D01*
X234943935Y-128833336D01*
X234779719Y-128866000D01*
X234612281Y-128866000D01*
X234448065Y-128833336D01*
X234293376Y-128769261D01*
X234293375Y-128769261D01*
X234293374Y-128769260D01*
X234154156Y-128676238D01*
X234035762Y-128557844D01*
X233942740Y-128418626D01*
X233942739Y-128418624D01*
X233878664Y-128263935D01*
X233846000Y-128099719D01*
X233846000Y-127932281D01*
X233878664Y-127768065D01*
X233942739Y-127613376D01*
X233942740Y-127613374D01*
X234035762Y-127474156D01*
X234154156Y-127355762D01*
X234293374Y-127262740D01*
X234293376Y-127262739D01*
X234448065Y-127198664D01*
X234612281Y-127166000D01*
X234779719Y-127166000D01*
X234943935Y-127198664D01*
G37*
G36*
X262629935Y-124912664D02*
G01*
X262784624Y-124976739D01*
X262784626Y-124976740D01*
X262923844Y-125069762D01*
X263042238Y-125188156D01*
X263068904Y-125228065D01*
X263135261Y-125327376D01*
X263199336Y-125482065D01*
X263232000Y-125646281D01*
X263232000Y-125813719D01*
X263199336Y-125977935D01*
X263135261Y-126132624D01*
X263135260Y-126132626D01*
X263042238Y-126271844D01*
X262923844Y-126390238D01*
X262784626Y-126483260D01*
X262784625Y-126483261D01*
X262784624Y-126483261D01*
X262629935Y-126547336D01*
X262465719Y-126580000D01*
X262298281Y-126580000D01*
X262134065Y-126547336D01*
X261979376Y-126483261D01*
X261979375Y-126483261D01*
X261979374Y-126483260D01*
X261840156Y-126390238D01*
X261721762Y-126271844D01*
X261628740Y-126132626D01*
X261628739Y-126132624D01*
X261564664Y-125977935D01*
X261532000Y-125813719D01*
X261532000Y-125646281D01*
X261564664Y-125482065D01*
X261628739Y-125327376D01*
X261695096Y-125228065D01*
X261721762Y-125188156D01*
X261840156Y-125069762D01*
X261979374Y-124976740D01*
X261979376Y-124976739D01*
X262134065Y-124912664D01*
X262298281Y-124880000D01*
X262465719Y-124880000D01*
X262629935Y-124912664D01*
G37*
G36*
X230371935Y-124912664D02*
G01*
X230526624Y-124976739D01*
X230526626Y-124976740D01*
X230665844Y-125069762D01*
X230784238Y-125188156D01*
X230810904Y-125228065D01*
X230877261Y-125327376D01*
X230941336Y-125482065D01*
X230974000Y-125646281D01*
X230974000Y-125813719D01*
X230941336Y-125977935D01*
X230877261Y-126132624D01*
X230877260Y-126132626D01*
X230784238Y-126271844D01*
X230665844Y-126390238D01*
X230526626Y-126483260D01*
X230526625Y-126483261D01*
X230526624Y-126483261D01*
X230371935Y-126547336D01*
X230207719Y-126580000D01*
X230040281Y-126580000D01*
X229876065Y-126547336D01*
X229721376Y-126483261D01*
X229721375Y-126483261D01*
X229721374Y-126483260D01*
X229582156Y-126390238D01*
X229463762Y-126271844D01*
X229370740Y-126132626D01*
X229370739Y-126132624D01*
X229306664Y-125977935D01*
X229274000Y-125813719D01*
X229274000Y-125646281D01*
X229306664Y-125482065D01*
X229370739Y-125327376D01*
X229437096Y-125228065D01*
X229463762Y-125188156D01*
X229582156Y-125069762D01*
X229721374Y-124976740D01*
X229721376Y-124976739D01*
X229876065Y-124912664D01*
X230040281Y-124880000D01*
X230207719Y-124880000D01*
X230371935Y-124912664D01*
G37*
G36*
X234943935Y-124658664D02*
G01*
X235098624Y-124722739D01*
X235098626Y-124722740D01*
X235237844Y-124815762D01*
X235356238Y-124934156D01*
X235449260Y-125073374D01*
X235449261Y-125073376D01*
X235513336Y-125228065D01*
X235546000Y-125392281D01*
X235546000Y-125559719D01*
X235513336Y-125723935D01*
X235449261Y-125878624D01*
X235449260Y-125878626D01*
X235356238Y-126017844D01*
X235237844Y-126136238D01*
X235098626Y-126229260D01*
X235098625Y-126229261D01*
X235098624Y-126229261D01*
X234943935Y-126293336D01*
X234779719Y-126326000D01*
X234612281Y-126326000D01*
X234448065Y-126293336D01*
X234293376Y-126229261D01*
X234293375Y-126229261D01*
X234293374Y-126229260D01*
X234154156Y-126136238D01*
X234035762Y-126017844D01*
X233942740Y-125878626D01*
X233942739Y-125878624D01*
X233878664Y-125723935D01*
X233846000Y-125559719D01*
X233846000Y-125392281D01*
X233878664Y-125228065D01*
X233942739Y-125073376D01*
X233942740Y-125073374D01*
X234035762Y-124934156D01*
X234154156Y-124815762D01*
X234293374Y-124722740D01*
X234293376Y-124722739D01*
X234448065Y-124658664D01*
X234612281Y-124626000D01*
X234779719Y-124626000D01*
X234943935Y-124658664D01*
G37*
G36*
X202685935Y-124658664D02*
G01*
X202840624Y-124722739D01*
X202840626Y-124722740D01*
X202979844Y-124815762D01*
X203098238Y-124934156D01*
X203191260Y-125073374D01*
X203191261Y-125073376D01*
X203255336Y-125228065D01*
X203288000Y-125392281D01*
X203288000Y-125559719D01*
X203255336Y-125723935D01*
X203191261Y-125878624D01*
X203191260Y-125878626D01*
X203098238Y-126017844D01*
X202979844Y-126136238D01*
X202840626Y-126229260D01*
X202840625Y-126229261D01*
X202840624Y-126229261D01*
X202685935Y-126293336D01*
X202521719Y-126326000D01*
X202354281Y-126326000D01*
X202190065Y-126293336D01*
X202035376Y-126229261D01*
X202035375Y-126229261D01*
X202035374Y-126229260D01*
X201896156Y-126136238D01*
X201777762Y-126017844D01*
X201684740Y-125878626D01*
X201684739Y-125878624D01*
X201620664Y-125723935D01*
X201588000Y-125559719D01*
X201588000Y-125392281D01*
X201620664Y-125228065D01*
X201684739Y-125073376D01*
X201684740Y-125073374D01*
X201777762Y-124934156D01*
X201896156Y-124815762D01*
X202035374Y-124722740D01*
X202035376Y-124722739D01*
X202190065Y-124658664D01*
X202354281Y-124626000D01*
X202521719Y-124626000D01*
X202685935Y-124658664D01*
G37*
G36*
X262629935Y-122372664D02*
G01*
X262778166Y-122434064D01*
X262784626Y-122436740D01*
X262923844Y-122529762D01*
X263042238Y-122648156D01*
X263133950Y-122785414D01*
X263135261Y-122787376D01*
X263199336Y-122942065D01*
X263232000Y-123106281D01*
X263232000Y-123273719D01*
X263199336Y-123437935D01*
X263135261Y-123592624D01*
X263135260Y-123592626D01*
X263042238Y-123731844D01*
X262923844Y-123850238D01*
X262784626Y-123943260D01*
X262784625Y-123943261D01*
X262784624Y-123943261D01*
X262629935Y-124007336D01*
X262465719Y-124040000D01*
X262298281Y-124040000D01*
X262134065Y-124007336D01*
X261979376Y-123943261D01*
X261979375Y-123943261D01*
X261979374Y-123943260D01*
X261840156Y-123850238D01*
X261721762Y-123731844D01*
X261628740Y-123592626D01*
X261628739Y-123592624D01*
X261564664Y-123437935D01*
X261532000Y-123273719D01*
X261532000Y-123106281D01*
X261564664Y-122942065D01*
X261628739Y-122787376D01*
X261630050Y-122785414D01*
X261721762Y-122648156D01*
X261840156Y-122529762D01*
X261979374Y-122436740D01*
X261985834Y-122434064D01*
X262134065Y-122372664D01*
X262298281Y-122340000D01*
X262465719Y-122340000D01*
X262629935Y-122372664D01*
G37*
G36*
X230371935Y-122372664D02*
G01*
X230520166Y-122434064D01*
X230526626Y-122436740D01*
X230665844Y-122529762D01*
X230784238Y-122648156D01*
X230875950Y-122785414D01*
X230877261Y-122787376D01*
X230941336Y-122942065D01*
X230974000Y-123106281D01*
X230974000Y-123273719D01*
X230941336Y-123437935D01*
X230877261Y-123592624D01*
X230877260Y-123592626D01*
X230784238Y-123731844D01*
X230665844Y-123850238D01*
X230526626Y-123943260D01*
X230526625Y-123943261D01*
X230526624Y-123943261D01*
X230371935Y-124007336D01*
X230207719Y-124040000D01*
X230040281Y-124040000D01*
X229876065Y-124007336D01*
X229721376Y-123943261D01*
X229721375Y-123943261D01*
X229721374Y-123943260D01*
X229582156Y-123850238D01*
X229463762Y-123731844D01*
X229370740Y-123592626D01*
X229370739Y-123592624D01*
X229306664Y-123437935D01*
X229274000Y-123273719D01*
X229274000Y-123106281D01*
X229306664Y-122942065D01*
X229370739Y-122787376D01*
X229372050Y-122785414D01*
X229463762Y-122648156D01*
X229582156Y-122529762D01*
X229721374Y-122436740D01*
X229727834Y-122434064D01*
X229876065Y-122372664D01*
X230040281Y-122340000D01*
X230207719Y-122340000D01*
X230371935Y-122372664D01*
G37*
G36*
X202685935Y-122118664D02*
G01*
X202840095Y-122182520D01*
X202840626Y-122182740D01*
X202979844Y-122275762D01*
X203098238Y-122394156D01*
X203191260Y-122533374D01*
X203191261Y-122533376D01*
X203255336Y-122688065D01*
X203288000Y-122852281D01*
X203288000Y-123019719D01*
X203255336Y-123183935D01*
X203191261Y-123338624D01*
X203191260Y-123338626D01*
X203098238Y-123477844D01*
X202979844Y-123596238D01*
X202840626Y-123689260D01*
X202840625Y-123689261D01*
X202840624Y-123689261D01*
X202685935Y-123753336D01*
X202521719Y-123786000D01*
X202354281Y-123786000D01*
X202190065Y-123753336D01*
X202035376Y-123689261D01*
X202035375Y-123689261D01*
X202035374Y-123689260D01*
X201896156Y-123596238D01*
X201777762Y-123477844D01*
X201684740Y-123338626D01*
X201684739Y-123338624D01*
X201620664Y-123183935D01*
X201588000Y-123019719D01*
X201588000Y-122852281D01*
X201620664Y-122688065D01*
X201684739Y-122533376D01*
X201684740Y-122533374D01*
X201777762Y-122394156D01*
X201896156Y-122275762D01*
X202035374Y-122182740D01*
X202035905Y-122182520D01*
X202190065Y-122118664D01*
X202354281Y-122086000D01*
X202521719Y-122086000D01*
X202685935Y-122118664D01*
G37*
G36*
X234943935Y-122118664D02*
G01*
X235098095Y-122182520D01*
X235098626Y-122182740D01*
X235237844Y-122275762D01*
X235356238Y-122394156D01*
X235449260Y-122533374D01*
X235449261Y-122533376D01*
X235513336Y-122688065D01*
X235546000Y-122852281D01*
X235546000Y-123019719D01*
X235513336Y-123183935D01*
X235449261Y-123338624D01*
X235449260Y-123338626D01*
X235356238Y-123477844D01*
X235237844Y-123596238D01*
X235098626Y-123689260D01*
X235098625Y-123689261D01*
X235098624Y-123689261D01*
X234943935Y-123753336D01*
X234779719Y-123786000D01*
X234612281Y-123786000D01*
X234448065Y-123753336D01*
X234293376Y-123689261D01*
X234293375Y-123689261D01*
X234293374Y-123689260D01*
X234154156Y-123596238D01*
X234035762Y-123477844D01*
X233942740Y-123338626D01*
X233942739Y-123338624D01*
X233878664Y-123183935D01*
X233846000Y-123019719D01*
X233846000Y-122852281D01*
X233878664Y-122688065D01*
X233942739Y-122533376D01*
X233942740Y-122533374D01*
X234035762Y-122394156D01*
X234154156Y-122275762D01*
X234293374Y-122182740D01*
X234293905Y-122182520D01*
X234448065Y-122118664D01*
X234612281Y-122086000D01*
X234779719Y-122086000D01*
X234943935Y-122118664D01*
G37*
G36*
X226561935Y-121864664D02*
G01*
X226716624Y-121928739D01*
X226716626Y-121928740D01*
X226855844Y-122021762D01*
X226974238Y-122140156D01*
X227067260Y-122279374D01*
X227067261Y-122279376D01*
X227131336Y-122434065D01*
X227164000Y-122598281D01*
X227164000Y-122765719D01*
X227131336Y-122929935D01*
X227067261Y-123084624D01*
X227067260Y-123084626D01*
X226974238Y-123223844D01*
X226855844Y-123342238D01*
X226716626Y-123435260D01*
X226716625Y-123435261D01*
X226716624Y-123435261D01*
X226561935Y-123499336D01*
X226397719Y-123532000D01*
X226230281Y-123532000D01*
X226066065Y-123499336D01*
X225911376Y-123435261D01*
X225911375Y-123435261D01*
X225911374Y-123435260D01*
X225772156Y-123342238D01*
X225653762Y-123223844D01*
X225560740Y-123084626D01*
X225560739Y-123084624D01*
X225496664Y-122929935D01*
X225464000Y-122765719D01*
X225464000Y-122598281D01*
X225496664Y-122434065D01*
X225560739Y-122279376D01*
X225560740Y-122279374D01*
X225653762Y-122140156D01*
X225772156Y-122021762D01*
X225911374Y-121928740D01*
X225911376Y-121928739D01*
X226066065Y-121864664D01*
X226230281Y-121832000D01*
X226397719Y-121832000D01*
X226561935Y-121864664D01*
G37*
G36*
X258819935Y-121864664D02*
G01*
X258974624Y-121928739D01*
X258974626Y-121928740D01*
X259113844Y-122021762D01*
X259232238Y-122140156D01*
X259325260Y-122279374D01*
X259325261Y-122279376D01*
X259389336Y-122434065D01*
X259422000Y-122598281D01*
X259422000Y-122765719D01*
X259389336Y-122929935D01*
X259325261Y-123084624D01*
X259325260Y-123084626D01*
X259232238Y-123223844D01*
X259113844Y-123342238D01*
X258974626Y-123435260D01*
X258974625Y-123435261D01*
X258974624Y-123435261D01*
X258819935Y-123499336D01*
X258655719Y-123532000D01*
X258488281Y-123532000D01*
X258324065Y-123499336D01*
X258169376Y-123435261D01*
X258169375Y-123435261D01*
X258169374Y-123435260D01*
X258030156Y-123342238D01*
X257911762Y-123223844D01*
X257818740Y-123084626D01*
X257818739Y-123084624D01*
X257754664Y-122929935D01*
X257722000Y-122765719D01*
X257722000Y-122598281D01*
X257754664Y-122434065D01*
X257818739Y-122279376D01*
X257818740Y-122279374D01*
X257911762Y-122140156D01*
X258030156Y-122021762D01*
X258169374Y-121928740D01*
X258169376Y-121928739D01*
X258324065Y-121864664D01*
X258488281Y-121832000D01*
X258655719Y-121832000D01*
X258819935Y-121864664D01*
G37*
G36*
X218956520Y-121054586D02*
G01*
X219120310Y-121122430D01*
X219267717Y-121220924D01*
X219393076Y-121346283D01*
X219491570Y-121493690D01*
X219491571Y-121493692D01*
X219559414Y-121657480D01*
X219594000Y-121831356D01*
X219594000Y-122008644D01*
X219559414Y-122182520D01*
X219491570Y-122346310D01*
X219393076Y-122493717D01*
X219267717Y-122619076D01*
X219120310Y-122717570D01*
X219120309Y-122717571D01*
X219120308Y-122717571D01*
X218956520Y-122785414D01*
X218782644Y-122820000D01*
X218605356Y-122820000D01*
X218431480Y-122785414D01*
X218267692Y-122717571D01*
X218267691Y-122717571D01*
X218267690Y-122717570D01*
X218120283Y-122619076D01*
X217994924Y-122493717D01*
X217896430Y-122346310D01*
X217828586Y-122182520D01*
X217794000Y-122008644D01*
X217794000Y-121831356D01*
X217828586Y-121657480D01*
X217896429Y-121493692D01*
X217896430Y-121493690D01*
X217994924Y-121346283D01*
X218120283Y-121220924D01*
X218267690Y-121122430D01*
X218431480Y-121054586D01*
X218605356Y-121020000D01*
X218782644Y-121020000D01*
X218956520Y-121054586D01*
G37*
G36*
X222134000Y-122820000D02*
G01*
X220334000Y-122820000D01*
X220334000Y-121020000D01*
X222134000Y-121020000D01*
X222134000Y-122820000D01*
G37*
G36*
X251214520Y-121054586D02*
G01*
X251378310Y-121122430D01*
X251525717Y-121220924D01*
X251651076Y-121346283D01*
X251749570Y-121493690D01*
X251749571Y-121493692D01*
X251817414Y-121657480D01*
X251852000Y-121831356D01*
X251852000Y-122008644D01*
X251817414Y-122182520D01*
X251749570Y-122346310D01*
X251651076Y-122493717D01*
X251525717Y-122619076D01*
X251378310Y-122717570D01*
X251378309Y-122717571D01*
X251378308Y-122717571D01*
X251214520Y-122785414D01*
X251040644Y-122820000D01*
X250863356Y-122820000D01*
X250689480Y-122785414D01*
X250525692Y-122717571D01*
X250525691Y-122717571D01*
X250525690Y-122717570D01*
X250378283Y-122619076D01*
X250252924Y-122493717D01*
X250154430Y-122346310D01*
X250086586Y-122182520D01*
X250052000Y-122008644D01*
X250052000Y-121831356D01*
X250086586Y-121657480D01*
X250154429Y-121493692D01*
X250154430Y-121493690D01*
X250252924Y-121346283D01*
X250378283Y-121220924D01*
X250525690Y-121122430D01*
X250689480Y-121054586D01*
X250863356Y-121020000D01*
X251040644Y-121020000D01*
X251214520Y-121054586D01*
G37*
G36*
X254392000Y-122820000D02*
G01*
X252592000Y-122820000D01*
X252592000Y-121020000D01*
X254392000Y-121020000D01*
X254392000Y-122820000D01*
G37*
G36*
X259422000Y-120992000D02*
G01*
X257722000Y-120992000D01*
X257722000Y-119292000D01*
X259422000Y-119292000D01*
X259422000Y-120992000D01*
G37*
G36*
X227164000Y-120992000D02*
G01*
X225464000Y-120992000D01*
X225464000Y-119292000D01*
X227164000Y-119292000D01*
X227164000Y-120992000D01*
G37*
G36*
X207028843Y-115343214D02*
G01*
X207028846Y-115343215D01*
X207028845Y-115343215D01*
X207119839Y-115380906D01*
X207154401Y-115404000D01*
X207201730Y-115435624D01*
X207271376Y-115505270D01*
X207326095Y-115587163D01*
X207363786Y-115678157D01*
X207383000Y-115774753D01*
X207383000Y-115873247D01*
X207363786Y-115969843D01*
X207363785Y-115969845D01*
X207326094Y-116060839D01*
X207271375Y-116142731D01*
X207201731Y-116212375D01*
X207119839Y-116267094D01*
X207119838Y-116267095D01*
X207119837Y-116267095D01*
X207028843Y-116304786D01*
X206932247Y-116324000D01*
X206833753Y-116324000D01*
X206737157Y-116304786D01*
X206646163Y-116267095D01*
X206646162Y-116267095D01*
X206646161Y-116267094D01*
X206564269Y-116212375D01*
X206494625Y-116142731D01*
X206439906Y-116060839D01*
X206402215Y-115969845D01*
X206402214Y-115969843D01*
X206383000Y-115873247D01*
X206383000Y-115774753D01*
X206402214Y-115678157D01*
X206439905Y-115587163D01*
X206494624Y-115505270D01*
X206564270Y-115435624D01*
X206611599Y-115404000D01*
X206646161Y-115380906D01*
X206737155Y-115343215D01*
X206737154Y-115343215D01*
X206737157Y-115343214D01*
X206833753Y-115324000D01*
X206932247Y-115324000D01*
X207028843Y-115343214D01*
G37*
G36*
X242181000Y-116324000D02*
G01*
X241181000Y-116324000D01*
X241181000Y-115324000D01*
X242181000Y-115324000D01*
X242181000Y-116324000D01*
G37*
G36*
X239286843Y-115343214D02*
G01*
X239286846Y-115343215D01*
X239286845Y-115343215D01*
X239377839Y-115380906D01*
X239412401Y-115404000D01*
X239459730Y-115435624D01*
X239529376Y-115505270D01*
X239584095Y-115587163D01*
X239621786Y-115678157D01*
X239641000Y-115774753D01*
X239641000Y-115873247D01*
X239621786Y-115969843D01*
X239621785Y-115969845D01*
X239584094Y-116060839D01*
X239529375Y-116142731D01*
X239459731Y-116212375D01*
X239377839Y-116267094D01*
X239377838Y-116267095D01*
X239377837Y-116267095D01*
X239286843Y-116304786D01*
X239190247Y-116324000D01*
X239091753Y-116324000D01*
X238995157Y-116304786D01*
X238904163Y-116267095D01*
X238904162Y-116267095D01*
X238904161Y-116267094D01*
X238822269Y-116212375D01*
X238752625Y-116142731D01*
X238697906Y-116060839D01*
X238660215Y-115969845D01*
X238660214Y-115969843D01*
X238641000Y-115873247D01*
X238641000Y-115774753D01*
X238660214Y-115678157D01*
X238697905Y-115587163D01*
X238752624Y-115505270D01*
X238822270Y-115435624D01*
X238869599Y-115404000D01*
X238904161Y-115380906D01*
X238995155Y-115343215D01*
X238995154Y-115343215D01*
X238995157Y-115343214D01*
X239091753Y-115324000D01*
X239190247Y-115324000D01*
X239286843Y-115343214D01*
G37*
G36*
X209923000Y-116324000D02*
G01*
X208923000Y-116324000D01*
X208923000Y-115324000D01*
X209923000Y-115324000D01*
X209923000Y-116324000D01*
G37*
G36*
X263232000Y-115658000D02*
G01*
X261532000Y-115658000D01*
X261532000Y-113958000D01*
X263232000Y-113958000D01*
X263232000Y-115658000D01*
G37*
G36*
X230974000Y-115658000D02*
G01*
X229274000Y-115658000D01*
X229274000Y-113958000D01*
X230974000Y-113958000D01*
X230974000Y-115658000D01*
G37*
G36*
X203288000Y-115404000D02*
G01*
X201588000Y-115404000D01*
X201588000Y-113704000D01*
X203288000Y-113704000D01*
X203288000Y-115404000D01*
G37*
G36*
X235546000Y-115404000D02*
G01*
X233846000Y-115404000D01*
X233846000Y-113704000D01*
X235546000Y-113704000D01*
X235546000Y-115404000D01*
G37*
G36*
X240556843Y-114073214D02*
G01*
X240556846Y-114073215D01*
X240556845Y-114073215D01*
X240647839Y-114110906D01*
X240689063Y-114138451D01*
X240729730Y-114165624D01*
X240799376Y-114235270D01*
X240854095Y-114317163D01*
X240891786Y-114408157D01*
X240911000Y-114504753D01*
X240911000Y-114603247D01*
X240891786Y-114699843D01*
X240891785Y-114699845D01*
X240854094Y-114790839D01*
X240799375Y-114872731D01*
X240729731Y-114942375D01*
X240647839Y-114997094D01*
X240647838Y-114997095D01*
X240647837Y-114997095D01*
X240556843Y-115034786D01*
X240460247Y-115054000D01*
X240361753Y-115054000D01*
X240265157Y-115034786D01*
X240174163Y-114997095D01*
X240174162Y-114997095D01*
X240174161Y-114997094D01*
X240092269Y-114942375D01*
X240022625Y-114872731D01*
X239967906Y-114790839D01*
X239930215Y-114699845D01*
X239930214Y-114699843D01*
X239911000Y-114603247D01*
X239911000Y-114504753D01*
X239930214Y-114408157D01*
X239967905Y-114317163D01*
X240022624Y-114235270D01*
X240092270Y-114165624D01*
X240132937Y-114138451D01*
X240174161Y-114110906D01*
X240265155Y-114073215D01*
X240265154Y-114073215D01*
X240265157Y-114073214D01*
X240361753Y-114054000D01*
X240460247Y-114054000D01*
X240556843Y-114073214D01*
G37*
G36*
X208298843Y-114073214D02*
G01*
X208298846Y-114073215D01*
X208298845Y-114073215D01*
X208389839Y-114110906D01*
X208431063Y-114138451D01*
X208471730Y-114165624D01*
X208541376Y-114235270D01*
X208596095Y-114317163D01*
X208633786Y-114408157D01*
X208653000Y-114504753D01*
X208653000Y-114603247D01*
X208633786Y-114699843D01*
X208633785Y-114699845D01*
X208596094Y-114790839D01*
X208541375Y-114872731D01*
X208471731Y-114942375D01*
X208389839Y-114997094D01*
X208389838Y-114997095D01*
X208389837Y-114997095D01*
X208298843Y-115034786D01*
X208202247Y-115054000D01*
X208103753Y-115054000D01*
X208007157Y-115034786D01*
X207916163Y-114997095D01*
X207916162Y-114997095D01*
X207916161Y-114997094D01*
X207834269Y-114942375D01*
X207764625Y-114872731D01*
X207709906Y-114790839D01*
X207672215Y-114699845D01*
X207672214Y-114699843D01*
X207653000Y-114603247D01*
X207653000Y-114504753D01*
X207672214Y-114408157D01*
X207709905Y-114317163D01*
X207764624Y-114235270D01*
X207834270Y-114165624D01*
X207874937Y-114138451D01*
X207916161Y-114110906D01*
X208007155Y-114073215D01*
X208007154Y-114073215D01*
X208007157Y-114073214D01*
X208103753Y-114054000D01*
X208202247Y-114054000D01*
X208298843Y-114073214D01*
G37*
G36*
X262629935Y-111450664D02*
G01*
X262784624Y-111514739D01*
X262784626Y-111514740D01*
X262923844Y-111607762D01*
X263042238Y-111726156D01*
X263068904Y-111766065D01*
X263135261Y-111865376D01*
X263199336Y-112020065D01*
X263232000Y-112184281D01*
X263232000Y-112351719D01*
X263199336Y-112515935D01*
X263135261Y-112670624D01*
X263135260Y-112670626D01*
X263042238Y-112809844D01*
X262923844Y-112928238D01*
X262784626Y-113021260D01*
X262784625Y-113021261D01*
X262784624Y-113021261D01*
X262629935Y-113085336D01*
X262465719Y-113118000D01*
X262298281Y-113118000D01*
X262134065Y-113085336D01*
X261979376Y-113021261D01*
X261979375Y-113021261D01*
X261979374Y-113021260D01*
X261840156Y-112928238D01*
X261721762Y-112809844D01*
X261628740Y-112670626D01*
X261628739Y-112670624D01*
X261564664Y-112515935D01*
X261532000Y-112351719D01*
X261532000Y-112184281D01*
X261564664Y-112020065D01*
X261628739Y-111865376D01*
X261695096Y-111766065D01*
X261721762Y-111726156D01*
X261840156Y-111607762D01*
X261979374Y-111514740D01*
X261979376Y-111514739D01*
X262134065Y-111450664D01*
X262298281Y-111418000D01*
X262465719Y-111418000D01*
X262629935Y-111450664D01*
G37*
G36*
X230371935Y-111450664D02*
G01*
X230526624Y-111514739D01*
X230526626Y-111514740D01*
X230665844Y-111607762D01*
X230784238Y-111726156D01*
X230810904Y-111766065D01*
X230877261Y-111865376D01*
X230941336Y-112020065D01*
X230974000Y-112184281D01*
X230974000Y-112351719D01*
X230941336Y-112515935D01*
X230877261Y-112670624D01*
X230877260Y-112670626D01*
X230784238Y-112809844D01*
X230665844Y-112928238D01*
X230526626Y-113021260D01*
X230526625Y-113021261D01*
X230526624Y-113021261D01*
X230371935Y-113085336D01*
X230207719Y-113118000D01*
X230040281Y-113118000D01*
X229876065Y-113085336D01*
X229721376Y-113021261D01*
X229721375Y-113021261D01*
X229721374Y-113021260D01*
X229582156Y-112928238D01*
X229463762Y-112809844D01*
X229370740Y-112670626D01*
X229370739Y-112670624D01*
X229306664Y-112515935D01*
X229274000Y-112351719D01*
X229274000Y-112184281D01*
X229306664Y-112020065D01*
X229370739Y-111865376D01*
X229437096Y-111766065D01*
X229463762Y-111726156D01*
X229582156Y-111607762D01*
X229721374Y-111514740D01*
X229721376Y-111514739D01*
X229876065Y-111450664D01*
X230040281Y-111418000D01*
X230207719Y-111418000D01*
X230371935Y-111450664D01*
G37*
G36*
X202685935Y-111196664D02*
G01*
X202840624Y-111260739D01*
X202840626Y-111260740D01*
X202979844Y-111353762D01*
X203098238Y-111472156D01*
X203191260Y-111611374D01*
X203191261Y-111611376D01*
X203255336Y-111766065D01*
X203288000Y-111930281D01*
X203288000Y-112097719D01*
X203255336Y-112261935D01*
X203191261Y-112416624D01*
X203191260Y-112416626D01*
X203098238Y-112555844D01*
X202979844Y-112674238D01*
X202840626Y-112767260D01*
X202840625Y-112767261D01*
X202840624Y-112767261D01*
X202685935Y-112831336D01*
X202521719Y-112864000D01*
X202354281Y-112864000D01*
X202190065Y-112831336D01*
X202035376Y-112767261D01*
X202035375Y-112767261D01*
X202035374Y-112767260D01*
X201896156Y-112674238D01*
X201777762Y-112555844D01*
X201684740Y-112416626D01*
X201684739Y-112416624D01*
X201620664Y-112261935D01*
X201588000Y-112097719D01*
X201588000Y-111930281D01*
X201620664Y-111766065D01*
X201684739Y-111611376D01*
X201684740Y-111611374D01*
X201777762Y-111472156D01*
X201896156Y-111353762D01*
X202035374Y-111260740D01*
X202035376Y-111260739D01*
X202190065Y-111196664D01*
X202354281Y-111164000D01*
X202521719Y-111164000D01*
X202685935Y-111196664D01*
G37*
G36*
X234943935Y-111196664D02*
G01*
X235098624Y-111260739D01*
X235098626Y-111260740D01*
X235237844Y-111353762D01*
X235356238Y-111472156D01*
X235449260Y-111611374D01*
X235449261Y-111611376D01*
X235513336Y-111766065D01*
X235546000Y-111930281D01*
X235546000Y-112097719D01*
X235513336Y-112261935D01*
X235449261Y-112416624D01*
X235449260Y-112416626D01*
X235356238Y-112555844D01*
X235237844Y-112674238D01*
X235098626Y-112767260D01*
X235098625Y-112767261D01*
X235098624Y-112767261D01*
X234943935Y-112831336D01*
X234779719Y-112864000D01*
X234612281Y-112864000D01*
X234448065Y-112831336D01*
X234293376Y-112767261D01*
X234293375Y-112767261D01*
X234293374Y-112767260D01*
X234154156Y-112674238D01*
X234035762Y-112555844D01*
X233942740Y-112416626D01*
X233942739Y-112416624D01*
X233878664Y-112261935D01*
X233846000Y-112097719D01*
X233846000Y-111930281D01*
X233878664Y-111766065D01*
X233942739Y-111611376D01*
X233942740Y-111611374D01*
X234035762Y-111472156D01*
X234154156Y-111353762D01*
X234293374Y-111260740D01*
X234293376Y-111260739D01*
X234448065Y-111196664D01*
X234612281Y-111164000D01*
X234779719Y-111164000D01*
X234943935Y-111196664D01*
G37*
G36*
X262629935Y-108910664D02*
G01*
X262784624Y-108974739D01*
X262784626Y-108974740D01*
X262923844Y-109067762D01*
X263042238Y-109186156D01*
X263068904Y-109226065D01*
X263135261Y-109325376D01*
X263199336Y-109480065D01*
X263232000Y-109644281D01*
X263232000Y-109811719D01*
X263199336Y-109975935D01*
X263135261Y-110130624D01*
X263135260Y-110130626D01*
X263042238Y-110269844D01*
X262923844Y-110388238D01*
X262784626Y-110481260D01*
X262784625Y-110481261D01*
X262784624Y-110481261D01*
X262629935Y-110545336D01*
X262465719Y-110578000D01*
X262298281Y-110578000D01*
X262134065Y-110545336D01*
X261979376Y-110481261D01*
X261979375Y-110481261D01*
X261979374Y-110481260D01*
X261840156Y-110388238D01*
X261721762Y-110269844D01*
X261628740Y-110130626D01*
X261628739Y-110130624D01*
X261564664Y-109975935D01*
X261532000Y-109811719D01*
X261532000Y-109644281D01*
X261564664Y-109480065D01*
X261628739Y-109325376D01*
X261695096Y-109226065D01*
X261721762Y-109186156D01*
X261840156Y-109067762D01*
X261979374Y-108974740D01*
X261979376Y-108974739D01*
X262134065Y-108910664D01*
X262298281Y-108878000D01*
X262465719Y-108878000D01*
X262629935Y-108910664D01*
G37*
G36*
X230371935Y-108910664D02*
G01*
X230526624Y-108974739D01*
X230526626Y-108974740D01*
X230665844Y-109067762D01*
X230784238Y-109186156D01*
X230810904Y-109226065D01*
X230877261Y-109325376D01*
X230941336Y-109480065D01*
X230974000Y-109644281D01*
X230974000Y-109811719D01*
X230941336Y-109975935D01*
X230877261Y-110130624D01*
X230877260Y-110130626D01*
X230784238Y-110269844D01*
X230665844Y-110388238D01*
X230526626Y-110481260D01*
X230526625Y-110481261D01*
X230526624Y-110481261D01*
X230371935Y-110545336D01*
X230207719Y-110578000D01*
X230040281Y-110578000D01*
X229876065Y-110545336D01*
X229721376Y-110481261D01*
X229721375Y-110481261D01*
X229721374Y-110481260D01*
X229582156Y-110388238D01*
X229463762Y-110269844D01*
X229370740Y-110130626D01*
X229370739Y-110130624D01*
X229306664Y-109975935D01*
X229274000Y-109811719D01*
X229274000Y-109644281D01*
X229306664Y-109480065D01*
X229370739Y-109325376D01*
X229437096Y-109226065D01*
X229463762Y-109186156D01*
X229582156Y-109067762D01*
X229721374Y-108974740D01*
X229721376Y-108974739D01*
X229876065Y-108910664D01*
X230040281Y-108878000D01*
X230207719Y-108878000D01*
X230371935Y-108910664D01*
G37*
G36*
X202685935Y-108656664D02*
G01*
X202840624Y-108720739D01*
X202840626Y-108720740D01*
X202979844Y-108813762D01*
X203098238Y-108932156D01*
X203191260Y-109071374D01*
X203191261Y-109071376D01*
X203255336Y-109226065D01*
X203288000Y-109390281D01*
X203288000Y-109557719D01*
X203255336Y-109721935D01*
X203191261Y-109876624D01*
X203191260Y-109876626D01*
X203098238Y-110015844D01*
X202979844Y-110134238D01*
X202840626Y-110227260D01*
X202840625Y-110227261D01*
X202840624Y-110227261D01*
X202685935Y-110291336D01*
X202521719Y-110324000D01*
X202354281Y-110324000D01*
X202190065Y-110291336D01*
X202035376Y-110227261D01*
X202035375Y-110227261D01*
X202035374Y-110227260D01*
X201896156Y-110134238D01*
X201777762Y-110015844D01*
X201684740Y-109876626D01*
X201684739Y-109876624D01*
X201620664Y-109721935D01*
X201588000Y-109557719D01*
X201588000Y-109390281D01*
X201620664Y-109226065D01*
X201684739Y-109071376D01*
X201684740Y-109071374D01*
X201777762Y-108932156D01*
X201896156Y-108813762D01*
X202035374Y-108720740D01*
X202035376Y-108720739D01*
X202190065Y-108656664D01*
X202354281Y-108624000D01*
X202521719Y-108624000D01*
X202685935Y-108656664D01*
G37*
G36*
X234943935Y-108656664D02*
G01*
X235098624Y-108720739D01*
X235098626Y-108720740D01*
X235237844Y-108813762D01*
X235356238Y-108932156D01*
X235449260Y-109071374D01*
X235449261Y-109071376D01*
X235513336Y-109226065D01*
X235546000Y-109390281D01*
X235546000Y-109557719D01*
X235513336Y-109721935D01*
X235449261Y-109876624D01*
X235449260Y-109876626D01*
X235356238Y-110015844D01*
X235237844Y-110134238D01*
X235098626Y-110227260D01*
X235098625Y-110227261D01*
X235098624Y-110227261D01*
X234943935Y-110291336D01*
X234779719Y-110324000D01*
X234612281Y-110324000D01*
X234448065Y-110291336D01*
X234293376Y-110227261D01*
X234293375Y-110227261D01*
X234293374Y-110227260D01*
X234154156Y-110134238D01*
X234035762Y-110015844D01*
X233942740Y-109876626D01*
X233942739Y-109876624D01*
X233878664Y-109721935D01*
X233846000Y-109557719D01*
X233846000Y-109390281D01*
X233878664Y-109226065D01*
X233942739Y-109071376D01*
X233942740Y-109071374D01*
X234035762Y-108932156D01*
X234154156Y-108813762D01*
X234293374Y-108720740D01*
X234293376Y-108720739D01*
X234448065Y-108656664D01*
X234612281Y-108624000D01*
X234779719Y-108624000D01*
X234943935Y-108656664D01*
G37*
G36*
X262629935Y-106370664D02*
G01*
X262784624Y-106434739D01*
X262784626Y-106434740D01*
X262923844Y-106527762D01*
X263042238Y-106646156D01*
X263068904Y-106686065D01*
X263135261Y-106785376D01*
X263199336Y-106940065D01*
X263232000Y-107104281D01*
X263232000Y-107271719D01*
X263199336Y-107435935D01*
X263135261Y-107590624D01*
X263135260Y-107590626D01*
X263042238Y-107729844D01*
X262923844Y-107848238D01*
X262784626Y-107941260D01*
X262784625Y-107941261D01*
X262784624Y-107941261D01*
X262629935Y-108005336D01*
X262465719Y-108038000D01*
X262298281Y-108038000D01*
X262134065Y-108005336D01*
X261979376Y-107941261D01*
X261979375Y-107941261D01*
X261979374Y-107941260D01*
X261840156Y-107848238D01*
X261721762Y-107729844D01*
X261628740Y-107590626D01*
X261628739Y-107590624D01*
X261564664Y-107435935D01*
X261532000Y-107271719D01*
X261532000Y-107104281D01*
X261564664Y-106940065D01*
X261628739Y-106785376D01*
X261695096Y-106686065D01*
X261721762Y-106646156D01*
X261840156Y-106527762D01*
X261979374Y-106434740D01*
X261979376Y-106434739D01*
X262134065Y-106370664D01*
X262298281Y-106338000D01*
X262465719Y-106338000D01*
X262629935Y-106370664D01*
G37*
G36*
X230371935Y-106370664D02*
G01*
X230526624Y-106434739D01*
X230526626Y-106434740D01*
X230665844Y-106527762D01*
X230784238Y-106646156D01*
X230810904Y-106686065D01*
X230877261Y-106785376D01*
X230941336Y-106940065D01*
X230974000Y-107104281D01*
X230974000Y-107271719D01*
X230941336Y-107435935D01*
X230877261Y-107590624D01*
X230877260Y-107590626D01*
X230784238Y-107729844D01*
X230665844Y-107848238D01*
X230526626Y-107941260D01*
X230526625Y-107941261D01*
X230526624Y-107941261D01*
X230371935Y-108005336D01*
X230207719Y-108038000D01*
X230040281Y-108038000D01*
X229876065Y-108005336D01*
X229721376Y-107941261D01*
X229721375Y-107941261D01*
X229721374Y-107941260D01*
X229582156Y-107848238D01*
X229463762Y-107729844D01*
X229370740Y-107590626D01*
X229370739Y-107590624D01*
X229306664Y-107435935D01*
X229274000Y-107271719D01*
X229274000Y-107104281D01*
X229306664Y-106940065D01*
X229370739Y-106785376D01*
X229437096Y-106686065D01*
X229463762Y-106646156D01*
X229582156Y-106527762D01*
X229721374Y-106434740D01*
X229721376Y-106434739D01*
X229876065Y-106370664D01*
X230040281Y-106338000D01*
X230207719Y-106338000D01*
X230371935Y-106370664D01*
G37*
G36*
X202685935Y-106116664D02*
G01*
X202840624Y-106180739D01*
X202840626Y-106180740D01*
X202979844Y-106273762D01*
X203098238Y-106392156D01*
X203191260Y-106531374D01*
X203191261Y-106531376D01*
X203255336Y-106686065D01*
X203288000Y-106850281D01*
X203288000Y-107017719D01*
X203255336Y-107181935D01*
X203191261Y-107336624D01*
X203191260Y-107336626D01*
X203098238Y-107475844D01*
X202979844Y-107594238D01*
X202840626Y-107687260D01*
X202840625Y-107687261D01*
X202840624Y-107687261D01*
X202685935Y-107751336D01*
X202521719Y-107784000D01*
X202354281Y-107784000D01*
X202190065Y-107751336D01*
X202035376Y-107687261D01*
X202035375Y-107687261D01*
X202035374Y-107687260D01*
X201896156Y-107594238D01*
X201777762Y-107475844D01*
X201684740Y-107336626D01*
X201684739Y-107336624D01*
X201620664Y-107181935D01*
X201588000Y-107017719D01*
X201588000Y-106850281D01*
X201620664Y-106686065D01*
X201684739Y-106531376D01*
X201684740Y-106531374D01*
X201777762Y-106392156D01*
X201896156Y-106273762D01*
X202035374Y-106180740D01*
X202035376Y-106180739D01*
X202190065Y-106116664D01*
X202354281Y-106084000D01*
X202521719Y-106084000D01*
X202685935Y-106116664D01*
G37*
G36*
X234943935Y-106116664D02*
G01*
X235098624Y-106180739D01*
X235098626Y-106180740D01*
X235237844Y-106273762D01*
X235356238Y-106392156D01*
X235449260Y-106531374D01*
X235449261Y-106531376D01*
X235513336Y-106686065D01*
X235546000Y-106850281D01*
X235546000Y-107017719D01*
X235513336Y-107181935D01*
X235449261Y-107336624D01*
X235449260Y-107336626D01*
X235356238Y-107475844D01*
X235237844Y-107594238D01*
X235098626Y-107687260D01*
X235098625Y-107687261D01*
X235098624Y-107687261D01*
X234943935Y-107751336D01*
X234779719Y-107784000D01*
X234612281Y-107784000D01*
X234448065Y-107751336D01*
X234293376Y-107687261D01*
X234293375Y-107687261D01*
X234293374Y-107687260D01*
X234154156Y-107594238D01*
X234035762Y-107475844D01*
X233942740Y-107336626D01*
X233942739Y-107336624D01*
X233878664Y-107181935D01*
X233846000Y-107017719D01*
X233846000Y-106850281D01*
X233878664Y-106686065D01*
X233942739Y-106531376D01*
X233942740Y-106531374D01*
X234035762Y-106392156D01*
X234154156Y-106273762D01*
X234293374Y-106180740D01*
X234293376Y-106180739D01*
X234448065Y-106116664D01*
X234612281Y-106084000D01*
X234779719Y-106084000D01*
X234943935Y-106116664D01*
G37*
G36*
X262629935Y-103830664D02*
G01*
X262778166Y-103892064D01*
X262784626Y-103894740D01*
X262923844Y-103987762D01*
X263042238Y-104106156D01*
X263133950Y-104243414D01*
X263135261Y-104245376D01*
X263199336Y-104400065D01*
X263232000Y-104564281D01*
X263232000Y-104731719D01*
X263199336Y-104895935D01*
X263135261Y-105050624D01*
X263135260Y-105050626D01*
X263042238Y-105189844D01*
X262923844Y-105308238D01*
X262784626Y-105401260D01*
X262784625Y-105401261D01*
X262784624Y-105401261D01*
X262629935Y-105465336D01*
X262465719Y-105498000D01*
X262298281Y-105498000D01*
X262134065Y-105465336D01*
X261979376Y-105401261D01*
X261979375Y-105401261D01*
X261979374Y-105401260D01*
X261840156Y-105308238D01*
X261721762Y-105189844D01*
X261628740Y-105050626D01*
X261628739Y-105050624D01*
X261564664Y-104895935D01*
X261532000Y-104731719D01*
X261532000Y-104564281D01*
X261564664Y-104400065D01*
X261628739Y-104245376D01*
X261630050Y-104243414D01*
X261721762Y-104106156D01*
X261840156Y-103987762D01*
X261979374Y-103894740D01*
X261985834Y-103892064D01*
X262134065Y-103830664D01*
X262298281Y-103798000D01*
X262465719Y-103798000D01*
X262629935Y-103830664D01*
G37*
G36*
X230371935Y-103830664D02*
G01*
X230520166Y-103892064D01*
X230526626Y-103894740D01*
X230665844Y-103987762D01*
X230784238Y-104106156D01*
X230875950Y-104243414D01*
X230877261Y-104245376D01*
X230941336Y-104400065D01*
X230974000Y-104564281D01*
X230974000Y-104731719D01*
X230941336Y-104895935D01*
X230877261Y-105050624D01*
X230877260Y-105050626D01*
X230784238Y-105189844D01*
X230665844Y-105308238D01*
X230526626Y-105401260D01*
X230526625Y-105401261D01*
X230526624Y-105401261D01*
X230371935Y-105465336D01*
X230207719Y-105498000D01*
X230040281Y-105498000D01*
X229876065Y-105465336D01*
X229721376Y-105401261D01*
X229721375Y-105401261D01*
X229721374Y-105401260D01*
X229582156Y-105308238D01*
X229463762Y-105189844D01*
X229370740Y-105050626D01*
X229370739Y-105050624D01*
X229306664Y-104895935D01*
X229274000Y-104731719D01*
X229274000Y-104564281D01*
X229306664Y-104400065D01*
X229370739Y-104245376D01*
X229372050Y-104243414D01*
X229463762Y-104106156D01*
X229582156Y-103987762D01*
X229721374Y-103894740D01*
X229727834Y-103892064D01*
X229876065Y-103830664D01*
X230040281Y-103798000D01*
X230207719Y-103798000D01*
X230371935Y-103830664D01*
G37*
G36*
X202685935Y-103576664D02*
G01*
X202840095Y-103640520D01*
X202840626Y-103640740D01*
X202979844Y-103733762D01*
X203098238Y-103852156D01*
X203191260Y-103991374D01*
X203191261Y-103991376D01*
X203255336Y-104146065D01*
X203288000Y-104310281D01*
X203288000Y-104477719D01*
X203255336Y-104641935D01*
X203191261Y-104796624D01*
X203191260Y-104796626D01*
X203098238Y-104935844D01*
X202979844Y-105054238D01*
X202840626Y-105147260D01*
X202840625Y-105147261D01*
X202840624Y-105147261D01*
X202685935Y-105211336D01*
X202521719Y-105244000D01*
X202354281Y-105244000D01*
X202190065Y-105211336D01*
X202035376Y-105147261D01*
X202035375Y-105147261D01*
X202035374Y-105147260D01*
X201896156Y-105054238D01*
X201777762Y-104935844D01*
X201684740Y-104796626D01*
X201684739Y-104796624D01*
X201620664Y-104641935D01*
X201588000Y-104477719D01*
X201588000Y-104310281D01*
X201620664Y-104146065D01*
X201684739Y-103991376D01*
X201684740Y-103991374D01*
X201777762Y-103852156D01*
X201896156Y-103733762D01*
X202035374Y-103640740D01*
X202035905Y-103640520D01*
X202190065Y-103576664D01*
X202354281Y-103544000D01*
X202521719Y-103544000D01*
X202685935Y-103576664D01*
G37*
G36*
X234943935Y-103576664D02*
G01*
X235098095Y-103640520D01*
X235098626Y-103640740D01*
X235237844Y-103733762D01*
X235356238Y-103852156D01*
X235449260Y-103991374D01*
X235449261Y-103991376D01*
X235513336Y-104146065D01*
X235546000Y-104310281D01*
X235546000Y-104477719D01*
X235513336Y-104641935D01*
X235449261Y-104796624D01*
X235449260Y-104796626D01*
X235356238Y-104935844D01*
X235237844Y-105054238D01*
X235098626Y-105147260D01*
X235098625Y-105147261D01*
X235098624Y-105147261D01*
X234943935Y-105211336D01*
X234779719Y-105244000D01*
X234612281Y-105244000D01*
X234448065Y-105211336D01*
X234293376Y-105147261D01*
X234293375Y-105147261D01*
X234293374Y-105147260D01*
X234154156Y-105054238D01*
X234035762Y-104935844D01*
X233942740Y-104796626D01*
X233942739Y-104796624D01*
X233878664Y-104641935D01*
X233846000Y-104477719D01*
X233846000Y-104310281D01*
X233878664Y-104146065D01*
X233942739Y-103991376D01*
X233942740Y-103991374D01*
X234035762Y-103852156D01*
X234154156Y-103733762D01*
X234293374Y-103640740D01*
X234293905Y-103640520D01*
X234448065Y-103576664D01*
X234612281Y-103544000D01*
X234779719Y-103544000D01*
X234943935Y-103576664D01*
G37*
G36*
X258819935Y-103322664D02*
G01*
X258974624Y-103386739D01*
X258974626Y-103386740D01*
X259113844Y-103479762D01*
X259232238Y-103598156D01*
X259325260Y-103737374D01*
X259325261Y-103737376D01*
X259389336Y-103892065D01*
X259422000Y-104056281D01*
X259422000Y-104223719D01*
X259389336Y-104387935D01*
X259325261Y-104542624D01*
X259325260Y-104542626D01*
X259232238Y-104681844D01*
X259113844Y-104800238D01*
X258974626Y-104893260D01*
X258974625Y-104893261D01*
X258974624Y-104893261D01*
X258819935Y-104957336D01*
X258655719Y-104990000D01*
X258488281Y-104990000D01*
X258324065Y-104957336D01*
X258169376Y-104893261D01*
X258169375Y-104893261D01*
X258169374Y-104893260D01*
X258030156Y-104800238D01*
X257911762Y-104681844D01*
X257818740Y-104542626D01*
X257818739Y-104542624D01*
X257754664Y-104387935D01*
X257722000Y-104223719D01*
X257722000Y-104056281D01*
X257754664Y-103892065D01*
X257818739Y-103737376D01*
X257818740Y-103737374D01*
X257911762Y-103598156D01*
X258030156Y-103479762D01*
X258169374Y-103386740D01*
X258169376Y-103386739D01*
X258324065Y-103322664D01*
X258488281Y-103290000D01*
X258655719Y-103290000D01*
X258819935Y-103322664D01*
G37*
G36*
X226561935Y-103322664D02*
G01*
X226716624Y-103386739D01*
X226716626Y-103386740D01*
X226855844Y-103479762D01*
X226974238Y-103598156D01*
X227067260Y-103737374D01*
X227067261Y-103737376D01*
X227131336Y-103892065D01*
X227164000Y-104056281D01*
X227164000Y-104223719D01*
X227131336Y-104387935D01*
X227067261Y-104542624D01*
X227067260Y-104542626D01*
X226974238Y-104681844D01*
X226855844Y-104800238D01*
X226716626Y-104893260D01*
X226716625Y-104893261D01*
X226716624Y-104893261D01*
X226561935Y-104957336D01*
X226397719Y-104990000D01*
X226230281Y-104990000D01*
X226066065Y-104957336D01*
X225911376Y-104893261D01*
X225911375Y-104893261D01*
X225911374Y-104893260D01*
X225772156Y-104800238D01*
X225653762Y-104681844D01*
X225560740Y-104542626D01*
X225560739Y-104542624D01*
X225496664Y-104387935D01*
X225464000Y-104223719D01*
X225464000Y-104056281D01*
X225496664Y-103892065D01*
X225560739Y-103737376D01*
X225560740Y-103737374D01*
X225653762Y-103598156D01*
X225772156Y-103479762D01*
X225911374Y-103386740D01*
X225911376Y-103386739D01*
X226066065Y-103322664D01*
X226230281Y-103290000D01*
X226397719Y-103290000D01*
X226561935Y-103322664D01*
G37*
G36*
X254392000Y-104278000D02*
G01*
X252592000Y-104278000D01*
X252592000Y-102478000D01*
X254392000Y-102478000D01*
X254392000Y-104278000D01*
G37*
G36*
X218956520Y-102512586D02*
G01*
X219120310Y-102580430D01*
X219267717Y-102678924D01*
X219393076Y-102804283D01*
X219491570Y-102951690D01*
X219491571Y-102951692D01*
X219559414Y-103115480D01*
X219594000Y-103289356D01*
X219594000Y-103466644D01*
X219559414Y-103640520D01*
X219491570Y-103804310D01*
X219393076Y-103951717D01*
X219267717Y-104077076D01*
X219120310Y-104175570D01*
X219120309Y-104175571D01*
X219120308Y-104175571D01*
X218956520Y-104243414D01*
X218782644Y-104278000D01*
X218605356Y-104278000D01*
X218431480Y-104243414D01*
X218267692Y-104175571D01*
X218267691Y-104175571D01*
X218267690Y-104175570D01*
X218120283Y-104077076D01*
X217994924Y-103951717D01*
X217896430Y-103804310D01*
X217828586Y-103640520D01*
X217794000Y-103466644D01*
X217794000Y-103289356D01*
X217828586Y-103115480D01*
X217896429Y-102951692D01*
X217896430Y-102951690D01*
X217994924Y-102804283D01*
X218120283Y-102678924D01*
X218267690Y-102580430D01*
X218431480Y-102512586D01*
X218605356Y-102478000D01*
X218782644Y-102478000D01*
X218956520Y-102512586D01*
G37*
G36*
X251214520Y-102512586D02*
G01*
X251378310Y-102580430D01*
X251525717Y-102678924D01*
X251651076Y-102804283D01*
X251749570Y-102951690D01*
X251749571Y-102951692D01*
X251817414Y-103115480D01*
X251852000Y-103289356D01*
X251852000Y-103466644D01*
X251817414Y-103640520D01*
X251749570Y-103804310D01*
X251651076Y-103951717D01*
X251525717Y-104077076D01*
X251378310Y-104175570D01*
X251378309Y-104175571D01*
X251378308Y-104175571D01*
X251214520Y-104243414D01*
X251040644Y-104278000D01*
X250863356Y-104278000D01*
X250689480Y-104243414D01*
X250525692Y-104175571D01*
X250525691Y-104175571D01*
X250525690Y-104175570D01*
X250378283Y-104077076D01*
X250252924Y-103951717D01*
X250154430Y-103804310D01*
X250086586Y-103640520D01*
X250052000Y-103466644D01*
X250052000Y-103289356D01*
X250086586Y-103115480D01*
X250154429Y-102951692D01*
X250154430Y-102951690D01*
X250252924Y-102804283D01*
X250378283Y-102678924D01*
X250525690Y-102580430D01*
X250689480Y-102512586D01*
X250863356Y-102478000D01*
X251040644Y-102478000D01*
X251214520Y-102512586D01*
G37*
G36*
X222134000Y-104278000D02*
G01*
X220334000Y-104278000D01*
X220334000Y-102478000D01*
X222134000Y-102478000D01*
X222134000Y-104278000D01*
G37*
G36*
X227164000Y-102450000D02*
G01*
X225464000Y-102450000D01*
X225464000Y-100750000D01*
X227164000Y-100750000D01*
X227164000Y-102450000D01*
G37*
G36*
X259422000Y-102450000D02*
G01*
X257722000Y-102450000D01*
X257722000Y-100750000D01*
X259422000Y-100750000D01*
X259422000Y-102450000D01*
G37*
G36*
X207028843Y-96801214D02*
G01*
X207028846Y-96801215D01*
X207028845Y-96801215D01*
X207119839Y-96838906D01*
X207154401Y-96862000D01*
X207201730Y-96893624D01*
X207271376Y-96963270D01*
X207326095Y-97045163D01*
X207363786Y-97136157D01*
X207383000Y-97232753D01*
X207383000Y-97331247D01*
X207363786Y-97427843D01*
X207363785Y-97427845D01*
X207326094Y-97518839D01*
X207271375Y-97600731D01*
X207201731Y-97670375D01*
X207119839Y-97725094D01*
X207119838Y-97725095D01*
X207119837Y-97725095D01*
X207028843Y-97762786D01*
X206932247Y-97782000D01*
X206833753Y-97782000D01*
X206737157Y-97762786D01*
X206646163Y-97725095D01*
X206646162Y-97725095D01*
X206646161Y-97725094D01*
X206564269Y-97670375D01*
X206494625Y-97600731D01*
X206439906Y-97518839D01*
X206402215Y-97427845D01*
X206402214Y-97427843D01*
X206383000Y-97331247D01*
X206383000Y-97232753D01*
X206402214Y-97136157D01*
X206439905Y-97045163D01*
X206494624Y-96963270D01*
X206564270Y-96893624D01*
X206611599Y-96862000D01*
X206646161Y-96838906D01*
X206737155Y-96801215D01*
X206737154Y-96801215D01*
X206737157Y-96801214D01*
X206833753Y-96782000D01*
X206932247Y-96782000D01*
X207028843Y-96801214D01*
G37*
G36*
X209923000Y-97782000D02*
G01*
X208923000Y-97782000D01*
X208923000Y-96782000D01*
X209923000Y-96782000D01*
X209923000Y-97782000D01*
G37*
G36*
X239286843Y-96801214D02*
G01*
X239286846Y-96801215D01*
X239286845Y-96801215D01*
X239377839Y-96838906D01*
X239412401Y-96862000D01*
X239459730Y-96893624D01*
X239529376Y-96963270D01*
X239584095Y-97045163D01*
X239621786Y-97136157D01*
X239641000Y-97232753D01*
X239641000Y-97331247D01*
X239621786Y-97427843D01*
X239621785Y-97427845D01*
X239584094Y-97518839D01*
X239529375Y-97600731D01*
X239459731Y-97670375D01*
X239377839Y-97725094D01*
X239377838Y-97725095D01*
X239377837Y-97725095D01*
X239286843Y-97762786D01*
X239190247Y-97782000D01*
X239091753Y-97782000D01*
X238995157Y-97762786D01*
X238904163Y-97725095D01*
X238904162Y-97725095D01*
X238904161Y-97725094D01*
X238822269Y-97670375D01*
X238752625Y-97600731D01*
X238697906Y-97518839D01*
X238660215Y-97427845D01*
X238660214Y-97427843D01*
X238641000Y-97331247D01*
X238641000Y-97232753D01*
X238660214Y-97136157D01*
X238697905Y-97045163D01*
X238752624Y-96963270D01*
X238822270Y-96893624D01*
X238869599Y-96862000D01*
X238904161Y-96838906D01*
X238995155Y-96801215D01*
X238995154Y-96801215D01*
X238995157Y-96801214D01*
X239091753Y-96782000D01*
X239190247Y-96782000D01*
X239286843Y-96801214D01*
G37*
G36*
X242181000Y-97782000D02*
G01*
X241181000Y-97782000D01*
X241181000Y-96782000D01*
X242181000Y-96782000D01*
X242181000Y-97782000D01*
G37*
G36*
X263232000Y-97116000D02*
G01*
X261532000Y-97116000D01*
X261532000Y-95416000D01*
X263232000Y-95416000D01*
X263232000Y-97116000D01*
G37*
G36*
X230974000Y-97116000D02*
G01*
X229274000Y-97116000D01*
X229274000Y-95416000D01*
X230974000Y-95416000D01*
X230974000Y-97116000D01*
G37*
G36*
X235546000Y-96862000D02*
G01*
X233846000Y-96862000D01*
X233846000Y-95162000D01*
X235546000Y-95162000D01*
X235546000Y-96862000D01*
G37*
G36*
X203288000Y-96862000D02*
G01*
X201588000Y-96862000D01*
X201588000Y-95162000D01*
X203288000Y-95162000D01*
X203288000Y-96862000D01*
G37*
G36*
X240556843Y-95531214D02*
G01*
X240556846Y-95531215D01*
X240556845Y-95531215D01*
X240647839Y-95568906D01*
X240689063Y-95596451D01*
X240729730Y-95623624D01*
X240799376Y-95693270D01*
X240854095Y-95775163D01*
X240891786Y-95866157D01*
X240911000Y-95962753D01*
X240911000Y-96061247D01*
X240891786Y-96157843D01*
X240891785Y-96157845D01*
X240854094Y-96248839D01*
X240799375Y-96330731D01*
X240729731Y-96400375D01*
X240647839Y-96455094D01*
X240647838Y-96455095D01*
X240647837Y-96455095D01*
X240556843Y-96492786D01*
X240460247Y-96512000D01*
X240361753Y-96512000D01*
X240265157Y-96492786D01*
X240174163Y-96455095D01*
X240174162Y-96455095D01*
X240174161Y-96455094D01*
X240092269Y-96400375D01*
X240022625Y-96330731D01*
X239967906Y-96248839D01*
X239930215Y-96157845D01*
X239930214Y-96157843D01*
X239911000Y-96061247D01*
X239911000Y-95962753D01*
X239930214Y-95866157D01*
X239967905Y-95775163D01*
X240022624Y-95693270D01*
X240092270Y-95623624D01*
X240132937Y-95596451D01*
X240174161Y-95568906D01*
X240265155Y-95531215D01*
X240265154Y-95531215D01*
X240265157Y-95531214D01*
X240361753Y-95512000D01*
X240460247Y-95512000D01*
X240556843Y-95531214D01*
G37*
G36*
X208298843Y-95531214D02*
G01*
X208298846Y-95531215D01*
X208298845Y-95531215D01*
X208389839Y-95568906D01*
X208431063Y-95596451D01*
X208471730Y-95623624D01*
X208541376Y-95693270D01*
X208596095Y-95775163D01*
X208633786Y-95866157D01*
X208653000Y-95962753D01*
X208653000Y-96061247D01*
X208633786Y-96157843D01*
X208633785Y-96157845D01*
X208596094Y-96248839D01*
X208541375Y-96330731D01*
X208471731Y-96400375D01*
X208389839Y-96455094D01*
X208389838Y-96455095D01*
X208389837Y-96455095D01*
X208298843Y-96492786D01*
X208202247Y-96512000D01*
X208103753Y-96512000D01*
X208007157Y-96492786D01*
X207916163Y-96455095D01*
X207916162Y-96455095D01*
X207916161Y-96455094D01*
X207834269Y-96400375D01*
X207764625Y-96330731D01*
X207709906Y-96248839D01*
X207672215Y-96157845D01*
X207672214Y-96157843D01*
X207653000Y-96061247D01*
X207653000Y-95962753D01*
X207672214Y-95866157D01*
X207709905Y-95775163D01*
X207764624Y-95693270D01*
X207834270Y-95623624D01*
X207874937Y-95596451D01*
X207916161Y-95568906D01*
X208007155Y-95531215D01*
X208007154Y-95531215D01*
X208007157Y-95531214D01*
X208103753Y-95512000D01*
X208202247Y-95512000D01*
X208298843Y-95531214D01*
G37*
G36*
X230371935Y-92908664D02*
G01*
X230526624Y-92972739D01*
X230526626Y-92972740D01*
X230665844Y-93065762D01*
X230784238Y-93184156D01*
X230810904Y-93224065D01*
X230877261Y-93323376D01*
X230941336Y-93478065D01*
X230974000Y-93642281D01*
X230974000Y-93809719D01*
X230941336Y-93973935D01*
X230877261Y-94128624D01*
X230877260Y-94128626D01*
X230784238Y-94267844D01*
X230665844Y-94386238D01*
X230526626Y-94479260D01*
X230526625Y-94479261D01*
X230526624Y-94479261D01*
X230371935Y-94543336D01*
X230207719Y-94576000D01*
X230040281Y-94576000D01*
X229876065Y-94543336D01*
X229721376Y-94479261D01*
X229721375Y-94479261D01*
X229721374Y-94479260D01*
X229582156Y-94386238D01*
X229463762Y-94267844D01*
X229370740Y-94128626D01*
X229370739Y-94128624D01*
X229306664Y-93973935D01*
X229274000Y-93809719D01*
X229274000Y-93642281D01*
X229306664Y-93478065D01*
X229370739Y-93323376D01*
X229437096Y-93224065D01*
X229463762Y-93184156D01*
X229582156Y-93065762D01*
X229721374Y-92972740D01*
X229721376Y-92972739D01*
X229876065Y-92908664D01*
X230040281Y-92876000D01*
X230207719Y-92876000D01*
X230371935Y-92908664D01*
G37*
G36*
X262629935Y-92908664D02*
G01*
X262784624Y-92972739D01*
X262784626Y-92972740D01*
X262923844Y-93065762D01*
X263042238Y-93184156D01*
X263068904Y-93224065D01*
X263135261Y-93323376D01*
X263199336Y-93478065D01*
X263232000Y-93642281D01*
X263232000Y-93809719D01*
X263199336Y-93973935D01*
X263135261Y-94128624D01*
X263135260Y-94128626D01*
X263042238Y-94267844D01*
X262923844Y-94386238D01*
X262784626Y-94479260D01*
X262784625Y-94479261D01*
X262784624Y-94479261D01*
X262629935Y-94543336D01*
X262465719Y-94576000D01*
X262298281Y-94576000D01*
X262134065Y-94543336D01*
X261979376Y-94479261D01*
X261979375Y-94479261D01*
X261979374Y-94479260D01*
X261840156Y-94386238D01*
X261721762Y-94267844D01*
X261628740Y-94128626D01*
X261628739Y-94128624D01*
X261564664Y-93973935D01*
X261532000Y-93809719D01*
X261532000Y-93642281D01*
X261564664Y-93478065D01*
X261628739Y-93323376D01*
X261695096Y-93224065D01*
X261721762Y-93184156D01*
X261840156Y-93065762D01*
X261979374Y-92972740D01*
X261979376Y-92972739D01*
X262134065Y-92908664D01*
X262298281Y-92876000D01*
X262465719Y-92876000D01*
X262629935Y-92908664D01*
G37*
G36*
X234943935Y-92654664D02*
G01*
X235098624Y-92718739D01*
X235098626Y-92718740D01*
X235237844Y-92811762D01*
X235356238Y-92930156D01*
X235449260Y-93069374D01*
X235449261Y-93069376D01*
X235513336Y-93224065D01*
X235546000Y-93388281D01*
X235546000Y-93555719D01*
X235513336Y-93719935D01*
X235449261Y-93874624D01*
X235449260Y-93874626D01*
X235356238Y-94013844D01*
X235237844Y-94132238D01*
X235098626Y-94225260D01*
X235098625Y-94225261D01*
X235098624Y-94225261D01*
X234943935Y-94289336D01*
X234779719Y-94322000D01*
X234612281Y-94322000D01*
X234448065Y-94289336D01*
X234293376Y-94225261D01*
X234293375Y-94225261D01*
X234293374Y-94225260D01*
X234154156Y-94132238D01*
X234035762Y-94013844D01*
X233942740Y-93874626D01*
X233942739Y-93874624D01*
X233878664Y-93719935D01*
X233846000Y-93555719D01*
X233846000Y-93388281D01*
X233878664Y-93224065D01*
X233942739Y-93069376D01*
X233942740Y-93069374D01*
X234035762Y-92930156D01*
X234154156Y-92811762D01*
X234293374Y-92718740D01*
X234293376Y-92718739D01*
X234448065Y-92654664D01*
X234612281Y-92622000D01*
X234779719Y-92622000D01*
X234943935Y-92654664D01*
G37*
G36*
X202685935Y-92654664D02*
G01*
X202840624Y-92718739D01*
X202840626Y-92718740D01*
X202979844Y-92811762D01*
X203098238Y-92930156D01*
X203191260Y-93069374D01*
X203191261Y-93069376D01*
X203255336Y-93224065D01*
X203288000Y-93388281D01*
X203288000Y-93555719D01*
X203255336Y-93719935D01*
X203191261Y-93874624D01*
X203191260Y-93874626D01*
X203098238Y-94013844D01*
X202979844Y-94132238D01*
X202840626Y-94225260D01*
X202840625Y-94225261D01*
X202840624Y-94225261D01*
X202685935Y-94289336D01*
X202521719Y-94322000D01*
X202354281Y-94322000D01*
X202190065Y-94289336D01*
X202035376Y-94225261D01*
X202035375Y-94225261D01*
X202035374Y-94225260D01*
X201896156Y-94132238D01*
X201777762Y-94013844D01*
X201684740Y-93874626D01*
X201684739Y-93874624D01*
X201620664Y-93719935D01*
X201588000Y-93555719D01*
X201588000Y-93388281D01*
X201620664Y-93224065D01*
X201684739Y-93069376D01*
X201684740Y-93069374D01*
X201777762Y-92930156D01*
X201896156Y-92811762D01*
X202035374Y-92718740D01*
X202035376Y-92718739D01*
X202190065Y-92654664D01*
X202354281Y-92622000D01*
X202521719Y-92622000D01*
X202685935Y-92654664D01*
G37*
G36*
X230371935Y-90368664D02*
G01*
X230526624Y-90432739D01*
X230526626Y-90432740D01*
X230665844Y-90525762D01*
X230784238Y-90644156D01*
X230810904Y-90684065D01*
X230877261Y-90783376D01*
X230941336Y-90938065D01*
X230974000Y-91102281D01*
X230974000Y-91269719D01*
X230941336Y-91433935D01*
X230877261Y-91588624D01*
X230877260Y-91588626D01*
X230784238Y-91727844D01*
X230665844Y-91846238D01*
X230526626Y-91939260D01*
X230526625Y-91939261D01*
X230526624Y-91939261D01*
X230371935Y-92003336D01*
X230207719Y-92036000D01*
X230040281Y-92036000D01*
X229876065Y-92003336D01*
X229721376Y-91939261D01*
X229721375Y-91939261D01*
X229721374Y-91939260D01*
X229582156Y-91846238D01*
X229463762Y-91727844D01*
X229370740Y-91588626D01*
X229370739Y-91588624D01*
X229306664Y-91433935D01*
X229274000Y-91269719D01*
X229274000Y-91102281D01*
X229306664Y-90938065D01*
X229370739Y-90783376D01*
X229437096Y-90684065D01*
X229463762Y-90644156D01*
X229582156Y-90525762D01*
X229721374Y-90432740D01*
X229721376Y-90432739D01*
X229876065Y-90368664D01*
X230040281Y-90336000D01*
X230207719Y-90336000D01*
X230371935Y-90368664D01*
G37*
G36*
X262629935Y-90368664D02*
G01*
X262784624Y-90432739D01*
X262784626Y-90432740D01*
X262923844Y-90525762D01*
X263042238Y-90644156D01*
X263068904Y-90684065D01*
X263135261Y-90783376D01*
X263199336Y-90938065D01*
X263232000Y-91102281D01*
X263232000Y-91269719D01*
X263199336Y-91433935D01*
X263135261Y-91588624D01*
X263135260Y-91588626D01*
X263042238Y-91727844D01*
X262923844Y-91846238D01*
X262784626Y-91939260D01*
X262784625Y-91939261D01*
X262784624Y-91939261D01*
X262629935Y-92003336D01*
X262465719Y-92036000D01*
X262298281Y-92036000D01*
X262134065Y-92003336D01*
X261979376Y-91939261D01*
X261979375Y-91939261D01*
X261979374Y-91939260D01*
X261840156Y-91846238D01*
X261721762Y-91727844D01*
X261628740Y-91588626D01*
X261628739Y-91588624D01*
X261564664Y-91433935D01*
X261532000Y-91269719D01*
X261532000Y-91102281D01*
X261564664Y-90938065D01*
X261628739Y-90783376D01*
X261695096Y-90684065D01*
X261721762Y-90644156D01*
X261840156Y-90525762D01*
X261979374Y-90432740D01*
X261979376Y-90432739D01*
X262134065Y-90368664D01*
X262298281Y-90336000D01*
X262465719Y-90336000D01*
X262629935Y-90368664D01*
G37*
G36*
X202685935Y-90114664D02*
G01*
X202840624Y-90178739D01*
X202840626Y-90178740D01*
X202979844Y-90271762D01*
X203098238Y-90390156D01*
X203191260Y-90529374D01*
X203191261Y-90529376D01*
X203255336Y-90684065D01*
X203288000Y-90848281D01*
X203288000Y-91015719D01*
X203255336Y-91179935D01*
X203191261Y-91334624D01*
X203191260Y-91334626D01*
X203098238Y-91473844D01*
X202979844Y-91592238D01*
X202840626Y-91685260D01*
X202840625Y-91685261D01*
X202840624Y-91685261D01*
X202685935Y-91749336D01*
X202521719Y-91782000D01*
X202354281Y-91782000D01*
X202190065Y-91749336D01*
X202035376Y-91685261D01*
X202035375Y-91685261D01*
X202035374Y-91685260D01*
X201896156Y-91592238D01*
X201777762Y-91473844D01*
X201684740Y-91334626D01*
X201684739Y-91334624D01*
X201620664Y-91179935D01*
X201588000Y-91015719D01*
X201588000Y-90848281D01*
X201620664Y-90684065D01*
X201684739Y-90529376D01*
X201684740Y-90529374D01*
X201777762Y-90390156D01*
X201896156Y-90271762D01*
X202035374Y-90178740D01*
X202035376Y-90178739D01*
X202190065Y-90114664D01*
X202354281Y-90082000D01*
X202521719Y-90082000D01*
X202685935Y-90114664D01*
G37*
G36*
X234943935Y-90114664D02*
G01*
X235098624Y-90178739D01*
X235098626Y-90178740D01*
X235237844Y-90271762D01*
X235356238Y-90390156D01*
X235449260Y-90529374D01*
X235449261Y-90529376D01*
X235513336Y-90684065D01*
X235546000Y-90848281D01*
X235546000Y-91015719D01*
X235513336Y-91179935D01*
X235449261Y-91334624D01*
X235449260Y-91334626D01*
X235356238Y-91473844D01*
X235237844Y-91592238D01*
X235098626Y-91685260D01*
X235098625Y-91685261D01*
X235098624Y-91685261D01*
X234943935Y-91749336D01*
X234779719Y-91782000D01*
X234612281Y-91782000D01*
X234448065Y-91749336D01*
X234293376Y-91685261D01*
X234293375Y-91685261D01*
X234293374Y-91685260D01*
X234154156Y-91592238D01*
X234035762Y-91473844D01*
X233942740Y-91334626D01*
X233942739Y-91334624D01*
X233878664Y-91179935D01*
X233846000Y-91015719D01*
X233846000Y-90848281D01*
X233878664Y-90684065D01*
X233942739Y-90529376D01*
X233942740Y-90529374D01*
X234035762Y-90390156D01*
X234154156Y-90271762D01*
X234293374Y-90178740D01*
X234293376Y-90178739D01*
X234448065Y-90114664D01*
X234612281Y-90082000D01*
X234779719Y-90082000D01*
X234943935Y-90114664D01*
G37*
G36*
X262629935Y-87828664D02*
G01*
X262784624Y-87892739D01*
X262784626Y-87892740D01*
X262923844Y-87985762D01*
X263042238Y-88104156D01*
X263068904Y-88144065D01*
X263135261Y-88243376D01*
X263199336Y-88398065D01*
X263232000Y-88562281D01*
X263232000Y-88729719D01*
X263199336Y-88893935D01*
X263135261Y-89048624D01*
X263135260Y-89048626D01*
X263042238Y-89187844D01*
X262923844Y-89306238D01*
X262784626Y-89399260D01*
X262784625Y-89399261D01*
X262784624Y-89399261D01*
X262629935Y-89463336D01*
X262465719Y-89496000D01*
X262298281Y-89496000D01*
X262134065Y-89463336D01*
X261979376Y-89399261D01*
X261979375Y-89399261D01*
X261979374Y-89399260D01*
X261840156Y-89306238D01*
X261721762Y-89187844D01*
X261628740Y-89048626D01*
X261628739Y-89048624D01*
X261564664Y-88893935D01*
X261532000Y-88729719D01*
X261532000Y-88562281D01*
X261564664Y-88398065D01*
X261628739Y-88243376D01*
X261695096Y-88144065D01*
X261721762Y-88104156D01*
X261840156Y-87985762D01*
X261979374Y-87892740D01*
X261979376Y-87892739D01*
X262134065Y-87828664D01*
X262298281Y-87796000D01*
X262465719Y-87796000D01*
X262629935Y-87828664D01*
G37*
G36*
X230371935Y-87828664D02*
G01*
X230526624Y-87892739D01*
X230526626Y-87892740D01*
X230665844Y-87985762D01*
X230784238Y-88104156D01*
X230810904Y-88144065D01*
X230877261Y-88243376D01*
X230941336Y-88398065D01*
X230974000Y-88562281D01*
X230974000Y-88729719D01*
X230941336Y-88893935D01*
X230877261Y-89048624D01*
X230877260Y-89048626D01*
X230784238Y-89187844D01*
X230665844Y-89306238D01*
X230526626Y-89399260D01*
X230526625Y-89399261D01*
X230526624Y-89399261D01*
X230371935Y-89463336D01*
X230207719Y-89496000D01*
X230040281Y-89496000D01*
X229876065Y-89463336D01*
X229721376Y-89399261D01*
X229721375Y-89399261D01*
X229721374Y-89399260D01*
X229582156Y-89306238D01*
X229463762Y-89187844D01*
X229370740Y-89048626D01*
X229370739Y-89048624D01*
X229306664Y-88893935D01*
X229274000Y-88729719D01*
X229274000Y-88562281D01*
X229306664Y-88398065D01*
X229370739Y-88243376D01*
X229437096Y-88144065D01*
X229463762Y-88104156D01*
X229582156Y-87985762D01*
X229721374Y-87892740D01*
X229721376Y-87892739D01*
X229876065Y-87828664D01*
X230040281Y-87796000D01*
X230207719Y-87796000D01*
X230371935Y-87828664D01*
G37*
G36*
X234943935Y-87574664D02*
G01*
X235098624Y-87638739D01*
X235098626Y-87638740D01*
X235237844Y-87731762D01*
X235356238Y-87850156D01*
X235449260Y-87989374D01*
X235449261Y-87989376D01*
X235513336Y-88144065D01*
X235546000Y-88308281D01*
X235546000Y-88475719D01*
X235513336Y-88639935D01*
X235449261Y-88794624D01*
X235449260Y-88794626D01*
X235356238Y-88933844D01*
X235237844Y-89052238D01*
X235098626Y-89145260D01*
X235098625Y-89145261D01*
X235098624Y-89145261D01*
X234943935Y-89209336D01*
X234779719Y-89242000D01*
X234612281Y-89242000D01*
X234448065Y-89209336D01*
X234293376Y-89145261D01*
X234293375Y-89145261D01*
X234293374Y-89145260D01*
X234154156Y-89052238D01*
X234035762Y-88933844D01*
X233942740Y-88794626D01*
X233942739Y-88794624D01*
X233878664Y-88639935D01*
X233846000Y-88475719D01*
X233846000Y-88308281D01*
X233878664Y-88144065D01*
X233942739Y-87989376D01*
X233942740Y-87989374D01*
X234035762Y-87850156D01*
X234154156Y-87731762D01*
X234293374Y-87638740D01*
X234293376Y-87638739D01*
X234448065Y-87574664D01*
X234612281Y-87542000D01*
X234779719Y-87542000D01*
X234943935Y-87574664D01*
G37*
G36*
X202685935Y-87574664D02*
G01*
X202840624Y-87638739D01*
X202840626Y-87638740D01*
X202979844Y-87731762D01*
X203098238Y-87850156D01*
X203191260Y-87989374D01*
X203191261Y-87989376D01*
X203255336Y-88144065D01*
X203288000Y-88308281D01*
X203288000Y-88475719D01*
X203255336Y-88639935D01*
X203191261Y-88794624D01*
X203191260Y-88794626D01*
X203098238Y-88933844D01*
X202979844Y-89052238D01*
X202840626Y-89145260D01*
X202840625Y-89145261D01*
X202840624Y-89145261D01*
X202685935Y-89209336D01*
X202521719Y-89242000D01*
X202354281Y-89242000D01*
X202190065Y-89209336D01*
X202035376Y-89145261D01*
X202035375Y-89145261D01*
X202035374Y-89145260D01*
X201896156Y-89052238D01*
X201777762Y-88933844D01*
X201684740Y-88794626D01*
X201684739Y-88794624D01*
X201620664Y-88639935D01*
X201588000Y-88475719D01*
X201588000Y-88308281D01*
X201620664Y-88144065D01*
X201684739Y-87989376D01*
X201684740Y-87989374D01*
X201777762Y-87850156D01*
X201896156Y-87731762D01*
X202035374Y-87638740D01*
X202035376Y-87638739D01*
X202190065Y-87574664D01*
X202354281Y-87542000D01*
X202521719Y-87542000D01*
X202685935Y-87574664D01*
G37*
G36*
X262629935Y-85288664D02*
G01*
X262778166Y-85350064D01*
X262784626Y-85352740D01*
X262923844Y-85445762D01*
X263042238Y-85564156D01*
X263133950Y-85701414D01*
X263135261Y-85703376D01*
X263199336Y-85858065D01*
X263232000Y-86022281D01*
X263232000Y-86189719D01*
X263199336Y-86353935D01*
X263135261Y-86508624D01*
X263135260Y-86508626D01*
X263042238Y-86647844D01*
X262923844Y-86766238D01*
X262784626Y-86859260D01*
X262784625Y-86859261D01*
X262784624Y-86859261D01*
X262629935Y-86923336D01*
X262465719Y-86956000D01*
X262298281Y-86956000D01*
X262134065Y-86923336D01*
X261979376Y-86859261D01*
X261979375Y-86859261D01*
X261979374Y-86859260D01*
X261840156Y-86766238D01*
X261721762Y-86647844D01*
X261628740Y-86508626D01*
X261628739Y-86508624D01*
X261564664Y-86353935D01*
X261532000Y-86189719D01*
X261532000Y-86022281D01*
X261564664Y-85858065D01*
X261628739Y-85703376D01*
X261630050Y-85701414D01*
X261721762Y-85564156D01*
X261840156Y-85445762D01*
X261979374Y-85352740D01*
X261985834Y-85350064D01*
X262134065Y-85288664D01*
X262298281Y-85256000D01*
X262465719Y-85256000D01*
X262629935Y-85288664D01*
G37*
G36*
X230371935Y-85288664D02*
G01*
X230520166Y-85350064D01*
X230526626Y-85352740D01*
X230665844Y-85445762D01*
X230784238Y-85564156D01*
X230875950Y-85701414D01*
X230877261Y-85703376D01*
X230941336Y-85858065D01*
X230974000Y-86022281D01*
X230974000Y-86189719D01*
X230941336Y-86353935D01*
X230877261Y-86508624D01*
X230877260Y-86508626D01*
X230784238Y-86647844D01*
X230665844Y-86766238D01*
X230526626Y-86859260D01*
X230526625Y-86859261D01*
X230526624Y-86859261D01*
X230371935Y-86923336D01*
X230207719Y-86956000D01*
X230040281Y-86956000D01*
X229876065Y-86923336D01*
X229721376Y-86859261D01*
X229721375Y-86859261D01*
X229721374Y-86859260D01*
X229582156Y-86766238D01*
X229463762Y-86647844D01*
X229370740Y-86508626D01*
X229370739Y-86508624D01*
X229306664Y-86353935D01*
X229274000Y-86189719D01*
X229274000Y-86022281D01*
X229306664Y-85858065D01*
X229370739Y-85703376D01*
X229372050Y-85701414D01*
X229463762Y-85564156D01*
X229582156Y-85445762D01*
X229721374Y-85352740D01*
X229727834Y-85350064D01*
X229876065Y-85288664D01*
X230040281Y-85256000D01*
X230207719Y-85256000D01*
X230371935Y-85288664D01*
G37*
G36*
X234943935Y-85034664D02*
G01*
X235098095Y-85098520D01*
X235098626Y-85098740D01*
X235237844Y-85191762D01*
X235356238Y-85310156D01*
X235449260Y-85449374D01*
X235449261Y-85449376D01*
X235513336Y-85604065D01*
X235546000Y-85768281D01*
X235546000Y-85935719D01*
X235513336Y-86099935D01*
X235449261Y-86254624D01*
X235449260Y-86254626D01*
X235356238Y-86393844D01*
X235237844Y-86512238D01*
X235098626Y-86605260D01*
X235098625Y-86605261D01*
X235098624Y-86605261D01*
X234943935Y-86669336D01*
X234779719Y-86702000D01*
X234612281Y-86702000D01*
X234448065Y-86669336D01*
X234293376Y-86605261D01*
X234293375Y-86605261D01*
X234293374Y-86605260D01*
X234154156Y-86512238D01*
X234035762Y-86393844D01*
X233942740Y-86254626D01*
X233942739Y-86254624D01*
X233878664Y-86099935D01*
X233846000Y-85935719D01*
X233846000Y-85768281D01*
X233878664Y-85604065D01*
X233942739Y-85449376D01*
X233942740Y-85449374D01*
X234035762Y-85310156D01*
X234154156Y-85191762D01*
X234293374Y-85098740D01*
X234293905Y-85098520D01*
X234448065Y-85034664D01*
X234612281Y-85002000D01*
X234779719Y-85002000D01*
X234943935Y-85034664D01*
G37*
G36*
X202685935Y-85034664D02*
G01*
X202840095Y-85098520D01*
X202840626Y-85098740D01*
X202979844Y-85191762D01*
X203098238Y-85310156D01*
X203191260Y-85449374D01*
X203191261Y-85449376D01*
X203255336Y-85604065D01*
X203288000Y-85768281D01*
X203288000Y-85935719D01*
X203255336Y-86099935D01*
X203191261Y-86254624D01*
X203191260Y-86254626D01*
X203098238Y-86393844D01*
X202979844Y-86512238D01*
X202840626Y-86605260D01*
X202840625Y-86605261D01*
X202840624Y-86605261D01*
X202685935Y-86669336D01*
X202521719Y-86702000D01*
X202354281Y-86702000D01*
X202190065Y-86669336D01*
X202035376Y-86605261D01*
X202035375Y-86605261D01*
X202035374Y-86605260D01*
X201896156Y-86512238D01*
X201777762Y-86393844D01*
X201684740Y-86254626D01*
X201684739Y-86254624D01*
X201620664Y-86099935D01*
X201588000Y-85935719D01*
X201588000Y-85768281D01*
X201620664Y-85604065D01*
X201684739Y-85449376D01*
X201684740Y-85449374D01*
X201777762Y-85310156D01*
X201896156Y-85191762D01*
X202035374Y-85098740D01*
X202035905Y-85098520D01*
X202190065Y-85034664D01*
X202354281Y-85002000D01*
X202521719Y-85002000D01*
X202685935Y-85034664D01*
G37*
G36*
X226561935Y-84780664D02*
G01*
X226716624Y-84844739D01*
X226716626Y-84844740D01*
X226855844Y-84937762D01*
X226974238Y-85056156D01*
X227067260Y-85195374D01*
X227067261Y-85195376D01*
X227131336Y-85350065D01*
X227164000Y-85514281D01*
X227164000Y-85681719D01*
X227131336Y-85845935D01*
X227067261Y-86000624D01*
X227067260Y-86000626D01*
X226974238Y-86139844D01*
X226855844Y-86258238D01*
X226716626Y-86351260D01*
X226716625Y-86351261D01*
X226716624Y-86351261D01*
X226561935Y-86415336D01*
X226397719Y-86448000D01*
X226230281Y-86448000D01*
X226066065Y-86415336D01*
X225911376Y-86351261D01*
X225911375Y-86351261D01*
X225911374Y-86351260D01*
X225772156Y-86258238D01*
X225653762Y-86139844D01*
X225560740Y-86000626D01*
X225560739Y-86000624D01*
X225496664Y-85845935D01*
X225464000Y-85681719D01*
X225464000Y-85514281D01*
X225496664Y-85350065D01*
X225560739Y-85195376D01*
X225560740Y-85195374D01*
X225653762Y-85056156D01*
X225772156Y-84937762D01*
X225911374Y-84844740D01*
X225911376Y-84844739D01*
X226066065Y-84780664D01*
X226230281Y-84748000D01*
X226397719Y-84748000D01*
X226561935Y-84780664D01*
G37*
G36*
X258819935Y-84780664D02*
G01*
X258974624Y-84844739D01*
X258974626Y-84844740D01*
X259113844Y-84937762D01*
X259232238Y-85056156D01*
X259325260Y-85195374D01*
X259325261Y-85195376D01*
X259389336Y-85350065D01*
X259422000Y-85514281D01*
X259422000Y-85681719D01*
X259389336Y-85845935D01*
X259325261Y-86000624D01*
X259325260Y-86000626D01*
X259232238Y-86139844D01*
X259113844Y-86258238D01*
X258974626Y-86351260D01*
X258974625Y-86351261D01*
X258974624Y-86351261D01*
X258819935Y-86415336D01*
X258655719Y-86448000D01*
X258488281Y-86448000D01*
X258324065Y-86415336D01*
X258169376Y-86351261D01*
X258169375Y-86351261D01*
X258169374Y-86351260D01*
X258030156Y-86258238D01*
X257911762Y-86139844D01*
X257818740Y-86000626D01*
X257818739Y-86000624D01*
X257754664Y-85845935D01*
X257722000Y-85681719D01*
X257722000Y-85514281D01*
X257754664Y-85350065D01*
X257818739Y-85195376D01*
X257818740Y-85195374D01*
X257911762Y-85056156D01*
X258030156Y-84937762D01*
X258169374Y-84844740D01*
X258169376Y-84844739D01*
X258324065Y-84780664D01*
X258488281Y-84748000D01*
X258655719Y-84748000D01*
X258819935Y-84780664D01*
G37*
G36*
X222134000Y-85736000D02*
G01*
X220334000Y-85736000D01*
X220334000Y-83936000D01*
X222134000Y-83936000D01*
X222134000Y-85736000D01*
G37*
G36*
X218956520Y-83970586D02*
G01*
X219120310Y-84038430D01*
X219267717Y-84136924D01*
X219393076Y-84262283D01*
X219491570Y-84409690D01*
X219491571Y-84409692D01*
X219559414Y-84573480D01*
X219594000Y-84747356D01*
X219594000Y-84924644D01*
X219559414Y-85098520D01*
X219491570Y-85262310D01*
X219393076Y-85409717D01*
X219267717Y-85535076D01*
X219120310Y-85633570D01*
X219120309Y-85633571D01*
X219120308Y-85633571D01*
X218956520Y-85701414D01*
X218782644Y-85736000D01*
X218605356Y-85736000D01*
X218431480Y-85701414D01*
X218267692Y-85633571D01*
X218267691Y-85633571D01*
X218267690Y-85633570D01*
X218120283Y-85535076D01*
X217994924Y-85409717D01*
X217896430Y-85262310D01*
X217828586Y-85098520D01*
X217794000Y-84924644D01*
X217794000Y-84747356D01*
X217828586Y-84573480D01*
X217896429Y-84409692D01*
X217896430Y-84409690D01*
X217994924Y-84262283D01*
X218120283Y-84136924D01*
X218267690Y-84038430D01*
X218431480Y-83970586D01*
X218605356Y-83936000D01*
X218782644Y-83936000D01*
X218956520Y-83970586D01*
G37*
G36*
X251214520Y-83970586D02*
G01*
X251378310Y-84038430D01*
X251525717Y-84136924D01*
X251651076Y-84262283D01*
X251749570Y-84409690D01*
X251749571Y-84409692D01*
X251817414Y-84573480D01*
X251852000Y-84747356D01*
X251852000Y-84924644D01*
X251817414Y-85098520D01*
X251749570Y-85262310D01*
X251651076Y-85409717D01*
X251525717Y-85535076D01*
X251378310Y-85633570D01*
X251378309Y-85633571D01*
X251378308Y-85633571D01*
X251214520Y-85701414D01*
X251040644Y-85736000D01*
X250863356Y-85736000D01*
X250689480Y-85701414D01*
X250525692Y-85633571D01*
X250525691Y-85633571D01*
X250525690Y-85633570D01*
X250378283Y-85535076D01*
X250252924Y-85409717D01*
X250154430Y-85262310D01*
X250086586Y-85098520D01*
X250052000Y-84924644D01*
X250052000Y-84747356D01*
X250086586Y-84573480D01*
X250154429Y-84409692D01*
X250154430Y-84409690D01*
X250252924Y-84262283D01*
X250378283Y-84136924D01*
X250525690Y-84038430D01*
X250689480Y-83970586D01*
X250863356Y-83936000D01*
X251040644Y-83936000D01*
X251214520Y-83970586D01*
G37*
G36*
X254392000Y-85736000D02*
G01*
X252592000Y-85736000D01*
X252592000Y-83936000D01*
X254392000Y-83936000D01*
X254392000Y-85736000D01*
G37*
G36*
X227164000Y-83908000D02*
G01*
X225464000Y-83908000D01*
X225464000Y-82208000D01*
X227164000Y-82208000D01*
X227164000Y-83908000D01*
G37*
G36*
X259422000Y-83908000D02*
G01*
X257722000Y-83908000D01*
X257722000Y-82208000D01*
X259422000Y-82208000D01*
X259422000Y-83908000D01*
G37*
G36*
X209923000Y-79240000D02*
G01*
X208923000Y-79240000D01*
X208923000Y-78240000D01*
X209923000Y-78240000D01*
X209923000Y-79240000D01*
G37*
G36*
X207028843Y-78259214D02*
G01*
X207028846Y-78259215D01*
X207028845Y-78259215D01*
X207119839Y-78296906D01*
X207154401Y-78320000D01*
X207201730Y-78351624D01*
X207271376Y-78421270D01*
X207326095Y-78503163D01*
X207363786Y-78594157D01*
X207383000Y-78690753D01*
X207383000Y-78789247D01*
X207363786Y-78885843D01*
X207363785Y-78885845D01*
X207326094Y-78976839D01*
X207271375Y-79058731D01*
X207201731Y-79128375D01*
X207119839Y-79183094D01*
X207119838Y-79183095D01*
X207119837Y-79183095D01*
X207028843Y-79220786D01*
X206932247Y-79240000D01*
X206833753Y-79240000D01*
X206737157Y-79220786D01*
X206646163Y-79183095D01*
X206646162Y-79183095D01*
X206646161Y-79183094D01*
X206564269Y-79128375D01*
X206494625Y-79058731D01*
X206439906Y-78976839D01*
X206402215Y-78885845D01*
X206402214Y-78885843D01*
X206383000Y-78789247D01*
X206383000Y-78690753D01*
X206402214Y-78594157D01*
X206439905Y-78503163D01*
X206494624Y-78421270D01*
X206564270Y-78351624D01*
X206611599Y-78320000D01*
X206646161Y-78296906D01*
X206737155Y-78259215D01*
X206737154Y-78259215D01*
X206737157Y-78259214D01*
X206833753Y-78240000D01*
X206932247Y-78240000D01*
X207028843Y-78259214D01*
G37*
G36*
X239286843Y-78259214D02*
G01*
X239286846Y-78259215D01*
X239286845Y-78259215D01*
X239377839Y-78296906D01*
X239412401Y-78320000D01*
X239459730Y-78351624D01*
X239529376Y-78421270D01*
X239584095Y-78503163D01*
X239621786Y-78594157D01*
X239641000Y-78690753D01*
X239641000Y-78789247D01*
X239621786Y-78885843D01*
X239621785Y-78885845D01*
X239584094Y-78976839D01*
X239529375Y-79058731D01*
X239459731Y-79128375D01*
X239377839Y-79183094D01*
X239377838Y-79183095D01*
X239377837Y-79183095D01*
X239286843Y-79220786D01*
X239190247Y-79240000D01*
X239091753Y-79240000D01*
X238995157Y-79220786D01*
X238904163Y-79183095D01*
X238904162Y-79183095D01*
X238904161Y-79183094D01*
X238822269Y-79128375D01*
X238752625Y-79058731D01*
X238697906Y-78976839D01*
X238660215Y-78885845D01*
X238660214Y-78885843D01*
X238641000Y-78789247D01*
X238641000Y-78690753D01*
X238660214Y-78594157D01*
X238697905Y-78503163D01*
X238752624Y-78421270D01*
X238822270Y-78351624D01*
X238869599Y-78320000D01*
X238904161Y-78296906D01*
X238995155Y-78259215D01*
X238995154Y-78259215D01*
X238995157Y-78259214D01*
X239091753Y-78240000D01*
X239190247Y-78240000D01*
X239286843Y-78259214D01*
G37*
G36*
X242181000Y-79240000D02*
G01*
X241181000Y-79240000D01*
X241181000Y-78240000D01*
X242181000Y-78240000D01*
X242181000Y-79240000D01*
G37*
G36*
X263232000Y-78574000D02*
G01*
X261532000Y-78574000D01*
X261532000Y-76874000D01*
X263232000Y-76874000D01*
X263232000Y-78574000D01*
G37*
G36*
X230974000Y-78574000D02*
G01*
X229274000Y-78574000D01*
X229274000Y-76874000D01*
X230974000Y-76874000D01*
X230974000Y-78574000D01*
G37*
G36*
X235546000Y-78320000D02*
G01*
X233846000Y-78320000D01*
X233846000Y-76620000D01*
X235546000Y-76620000D01*
X235546000Y-78320000D01*
G37*
G36*
X203288000Y-78320000D02*
G01*
X201588000Y-78320000D01*
X201588000Y-76620000D01*
X203288000Y-76620000D01*
X203288000Y-78320000D01*
G37*
G36*
X240556843Y-76989214D02*
G01*
X240556846Y-76989215D01*
X240556845Y-76989215D01*
X240647839Y-77026906D01*
X240689063Y-77054451D01*
X240729730Y-77081624D01*
X240799376Y-77151270D01*
X240854095Y-77233163D01*
X240891786Y-77324157D01*
X240911000Y-77420753D01*
X240911000Y-77519247D01*
X240891786Y-77615843D01*
X240891785Y-77615845D01*
X240854094Y-77706839D01*
X240799375Y-77788731D01*
X240729731Y-77858375D01*
X240647839Y-77913094D01*
X240647838Y-77913095D01*
X240647837Y-77913095D01*
X240556843Y-77950786D01*
X240460247Y-77970000D01*
X240361753Y-77970000D01*
X240265157Y-77950786D01*
X240174163Y-77913095D01*
X240174162Y-77913095D01*
X240174161Y-77913094D01*
X240092269Y-77858375D01*
X240022625Y-77788731D01*
X239967906Y-77706839D01*
X239930215Y-77615845D01*
X239930214Y-77615843D01*
X239911000Y-77519247D01*
X239911000Y-77420753D01*
X239930214Y-77324157D01*
X239967905Y-77233163D01*
X240022624Y-77151270D01*
X240092270Y-77081624D01*
X240132937Y-77054451D01*
X240174161Y-77026906D01*
X240265155Y-76989215D01*
X240265154Y-76989215D01*
X240265157Y-76989214D01*
X240361753Y-76970000D01*
X240460247Y-76970000D01*
X240556843Y-76989214D01*
G37*
G36*
X208298843Y-76989214D02*
G01*
X208298846Y-76989215D01*
X208298845Y-76989215D01*
X208389839Y-77026906D01*
X208431063Y-77054451D01*
X208471730Y-77081624D01*
X208541376Y-77151270D01*
X208596095Y-77233163D01*
X208633786Y-77324157D01*
X208653000Y-77420753D01*
X208653000Y-77519247D01*
X208633786Y-77615843D01*
X208633785Y-77615845D01*
X208596094Y-77706839D01*
X208541375Y-77788731D01*
X208471731Y-77858375D01*
X208389839Y-77913094D01*
X208389838Y-77913095D01*
X208389837Y-77913095D01*
X208298843Y-77950786D01*
X208202247Y-77970000D01*
X208103753Y-77970000D01*
X208007157Y-77950786D01*
X207916163Y-77913095D01*
X207916162Y-77913095D01*
X207916161Y-77913094D01*
X207834269Y-77858375D01*
X207764625Y-77788731D01*
X207709906Y-77706839D01*
X207672215Y-77615845D01*
X207672214Y-77615843D01*
X207653000Y-77519247D01*
X207653000Y-77420753D01*
X207672214Y-77324157D01*
X207709905Y-77233163D01*
X207764624Y-77151270D01*
X207834270Y-77081624D01*
X207874937Y-77054451D01*
X207916161Y-77026906D01*
X208007155Y-76989215D01*
X208007154Y-76989215D01*
X208007157Y-76989214D01*
X208103753Y-76970000D01*
X208202247Y-76970000D01*
X208298843Y-76989214D01*
G37*
G36*
X262629935Y-74366664D02*
G01*
X262784624Y-74430739D01*
X262784626Y-74430740D01*
X262923844Y-74523762D01*
X263042238Y-74642156D01*
X263068904Y-74682065D01*
X263135261Y-74781376D01*
X263199336Y-74936065D01*
X263232000Y-75100281D01*
X263232000Y-75267719D01*
X263199336Y-75431935D01*
X263135261Y-75586624D01*
X263135260Y-75586626D01*
X263042238Y-75725844D01*
X262923844Y-75844238D01*
X262784626Y-75937260D01*
X262784625Y-75937261D01*
X262784624Y-75937261D01*
X262629935Y-76001336D01*
X262465719Y-76034000D01*
X262298281Y-76034000D01*
X262134065Y-76001336D01*
X261979376Y-75937261D01*
X261979375Y-75937261D01*
X261979374Y-75937260D01*
X261840156Y-75844238D01*
X261721762Y-75725844D01*
X261628740Y-75586626D01*
X261628739Y-75586624D01*
X261564664Y-75431935D01*
X261532000Y-75267719D01*
X261532000Y-75100281D01*
X261564664Y-74936065D01*
X261628739Y-74781376D01*
X261695096Y-74682065D01*
X261721762Y-74642156D01*
X261840156Y-74523762D01*
X261979374Y-74430740D01*
X261979376Y-74430739D01*
X262134065Y-74366664D01*
X262298281Y-74334000D01*
X262465719Y-74334000D01*
X262629935Y-74366664D01*
G37*
G36*
X230371935Y-74366664D02*
G01*
X230526624Y-74430739D01*
X230526626Y-74430740D01*
X230665844Y-74523762D01*
X230784238Y-74642156D01*
X230810904Y-74682065D01*
X230877261Y-74781376D01*
X230941336Y-74936065D01*
X230974000Y-75100281D01*
X230974000Y-75267719D01*
X230941336Y-75431935D01*
X230877261Y-75586624D01*
X230877260Y-75586626D01*
X230784238Y-75725844D01*
X230665844Y-75844238D01*
X230526626Y-75937260D01*
X230526625Y-75937261D01*
X230526624Y-75937261D01*
X230371935Y-76001336D01*
X230207719Y-76034000D01*
X230040281Y-76034000D01*
X229876065Y-76001336D01*
X229721376Y-75937261D01*
X229721375Y-75937261D01*
X229721374Y-75937260D01*
X229582156Y-75844238D01*
X229463762Y-75725844D01*
X229370740Y-75586626D01*
X229370739Y-75586624D01*
X229306664Y-75431935D01*
X229274000Y-75267719D01*
X229274000Y-75100281D01*
X229306664Y-74936065D01*
X229370739Y-74781376D01*
X229437096Y-74682065D01*
X229463762Y-74642156D01*
X229582156Y-74523762D01*
X229721374Y-74430740D01*
X229721376Y-74430739D01*
X229876065Y-74366664D01*
X230040281Y-74334000D01*
X230207719Y-74334000D01*
X230371935Y-74366664D01*
G37*
G36*
X234943935Y-74112664D02*
G01*
X235098624Y-74176739D01*
X235098626Y-74176740D01*
X235237844Y-74269762D01*
X235356238Y-74388156D01*
X235449260Y-74527374D01*
X235449261Y-74527376D01*
X235513336Y-74682065D01*
X235546000Y-74846281D01*
X235546000Y-75013719D01*
X235513336Y-75177935D01*
X235449261Y-75332624D01*
X235449260Y-75332626D01*
X235356238Y-75471844D01*
X235237844Y-75590238D01*
X235098626Y-75683260D01*
X235098625Y-75683261D01*
X235098624Y-75683261D01*
X234943935Y-75747336D01*
X234779719Y-75780000D01*
X234612281Y-75780000D01*
X234448065Y-75747336D01*
X234293376Y-75683261D01*
X234293375Y-75683261D01*
X234293374Y-75683260D01*
X234154156Y-75590238D01*
X234035762Y-75471844D01*
X233942740Y-75332626D01*
X233942739Y-75332624D01*
X233878664Y-75177935D01*
X233846000Y-75013719D01*
X233846000Y-74846281D01*
X233878664Y-74682065D01*
X233942739Y-74527376D01*
X233942740Y-74527374D01*
X234035762Y-74388156D01*
X234154156Y-74269762D01*
X234293374Y-74176740D01*
X234293376Y-74176739D01*
X234448065Y-74112664D01*
X234612281Y-74080000D01*
X234779719Y-74080000D01*
X234943935Y-74112664D01*
G37*
G36*
X202685935Y-74112664D02*
G01*
X202840624Y-74176739D01*
X202840626Y-74176740D01*
X202979844Y-74269762D01*
X203098238Y-74388156D01*
X203191260Y-74527374D01*
X203191261Y-74527376D01*
X203255336Y-74682065D01*
X203288000Y-74846281D01*
X203288000Y-75013719D01*
X203255336Y-75177935D01*
X203191261Y-75332624D01*
X203191260Y-75332626D01*
X203098238Y-75471844D01*
X202979844Y-75590238D01*
X202840626Y-75683260D01*
X202840625Y-75683261D01*
X202840624Y-75683261D01*
X202685935Y-75747336D01*
X202521719Y-75780000D01*
X202354281Y-75780000D01*
X202190065Y-75747336D01*
X202035376Y-75683261D01*
X202035375Y-75683261D01*
X202035374Y-75683260D01*
X201896156Y-75590238D01*
X201777762Y-75471844D01*
X201684740Y-75332626D01*
X201684739Y-75332624D01*
X201620664Y-75177935D01*
X201588000Y-75013719D01*
X201588000Y-74846281D01*
X201620664Y-74682065D01*
X201684739Y-74527376D01*
X201684740Y-74527374D01*
X201777762Y-74388156D01*
X201896156Y-74269762D01*
X202035374Y-74176740D01*
X202035376Y-74176739D01*
X202190065Y-74112664D01*
X202354281Y-74080000D01*
X202521719Y-74080000D01*
X202685935Y-74112664D01*
G37*
G36*
X262629935Y-71826664D02*
G01*
X262784624Y-71890739D01*
X262784626Y-71890740D01*
X262923844Y-71983762D01*
X263042238Y-72102156D01*
X263068904Y-72142065D01*
X263135261Y-72241376D01*
X263199336Y-72396065D01*
X263232000Y-72560281D01*
X263232000Y-72727719D01*
X263199336Y-72891935D01*
X263135261Y-73046624D01*
X263135260Y-73046626D01*
X263042238Y-73185844D01*
X262923844Y-73304238D01*
X262784626Y-73397260D01*
X262784625Y-73397261D01*
X262784624Y-73397261D01*
X262629935Y-73461336D01*
X262465719Y-73494000D01*
X262298281Y-73494000D01*
X262134065Y-73461336D01*
X261979376Y-73397261D01*
X261979375Y-73397261D01*
X261979374Y-73397260D01*
X261840156Y-73304238D01*
X261721762Y-73185844D01*
X261628740Y-73046626D01*
X261628739Y-73046624D01*
X261564664Y-72891935D01*
X261532000Y-72727719D01*
X261532000Y-72560281D01*
X261564664Y-72396065D01*
X261628739Y-72241376D01*
X261695096Y-72142065D01*
X261721762Y-72102156D01*
X261840156Y-71983762D01*
X261979374Y-71890740D01*
X261979376Y-71890739D01*
X262134065Y-71826664D01*
X262298281Y-71794000D01*
X262465719Y-71794000D01*
X262629935Y-71826664D01*
G37*
G36*
X230371935Y-71826664D02*
G01*
X230526624Y-71890739D01*
X230526626Y-71890740D01*
X230665844Y-71983762D01*
X230784238Y-72102156D01*
X230810904Y-72142065D01*
X230877261Y-72241376D01*
X230941336Y-72396065D01*
X230974000Y-72560281D01*
X230974000Y-72727719D01*
X230941336Y-72891935D01*
X230877261Y-73046624D01*
X230877260Y-73046626D01*
X230784238Y-73185844D01*
X230665844Y-73304238D01*
X230526626Y-73397260D01*
X230526625Y-73397261D01*
X230526624Y-73397261D01*
X230371935Y-73461336D01*
X230207719Y-73494000D01*
X230040281Y-73494000D01*
X229876065Y-73461336D01*
X229721376Y-73397261D01*
X229721375Y-73397261D01*
X229721374Y-73397260D01*
X229582156Y-73304238D01*
X229463762Y-73185844D01*
X229370740Y-73046626D01*
X229370739Y-73046624D01*
X229306664Y-72891935D01*
X229274000Y-72727719D01*
X229274000Y-72560281D01*
X229306664Y-72396065D01*
X229370739Y-72241376D01*
X229437096Y-72142065D01*
X229463762Y-72102156D01*
X229582156Y-71983762D01*
X229721374Y-71890740D01*
X229721376Y-71890739D01*
X229876065Y-71826664D01*
X230040281Y-71794000D01*
X230207719Y-71794000D01*
X230371935Y-71826664D01*
G37*
G36*
X202685935Y-71572664D02*
G01*
X202840624Y-71636739D01*
X202840626Y-71636740D01*
X202979844Y-71729762D01*
X203098238Y-71848156D01*
X203191260Y-71987374D01*
X203191261Y-71987376D01*
X203255336Y-72142065D01*
X203288000Y-72306281D01*
X203288000Y-72473719D01*
X203255336Y-72637935D01*
X203191261Y-72792624D01*
X203191260Y-72792626D01*
X203098238Y-72931844D01*
X202979844Y-73050238D01*
X202840626Y-73143260D01*
X202840625Y-73143261D01*
X202840624Y-73143261D01*
X202685935Y-73207336D01*
X202521719Y-73240000D01*
X202354281Y-73240000D01*
X202190065Y-73207336D01*
X202035376Y-73143261D01*
X202035375Y-73143261D01*
X202035374Y-73143260D01*
X201896156Y-73050238D01*
X201777762Y-72931844D01*
X201684740Y-72792626D01*
X201684739Y-72792624D01*
X201620664Y-72637935D01*
X201588000Y-72473719D01*
X201588000Y-72306281D01*
X201620664Y-72142065D01*
X201684739Y-71987376D01*
X201684740Y-71987374D01*
X201777762Y-71848156D01*
X201896156Y-71729762D01*
X202035374Y-71636740D01*
X202035376Y-71636739D01*
X202190065Y-71572664D01*
X202354281Y-71540000D01*
X202521719Y-71540000D01*
X202685935Y-71572664D01*
G37*
G36*
X234943935Y-71572664D02*
G01*
X235098624Y-71636739D01*
X235098626Y-71636740D01*
X235237844Y-71729762D01*
X235356238Y-71848156D01*
X235449260Y-71987374D01*
X235449261Y-71987376D01*
X235513336Y-72142065D01*
X235546000Y-72306281D01*
X235546000Y-72473719D01*
X235513336Y-72637935D01*
X235449261Y-72792624D01*
X235449260Y-72792626D01*
X235356238Y-72931844D01*
X235237844Y-73050238D01*
X235098626Y-73143260D01*
X235098625Y-73143261D01*
X235098624Y-73143261D01*
X234943935Y-73207336D01*
X234779719Y-73240000D01*
X234612281Y-73240000D01*
X234448065Y-73207336D01*
X234293376Y-73143261D01*
X234293375Y-73143261D01*
X234293374Y-73143260D01*
X234154156Y-73050238D01*
X234035762Y-72931844D01*
X233942740Y-72792626D01*
X233942739Y-72792624D01*
X233878664Y-72637935D01*
X233846000Y-72473719D01*
X233846000Y-72306281D01*
X233878664Y-72142065D01*
X233942739Y-71987376D01*
X233942740Y-71987374D01*
X234035762Y-71848156D01*
X234154156Y-71729762D01*
X234293374Y-71636740D01*
X234293376Y-71636739D01*
X234448065Y-71572664D01*
X234612281Y-71540000D01*
X234779719Y-71540000D01*
X234943935Y-71572664D01*
G37*
G36*
X262629935Y-69286664D02*
G01*
X262784624Y-69350739D01*
X262784626Y-69350740D01*
X262923844Y-69443762D01*
X263042238Y-69562156D01*
X263068904Y-69602065D01*
X263135261Y-69701376D01*
X263199336Y-69856065D01*
X263232000Y-70020281D01*
X263232000Y-70187719D01*
X263199336Y-70351935D01*
X263135261Y-70506624D01*
X263135260Y-70506626D01*
X263042238Y-70645844D01*
X262923844Y-70764238D01*
X262784626Y-70857260D01*
X262784625Y-70857261D01*
X262784624Y-70857261D01*
X262629935Y-70921336D01*
X262465719Y-70954000D01*
X262298281Y-70954000D01*
X262134065Y-70921336D01*
X261979376Y-70857261D01*
X261979375Y-70857261D01*
X261979374Y-70857260D01*
X261840156Y-70764238D01*
X261721762Y-70645844D01*
X261628740Y-70506626D01*
X261628739Y-70506624D01*
X261564664Y-70351935D01*
X261532000Y-70187719D01*
X261532000Y-70020281D01*
X261564664Y-69856065D01*
X261628739Y-69701376D01*
X261695096Y-69602065D01*
X261721762Y-69562156D01*
X261840156Y-69443762D01*
X261979374Y-69350740D01*
X261979376Y-69350739D01*
X262134065Y-69286664D01*
X262298281Y-69254000D01*
X262465719Y-69254000D01*
X262629935Y-69286664D01*
G37*
G36*
X230371935Y-69286664D02*
G01*
X230526624Y-69350739D01*
X230526626Y-69350740D01*
X230665844Y-69443762D01*
X230784238Y-69562156D01*
X230810904Y-69602065D01*
X230877261Y-69701376D01*
X230941336Y-69856065D01*
X230974000Y-70020281D01*
X230974000Y-70187719D01*
X230941336Y-70351935D01*
X230877261Y-70506624D01*
X230877260Y-70506626D01*
X230784238Y-70645844D01*
X230665844Y-70764238D01*
X230526626Y-70857260D01*
X230526625Y-70857261D01*
X230526624Y-70857261D01*
X230371935Y-70921336D01*
X230207719Y-70954000D01*
X230040281Y-70954000D01*
X229876065Y-70921336D01*
X229721376Y-70857261D01*
X229721375Y-70857261D01*
X229721374Y-70857260D01*
X229582156Y-70764238D01*
X229463762Y-70645844D01*
X229370740Y-70506626D01*
X229370739Y-70506624D01*
X229306664Y-70351935D01*
X229274000Y-70187719D01*
X229274000Y-70020281D01*
X229306664Y-69856065D01*
X229370739Y-69701376D01*
X229437096Y-69602065D01*
X229463762Y-69562156D01*
X229582156Y-69443762D01*
X229721374Y-69350740D01*
X229721376Y-69350739D01*
X229876065Y-69286664D01*
X230040281Y-69254000D01*
X230207719Y-69254000D01*
X230371935Y-69286664D01*
G37*
G36*
X202685935Y-69032664D02*
G01*
X202840624Y-69096739D01*
X202840626Y-69096740D01*
X202979844Y-69189762D01*
X203098238Y-69308156D01*
X203191260Y-69447374D01*
X203191261Y-69447376D01*
X203255336Y-69602065D01*
X203288000Y-69766281D01*
X203288000Y-69933719D01*
X203255336Y-70097935D01*
X203191261Y-70252624D01*
X203191260Y-70252626D01*
X203098238Y-70391844D01*
X202979844Y-70510238D01*
X202840626Y-70603260D01*
X202840625Y-70603261D01*
X202840624Y-70603261D01*
X202685935Y-70667336D01*
X202521719Y-70700000D01*
X202354281Y-70700000D01*
X202190065Y-70667336D01*
X202035376Y-70603261D01*
X202035375Y-70603261D01*
X202035374Y-70603260D01*
X201896156Y-70510238D01*
X201777762Y-70391844D01*
X201684740Y-70252626D01*
X201684739Y-70252624D01*
X201620664Y-70097935D01*
X201588000Y-69933719D01*
X201588000Y-69766281D01*
X201620664Y-69602065D01*
X201684739Y-69447376D01*
X201684740Y-69447374D01*
X201777762Y-69308156D01*
X201896156Y-69189762D01*
X202035374Y-69096740D01*
X202035376Y-69096739D01*
X202190065Y-69032664D01*
X202354281Y-69000000D01*
X202521719Y-69000000D01*
X202685935Y-69032664D01*
G37*
G36*
X234943935Y-69032664D02*
G01*
X235098624Y-69096739D01*
X235098626Y-69096740D01*
X235237844Y-69189762D01*
X235356238Y-69308156D01*
X235449260Y-69447374D01*
X235449261Y-69447376D01*
X235513336Y-69602065D01*
X235546000Y-69766281D01*
X235546000Y-69933719D01*
X235513336Y-70097935D01*
X235449261Y-70252624D01*
X235449260Y-70252626D01*
X235356238Y-70391844D01*
X235237844Y-70510238D01*
X235098626Y-70603260D01*
X235098625Y-70603261D01*
X235098624Y-70603261D01*
X234943935Y-70667336D01*
X234779719Y-70700000D01*
X234612281Y-70700000D01*
X234448065Y-70667336D01*
X234293376Y-70603261D01*
X234293375Y-70603261D01*
X234293374Y-70603260D01*
X234154156Y-70510238D01*
X234035762Y-70391844D01*
X233942740Y-70252626D01*
X233942739Y-70252624D01*
X233878664Y-70097935D01*
X233846000Y-69933719D01*
X233846000Y-69766281D01*
X233878664Y-69602065D01*
X233942739Y-69447376D01*
X233942740Y-69447374D01*
X234035762Y-69308156D01*
X234154156Y-69189762D01*
X234293374Y-69096740D01*
X234293376Y-69096739D01*
X234448065Y-69032664D01*
X234612281Y-69000000D01*
X234779719Y-69000000D01*
X234943935Y-69032664D01*
G37*
G36*
X262629935Y-66746664D02*
G01*
X262778166Y-66808064D01*
X262784626Y-66810740D01*
X262923844Y-66903762D01*
X263042238Y-67022156D01*
X263133950Y-67159414D01*
X263135261Y-67161376D01*
X263199336Y-67316065D01*
X263232000Y-67480281D01*
X263232000Y-67647719D01*
X263199336Y-67811935D01*
X263135261Y-67966624D01*
X263135260Y-67966626D01*
X263042238Y-68105844D01*
X262923844Y-68224238D01*
X262784626Y-68317260D01*
X262784625Y-68317261D01*
X262784624Y-68317261D01*
X262629935Y-68381336D01*
X262465719Y-68414000D01*
X262298281Y-68414000D01*
X262134065Y-68381336D01*
X261979376Y-68317261D01*
X261979375Y-68317261D01*
X261979374Y-68317260D01*
X261840156Y-68224238D01*
X261721762Y-68105844D01*
X261628740Y-67966626D01*
X261628739Y-67966624D01*
X261564664Y-67811935D01*
X261532000Y-67647719D01*
X261532000Y-67480281D01*
X261564664Y-67316065D01*
X261628739Y-67161376D01*
X261630050Y-67159414D01*
X261721762Y-67022156D01*
X261840156Y-66903762D01*
X261979374Y-66810740D01*
X261985834Y-66808064D01*
X262134065Y-66746664D01*
X262298281Y-66714000D01*
X262465719Y-66714000D01*
X262629935Y-66746664D01*
G37*
G36*
X230371935Y-66746664D02*
G01*
X230520166Y-66808064D01*
X230526626Y-66810740D01*
X230665844Y-66903762D01*
X230784238Y-67022156D01*
X230875950Y-67159414D01*
X230877261Y-67161376D01*
X230941336Y-67316065D01*
X230974000Y-67480281D01*
X230974000Y-67647719D01*
X230941336Y-67811935D01*
X230877261Y-67966624D01*
X230877260Y-67966626D01*
X230784238Y-68105844D01*
X230665844Y-68224238D01*
X230526626Y-68317260D01*
X230526625Y-68317261D01*
X230526624Y-68317261D01*
X230371935Y-68381336D01*
X230207719Y-68414000D01*
X230040281Y-68414000D01*
X229876065Y-68381336D01*
X229721376Y-68317261D01*
X229721375Y-68317261D01*
X229721374Y-68317260D01*
X229582156Y-68224238D01*
X229463762Y-68105844D01*
X229370740Y-67966626D01*
X229370739Y-67966624D01*
X229306664Y-67811935D01*
X229274000Y-67647719D01*
X229274000Y-67480281D01*
X229306664Y-67316065D01*
X229370739Y-67161376D01*
X229372050Y-67159414D01*
X229463762Y-67022156D01*
X229582156Y-66903762D01*
X229721374Y-66810740D01*
X229727834Y-66808064D01*
X229876065Y-66746664D01*
X230040281Y-66714000D01*
X230207719Y-66714000D01*
X230371935Y-66746664D01*
G37*
G36*
X202685935Y-66492664D02*
G01*
X202840095Y-66556520D01*
X202840626Y-66556740D01*
X202979844Y-66649762D01*
X203098238Y-66768156D01*
X203191260Y-66907374D01*
X203191261Y-66907376D01*
X203255336Y-67062065D01*
X203288000Y-67226281D01*
X203288000Y-67393719D01*
X203255336Y-67557935D01*
X203191261Y-67712624D01*
X203191260Y-67712626D01*
X203098238Y-67851844D01*
X202979844Y-67970238D01*
X202840626Y-68063260D01*
X202840625Y-68063261D01*
X202840624Y-68063261D01*
X202685935Y-68127336D01*
X202521719Y-68160000D01*
X202354281Y-68160000D01*
X202190065Y-68127336D01*
X202035376Y-68063261D01*
X202035375Y-68063261D01*
X202035374Y-68063260D01*
X201896156Y-67970238D01*
X201777762Y-67851844D01*
X201684740Y-67712626D01*
X201684739Y-67712624D01*
X201620664Y-67557935D01*
X201588000Y-67393719D01*
X201588000Y-67226281D01*
X201620664Y-67062065D01*
X201684739Y-66907376D01*
X201684740Y-66907374D01*
X201777762Y-66768156D01*
X201896156Y-66649762D01*
X202035374Y-66556740D01*
X202035905Y-66556520D01*
X202190065Y-66492664D01*
X202354281Y-66460000D01*
X202521719Y-66460000D01*
X202685935Y-66492664D01*
G37*
G36*
X234943935Y-66492664D02*
G01*
X235098095Y-66556520D01*
X235098626Y-66556740D01*
X235237844Y-66649762D01*
X235356238Y-66768156D01*
X235449260Y-66907374D01*
X235449261Y-66907376D01*
X235513336Y-67062065D01*
X235546000Y-67226281D01*
X235546000Y-67393719D01*
X235513336Y-67557935D01*
X235449261Y-67712624D01*
X235449260Y-67712626D01*
X235356238Y-67851844D01*
X235237844Y-67970238D01*
X235098626Y-68063260D01*
X235098625Y-68063261D01*
X235098624Y-68063261D01*
X234943935Y-68127336D01*
X234779719Y-68160000D01*
X234612281Y-68160000D01*
X234448065Y-68127336D01*
X234293376Y-68063261D01*
X234293375Y-68063261D01*
X234293374Y-68063260D01*
X234154156Y-67970238D01*
X234035762Y-67851844D01*
X233942740Y-67712626D01*
X233942739Y-67712624D01*
X233878664Y-67557935D01*
X233846000Y-67393719D01*
X233846000Y-67226281D01*
X233878664Y-67062065D01*
X233942739Y-66907376D01*
X233942740Y-66907374D01*
X234035762Y-66768156D01*
X234154156Y-66649762D01*
X234293374Y-66556740D01*
X234293905Y-66556520D01*
X234448065Y-66492664D01*
X234612281Y-66460000D01*
X234779719Y-66460000D01*
X234943935Y-66492664D01*
G37*
G36*
X226561935Y-66238664D02*
G01*
X226716624Y-66302739D01*
X226716626Y-66302740D01*
X226855844Y-66395762D01*
X226974238Y-66514156D01*
X227067260Y-66653374D01*
X227067261Y-66653376D01*
X227131336Y-66808065D01*
X227164000Y-66972281D01*
X227164000Y-67139719D01*
X227131336Y-67303935D01*
X227067261Y-67458624D01*
X227067260Y-67458626D01*
X226974238Y-67597844D01*
X226855844Y-67716238D01*
X226716626Y-67809260D01*
X226716625Y-67809261D01*
X226716624Y-67809261D01*
X226561935Y-67873336D01*
X226397719Y-67906000D01*
X226230281Y-67906000D01*
X226066065Y-67873336D01*
X225911376Y-67809261D01*
X225911375Y-67809261D01*
X225911374Y-67809260D01*
X225772156Y-67716238D01*
X225653762Y-67597844D01*
X225560740Y-67458626D01*
X225560739Y-67458624D01*
X225496664Y-67303935D01*
X225464000Y-67139719D01*
X225464000Y-66972281D01*
X225496664Y-66808065D01*
X225560739Y-66653376D01*
X225560740Y-66653374D01*
X225653762Y-66514156D01*
X225772156Y-66395762D01*
X225911374Y-66302740D01*
X225911376Y-66302739D01*
X226066065Y-66238664D01*
X226230281Y-66206000D01*
X226397719Y-66206000D01*
X226561935Y-66238664D01*
G37*
G36*
X258819935Y-66238664D02*
G01*
X258974624Y-66302739D01*
X258974626Y-66302740D01*
X259113844Y-66395762D01*
X259232238Y-66514156D01*
X259325260Y-66653374D01*
X259325261Y-66653376D01*
X259389336Y-66808065D01*
X259422000Y-66972281D01*
X259422000Y-67139719D01*
X259389336Y-67303935D01*
X259325261Y-67458624D01*
X259325260Y-67458626D01*
X259232238Y-67597844D01*
X259113844Y-67716238D01*
X258974626Y-67809260D01*
X258974625Y-67809261D01*
X258974624Y-67809261D01*
X258819935Y-67873336D01*
X258655719Y-67906000D01*
X258488281Y-67906000D01*
X258324065Y-67873336D01*
X258169376Y-67809261D01*
X258169375Y-67809261D01*
X258169374Y-67809260D01*
X258030156Y-67716238D01*
X257911762Y-67597844D01*
X257818740Y-67458626D01*
X257818739Y-67458624D01*
X257754664Y-67303935D01*
X257722000Y-67139719D01*
X257722000Y-66972281D01*
X257754664Y-66808065D01*
X257818739Y-66653376D01*
X257818740Y-66653374D01*
X257911762Y-66514156D01*
X258030156Y-66395762D01*
X258169374Y-66302740D01*
X258169376Y-66302739D01*
X258324065Y-66238664D01*
X258488281Y-66206000D01*
X258655719Y-66206000D01*
X258819935Y-66238664D01*
G37*
G36*
X251214520Y-65428586D02*
G01*
X251378310Y-65496430D01*
X251525717Y-65594924D01*
X251651076Y-65720283D01*
X251749570Y-65867690D01*
X251749571Y-65867692D01*
X251817414Y-66031480D01*
X251852000Y-66205356D01*
X251852000Y-66382644D01*
X251817414Y-66556520D01*
X251749570Y-66720310D01*
X251651076Y-66867717D01*
X251525717Y-66993076D01*
X251378310Y-67091570D01*
X251378309Y-67091571D01*
X251378308Y-67091571D01*
X251214520Y-67159414D01*
X251040644Y-67194000D01*
X250863356Y-67194000D01*
X250689480Y-67159414D01*
X250525692Y-67091571D01*
X250525691Y-67091571D01*
X250525690Y-67091570D01*
X250378283Y-66993076D01*
X250252924Y-66867717D01*
X250154430Y-66720310D01*
X250086586Y-66556520D01*
X250052000Y-66382644D01*
X250052000Y-66205356D01*
X250086586Y-66031480D01*
X250154429Y-65867692D01*
X250154430Y-65867690D01*
X250252924Y-65720283D01*
X250378283Y-65594924D01*
X250525690Y-65496430D01*
X250689480Y-65428586D01*
X250863356Y-65394000D01*
X251040644Y-65394000D01*
X251214520Y-65428586D01*
G37*
G36*
X222134000Y-67194000D02*
G01*
X220334000Y-67194000D01*
X220334000Y-65394000D01*
X222134000Y-65394000D01*
X222134000Y-67194000D01*
G37*
G36*
X218956520Y-65428586D02*
G01*
X219120310Y-65496430D01*
X219267717Y-65594924D01*
X219393076Y-65720283D01*
X219491570Y-65867690D01*
X219491571Y-65867692D01*
X219559414Y-66031480D01*
X219594000Y-66205356D01*
X219594000Y-66382644D01*
X219559414Y-66556520D01*
X219491570Y-66720310D01*
X219393076Y-66867717D01*
X219267717Y-66993076D01*
X219120310Y-67091570D01*
X219120309Y-67091571D01*
X219120308Y-67091571D01*
X218956520Y-67159414D01*
X218782644Y-67194000D01*
X218605356Y-67194000D01*
X218431480Y-67159414D01*
X218267692Y-67091571D01*
X218267691Y-67091571D01*
X218267690Y-67091570D01*
X218120283Y-66993076D01*
X217994924Y-66867717D01*
X217896430Y-66720310D01*
X217828586Y-66556520D01*
X217794000Y-66382644D01*
X217794000Y-66205356D01*
X217828586Y-66031480D01*
X217896429Y-65867692D01*
X217896430Y-65867690D01*
X217994924Y-65720283D01*
X218120283Y-65594924D01*
X218267690Y-65496430D01*
X218431480Y-65428586D01*
X218605356Y-65394000D01*
X218782644Y-65394000D01*
X218956520Y-65428586D01*
G37*
G36*
X254392000Y-67194000D02*
G01*
X252592000Y-67194000D01*
X252592000Y-65394000D01*
X254392000Y-65394000D01*
X254392000Y-67194000D01*
G37*
G36*
X259422000Y-65366000D02*
G01*
X257722000Y-65366000D01*
X257722000Y-63666000D01*
X259422000Y-63666000D01*
X259422000Y-65366000D01*
G37*
G36*
X227164000Y-65366000D02*
G01*
X225464000Y-65366000D01*
X225464000Y-63666000D01*
X227164000Y-63666000D01*
X227164000Y-65366000D01*
G37*
G36*
X242181000Y-60698000D02*
G01*
X241181000Y-60698000D01*
X241181000Y-59698000D01*
X242181000Y-59698000D01*
X242181000Y-60698000D01*
G37*
G36*
X207028843Y-59717214D02*
G01*
X207028846Y-59717215D01*
X207028845Y-59717215D01*
X207119839Y-59754906D01*
X207154401Y-59778000D01*
X207201730Y-59809624D01*
X207271376Y-59879270D01*
X207326095Y-59961163D01*
X207363786Y-60052157D01*
X207383000Y-60148753D01*
X207383000Y-60247247D01*
X207363786Y-60343843D01*
X207363785Y-60343845D01*
X207326094Y-60434839D01*
X207271375Y-60516731D01*
X207201731Y-60586375D01*
X207119839Y-60641094D01*
X207119838Y-60641095D01*
X207119837Y-60641095D01*
X207028843Y-60678786D01*
X206932247Y-60698000D01*
X206833753Y-60698000D01*
X206737157Y-60678786D01*
X206646163Y-60641095D01*
X206646162Y-60641095D01*
X206646161Y-60641094D01*
X206564269Y-60586375D01*
X206494625Y-60516731D01*
X206439906Y-60434839D01*
X206402215Y-60343845D01*
X206402214Y-60343843D01*
X206383000Y-60247247D01*
X206383000Y-60148753D01*
X206402214Y-60052157D01*
X206439905Y-59961163D01*
X206494624Y-59879270D01*
X206564270Y-59809624D01*
X206611599Y-59778000D01*
X206646161Y-59754906D01*
X206737155Y-59717215D01*
X206737154Y-59717215D01*
X206737157Y-59717214D01*
X206833753Y-59698000D01*
X206932247Y-59698000D01*
X207028843Y-59717214D01*
G37*
G36*
X209923000Y-60698000D02*
G01*
X208923000Y-60698000D01*
X208923000Y-59698000D01*
X209923000Y-59698000D01*
X209923000Y-60698000D01*
G37*
G36*
X239286843Y-59717214D02*
G01*
X239286846Y-59717215D01*
X239286845Y-59717215D01*
X239377839Y-59754906D01*
X239412401Y-59778000D01*
X239459730Y-59809624D01*
X239529376Y-59879270D01*
X239584095Y-59961163D01*
X239621786Y-60052157D01*
X239641000Y-60148753D01*
X239641000Y-60247247D01*
X239621786Y-60343843D01*
X239621785Y-60343845D01*
X239584094Y-60434839D01*
X239529375Y-60516731D01*
X239459731Y-60586375D01*
X239377839Y-60641094D01*
X239377838Y-60641095D01*
X239377837Y-60641095D01*
X239286843Y-60678786D01*
X239190247Y-60698000D01*
X239091753Y-60698000D01*
X238995157Y-60678786D01*
X238904163Y-60641095D01*
X238904162Y-60641095D01*
X238904161Y-60641094D01*
X238822269Y-60586375D01*
X238752625Y-60516731D01*
X238697906Y-60434839D01*
X238660215Y-60343845D01*
X238660214Y-60343843D01*
X238641000Y-60247247D01*
X238641000Y-60148753D01*
X238660214Y-60052157D01*
X238697905Y-59961163D01*
X238752624Y-59879270D01*
X238822270Y-59809624D01*
X238869599Y-59778000D01*
X238904161Y-59754906D01*
X238995155Y-59717215D01*
X238995154Y-59717215D01*
X238995157Y-59717214D01*
X239091753Y-59698000D01*
X239190247Y-59698000D01*
X239286843Y-59717214D01*
G37*
G36*
X230974000Y-60032000D02*
G01*
X229274000Y-60032000D01*
X229274000Y-58332000D01*
X230974000Y-58332000D01*
X230974000Y-60032000D01*
G37*
G36*
X263232000Y-60032000D02*
G01*
X261532000Y-60032000D01*
X261532000Y-58332000D01*
X263232000Y-58332000D01*
X263232000Y-60032000D01*
G37*
G36*
X203288000Y-59778000D02*
G01*
X201588000Y-59778000D01*
X201588000Y-58078000D01*
X203288000Y-58078000D01*
X203288000Y-59778000D01*
G37*
G36*
X235546000Y-59778000D02*
G01*
X233846000Y-59778000D01*
X233846000Y-58078000D01*
X235546000Y-58078000D01*
X235546000Y-59778000D01*
G37*
G36*
X208298843Y-58447214D02*
G01*
X208298846Y-58447215D01*
X208298845Y-58447215D01*
X208389839Y-58484906D01*
X208431063Y-58512451D01*
X208471730Y-58539624D01*
X208541376Y-58609270D01*
X208596095Y-58691163D01*
X208633786Y-58782157D01*
X208653000Y-58878753D01*
X208653000Y-58977247D01*
X208633786Y-59073843D01*
X208633785Y-59073845D01*
X208596094Y-59164839D01*
X208541375Y-59246731D01*
X208471731Y-59316375D01*
X208389839Y-59371094D01*
X208389838Y-59371095D01*
X208389837Y-59371095D01*
X208298843Y-59408786D01*
X208202247Y-59428000D01*
X208103753Y-59428000D01*
X208007157Y-59408786D01*
X207916163Y-59371095D01*
X207916162Y-59371095D01*
X207916161Y-59371094D01*
X207834269Y-59316375D01*
X207764625Y-59246731D01*
X207709906Y-59164839D01*
X207672215Y-59073845D01*
X207672214Y-59073843D01*
X207653000Y-58977247D01*
X207653000Y-58878753D01*
X207672214Y-58782157D01*
X207709905Y-58691163D01*
X207764624Y-58609270D01*
X207834270Y-58539624D01*
X207874937Y-58512451D01*
X207916161Y-58484906D01*
X208007155Y-58447215D01*
X208007154Y-58447215D01*
X208007157Y-58447214D01*
X208103753Y-58428000D01*
X208202247Y-58428000D01*
X208298843Y-58447214D01*
G37*
G36*
X240556843Y-58447214D02*
G01*
X240556846Y-58447215D01*
X240556845Y-58447215D01*
X240647839Y-58484906D01*
X240689063Y-58512451D01*
X240729730Y-58539624D01*
X240799376Y-58609270D01*
X240854095Y-58691163D01*
X240891786Y-58782157D01*
X240911000Y-58878753D01*
X240911000Y-58977247D01*
X240891786Y-59073843D01*
X240891785Y-59073845D01*
X240854094Y-59164839D01*
X240799375Y-59246731D01*
X240729731Y-59316375D01*
X240647839Y-59371094D01*
X240647838Y-59371095D01*
X240647837Y-59371095D01*
X240556843Y-59408786D01*
X240460247Y-59428000D01*
X240361753Y-59428000D01*
X240265157Y-59408786D01*
X240174163Y-59371095D01*
X240174162Y-59371095D01*
X240174161Y-59371094D01*
X240092269Y-59316375D01*
X240022625Y-59246731D01*
X239967906Y-59164839D01*
X239930215Y-59073845D01*
X239930214Y-59073843D01*
X239911000Y-58977247D01*
X239911000Y-58878753D01*
X239930214Y-58782157D01*
X239967905Y-58691163D01*
X240022624Y-58609270D01*
X240092270Y-58539624D01*
X240132937Y-58512451D01*
X240174161Y-58484906D01*
X240265155Y-58447215D01*
X240265154Y-58447215D01*
X240265157Y-58447214D01*
X240361753Y-58428000D01*
X240460247Y-58428000D01*
X240556843Y-58447214D01*
G37*
G36*
X230371935Y-55824664D02*
G01*
X230526624Y-55888739D01*
X230526626Y-55888740D01*
X230665844Y-55981762D01*
X230784238Y-56100156D01*
X230810904Y-56140065D01*
X230877261Y-56239376D01*
X230941336Y-56394065D01*
X230974000Y-56558281D01*
X230974000Y-56725719D01*
X230941336Y-56889935D01*
X230877261Y-57044624D01*
X230877260Y-57044626D01*
X230784238Y-57183844D01*
X230665844Y-57302238D01*
X230526626Y-57395260D01*
X230526625Y-57395261D01*
X230526624Y-57395261D01*
X230371935Y-57459336D01*
X230207719Y-57492000D01*
X230040281Y-57492000D01*
X229876065Y-57459336D01*
X229721376Y-57395261D01*
X229721375Y-57395261D01*
X229721374Y-57395260D01*
X229582156Y-57302238D01*
X229463762Y-57183844D01*
X229370740Y-57044626D01*
X229370739Y-57044624D01*
X229306664Y-56889935D01*
X229274000Y-56725719D01*
X229274000Y-56558281D01*
X229306664Y-56394065D01*
X229370739Y-56239376D01*
X229437096Y-56140065D01*
X229463762Y-56100156D01*
X229582156Y-55981762D01*
X229721374Y-55888740D01*
X229721376Y-55888739D01*
X229876065Y-55824664D01*
X230040281Y-55792000D01*
X230207719Y-55792000D01*
X230371935Y-55824664D01*
G37*
G36*
X262629935Y-55824664D02*
G01*
X262784624Y-55888739D01*
X262784626Y-55888740D01*
X262923844Y-55981762D01*
X263042238Y-56100156D01*
X263068904Y-56140065D01*
X263135261Y-56239376D01*
X263199336Y-56394065D01*
X263232000Y-56558281D01*
X263232000Y-56725719D01*
X263199336Y-56889935D01*
X263135261Y-57044624D01*
X263135260Y-57044626D01*
X263042238Y-57183844D01*
X262923844Y-57302238D01*
X262784626Y-57395260D01*
X262784625Y-57395261D01*
X262784624Y-57395261D01*
X262629935Y-57459336D01*
X262465719Y-57492000D01*
X262298281Y-57492000D01*
X262134065Y-57459336D01*
X261979376Y-57395261D01*
X261979375Y-57395261D01*
X261979374Y-57395260D01*
X261840156Y-57302238D01*
X261721762Y-57183844D01*
X261628740Y-57044626D01*
X261628739Y-57044624D01*
X261564664Y-56889935D01*
X261532000Y-56725719D01*
X261532000Y-56558281D01*
X261564664Y-56394065D01*
X261628739Y-56239376D01*
X261695096Y-56140065D01*
X261721762Y-56100156D01*
X261840156Y-55981762D01*
X261979374Y-55888740D01*
X261979376Y-55888739D01*
X262134065Y-55824664D01*
X262298281Y-55792000D01*
X262465719Y-55792000D01*
X262629935Y-55824664D01*
G37*
G36*
X202685935Y-55570664D02*
G01*
X202840624Y-55634739D01*
X202840626Y-55634740D01*
X202979844Y-55727762D01*
X203098238Y-55846156D01*
X203191260Y-55985374D01*
X203191261Y-55985376D01*
X203255336Y-56140065D01*
X203288000Y-56304281D01*
X203288000Y-56471719D01*
X203255336Y-56635935D01*
X203191261Y-56790624D01*
X203191260Y-56790626D01*
X203098238Y-56929844D01*
X202979844Y-57048238D01*
X202840626Y-57141260D01*
X202840625Y-57141261D01*
X202840624Y-57141261D01*
X202685935Y-57205336D01*
X202521719Y-57238000D01*
X202354281Y-57238000D01*
X202190065Y-57205336D01*
X202035376Y-57141261D01*
X202035375Y-57141261D01*
X202035374Y-57141260D01*
X201896156Y-57048238D01*
X201777762Y-56929844D01*
X201684740Y-56790626D01*
X201684739Y-56790624D01*
X201620664Y-56635935D01*
X201588000Y-56471719D01*
X201588000Y-56304281D01*
X201620664Y-56140065D01*
X201684739Y-55985376D01*
X201684740Y-55985374D01*
X201777762Y-55846156D01*
X201896156Y-55727762D01*
X202035374Y-55634740D01*
X202035376Y-55634739D01*
X202190065Y-55570664D01*
X202354281Y-55538000D01*
X202521719Y-55538000D01*
X202685935Y-55570664D01*
G37*
G36*
X234943935Y-55570664D02*
G01*
X235098624Y-55634739D01*
X235098626Y-55634740D01*
X235237844Y-55727762D01*
X235356238Y-55846156D01*
X235449260Y-55985374D01*
X235449261Y-55985376D01*
X235513336Y-56140065D01*
X235546000Y-56304281D01*
X235546000Y-56471719D01*
X235513336Y-56635935D01*
X235449261Y-56790624D01*
X235449260Y-56790626D01*
X235356238Y-56929844D01*
X235237844Y-57048238D01*
X235098626Y-57141260D01*
X235098625Y-57141261D01*
X235098624Y-57141261D01*
X234943935Y-57205336D01*
X234779719Y-57238000D01*
X234612281Y-57238000D01*
X234448065Y-57205336D01*
X234293376Y-57141261D01*
X234293375Y-57141261D01*
X234293374Y-57141260D01*
X234154156Y-57048238D01*
X234035762Y-56929844D01*
X233942740Y-56790626D01*
X233942739Y-56790624D01*
X233878664Y-56635935D01*
X233846000Y-56471719D01*
X233846000Y-56304281D01*
X233878664Y-56140065D01*
X233942739Y-55985376D01*
X233942740Y-55985374D01*
X234035762Y-55846156D01*
X234154156Y-55727762D01*
X234293374Y-55634740D01*
X234293376Y-55634739D01*
X234448065Y-55570664D01*
X234612281Y-55538000D01*
X234779719Y-55538000D01*
X234943935Y-55570664D01*
G37*
G36*
X262629935Y-53284664D02*
G01*
X262784624Y-53348739D01*
X262784626Y-53348740D01*
X262923844Y-53441762D01*
X263042238Y-53560156D01*
X263068904Y-53600065D01*
X263135261Y-53699376D01*
X263199336Y-53854065D01*
X263232000Y-54018281D01*
X263232000Y-54185719D01*
X263199336Y-54349935D01*
X263135261Y-54504624D01*
X263135260Y-54504626D01*
X263042238Y-54643844D01*
X262923844Y-54762238D01*
X262784626Y-54855260D01*
X262784625Y-54855261D01*
X262784624Y-54855261D01*
X262629935Y-54919336D01*
X262465719Y-54952000D01*
X262298281Y-54952000D01*
X262134065Y-54919336D01*
X261979376Y-54855261D01*
X261979375Y-54855261D01*
X261979374Y-54855260D01*
X261840156Y-54762238D01*
X261721762Y-54643844D01*
X261628740Y-54504626D01*
X261628739Y-54504624D01*
X261564664Y-54349935D01*
X261532000Y-54185719D01*
X261532000Y-54018281D01*
X261564664Y-53854065D01*
X261628739Y-53699376D01*
X261695096Y-53600065D01*
X261721762Y-53560156D01*
X261840156Y-53441762D01*
X261979374Y-53348740D01*
X261979376Y-53348739D01*
X262134065Y-53284664D01*
X262298281Y-53252000D01*
X262465719Y-53252000D01*
X262629935Y-53284664D01*
G37*
G36*
X230371935Y-53284664D02*
G01*
X230526624Y-53348739D01*
X230526626Y-53348740D01*
X230665844Y-53441762D01*
X230784238Y-53560156D01*
X230810904Y-53600065D01*
X230877261Y-53699376D01*
X230941336Y-53854065D01*
X230974000Y-54018281D01*
X230974000Y-54185719D01*
X230941336Y-54349935D01*
X230877261Y-54504624D01*
X230877260Y-54504626D01*
X230784238Y-54643844D01*
X230665844Y-54762238D01*
X230526626Y-54855260D01*
X230526625Y-54855261D01*
X230526624Y-54855261D01*
X230371935Y-54919336D01*
X230207719Y-54952000D01*
X230040281Y-54952000D01*
X229876065Y-54919336D01*
X229721376Y-54855261D01*
X229721375Y-54855261D01*
X229721374Y-54855260D01*
X229582156Y-54762238D01*
X229463762Y-54643844D01*
X229370740Y-54504626D01*
X229370739Y-54504624D01*
X229306664Y-54349935D01*
X229274000Y-54185719D01*
X229274000Y-54018281D01*
X229306664Y-53854065D01*
X229370739Y-53699376D01*
X229437096Y-53600065D01*
X229463762Y-53560156D01*
X229582156Y-53441762D01*
X229721374Y-53348740D01*
X229721376Y-53348739D01*
X229876065Y-53284664D01*
X230040281Y-53252000D01*
X230207719Y-53252000D01*
X230371935Y-53284664D01*
G37*
G36*
X202685935Y-53030664D02*
G01*
X202840624Y-53094739D01*
X202840626Y-53094740D01*
X202979844Y-53187762D01*
X203098238Y-53306156D01*
X203191260Y-53445374D01*
X203191261Y-53445376D01*
X203255336Y-53600065D01*
X203288000Y-53764281D01*
X203288000Y-53931719D01*
X203255336Y-54095935D01*
X203191261Y-54250624D01*
X203191260Y-54250626D01*
X203098238Y-54389844D01*
X202979844Y-54508238D01*
X202840626Y-54601260D01*
X202840625Y-54601261D01*
X202840624Y-54601261D01*
X202685935Y-54665336D01*
X202521719Y-54698000D01*
X202354281Y-54698000D01*
X202190065Y-54665336D01*
X202035376Y-54601261D01*
X202035375Y-54601261D01*
X202035374Y-54601260D01*
X201896156Y-54508238D01*
X201777762Y-54389844D01*
X201684740Y-54250626D01*
X201684739Y-54250624D01*
X201620664Y-54095935D01*
X201588000Y-53931719D01*
X201588000Y-53764281D01*
X201620664Y-53600065D01*
X201684739Y-53445376D01*
X201684740Y-53445374D01*
X201777762Y-53306156D01*
X201896156Y-53187762D01*
X202035374Y-53094740D01*
X202035376Y-53094739D01*
X202190065Y-53030664D01*
X202354281Y-52998000D01*
X202521719Y-52998000D01*
X202685935Y-53030664D01*
G37*
G36*
X234943935Y-53030664D02*
G01*
X235098624Y-53094739D01*
X235098626Y-53094740D01*
X235237844Y-53187762D01*
X235356238Y-53306156D01*
X235449260Y-53445374D01*
X235449261Y-53445376D01*
X235513336Y-53600065D01*
X235546000Y-53764281D01*
X235546000Y-53931719D01*
X235513336Y-54095935D01*
X235449261Y-54250624D01*
X235449260Y-54250626D01*
X235356238Y-54389844D01*
X235237844Y-54508238D01*
X235098626Y-54601260D01*
X235098625Y-54601261D01*
X235098624Y-54601261D01*
X234943935Y-54665336D01*
X234779719Y-54698000D01*
X234612281Y-54698000D01*
X234448065Y-54665336D01*
X234293376Y-54601261D01*
X234293375Y-54601261D01*
X234293374Y-54601260D01*
X234154156Y-54508238D01*
X234035762Y-54389844D01*
X233942740Y-54250626D01*
X233942739Y-54250624D01*
X233878664Y-54095935D01*
X233846000Y-53931719D01*
X233846000Y-53764281D01*
X233878664Y-53600065D01*
X233942739Y-53445376D01*
X233942740Y-53445374D01*
X234035762Y-53306156D01*
X234154156Y-53187762D01*
X234293374Y-53094740D01*
X234293376Y-53094739D01*
X234448065Y-53030664D01*
X234612281Y-52998000D01*
X234779719Y-52998000D01*
X234943935Y-53030664D01*
G37*
G36*
X230371935Y-50744664D02*
G01*
X230526624Y-50808739D01*
X230526626Y-50808740D01*
X230665844Y-50901762D01*
X230784238Y-51020156D01*
X230810904Y-51060065D01*
X230877261Y-51159376D01*
X230941336Y-51314065D01*
X230974000Y-51478281D01*
X230974000Y-51645719D01*
X230941336Y-51809935D01*
X230877261Y-51964624D01*
X230877260Y-51964626D01*
X230784238Y-52103844D01*
X230665844Y-52222238D01*
X230526626Y-52315260D01*
X230526625Y-52315261D01*
X230526624Y-52315261D01*
X230371935Y-52379336D01*
X230207719Y-52412000D01*
X230040281Y-52412000D01*
X229876065Y-52379336D01*
X229721376Y-52315261D01*
X229721375Y-52315261D01*
X229721374Y-52315260D01*
X229582156Y-52222238D01*
X229463762Y-52103844D01*
X229370740Y-51964626D01*
X229370739Y-51964624D01*
X229306664Y-51809935D01*
X229274000Y-51645719D01*
X229274000Y-51478281D01*
X229306664Y-51314065D01*
X229370739Y-51159376D01*
X229437096Y-51060065D01*
X229463762Y-51020156D01*
X229582156Y-50901762D01*
X229721374Y-50808740D01*
X229721376Y-50808739D01*
X229876065Y-50744664D01*
X230040281Y-50712000D01*
X230207719Y-50712000D01*
X230371935Y-50744664D01*
G37*
G36*
X262629935Y-50744664D02*
G01*
X262784624Y-50808739D01*
X262784626Y-50808740D01*
X262923844Y-50901762D01*
X263042238Y-51020156D01*
X263068904Y-51060065D01*
X263135261Y-51159376D01*
X263199336Y-51314065D01*
X263232000Y-51478281D01*
X263232000Y-51645719D01*
X263199336Y-51809935D01*
X263135261Y-51964624D01*
X263135260Y-51964626D01*
X263042238Y-52103844D01*
X262923844Y-52222238D01*
X262784626Y-52315260D01*
X262784625Y-52315261D01*
X262784624Y-52315261D01*
X262629935Y-52379336D01*
X262465719Y-52412000D01*
X262298281Y-52412000D01*
X262134065Y-52379336D01*
X261979376Y-52315261D01*
X261979375Y-52315261D01*
X261979374Y-52315260D01*
X261840156Y-52222238D01*
X261721762Y-52103844D01*
X261628740Y-51964626D01*
X261628739Y-51964624D01*
X261564664Y-51809935D01*
X261532000Y-51645719D01*
X261532000Y-51478281D01*
X261564664Y-51314065D01*
X261628739Y-51159376D01*
X261695096Y-51060065D01*
X261721762Y-51020156D01*
X261840156Y-50901762D01*
X261979374Y-50808740D01*
X261979376Y-50808739D01*
X262134065Y-50744664D01*
X262298281Y-50712000D01*
X262465719Y-50712000D01*
X262629935Y-50744664D01*
G37*
G36*
X234943935Y-50490664D02*
G01*
X235098624Y-50554739D01*
X235098626Y-50554740D01*
X235237844Y-50647762D01*
X235356238Y-50766156D01*
X235449260Y-50905374D01*
X235449261Y-50905376D01*
X235513336Y-51060065D01*
X235546000Y-51224281D01*
X235546000Y-51391719D01*
X235513336Y-51555935D01*
X235449261Y-51710624D01*
X235449260Y-51710626D01*
X235356238Y-51849844D01*
X235237844Y-51968238D01*
X235098626Y-52061260D01*
X235098625Y-52061261D01*
X235098624Y-52061261D01*
X234943935Y-52125336D01*
X234779719Y-52158000D01*
X234612281Y-52158000D01*
X234448065Y-52125336D01*
X234293376Y-52061261D01*
X234293375Y-52061261D01*
X234293374Y-52061260D01*
X234154156Y-51968238D01*
X234035762Y-51849844D01*
X233942740Y-51710626D01*
X233942739Y-51710624D01*
X233878664Y-51555935D01*
X233846000Y-51391719D01*
X233846000Y-51224281D01*
X233878664Y-51060065D01*
X233942739Y-50905376D01*
X233942740Y-50905374D01*
X234035762Y-50766156D01*
X234154156Y-50647762D01*
X234293374Y-50554740D01*
X234293376Y-50554739D01*
X234448065Y-50490664D01*
X234612281Y-50458000D01*
X234779719Y-50458000D01*
X234943935Y-50490664D01*
G37*
G36*
X202685935Y-50490664D02*
G01*
X202840624Y-50554739D01*
X202840626Y-50554740D01*
X202979844Y-50647762D01*
X203098238Y-50766156D01*
X203191260Y-50905374D01*
X203191261Y-50905376D01*
X203255336Y-51060065D01*
X203288000Y-51224281D01*
X203288000Y-51391719D01*
X203255336Y-51555935D01*
X203191261Y-51710624D01*
X203191260Y-51710626D01*
X203098238Y-51849844D01*
X202979844Y-51968238D01*
X202840626Y-52061260D01*
X202840625Y-52061261D01*
X202840624Y-52061261D01*
X202685935Y-52125336D01*
X202521719Y-52158000D01*
X202354281Y-52158000D01*
X202190065Y-52125336D01*
X202035376Y-52061261D01*
X202035375Y-52061261D01*
X202035374Y-52061260D01*
X201896156Y-51968238D01*
X201777762Y-51849844D01*
X201684740Y-51710626D01*
X201684739Y-51710624D01*
X201620664Y-51555935D01*
X201588000Y-51391719D01*
X201588000Y-51224281D01*
X201620664Y-51060065D01*
X201684739Y-50905376D01*
X201684740Y-50905374D01*
X201777762Y-50766156D01*
X201896156Y-50647762D01*
X202035374Y-50554740D01*
X202035376Y-50554739D01*
X202190065Y-50490664D01*
X202354281Y-50458000D01*
X202521719Y-50458000D01*
X202685935Y-50490664D01*
G37*
G36*
X230371935Y-48204664D02*
G01*
X230520166Y-48266064D01*
X230526626Y-48268740D01*
X230665844Y-48361762D01*
X230784238Y-48480156D01*
X230875950Y-48617414D01*
X230877261Y-48619376D01*
X230941336Y-48774065D01*
X230974000Y-48938281D01*
X230974000Y-49105719D01*
X230941336Y-49269935D01*
X230877261Y-49424624D01*
X230877260Y-49424626D01*
X230784238Y-49563844D01*
X230665844Y-49682238D01*
X230526626Y-49775260D01*
X230526625Y-49775261D01*
X230526624Y-49775261D01*
X230371935Y-49839336D01*
X230207719Y-49872000D01*
X230040281Y-49872000D01*
X229876065Y-49839336D01*
X229721376Y-49775261D01*
X229721375Y-49775261D01*
X229721374Y-49775260D01*
X229582156Y-49682238D01*
X229463762Y-49563844D01*
X229370740Y-49424626D01*
X229370739Y-49424624D01*
X229306664Y-49269935D01*
X229274000Y-49105719D01*
X229274000Y-48938281D01*
X229306664Y-48774065D01*
X229370739Y-48619376D01*
X229372050Y-48617414D01*
X229463762Y-48480156D01*
X229582156Y-48361762D01*
X229721374Y-48268740D01*
X229727834Y-48266064D01*
X229876065Y-48204664D01*
X230040281Y-48172000D01*
X230207719Y-48172000D01*
X230371935Y-48204664D01*
G37*
G36*
X262629935Y-48204664D02*
G01*
X262778166Y-48266064D01*
X262784626Y-48268740D01*
X262923844Y-48361762D01*
X263042238Y-48480156D01*
X263133950Y-48617414D01*
X263135261Y-48619376D01*
X263199336Y-48774065D01*
X263232000Y-48938281D01*
X263232000Y-49105719D01*
X263199336Y-49269935D01*
X263135261Y-49424624D01*
X263135260Y-49424626D01*
X263042238Y-49563844D01*
X262923844Y-49682238D01*
X262784626Y-49775260D01*
X262784625Y-49775261D01*
X262784624Y-49775261D01*
X262629935Y-49839336D01*
X262465719Y-49872000D01*
X262298281Y-49872000D01*
X262134065Y-49839336D01*
X261979376Y-49775261D01*
X261979375Y-49775261D01*
X261979374Y-49775260D01*
X261840156Y-49682238D01*
X261721762Y-49563844D01*
X261628740Y-49424626D01*
X261628739Y-49424624D01*
X261564664Y-49269935D01*
X261532000Y-49105719D01*
X261532000Y-48938281D01*
X261564664Y-48774065D01*
X261628739Y-48619376D01*
X261630050Y-48617414D01*
X261721762Y-48480156D01*
X261840156Y-48361762D01*
X261979374Y-48268740D01*
X261985834Y-48266064D01*
X262134065Y-48204664D01*
X262298281Y-48172000D01*
X262465719Y-48172000D01*
X262629935Y-48204664D01*
G37*
G36*
X202685935Y-47950664D02*
G01*
X202840095Y-48014520D01*
X202840626Y-48014740D01*
X202979844Y-48107762D01*
X203098238Y-48226156D01*
X203191260Y-48365374D01*
X203191261Y-48365376D01*
X203255336Y-48520065D01*
X203288000Y-48684281D01*
X203288000Y-48851719D01*
X203255336Y-49015935D01*
X203191261Y-49170624D01*
X203191260Y-49170626D01*
X203098238Y-49309844D01*
X202979844Y-49428238D01*
X202840626Y-49521260D01*
X202840625Y-49521261D01*
X202840624Y-49521261D01*
X202685935Y-49585336D01*
X202521719Y-49618000D01*
X202354281Y-49618000D01*
X202190065Y-49585336D01*
X202035376Y-49521261D01*
X202035375Y-49521261D01*
X202035374Y-49521260D01*
X201896156Y-49428238D01*
X201777762Y-49309844D01*
X201684740Y-49170626D01*
X201684739Y-49170624D01*
X201620664Y-49015935D01*
X201588000Y-48851719D01*
X201588000Y-48684281D01*
X201620664Y-48520065D01*
X201684739Y-48365376D01*
X201684740Y-48365374D01*
X201777762Y-48226156D01*
X201896156Y-48107762D01*
X202035374Y-48014740D01*
X202035905Y-48014520D01*
X202190065Y-47950664D01*
X202354281Y-47918000D01*
X202521719Y-47918000D01*
X202685935Y-47950664D01*
G37*
G36*
X234943935Y-47950664D02*
G01*
X235098095Y-48014520D01*
X235098626Y-48014740D01*
X235237844Y-48107762D01*
X235356238Y-48226156D01*
X235449260Y-48365374D01*
X235449261Y-48365376D01*
X235513336Y-48520065D01*
X235546000Y-48684281D01*
X235546000Y-48851719D01*
X235513336Y-49015935D01*
X235449261Y-49170624D01*
X235449260Y-49170626D01*
X235356238Y-49309844D01*
X235237844Y-49428238D01*
X235098626Y-49521260D01*
X235098625Y-49521261D01*
X235098624Y-49521261D01*
X234943935Y-49585336D01*
X234779719Y-49618000D01*
X234612281Y-49618000D01*
X234448065Y-49585336D01*
X234293376Y-49521261D01*
X234293375Y-49521261D01*
X234293374Y-49521260D01*
X234154156Y-49428238D01*
X234035762Y-49309844D01*
X233942740Y-49170626D01*
X233942739Y-49170624D01*
X233878664Y-49015935D01*
X233846000Y-48851719D01*
X233846000Y-48684281D01*
X233878664Y-48520065D01*
X233942739Y-48365376D01*
X233942740Y-48365374D01*
X234035762Y-48226156D01*
X234154156Y-48107762D01*
X234293374Y-48014740D01*
X234293905Y-48014520D01*
X234448065Y-47950664D01*
X234612281Y-47918000D01*
X234779719Y-47918000D01*
X234943935Y-47950664D01*
G37*
G36*
X226561935Y-47696664D02*
G01*
X226716624Y-47760739D01*
X226716626Y-47760740D01*
X226855844Y-47853762D01*
X226974238Y-47972156D01*
X227067260Y-48111374D01*
X227067261Y-48111376D01*
X227131336Y-48266065D01*
X227164000Y-48430281D01*
X227164000Y-48597719D01*
X227131336Y-48761935D01*
X227067261Y-48916624D01*
X227067260Y-48916626D01*
X226974238Y-49055844D01*
X226855844Y-49174238D01*
X226716626Y-49267260D01*
X226716625Y-49267261D01*
X226716624Y-49267261D01*
X226561935Y-49331336D01*
X226397719Y-49364000D01*
X226230281Y-49364000D01*
X226066065Y-49331336D01*
X225911376Y-49267261D01*
X225911375Y-49267261D01*
X225911374Y-49267260D01*
X225772156Y-49174238D01*
X225653762Y-49055844D01*
X225560740Y-48916626D01*
X225560739Y-48916624D01*
X225496664Y-48761935D01*
X225464000Y-48597719D01*
X225464000Y-48430281D01*
X225496664Y-48266065D01*
X225560739Y-48111376D01*
X225560740Y-48111374D01*
X225653762Y-47972156D01*
X225772156Y-47853762D01*
X225911374Y-47760740D01*
X225911376Y-47760739D01*
X226066065Y-47696664D01*
X226230281Y-47664000D01*
X226397719Y-47664000D01*
X226561935Y-47696664D01*
G37*
G36*
X258819935Y-47696664D02*
G01*
X258974624Y-47760739D01*
X258974626Y-47760740D01*
X259113844Y-47853762D01*
X259232238Y-47972156D01*
X259325260Y-48111374D01*
X259325261Y-48111376D01*
X259389336Y-48266065D01*
X259422000Y-48430281D01*
X259422000Y-48597719D01*
X259389336Y-48761935D01*
X259325261Y-48916624D01*
X259325260Y-48916626D01*
X259232238Y-49055844D01*
X259113844Y-49174238D01*
X258974626Y-49267260D01*
X258974625Y-49267261D01*
X258974624Y-49267261D01*
X258819935Y-49331336D01*
X258655719Y-49364000D01*
X258488281Y-49364000D01*
X258324065Y-49331336D01*
X258169376Y-49267261D01*
X258169375Y-49267261D01*
X258169374Y-49267260D01*
X258030156Y-49174238D01*
X257911762Y-49055844D01*
X257818740Y-48916626D01*
X257818739Y-48916624D01*
X257754664Y-48761935D01*
X257722000Y-48597719D01*
X257722000Y-48430281D01*
X257754664Y-48266065D01*
X257818739Y-48111376D01*
X257818740Y-48111374D01*
X257911762Y-47972156D01*
X258030156Y-47853762D01*
X258169374Y-47760740D01*
X258169376Y-47760739D01*
X258324065Y-47696664D01*
X258488281Y-47664000D01*
X258655719Y-47664000D01*
X258819935Y-47696664D01*
G37*
G36*
X218956520Y-46886586D02*
G01*
X219120310Y-46954430D01*
X219267717Y-47052924D01*
X219393076Y-47178283D01*
X219491570Y-47325690D01*
X219491571Y-47325692D01*
X219559414Y-47489480D01*
X219594000Y-47663356D01*
X219594000Y-47840644D01*
X219559414Y-48014520D01*
X219491570Y-48178310D01*
X219393076Y-48325717D01*
X219267717Y-48451076D01*
X219120310Y-48549570D01*
X219120309Y-48549571D01*
X219120308Y-48549571D01*
X218956520Y-48617414D01*
X218782644Y-48652000D01*
X218605356Y-48652000D01*
X218431480Y-48617414D01*
X218267692Y-48549571D01*
X218267691Y-48549571D01*
X218267690Y-48549570D01*
X218120283Y-48451076D01*
X217994924Y-48325717D01*
X217896430Y-48178310D01*
X217828586Y-48014520D01*
X217794000Y-47840644D01*
X217794000Y-47663356D01*
X217828586Y-47489480D01*
X217896429Y-47325692D01*
X217896430Y-47325690D01*
X217994924Y-47178283D01*
X218120283Y-47052924D01*
X218267690Y-46954430D01*
X218431480Y-46886586D01*
X218605356Y-46852000D01*
X218782644Y-46852000D01*
X218956520Y-46886586D01*
G37*
G36*
X222134000Y-48652000D02*
G01*
X220334000Y-48652000D01*
X220334000Y-46852000D01*
X222134000Y-46852000D01*
X222134000Y-48652000D01*
G37*
G36*
X251214520Y-46886586D02*
G01*
X251378310Y-46954430D01*
X251525717Y-47052924D01*
X251651076Y-47178283D01*
X251749570Y-47325690D01*
X251749571Y-47325692D01*
X251817414Y-47489480D01*
X251852000Y-47663356D01*
X251852000Y-47840644D01*
X251817414Y-48014520D01*
X251749570Y-48178310D01*
X251651076Y-48325717D01*
X251525717Y-48451076D01*
X251378310Y-48549570D01*
X251378309Y-48549571D01*
X251378308Y-48549571D01*
X251214520Y-48617414D01*
X251040644Y-48652000D01*
X250863356Y-48652000D01*
X250689480Y-48617414D01*
X250525692Y-48549571D01*
X250525691Y-48549571D01*
X250525690Y-48549570D01*
X250378283Y-48451076D01*
X250252924Y-48325717D01*
X250154430Y-48178310D01*
X250086586Y-48014520D01*
X250052000Y-47840644D01*
X250052000Y-47663356D01*
X250086586Y-47489480D01*
X250154429Y-47325692D01*
X250154430Y-47325690D01*
X250252924Y-47178283D01*
X250378283Y-47052924D01*
X250525690Y-46954430D01*
X250689480Y-46886586D01*
X250863356Y-46852000D01*
X251040644Y-46852000D01*
X251214520Y-46886586D01*
G37*
G36*
X254392000Y-48652000D02*
G01*
X252592000Y-48652000D01*
X252592000Y-46852000D01*
X254392000Y-46852000D01*
X254392000Y-48652000D01*
G37*
G36*
X259422000Y-46824000D02*
G01*
X257722000Y-46824000D01*
X257722000Y-45124000D01*
X259422000Y-45124000D01*
X259422000Y-46824000D01*
G37*
G36*
X227164000Y-46824000D02*
G01*
X225464000Y-46824000D01*
X225464000Y-45124000D01*
X227164000Y-45124000D01*
X227164000Y-46824000D01*
G37*
M02*
