G04 #@! TF.GenerationSoftware,KiCad,Pcbnew,5.1.6-c6e7f7d~86~ubuntu19.10.1*
G04 #@! TF.CreationDate,2021-03-24T15:38:50+01:00*
G04 #@! TF.ProjectId,Switch3V,53776974-6368-4335-962e-6b696361645f,rev?*
G04 #@! TF.SameCoordinates,Original*
G04 #@! TF.FileFunction,Legend,Bot*
G04 #@! TF.FilePolarity,Positive*
%FSLAX46Y46*%
G04 Gerber Fmt 4.6, Leading zero omitted, Abs format (unit mm)*
G04 Created by KiCad (PCBNEW 5.1.6-c6e7f7d~86~ubuntu19.10.1) date 2021-03-24 15:38:50*
%MOMM*%
%LPD*%
G01*
G04 APERTURE LIST*
%ADD10C,0.120000*%
%ADD11C,0.150000*%
G04 APERTURE END LIST*
D10*
X209953000Y-136216000D02*
X206353000Y-136216000D01*
X209991478Y-136204478D02*
G75*
G03*
X208153000Y-131766000I-1838478J1838478D01*
G01*
X206314522Y-136204478D02*
G75*
G02*
X208153000Y-131766000I1838478J1838478D01*
G01*
X228794000Y-134680000D02*
X230124000Y-134680000D01*
X228794000Y-133350000D02*
X228794000Y-134680000D01*
X228794000Y-132080000D02*
X231454000Y-132080000D01*
X231454000Y-132080000D02*
X231454000Y-121860000D01*
X228794000Y-132080000D02*
X228794000Y-121860000D01*
X228794000Y-121860000D02*
X231454000Y-121860000D01*
X261052000Y-121860000D02*
X263712000Y-121860000D01*
X261052000Y-132080000D02*
X261052000Y-121860000D01*
X263712000Y-132080000D02*
X263712000Y-121860000D01*
X261052000Y-132080000D02*
X263712000Y-132080000D01*
X261052000Y-133350000D02*
X261052000Y-134680000D01*
X261052000Y-134680000D02*
X262382000Y-134680000D01*
X238572522Y-136204478D02*
G75*
G02*
X240411000Y-131766000I1838478J1838478D01*
G01*
X242249478Y-136204478D02*
G75*
G03*
X240411000Y-131766000I-1838478J1838478D01*
G01*
X242211000Y-136216000D02*
X238611000Y-136216000D01*
X233366000Y-134426000D02*
X234696000Y-134426000D01*
X233366000Y-133096000D02*
X233366000Y-134426000D01*
X233366000Y-131826000D02*
X236026000Y-131826000D01*
X236026000Y-131826000D02*
X236026000Y-121606000D01*
X233366000Y-131826000D02*
X233366000Y-121606000D01*
X233366000Y-121606000D02*
X236026000Y-121606000D01*
X201108000Y-121606000D02*
X203768000Y-121606000D01*
X201108000Y-131826000D02*
X201108000Y-121606000D01*
X203768000Y-131826000D02*
X203768000Y-121606000D01*
X201108000Y-131826000D02*
X203768000Y-131826000D01*
X201108000Y-133096000D02*
X201108000Y-134426000D01*
X201108000Y-134426000D02*
X202438000Y-134426000D01*
X259902000Y-118812000D02*
X258572000Y-118812000D01*
X259902000Y-120142000D02*
X259902000Y-118812000D01*
X259902000Y-121412000D02*
X257242000Y-121412000D01*
X257242000Y-121412000D02*
X257242000Y-124012000D01*
X259902000Y-121412000D02*
X259902000Y-124012000D01*
X259902000Y-124012000D02*
X257242000Y-124012000D01*
X227644000Y-124012000D02*
X224984000Y-124012000D01*
X227644000Y-121412000D02*
X227644000Y-124012000D01*
X224984000Y-121412000D02*
X224984000Y-124012000D01*
X227644000Y-121412000D02*
X224984000Y-121412000D01*
X227644000Y-120142000D02*
X227644000Y-118812000D01*
X227644000Y-118812000D02*
X226314000Y-118812000D01*
X242211000Y-117674000D02*
X238611000Y-117674000D01*
X242249478Y-117662478D02*
G75*
G03*
X240411000Y-113224000I-1838478J1838478D01*
G01*
X238572522Y-117662478D02*
G75*
G02*
X240411000Y-113224000I1838478J1838478D01*
G01*
X209953000Y-99132000D02*
X206353000Y-99132000D01*
X209991478Y-99120478D02*
G75*
G03*
X208153000Y-94682000I-1838478J1838478D01*
G01*
X206314522Y-99120478D02*
G75*
G02*
X208153000Y-94682000I1838478J1838478D01*
G01*
X259902000Y-105470000D02*
X257242000Y-105470000D01*
X259902000Y-102870000D02*
X259902000Y-105470000D01*
X257242000Y-102870000D02*
X257242000Y-105470000D01*
X259902000Y-102870000D02*
X257242000Y-102870000D01*
X259902000Y-101600000D02*
X259902000Y-100270000D01*
X259902000Y-100270000D02*
X258572000Y-100270000D01*
X201108000Y-115884000D02*
X202438000Y-115884000D01*
X201108000Y-114554000D02*
X201108000Y-115884000D01*
X201108000Y-113284000D02*
X203768000Y-113284000D01*
X203768000Y-113284000D02*
X203768000Y-103064000D01*
X201108000Y-113284000D02*
X201108000Y-103064000D01*
X201108000Y-103064000D02*
X203768000Y-103064000D01*
X227644000Y-100270000D02*
X226314000Y-100270000D01*
X227644000Y-101600000D02*
X227644000Y-100270000D01*
X227644000Y-102870000D02*
X224984000Y-102870000D01*
X224984000Y-102870000D02*
X224984000Y-105470000D01*
X227644000Y-102870000D02*
X227644000Y-105470000D01*
X227644000Y-105470000D02*
X224984000Y-105470000D01*
X228794000Y-97596000D02*
X230124000Y-97596000D01*
X228794000Y-96266000D02*
X228794000Y-97596000D01*
X228794000Y-94996000D02*
X231454000Y-94996000D01*
X231454000Y-94996000D02*
X231454000Y-84776000D01*
X228794000Y-94996000D02*
X228794000Y-84776000D01*
X228794000Y-84776000D02*
X231454000Y-84776000D01*
X261052000Y-84776000D02*
X263712000Y-84776000D01*
X261052000Y-94996000D02*
X261052000Y-84776000D01*
X263712000Y-94996000D02*
X263712000Y-84776000D01*
X261052000Y-94996000D02*
X263712000Y-94996000D01*
X261052000Y-96266000D02*
X261052000Y-97596000D01*
X261052000Y-97596000D02*
X262382000Y-97596000D01*
X238572522Y-99120478D02*
G75*
G02*
X240411000Y-94682000I1838478J1838478D01*
G01*
X242249478Y-99120478D02*
G75*
G03*
X240411000Y-94682000I-1838478J1838478D01*
G01*
X242211000Y-99132000D02*
X238611000Y-99132000D01*
X233366000Y-97342000D02*
X234696000Y-97342000D01*
X233366000Y-96012000D02*
X233366000Y-97342000D01*
X233366000Y-94742000D02*
X236026000Y-94742000D01*
X236026000Y-94742000D02*
X236026000Y-84522000D01*
X233366000Y-94742000D02*
X233366000Y-84522000D01*
X233366000Y-84522000D02*
X236026000Y-84522000D01*
X201108000Y-84522000D02*
X203768000Y-84522000D01*
X201108000Y-94742000D02*
X201108000Y-84522000D01*
X203768000Y-94742000D02*
X203768000Y-84522000D01*
X201108000Y-94742000D02*
X203768000Y-94742000D01*
X201108000Y-96012000D02*
X201108000Y-97342000D01*
X201108000Y-97342000D02*
X202438000Y-97342000D01*
X233366000Y-103064000D02*
X236026000Y-103064000D01*
X233366000Y-113284000D02*
X233366000Y-103064000D01*
X236026000Y-113284000D02*
X236026000Y-103064000D01*
X233366000Y-113284000D02*
X236026000Y-113284000D01*
X233366000Y-114554000D02*
X233366000Y-115884000D01*
X233366000Y-115884000D02*
X234696000Y-115884000D01*
X261052000Y-116138000D02*
X262382000Y-116138000D01*
X261052000Y-114808000D02*
X261052000Y-116138000D01*
X261052000Y-113538000D02*
X263712000Y-113538000D01*
X263712000Y-113538000D02*
X263712000Y-103318000D01*
X261052000Y-113538000D02*
X261052000Y-103318000D01*
X261052000Y-103318000D02*
X263712000Y-103318000D01*
X206314522Y-117662478D02*
G75*
G02*
X208153000Y-113224000I1838478J1838478D01*
G01*
X209991478Y-117662478D02*
G75*
G03*
X208153000Y-113224000I-1838478J1838478D01*
G01*
X209953000Y-117674000D02*
X206353000Y-117674000D01*
X228794000Y-103318000D02*
X231454000Y-103318000D01*
X228794000Y-113538000D02*
X228794000Y-103318000D01*
X231454000Y-113538000D02*
X231454000Y-103318000D01*
X228794000Y-113538000D02*
X231454000Y-113538000D01*
X228794000Y-114808000D02*
X228794000Y-116138000D01*
X228794000Y-116138000D02*
X230124000Y-116138000D01*
X259902000Y-81728000D02*
X258572000Y-81728000D01*
X259902000Y-83058000D02*
X259902000Y-81728000D01*
X259902000Y-84328000D02*
X257242000Y-84328000D01*
X257242000Y-84328000D02*
X257242000Y-86928000D01*
X259902000Y-84328000D02*
X259902000Y-86928000D01*
X259902000Y-86928000D02*
X257242000Y-86928000D01*
X227644000Y-86928000D02*
X224984000Y-86928000D01*
X227644000Y-84328000D02*
X227644000Y-86928000D01*
X224984000Y-84328000D02*
X224984000Y-86928000D01*
X227644000Y-84328000D02*
X224984000Y-84328000D01*
X227644000Y-83058000D02*
X227644000Y-81728000D01*
X227644000Y-81728000D02*
X226314000Y-81728000D01*
X209953000Y-80590000D02*
X206353000Y-80590000D01*
X209991478Y-80578478D02*
G75*
G03*
X208153000Y-76140000I-1838478J1838478D01*
G01*
X206314522Y-80578478D02*
G75*
G02*
X208153000Y-76140000I1838478J1838478D01*
G01*
X228794000Y-79054000D02*
X230124000Y-79054000D01*
X228794000Y-77724000D02*
X228794000Y-79054000D01*
X228794000Y-76454000D02*
X231454000Y-76454000D01*
X231454000Y-76454000D02*
X231454000Y-66234000D01*
X228794000Y-76454000D02*
X228794000Y-66234000D01*
X228794000Y-66234000D02*
X231454000Y-66234000D01*
X261052000Y-66234000D02*
X263712000Y-66234000D01*
X261052000Y-76454000D02*
X261052000Y-66234000D01*
X263712000Y-76454000D02*
X263712000Y-66234000D01*
X261052000Y-76454000D02*
X263712000Y-76454000D01*
X261052000Y-77724000D02*
X261052000Y-79054000D01*
X261052000Y-79054000D02*
X262382000Y-79054000D01*
X238572522Y-80578478D02*
G75*
G02*
X240411000Y-76140000I1838478J1838478D01*
G01*
X242249478Y-80578478D02*
G75*
G03*
X240411000Y-76140000I-1838478J1838478D01*
G01*
X242211000Y-80590000D02*
X238611000Y-80590000D01*
X233366000Y-78800000D02*
X234696000Y-78800000D01*
X233366000Y-77470000D02*
X233366000Y-78800000D01*
X233366000Y-76200000D02*
X236026000Y-76200000D01*
X236026000Y-76200000D02*
X236026000Y-65980000D01*
X233366000Y-76200000D02*
X233366000Y-65980000D01*
X233366000Y-65980000D02*
X236026000Y-65980000D01*
X201108000Y-65980000D02*
X203768000Y-65980000D01*
X201108000Y-76200000D02*
X201108000Y-65980000D01*
X203768000Y-76200000D02*
X203768000Y-65980000D01*
X201108000Y-76200000D02*
X203768000Y-76200000D01*
X201108000Y-77470000D02*
X201108000Y-78800000D01*
X201108000Y-78800000D02*
X202438000Y-78800000D01*
X259902000Y-63186000D02*
X258572000Y-63186000D01*
X259902000Y-64516000D02*
X259902000Y-63186000D01*
X259902000Y-65786000D02*
X257242000Y-65786000D01*
X257242000Y-65786000D02*
X257242000Y-68386000D01*
X259902000Y-65786000D02*
X259902000Y-68386000D01*
X259902000Y-68386000D02*
X257242000Y-68386000D01*
X227644000Y-68386000D02*
X224984000Y-68386000D01*
X227644000Y-65786000D02*
X227644000Y-68386000D01*
X224984000Y-65786000D02*
X224984000Y-68386000D01*
X227644000Y-65786000D02*
X224984000Y-65786000D01*
X227644000Y-64516000D02*
X227644000Y-63186000D01*
X227644000Y-63186000D02*
X226314000Y-63186000D01*
X228794000Y-47692000D02*
X231454000Y-47692000D01*
X228794000Y-57912000D02*
X228794000Y-47692000D01*
X231454000Y-57912000D02*
X231454000Y-47692000D01*
X228794000Y-57912000D02*
X231454000Y-57912000D01*
X228794000Y-59182000D02*
X228794000Y-60512000D01*
X228794000Y-60512000D02*
X230124000Y-60512000D01*
X206314522Y-62036478D02*
G75*
G02*
X208153000Y-57598000I1838478J1838478D01*
G01*
X209991478Y-62036478D02*
G75*
G03*
X208153000Y-57598000I-1838478J1838478D01*
G01*
X209953000Y-62048000D02*
X206353000Y-62048000D01*
X201108000Y-60258000D02*
X202438000Y-60258000D01*
X201108000Y-58928000D02*
X201108000Y-60258000D01*
X201108000Y-57658000D02*
X203768000Y-57658000D01*
X203768000Y-57658000D02*
X203768000Y-47438000D01*
X201108000Y-57658000D02*
X201108000Y-47438000D01*
X201108000Y-47438000D02*
X203768000Y-47438000D01*
X227644000Y-44644000D02*
X226314000Y-44644000D01*
X227644000Y-45974000D02*
X227644000Y-44644000D01*
X227644000Y-47244000D02*
X224984000Y-47244000D01*
X224984000Y-47244000D02*
X224984000Y-49844000D01*
X227644000Y-47244000D02*
X227644000Y-49844000D01*
X227644000Y-49844000D02*
X224984000Y-49844000D01*
X259902000Y-49844000D02*
X257242000Y-49844000D01*
X259902000Y-47244000D02*
X259902000Y-49844000D01*
X257242000Y-47244000D02*
X257242000Y-49844000D01*
X259902000Y-47244000D02*
X257242000Y-47244000D01*
X259902000Y-45974000D02*
X259902000Y-44644000D01*
X259902000Y-44644000D02*
X258572000Y-44644000D01*
X233366000Y-47438000D02*
X236026000Y-47438000D01*
X233366000Y-57658000D02*
X233366000Y-47438000D01*
X236026000Y-57658000D02*
X236026000Y-47438000D01*
X233366000Y-57658000D02*
X236026000Y-57658000D01*
X233366000Y-58928000D02*
X233366000Y-60258000D01*
X233366000Y-60258000D02*
X234696000Y-60258000D01*
X242211000Y-62048000D02*
X238611000Y-62048000D01*
X242249478Y-62036478D02*
G75*
G03*
X240411000Y-57598000I-1838478J1838478D01*
G01*
X238572522Y-62036478D02*
G75*
G02*
X240411000Y-57598000I1838478J1838478D01*
G01*
X261052000Y-60512000D02*
X262382000Y-60512000D01*
X261052000Y-59182000D02*
X261052000Y-60512000D01*
X261052000Y-57912000D02*
X263712000Y-57912000D01*
X263712000Y-57912000D02*
X263712000Y-47692000D01*
X261052000Y-57912000D02*
X261052000Y-47692000D01*
X261052000Y-47692000D02*
X263712000Y-47692000D01*
D11*
X208248238Y-131353619D02*
X208343476Y-131306000D01*
X208438714Y-131210761D01*
X208581571Y-131067904D01*
X208676809Y-131020285D01*
X208772047Y-131020285D01*
X208724428Y-131258380D02*
X208819666Y-131210761D01*
X208914904Y-131115523D01*
X208962523Y-130925047D01*
X208962523Y-130591714D01*
X208914904Y-130401238D01*
X208819666Y-130306000D01*
X208724428Y-130258380D01*
X208533952Y-130258380D01*
X208438714Y-130306000D01*
X208343476Y-130401238D01*
X208295857Y-130591714D01*
X208295857Y-130925047D01*
X208343476Y-131115523D01*
X208438714Y-131210761D01*
X208533952Y-131258380D01*
X208724428Y-131258380D01*
X207343476Y-131258380D02*
X207914904Y-131258380D01*
X207629190Y-131258380D02*
X207629190Y-130258380D01*
X207724428Y-130401238D01*
X207819666Y-130496476D01*
X207914904Y-130544095D01*
X230457333Y-135132380D02*
X230457333Y-135846666D01*
X230504952Y-135989523D01*
X230600190Y-136084761D01*
X230743047Y-136132380D01*
X230838285Y-136132380D01*
X230028761Y-135227619D02*
X229981142Y-135180000D01*
X229885904Y-135132380D01*
X229647809Y-135132380D01*
X229552571Y-135180000D01*
X229504952Y-135227619D01*
X229457333Y-135322857D01*
X229457333Y-135418095D01*
X229504952Y-135560952D01*
X230076380Y-136132380D01*
X229457333Y-136132380D01*
X262715333Y-135132380D02*
X262715333Y-135846666D01*
X262762952Y-135989523D01*
X262858190Y-136084761D01*
X263001047Y-136132380D01*
X263096285Y-136132380D01*
X262286761Y-135227619D02*
X262239142Y-135180000D01*
X262143904Y-135132380D01*
X261905809Y-135132380D01*
X261810571Y-135180000D01*
X261762952Y-135227619D01*
X261715333Y-135322857D01*
X261715333Y-135418095D01*
X261762952Y-135560952D01*
X262334380Y-136132380D01*
X261715333Y-136132380D01*
X240506238Y-131353619D02*
X240601476Y-131306000D01*
X240696714Y-131210761D01*
X240839571Y-131067904D01*
X240934809Y-131020285D01*
X241030047Y-131020285D01*
X240982428Y-131258380D02*
X241077666Y-131210761D01*
X241172904Y-131115523D01*
X241220523Y-130925047D01*
X241220523Y-130591714D01*
X241172904Y-130401238D01*
X241077666Y-130306000D01*
X240982428Y-130258380D01*
X240791952Y-130258380D01*
X240696714Y-130306000D01*
X240601476Y-130401238D01*
X240553857Y-130591714D01*
X240553857Y-130925047D01*
X240601476Y-131115523D01*
X240696714Y-131210761D01*
X240791952Y-131258380D01*
X240982428Y-131258380D01*
X239601476Y-131258380D02*
X240172904Y-131258380D01*
X239887190Y-131258380D02*
X239887190Y-130258380D01*
X239982428Y-130401238D01*
X240077666Y-130496476D01*
X240172904Y-130544095D01*
X235029333Y-134878380D02*
X235029333Y-135592666D01*
X235076952Y-135735523D01*
X235172190Y-135830761D01*
X235315047Y-135878380D01*
X235410285Y-135878380D01*
X234029333Y-135878380D02*
X234600761Y-135878380D01*
X234315047Y-135878380D02*
X234315047Y-134878380D01*
X234410285Y-135021238D01*
X234505523Y-135116476D01*
X234600761Y-135164095D01*
X202771333Y-134878380D02*
X202771333Y-135592666D01*
X202818952Y-135735523D01*
X202914190Y-135830761D01*
X203057047Y-135878380D01*
X203152285Y-135878380D01*
X201771333Y-135878380D02*
X202342761Y-135878380D01*
X202057047Y-135878380D02*
X202057047Y-134878380D01*
X202152285Y-135021238D01*
X202247523Y-135116476D01*
X202342761Y-135164095D01*
X261191333Y-119086380D02*
X261191333Y-119800666D01*
X261238952Y-119943523D01*
X261334190Y-120038761D01*
X261477047Y-120086380D01*
X261572285Y-120086380D01*
X260810380Y-119086380D02*
X260191333Y-119086380D01*
X260524666Y-119467333D01*
X260381809Y-119467333D01*
X260286571Y-119514952D01*
X260238952Y-119562571D01*
X260191333Y-119657809D01*
X260191333Y-119895904D01*
X260238952Y-119991142D01*
X260286571Y-120038761D01*
X260381809Y-120086380D01*
X260667523Y-120086380D01*
X260762761Y-120038761D01*
X260810380Y-119991142D01*
X228933333Y-119086380D02*
X228933333Y-119800666D01*
X228980952Y-119943523D01*
X229076190Y-120038761D01*
X229219047Y-120086380D01*
X229314285Y-120086380D01*
X228552380Y-119086380D02*
X227933333Y-119086380D01*
X228266666Y-119467333D01*
X228123809Y-119467333D01*
X228028571Y-119514952D01*
X227980952Y-119562571D01*
X227933333Y-119657809D01*
X227933333Y-119895904D01*
X227980952Y-119991142D01*
X228028571Y-120038761D01*
X228123809Y-120086380D01*
X228409523Y-120086380D01*
X228504761Y-120038761D01*
X228552380Y-119991142D01*
X240506238Y-112811619D02*
X240601476Y-112764000D01*
X240696714Y-112668761D01*
X240839571Y-112525904D01*
X240934809Y-112478285D01*
X241030047Y-112478285D01*
X240982428Y-112716380D02*
X241077666Y-112668761D01*
X241172904Y-112573523D01*
X241220523Y-112383047D01*
X241220523Y-112049714D01*
X241172904Y-111859238D01*
X241077666Y-111764000D01*
X240982428Y-111716380D01*
X240791952Y-111716380D01*
X240696714Y-111764000D01*
X240601476Y-111859238D01*
X240553857Y-112049714D01*
X240553857Y-112383047D01*
X240601476Y-112573523D01*
X240696714Y-112668761D01*
X240791952Y-112716380D01*
X240982428Y-112716380D01*
X239601476Y-112716380D02*
X240172904Y-112716380D01*
X239887190Y-112716380D02*
X239887190Y-111716380D01*
X239982428Y-111859238D01*
X240077666Y-111954476D01*
X240172904Y-112002095D01*
X208248238Y-94269619D02*
X208343476Y-94222000D01*
X208438714Y-94126761D01*
X208581571Y-93983904D01*
X208676809Y-93936285D01*
X208772047Y-93936285D01*
X208724428Y-94174380D02*
X208819666Y-94126761D01*
X208914904Y-94031523D01*
X208962523Y-93841047D01*
X208962523Y-93507714D01*
X208914904Y-93317238D01*
X208819666Y-93222000D01*
X208724428Y-93174380D01*
X208533952Y-93174380D01*
X208438714Y-93222000D01*
X208343476Y-93317238D01*
X208295857Y-93507714D01*
X208295857Y-93841047D01*
X208343476Y-94031523D01*
X208438714Y-94126761D01*
X208533952Y-94174380D01*
X208724428Y-94174380D01*
X207343476Y-94174380D02*
X207914904Y-94174380D01*
X207629190Y-94174380D02*
X207629190Y-93174380D01*
X207724428Y-93317238D01*
X207819666Y-93412476D01*
X207914904Y-93460095D01*
X261191333Y-100544380D02*
X261191333Y-101258666D01*
X261238952Y-101401523D01*
X261334190Y-101496761D01*
X261477047Y-101544380D01*
X261572285Y-101544380D01*
X260810380Y-100544380D02*
X260191333Y-100544380D01*
X260524666Y-100925333D01*
X260381809Y-100925333D01*
X260286571Y-100972952D01*
X260238952Y-101020571D01*
X260191333Y-101115809D01*
X260191333Y-101353904D01*
X260238952Y-101449142D01*
X260286571Y-101496761D01*
X260381809Y-101544380D01*
X260667523Y-101544380D01*
X260762761Y-101496761D01*
X260810380Y-101449142D01*
X202771333Y-116336380D02*
X202771333Y-117050666D01*
X202818952Y-117193523D01*
X202914190Y-117288761D01*
X203057047Y-117336380D01*
X203152285Y-117336380D01*
X201771333Y-117336380D02*
X202342761Y-117336380D01*
X202057047Y-117336380D02*
X202057047Y-116336380D01*
X202152285Y-116479238D01*
X202247523Y-116574476D01*
X202342761Y-116622095D01*
X228933333Y-100544380D02*
X228933333Y-101258666D01*
X228980952Y-101401523D01*
X229076190Y-101496761D01*
X229219047Y-101544380D01*
X229314285Y-101544380D01*
X228552380Y-100544380D02*
X227933333Y-100544380D01*
X228266666Y-100925333D01*
X228123809Y-100925333D01*
X228028571Y-100972952D01*
X227980952Y-101020571D01*
X227933333Y-101115809D01*
X227933333Y-101353904D01*
X227980952Y-101449142D01*
X228028571Y-101496761D01*
X228123809Y-101544380D01*
X228409523Y-101544380D01*
X228504761Y-101496761D01*
X228552380Y-101449142D01*
X230457333Y-98048380D02*
X230457333Y-98762666D01*
X230504952Y-98905523D01*
X230600190Y-99000761D01*
X230743047Y-99048380D01*
X230838285Y-99048380D01*
X230028761Y-98143619D02*
X229981142Y-98096000D01*
X229885904Y-98048380D01*
X229647809Y-98048380D01*
X229552571Y-98096000D01*
X229504952Y-98143619D01*
X229457333Y-98238857D01*
X229457333Y-98334095D01*
X229504952Y-98476952D01*
X230076380Y-99048380D01*
X229457333Y-99048380D01*
X262715333Y-98048380D02*
X262715333Y-98762666D01*
X262762952Y-98905523D01*
X262858190Y-99000761D01*
X263001047Y-99048380D01*
X263096285Y-99048380D01*
X262286761Y-98143619D02*
X262239142Y-98096000D01*
X262143904Y-98048380D01*
X261905809Y-98048380D01*
X261810571Y-98096000D01*
X261762952Y-98143619D01*
X261715333Y-98238857D01*
X261715333Y-98334095D01*
X261762952Y-98476952D01*
X262334380Y-99048380D01*
X261715333Y-99048380D01*
X240506238Y-94269619D02*
X240601476Y-94222000D01*
X240696714Y-94126761D01*
X240839571Y-93983904D01*
X240934809Y-93936285D01*
X241030047Y-93936285D01*
X240982428Y-94174380D02*
X241077666Y-94126761D01*
X241172904Y-94031523D01*
X241220523Y-93841047D01*
X241220523Y-93507714D01*
X241172904Y-93317238D01*
X241077666Y-93222000D01*
X240982428Y-93174380D01*
X240791952Y-93174380D01*
X240696714Y-93222000D01*
X240601476Y-93317238D01*
X240553857Y-93507714D01*
X240553857Y-93841047D01*
X240601476Y-94031523D01*
X240696714Y-94126761D01*
X240791952Y-94174380D01*
X240982428Y-94174380D01*
X239601476Y-94174380D02*
X240172904Y-94174380D01*
X239887190Y-94174380D02*
X239887190Y-93174380D01*
X239982428Y-93317238D01*
X240077666Y-93412476D01*
X240172904Y-93460095D01*
X235029333Y-97794380D02*
X235029333Y-98508666D01*
X235076952Y-98651523D01*
X235172190Y-98746761D01*
X235315047Y-98794380D01*
X235410285Y-98794380D01*
X234029333Y-98794380D02*
X234600761Y-98794380D01*
X234315047Y-98794380D02*
X234315047Y-97794380D01*
X234410285Y-97937238D01*
X234505523Y-98032476D01*
X234600761Y-98080095D01*
X202771333Y-97794380D02*
X202771333Y-98508666D01*
X202818952Y-98651523D01*
X202914190Y-98746761D01*
X203057047Y-98794380D01*
X203152285Y-98794380D01*
X201771333Y-98794380D02*
X202342761Y-98794380D01*
X202057047Y-98794380D02*
X202057047Y-97794380D01*
X202152285Y-97937238D01*
X202247523Y-98032476D01*
X202342761Y-98080095D01*
X235029333Y-116336380D02*
X235029333Y-117050666D01*
X235076952Y-117193523D01*
X235172190Y-117288761D01*
X235315047Y-117336380D01*
X235410285Y-117336380D01*
X234029333Y-117336380D02*
X234600761Y-117336380D01*
X234315047Y-117336380D02*
X234315047Y-116336380D01*
X234410285Y-116479238D01*
X234505523Y-116574476D01*
X234600761Y-116622095D01*
X262715333Y-116590380D02*
X262715333Y-117304666D01*
X262762952Y-117447523D01*
X262858190Y-117542761D01*
X263001047Y-117590380D01*
X263096285Y-117590380D01*
X262286761Y-116685619D02*
X262239142Y-116638000D01*
X262143904Y-116590380D01*
X261905809Y-116590380D01*
X261810571Y-116638000D01*
X261762952Y-116685619D01*
X261715333Y-116780857D01*
X261715333Y-116876095D01*
X261762952Y-117018952D01*
X262334380Y-117590380D01*
X261715333Y-117590380D01*
X208248238Y-112811619D02*
X208343476Y-112764000D01*
X208438714Y-112668761D01*
X208581571Y-112525904D01*
X208676809Y-112478285D01*
X208772047Y-112478285D01*
X208724428Y-112716380D02*
X208819666Y-112668761D01*
X208914904Y-112573523D01*
X208962523Y-112383047D01*
X208962523Y-112049714D01*
X208914904Y-111859238D01*
X208819666Y-111764000D01*
X208724428Y-111716380D01*
X208533952Y-111716380D01*
X208438714Y-111764000D01*
X208343476Y-111859238D01*
X208295857Y-112049714D01*
X208295857Y-112383047D01*
X208343476Y-112573523D01*
X208438714Y-112668761D01*
X208533952Y-112716380D01*
X208724428Y-112716380D01*
X207343476Y-112716380D02*
X207914904Y-112716380D01*
X207629190Y-112716380D02*
X207629190Y-111716380D01*
X207724428Y-111859238D01*
X207819666Y-111954476D01*
X207914904Y-112002095D01*
X230457333Y-116590380D02*
X230457333Y-117304666D01*
X230504952Y-117447523D01*
X230600190Y-117542761D01*
X230743047Y-117590380D01*
X230838285Y-117590380D01*
X230028761Y-116685619D02*
X229981142Y-116638000D01*
X229885904Y-116590380D01*
X229647809Y-116590380D01*
X229552571Y-116638000D01*
X229504952Y-116685619D01*
X229457333Y-116780857D01*
X229457333Y-116876095D01*
X229504952Y-117018952D01*
X230076380Y-117590380D01*
X229457333Y-117590380D01*
X261191333Y-82002380D02*
X261191333Y-82716666D01*
X261238952Y-82859523D01*
X261334190Y-82954761D01*
X261477047Y-83002380D01*
X261572285Y-83002380D01*
X260810380Y-82002380D02*
X260191333Y-82002380D01*
X260524666Y-82383333D01*
X260381809Y-82383333D01*
X260286571Y-82430952D01*
X260238952Y-82478571D01*
X260191333Y-82573809D01*
X260191333Y-82811904D01*
X260238952Y-82907142D01*
X260286571Y-82954761D01*
X260381809Y-83002380D01*
X260667523Y-83002380D01*
X260762761Y-82954761D01*
X260810380Y-82907142D01*
X228933333Y-82002380D02*
X228933333Y-82716666D01*
X228980952Y-82859523D01*
X229076190Y-82954761D01*
X229219047Y-83002380D01*
X229314285Y-83002380D01*
X228552380Y-82002380D02*
X227933333Y-82002380D01*
X228266666Y-82383333D01*
X228123809Y-82383333D01*
X228028571Y-82430952D01*
X227980952Y-82478571D01*
X227933333Y-82573809D01*
X227933333Y-82811904D01*
X227980952Y-82907142D01*
X228028571Y-82954761D01*
X228123809Y-83002380D01*
X228409523Y-83002380D01*
X228504761Y-82954761D01*
X228552380Y-82907142D01*
X208248238Y-75727619D02*
X208343476Y-75680000D01*
X208438714Y-75584761D01*
X208581571Y-75441904D01*
X208676809Y-75394285D01*
X208772047Y-75394285D01*
X208724428Y-75632380D02*
X208819666Y-75584761D01*
X208914904Y-75489523D01*
X208962523Y-75299047D01*
X208962523Y-74965714D01*
X208914904Y-74775238D01*
X208819666Y-74680000D01*
X208724428Y-74632380D01*
X208533952Y-74632380D01*
X208438714Y-74680000D01*
X208343476Y-74775238D01*
X208295857Y-74965714D01*
X208295857Y-75299047D01*
X208343476Y-75489523D01*
X208438714Y-75584761D01*
X208533952Y-75632380D01*
X208724428Y-75632380D01*
X207343476Y-75632380D02*
X207914904Y-75632380D01*
X207629190Y-75632380D02*
X207629190Y-74632380D01*
X207724428Y-74775238D01*
X207819666Y-74870476D01*
X207914904Y-74918095D01*
X230457333Y-79506380D02*
X230457333Y-80220666D01*
X230504952Y-80363523D01*
X230600190Y-80458761D01*
X230743047Y-80506380D01*
X230838285Y-80506380D01*
X230028761Y-79601619D02*
X229981142Y-79554000D01*
X229885904Y-79506380D01*
X229647809Y-79506380D01*
X229552571Y-79554000D01*
X229504952Y-79601619D01*
X229457333Y-79696857D01*
X229457333Y-79792095D01*
X229504952Y-79934952D01*
X230076380Y-80506380D01*
X229457333Y-80506380D01*
X262715333Y-79506380D02*
X262715333Y-80220666D01*
X262762952Y-80363523D01*
X262858190Y-80458761D01*
X263001047Y-80506380D01*
X263096285Y-80506380D01*
X262286761Y-79601619D02*
X262239142Y-79554000D01*
X262143904Y-79506380D01*
X261905809Y-79506380D01*
X261810571Y-79554000D01*
X261762952Y-79601619D01*
X261715333Y-79696857D01*
X261715333Y-79792095D01*
X261762952Y-79934952D01*
X262334380Y-80506380D01*
X261715333Y-80506380D01*
X240506238Y-75727619D02*
X240601476Y-75680000D01*
X240696714Y-75584761D01*
X240839571Y-75441904D01*
X240934809Y-75394285D01*
X241030047Y-75394285D01*
X240982428Y-75632380D02*
X241077666Y-75584761D01*
X241172904Y-75489523D01*
X241220523Y-75299047D01*
X241220523Y-74965714D01*
X241172904Y-74775238D01*
X241077666Y-74680000D01*
X240982428Y-74632380D01*
X240791952Y-74632380D01*
X240696714Y-74680000D01*
X240601476Y-74775238D01*
X240553857Y-74965714D01*
X240553857Y-75299047D01*
X240601476Y-75489523D01*
X240696714Y-75584761D01*
X240791952Y-75632380D01*
X240982428Y-75632380D01*
X239601476Y-75632380D02*
X240172904Y-75632380D01*
X239887190Y-75632380D02*
X239887190Y-74632380D01*
X239982428Y-74775238D01*
X240077666Y-74870476D01*
X240172904Y-74918095D01*
X235029333Y-79252380D02*
X235029333Y-79966666D01*
X235076952Y-80109523D01*
X235172190Y-80204761D01*
X235315047Y-80252380D01*
X235410285Y-80252380D01*
X234029333Y-80252380D02*
X234600761Y-80252380D01*
X234315047Y-80252380D02*
X234315047Y-79252380D01*
X234410285Y-79395238D01*
X234505523Y-79490476D01*
X234600761Y-79538095D01*
X202771333Y-79252380D02*
X202771333Y-79966666D01*
X202818952Y-80109523D01*
X202914190Y-80204761D01*
X203057047Y-80252380D01*
X203152285Y-80252380D01*
X201771333Y-80252380D02*
X202342761Y-80252380D01*
X202057047Y-80252380D02*
X202057047Y-79252380D01*
X202152285Y-79395238D01*
X202247523Y-79490476D01*
X202342761Y-79538095D01*
X261191333Y-63460380D02*
X261191333Y-64174666D01*
X261238952Y-64317523D01*
X261334190Y-64412761D01*
X261477047Y-64460380D01*
X261572285Y-64460380D01*
X260810380Y-63460380D02*
X260191333Y-63460380D01*
X260524666Y-63841333D01*
X260381809Y-63841333D01*
X260286571Y-63888952D01*
X260238952Y-63936571D01*
X260191333Y-64031809D01*
X260191333Y-64269904D01*
X260238952Y-64365142D01*
X260286571Y-64412761D01*
X260381809Y-64460380D01*
X260667523Y-64460380D01*
X260762761Y-64412761D01*
X260810380Y-64365142D01*
X228933333Y-63460380D02*
X228933333Y-64174666D01*
X228980952Y-64317523D01*
X229076190Y-64412761D01*
X229219047Y-64460380D01*
X229314285Y-64460380D01*
X228552380Y-63460380D02*
X227933333Y-63460380D01*
X228266666Y-63841333D01*
X228123809Y-63841333D01*
X228028571Y-63888952D01*
X227980952Y-63936571D01*
X227933333Y-64031809D01*
X227933333Y-64269904D01*
X227980952Y-64365142D01*
X228028571Y-64412761D01*
X228123809Y-64460380D01*
X228409523Y-64460380D01*
X228504761Y-64412761D01*
X228552380Y-64365142D01*
X230457333Y-60964380D02*
X230457333Y-61678666D01*
X230504952Y-61821523D01*
X230600190Y-61916761D01*
X230743047Y-61964380D01*
X230838285Y-61964380D01*
X230028761Y-61059619D02*
X229981142Y-61012000D01*
X229885904Y-60964380D01*
X229647809Y-60964380D01*
X229552571Y-61012000D01*
X229504952Y-61059619D01*
X229457333Y-61154857D01*
X229457333Y-61250095D01*
X229504952Y-61392952D01*
X230076380Y-61964380D01*
X229457333Y-61964380D01*
X208248238Y-57185619D02*
X208343476Y-57138000D01*
X208438714Y-57042761D01*
X208581571Y-56899904D01*
X208676809Y-56852285D01*
X208772047Y-56852285D01*
X208724428Y-57090380D02*
X208819666Y-57042761D01*
X208914904Y-56947523D01*
X208962523Y-56757047D01*
X208962523Y-56423714D01*
X208914904Y-56233238D01*
X208819666Y-56138000D01*
X208724428Y-56090380D01*
X208533952Y-56090380D01*
X208438714Y-56138000D01*
X208343476Y-56233238D01*
X208295857Y-56423714D01*
X208295857Y-56757047D01*
X208343476Y-56947523D01*
X208438714Y-57042761D01*
X208533952Y-57090380D01*
X208724428Y-57090380D01*
X207343476Y-57090380D02*
X207914904Y-57090380D01*
X207629190Y-57090380D02*
X207629190Y-56090380D01*
X207724428Y-56233238D01*
X207819666Y-56328476D01*
X207914904Y-56376095D01*
X202771333Y-60710380D02*
X202771333Y-61424666D01*
X202818952Y-61567523D01*
X202914190Y-61662761D01*
X203057047Y-61710380D01*
X203152285Y-61710380D01*
X201771333Y-61710380D02*
X202342761Y-61710380D01*
X202057047Y-61710380D02*
X202057047Y-60710380D01*
X202152285Y-60853238D01*
X202247523Y-60948476D01*
X202342761Y-60996095D01*
X228933333Y-44918380D02*
X228933333Y-45632666D01*
X228980952Y-45775523D01*
X229076190Y-45870761D01*
X229219047Y-45918380D01*
X229314285Y-45918380D01*
X228552380Y-44918380D02*
X227933333Y-44918380D01*
X228266666Y-45299333D01*
X228123809Y-45299333D01*
X228028571Y-45346952D01*
X227980952Y-45394571D01*
X227933333Y-45489809D01*
X227933333Y-45727904D01*
X227980952Y-45823142D01*
X228028571Y-45870761D01*
X228123809Y-45918380D01*
X228409523Y-45918380D01*
X228504761Y-45870761D01*
X228552380Y-45823142D01*
X261191333Y-44918380D02*
X261191333Y-45632666D01*
X261238952Y-45775523D01*
X261334190Y-45870761D01*
X261477047Y-45918380D01*
X261572285Y-45918380D01*
X260810380Y-44918380D02*
X260191333Y-44918380D01*
X260524666Y-45299333D01*
X260381809Y-45299333D01*
X260286571Y-45346952D01*
X260238952Y-45394571D01*
X260191333Y-45489809D01*
X260191333Y-45727904D01*
X260238952Y-45823142D01*
X260286571Y-45870761D01*
X260381809Y-45918380D01*
X260667523Y-45918380D01*
X260762761Y-45870761D01*
X260810380Y-45823142D01*
X235029333Y-60710380D02*
X235029333Y-61424666D01*
X235076952Y-61567523D01*
X235172190Y-61662761D01*
X235315047Y-61710380D01*
X235410285Y-61710380D01*
X234029333Y-61710380D02*
X234600761Y-61710380D01*
X234315047Y-61710380D02*
X234315047Y-60710380D01*
X234410285Y-60853238D01*
X234505523Y-60948476D01*
X234600761Y-60996095D01*
X240506238Y-57185619D02*
X240601476Y-57138000D01*
X240696714Y-57042761D01*
X240839571Y-56899904D01*
X240934809Y-56852285D01*
X241030047Y-56852285D01*
X240982428Y-57090380D02*
X241077666Y-57042761D01*
X241172904Y-56947523D01*
X241220523Y-56757047D01*
X241220523Y-56423714D01*
X241172904Y-56233238D01*
X241077666Y-56138000D01*
X240982428Y-56090380D01*
X240791952Y-56090380D01*
X240696714Y-56138000D01*
X240601476Y-56233238D01*
X240553857Y-56423714D01*
X240553857Y-56757047D01*
X240601476Y-56947523D01*
X240696714Y-57042761D01*
X240791952Y-57090380D01*
X240982428Y-57090380D01*
X239601476Y-57090380D02*
X240172904Y-57090380D01*
X239887190Y-57090380D02*
X239887190Y-56090380D01*
X239982428Y-56233238D01*
X240077666Y-56328476D01*
X240172904Y-56376095D01*
X262715333Y-60964380D02*
X262715333Y-61678666D01*
X262762952Y-61821523D01*
X262858190Y-61916761D01*
X263001047Y-61964380D01*
X263096285Y-61964380D01*
X262286761Y-61059619D02*
X262239142Y-61012000D01*
X262143904Y-60964380D01*
X261905809Y-60964380D01*
X261810571Y-61012000D01*
X261762952Y-61059619D01*
X261715333Y-61154857D01*
X261715333Y-61250095D01*
X261762952Y-61392952D01*
X262334380Y-61964380D01*
X261715333Y-61964380D01*
M02*
