G04 #@! TF.GenerationSoftware,KiCad,Pcbnew,5.1.9-73d0e3b20d~88~ubuntu20.04.1*
G04 #@! TF.CreationDate,2021-04-15T15:02:38+02:00*
G04 #@! TF.ProjectId,Switch3Vx,53776974-6368-4335-9678-2e6b69636164,rev?*
G04 #@! TF.SameCoordinates,Original*
G04 #@! TF.FileFunction,Copper,L1,Top*
G04 #@! TF.FilePolarity,Positive*
%FSLAX46Y46*%
G04 Gerber Fmt 4.6, Leading zero omitted, Abs format (unit mm)*
G04 Created by KiCad (PCBNEW 5.1.9-73d0e3b20d~88~ubuntu20.04.1) date 2021-04-15 15:02:38*
%MOMM*%
%LPD*%
G01*
G04 APERTURE LIST*
G04 #@! TA.AperFunction,SMDPad,CuDef*
%ADD10R,1.550000X1.300000*%
G04 #@! TD*
G04 #@! TA.AperFunction,ComponentPad*
%ADD11C,1.000000*%
G04 #@! TD*
G04 #@! TA.AperFunction,ComponentPad*
%ADD12R,1.000000X1.000000*%
G04 #@! TD*
G04 #@! TA.AperFunction,ComponentPad*
%ADD13R,1.700000X1.700000*%
G04 #@! TD*
G04 #@! TA.AperFunction,ComponentPad*
%ADD14O,1.700000X1.700000*%
G04 #@! TD*
G04 #@! TA.AperFunction,ComponentPad*
%ADD15R,1.800000X1.800000*%
G04 #@! TD*
G04 #@! TA.AperFunction,ComponentPad*
%ADD16C,1.800000*%
G04 #@! TD*
G04 #@! TA.AperFunction,SMDPad,CuDef*
%ADD17R,0.900000X0.800000*%
G04 #@! TD*
G04 #@! TA.AperFunction,SMDPad,CuDef*
%ADD18R,2.000000X3.800000*%
G04 #@! TD*
G04 #@! TA.AperFunction,SMDPad,CuDef*
%ADD19R,2.000000X1.500000*%
G04 #@! TD*
G04 #@! TA.AperFunction,ViaPad*
%ADD20C,0.800000*%
G04 #@! TD*
G04 #@! TA.AperFunction,Conductor*
%ADD21C,1.500000*%
G04 #@! TD*
G04 #@! TA.AperFunction,Conductor*
%ADD22C,1.000000*%
G04 #@! TD*
G04 #@! TA.AperFunction,Conductor*
%ADD23C,0.800000*%
G04 #@! TD*
G04 #@! TA.AperFunction,Conductor*
%ADD24C,0.500000*%
G04 #@! TD*
G04 APERTURE END LIST*
D10*
X49238000Y-93309000D03*
X49238000Y-88809000D03*
X57188000Y-88809000D03*
X57188000Y-93309000D03*
D11*
X41529000Y-96520000D03*
X40259000Y-97790000D03*
D12*
X42799000Y-97790000D03*
D13*
X63500000Y-96774000D03*
D14*
X63500000Y-94234000D03*
X63500000Y-91694000D03*
X63500000Y-89154000D03*
X63500000Y-86614000D03*
G04 #@! TA.AperFunction,SMDPad,CuDef*
G36*
G01*
X38059000Y-92065000D02*
X38059000Y-90815000D01*
G75*
G02*
X38309000Y-90565000I250000J0D01*
G01*
X39234000Y-90565000D01*
G75*
G02*
X39484000Y-90815000I0J-250000D01*
G01*
X39484000Y-92065000D01*
G75*
G02*
X39234000Y-92315000I-250000J0D01*
G01*
X38309000Y-92315000D01*
G75*
G02*
X38059000Y-92065000I0J250000D01*
G01*
G37*
G04 #@! TD.AperFunction*
G04 #@! TA.AperFunction,SMDPad,CuDef*
G36*
G01*
X41034000Y-92065000D02*
X41034000Y-90815000D01*
G75*
G02*
X41284000Y-90565000I250000J0D01*
G01*
X42209000Y-90565000D01*
G75*
G02*
X42459000Y-90815000I0J-250000D01*
G01*
X42459000Y-92065000D01*
G75*
G02*
X42209000Y-92315000I-250000J0D01*
G01*
X41284000Y-92315000D01*
G75*
G02*
X41034000Y-92065000I0J250000D01*
G01*
G37*
G04 #@! TD.AperFunction*
G04 #@! TA.AperFunction,SMDPad,CuDef*
G36*
G01*
X59827000Y-91961000D02*
X61077000Y-91961000D01*
G75*
G02*
X61327000Y-92211000I0J-250000D01*
G01*
X61327000Y-93136000D01*
G75*
G02*
X61077000Y-93386000I-250000J0D01*
G01*
X59827000Y-93386000D01*
G75*
G02*
X59577000Y-93136000I0J250000D01*
G01*
X59577000Y-92211000D01*
G75*
G02*
X59827000Y-91961000I250000J0D01*
G01*
G37*
G04 #@! TD.AperFunction*
G04 #@! TA.AperFunction,SMDPad,CuDef*
G36*
G01*
X59827000Y-88986000D02*
X61077000Y-88986000D01*
G75*
G02*
X61327000Y-89236000I0J-250000D01*
G01*
X61327000Y-90161000D01*
G75*
G02*
X61077000Y-90411000I-250000J0D01*
G01*
X59827000Y-90411000D01*
G75*
G02*
X59577000Y-90161000I0J250000D01*
G01*
X59577000Y-89236000D01*
G75*
G02*
X59827000Y-88986000I250000J0D01*
G01*
G37*
G04 #@! TD.AperFunction*
G04 #@! TA.AperFunction,SMDPad,CuDef*
G36*
G01*
X56398000Y-82890000D02*
X57648000Y-82890000D01*
G75*
G02*
X57898000Y-83140000I0J-250000D01*
G01*
X57898000Y-84065000D01*
G75*
G02*
X57648000Y-84315000I-250000J0D01*
G01*
X56398000Y-84315000D01*
G75*
G02*
X56148000Y-84065000I0J250000D01*
G01*
X56148000Y-83140000D01*
G75*
G02*
X56398000Y-82890000I250000J0D01*
G01*
G37*
G04 #@! TD.AperFunction*
G04 #@! TA.AperFunction,SMDPad,CuDef*
G36*
G01*
X56398000Y-85865000D02*
X57648000Y-85865000D01*
G75*
G02*
X57898000Y-86115000I0J-250000D01*
G01*
X57898000Y-87040000D01*
G75*
G02*
X57648000Y-87290000I-250000J0D01*
G01*
X56398000Y-87290000D01*
G75*
G02*
X56148000Y-87040000I0J250000D01*
G01*
X56148000Y-86115000D01*
G75*
G02*
X56398000Y-85865000I250000J0D01*
G01*
G37*
G04 #@! TD.AperFunction*
D15*
X54610000Y-85344000D03*
D16*
X52070000Y-85344000D03*
D13*
X35814000Y-96520000D03*
D14*
X35814000Y-93980000D03*
X35814000Y-91440000D03*
X35814000Y-88900000D03*
X35814000Y-86360000D03*
D13*
X60071000Y-83947000D03*
D14*
X60071000Y-86487000D03*
D17*
X45228000Y-97028000D03*
X47228000Y-96078000D03*
X47228000Y-97978000D03*
G04 #@! TA.AperFunction,SMDPad,CuDef*
G36*
G01*
X38186000Y-94605000D02*
X38186000Y-93355000D01*
G75*
G02*
X38436000Y-93105000I250000J0D01*
G01*
X39361000Y-93105000D01*
G75*
G02*
X39611000Y-93355000I0J-250000D01*
G01*
X39611000Y-94605000D01*
G75*
G02*
X39361000Y-94855000I-250000J0D01*
G01*
X38436000Y-94855000D01*
G75*
G02*
X38186000Y-94605000I0J250000D01*
G01*
G37*
G04 #@! TD.AperFunction*
G04 #@! TA.AperFunction,SMDPad,CuDef*
G36*
G01*
X41161000Y-94605000D02*
X41161000Y-93355000D01*
G75*
G02*
X41411000Y-93105000I250000J0D01*
G01*
X42336000Y-93105000D01*
G75*
G02*
X42586000Y-93355000I0J-250000D01*
G01*
X42586000Y-94605000D01*
G75*
G02*
X42336000Y-94855000I-250000J0D01*
G01*
X41411000Y-94855000D01*
G75*
G02*
X41161000Y-94605000I0J250000D01*
G01*
G37*
G04 #@! TD.AperFunction*
G04 #@! TA.AperFunction,SMDPad,CuDef*
G36*
G01*
X57576000Y-98161000D02*
X57576000Y-96911000D01*
G75*
G02*
X57826000Y-96661000I250000J0D01*
G01*
X58751000Y-96661000D01*
G75*
G02*
X59001000Y-96911000I0J-250000D01*
G01*
X59001000Y-98161000D01*
G75*
G02*
X58751000Y-98411000I-250000J0D01*
G01*
X57826000Y-98411000D01*
G75*
G02*
X57576000Y-98161000I0J250000D01*
G01*
G37*
G04 #@! TD.AperFunction*
G04 #@! TA.AperFunction,SMDPad,CuDef*
G36*
G01*
X54601000Y-98161000D02*
X54601000Y-96911000D01*
G75*
G02*
X54851000Y-96661000I250000J0D01*
G01*
X55776000Y-96661000D01*
G75*
G02*
X56026000Y-96911000I0J-250000D01*
G01*
X56026000Y-98161000D01*
G75*
G02*
X55776000Y-98411000I-250000J0D01*
G01*
X54851000Y-98411000D01*
G75*
G02*
X54601000Y-98161000I0J250000D01*
G01*
G37*
G04 #@! TD.AperFunction*
G04 #@! TA.AperFunction,SMDPad,CuDef*
G36*
G01*
X49774000Y-87322000D02*
X48524000Y-87322000D01*
G75*
G02*
X48274000Y-87072000I0J250000D01*
G01*
X48274000Y-86147000D01*
G75*
G02*
X48524000Y-85897000I250000J0D01*
G01*
X49774000Y-85897000D01*
G75*
G02*
X50024000Y-86147000I0J-250000D01*
G01*
X50024000Y-87072000D01*
G75*
G02*
X49774000Y-87322000I-250000J0D01*
G01*
G37*
G04 #@! TD.AperFunction*
G04 #@! TA.AperFunction,SMDPad,CuDef*
G36*
G01*
X49774000Y-84347000D02*
X48524000Y-84347000D01*
G75*
G02*
X48274000Y-84097000I0J250000D01*
G01*
X48274000Y-83172000D01*
G75*
G02*
X48524000Y-82922000I250000J0D01*
G01*
X49774000Y-82922000D01*
G75*
G02*
X50024000Y-83172000I0J-250000D01*
G01*
X50024000Y-84097000D01*
G75*
G02*
X49774000Y-84347000I-250000J0D01*
G01*
G37*
G04 #@! TD.AperFunction*
G04 #@! TA.AperFunction,SMDPad,CuDef*
G36*
G01*
X43571000Y-93394500D02*
X44821000Y-93394500D01*
G75*
G02*
X45071000Y-93644500I0J-250000D01*
G01*
X45071000Y-94569500D01*
G75*
G02*
X44821000Y-94819500I-250000J0D01*
G01*
X43571000Y-94819500D01*
G75*
G02*
X43321000Y-94569500I0J250000D01*
G01*
X43321000Y-93644500D01*
G75*
G02*
X43571000Y-93394500I250000J0D01*
G01*
G37*
G04 #@! TD.AperFunction*
G04 #@! TA.AperFunction,SMDPad,CuDef*
G36*
G01*
X43571000Y-90419500D02*
X44821000Y-90419500D01*
G75*
G02*
X45071000Y-90669500I0J-250000D01*
G01*
X45071000Y-91594500D01*
G75*
G02*
X44821000Y-91844500I-250000J0D01*
G01*
X43571000Y-91844500D01*
G75*
G02*
X43321000Y-91594500I0J250000D01*
G01*
X43321000Y-90669500D01*
G75*
G02*
X43571000Y-90419500I250000J0D01*
G01*
G37*
G04 #@! TD.AperFunction*
D18*
X39268000Y-86487000D03*
D19*
X45568000Y-86487000D03*
X45568000Y-84187000D03*
X45568000Y-88787000D03*
D20*
X47371000Y-93091000D03*
X47244000Y-86487000D03*
X47371000Y-90424000D03*
X52705000Y-91694000D03*
X52705000Y-97028000D03*
X50927000Y-95504000D03*
D21*
X38989000Y-96520000D02*
X40259000Y-97790000D01*
X35814000Y-96520000D02*
X37846000Y-96520000D01*
X37846000Y-96520000D02*
X38989000Y-96520000D01*
D22*
X63500000Y-89154000D02*
X63500000Y-91694000D01*
X43888000Y-91440000D02*
X44196000Y-91132000D01*
X41746500Y-91440000D02*
X43888000Y-91440000D01*
X44196000Y-90159000D02*
X45568000Y-88787000D01*
X44196000Y-91132000D02*
X44196000Y-90159000D01*
X47228000Y-93234000D02*
X47371000Y-93091000D01*
X47228000Y-96078000D02*
X47228000Y-93234000D01*
X59816500Y-93309000D02*
X60452000Y-92673500D01*
X57188000Y-93309000D02*
X59816500Y-93309000D01*
X60452000Y-92673500D02*
X61123500Y-92673500D01*
X62103000Y-91694000D02*
X63500000Y-91694000D01*
X61123500Y-92673500D02*
X62103000Y-91694000D01*
X47589000Y-93309000D02*
X47371000Y-93091000D01*
X49238000Y-93309000D02*
X47589000Y-93309000D01*
X49238000Y-93309000D02*
X57188000Y-93309000D01*
D23*
X47371000Y-93091000D02*
X45974000Y-91694000D01*
X44758000Y-91694000D02*
X44196000Y-91132000D01*
X45974000Y-91694000D02*
X44758000Y-91694000D01*
D22*
X39141000Y-86360000D02*
X39268000Y-86487000D01*
D21*
X35814000Y-86360000D02*
X39141000Y-86360000D01*
X45568000Y-86487000D02*
X47244000Y-86487000D01*
D22*
X38771500Y-86983500D02*
X39268000Y-86487000D01*
X38771500Y-91440000D02*
X38771500Y-86983500D01*
X45568000Y-86487000D02*
X39268000Y-86487000D01*
X62738000Y-97536000D02*
X63500000Y-96774000D01*
X58288500Y-97536000D02*
X62738000Y-97536000D01*
D21*
X48258000Y-90424000D02*
X49365000Y-89317000D01*
X47371000Y-90424000D02*
X48258000Y-90424000D01*
D22*
X58077500Y-89698500D02*
X57188000Y-88809000D01*
X60452000Y-89698500D02*
X58077500Y-89698500D01*
X48846000Y-84187000D02*
X48895000Y-84138000D01*
D21*
X45568000Y-84187000D02*
X48846000Y-84187000D01*
D22*
X48895000Y-84138000D02*
X49466000Y-84138000D01*
X59865000Y-83741000D02*
X59690000Y-83566000D01*
X62309000Y-83741000D02*
X59865000Y-83741000D01*
X49585000Y-83336000D02*
X49149000Y-83772000D01*
X63500000Y-86614000D02*
X63500000Y-83820000D01*
X62388000Y-83820000D02*
X62309000Y-83741000D01*
X63500000Y-83820000D02*
X62388000Y-83820000D01*
X49149000Y-83185000D02*
X49287990Y-83046010D01*
X49149000Y-83634500D02*
X49149000Y-83185000D01*
X56593510Y-83046010D02*
X57150000Y-83602500D01*
X49287990Y-83046010D02*
X56593510Y-83046010D01*
X59599500Y-83602500D02*
X59817000Y-83820000D01*
X57150000Y-83602500D02*
X59599500Y-83602500D01*
X54967000Y-86336000D02*
X54737000Y-86106000D01*
X57126000Y-86106000D02*
X56896000Y-86336000D01*
X56896000Y-86336000D02*
X54967000Y-86336000D01*
X59690000Y-86106000D02*
X57126000Y-86106000D01*
X54610000Y-85344000D02*
X54610000Y-89789000D01*
X54610000Y-89789000D02*
X52705000Y-91694000D01*
X52705000Y-91694000D02*
X52705000Y-91694000D01*
X52705000Y-91694000D02*
X52705000Y-91694000D01*
D23*
X45228000Y-98228000D02*
X46314000Y-99314000D01*
X46314000Y-99314000D02*
X50419000Y-99314000D01*
X50419000Y-99314000D02*
X52705000Y-97028000D01*
X52705000Y-97028000D02*
X52705000Y-97028000D01*
X45228000Y-97933000D02*
X45228000Y-98228000D01*
D22*
X42799000Y-97790000D02*
X45117000Y-97790000D01*
X45117000Y-97790000D02*
X45228000Y-97679000D01*
D23*
X45228000Y-97679000D02*
X45228000Y-97933000D01*
X45228000Y-97028000D02*
X45228000Y-97679000D01*
D22*
X51831000Y-86472000D02*
X52197000Y-86106000D01*
X49149000Y-86472000D02*
X51831000Y-86472000D01*
D23*
X57087000Y-95250000D02*
X54801000Y-97536000D01*
X61722000Y-95250000D02*
X57087000Y-95250000D01*
X62738000Y-94234000D02*
X61722000Y-95250000D01*
X63500000Y-94234000D02*
X62738000Y-94234000D01*
X50927000Y-95504000D02*
X54483000Y-95504000D01*
X55313500Y-96334500D02*
X55313500Y-97536000D01*
X54483000Y-95504000D02*
X55313500Y-96334500D01*
D22*
X41529000Y-96520000D02*
X41529000Y-96266000D01*
X41529000Y-94324500D02*
X41873500Y-93980000D01*
X41529000Y-96520000D02*
X41529000Y-94324500D01*
X44069000Y-93980000D02*
X44196000Y-94107000D01*
X41873500Y-93980000D02*
X44069000Y-93980000D01*
D24*
X46277990Y-96188990D02*
X44196000Y-94107000D01*
X46277990Y-97027990D02*
X46277990Y-96188990D01*
X47228000Y-97978000D02*
X46277990Y-97027990D01*
D22*
X38898500Y-93980000D02*
X35814000Y-93980000D01*
M02*
